<?xml version="1.0" encoding="utf-8"?>
<!-- Generated by IcoMoon.io -->
<!DOCTYPE svg PUBLIC "-//W3C//DTD SVG 1.1//EN" "http://www.w3.org/Graphics/SVG/1.1/DTD/svg11.dtd">
<svg version="1.1" xmlns="http://www.w3.org/2000/svg" xmlns:xlink="http://www.w3.org/1999/xlink" width="32" height="32" viewBox="0 0 32 32">
<path fill="#444444" d="M32 21.97l-3.090 2.060-5.91-8.030h-9v-2h8v-4h-8v-2l-4-1v13h11l6.535 8.714 6.238-4.159z"></path>
<path fill="#444444" d="M16 3c0 1.657-1.343 3-3 3s-3-1.343-3-3c0-1.657 1.343-3 3-3s3 1.343 3 3z"></path>
<path fill="#444444" d="M21.219 24.697c-1.806 2.6-4.813 4.303-8.219 4.303-5.523 0-10-4.477-10-10 0-3.873 2.202-7.232 5.423-8.893l-1.956-2.348c-3.867 2.253-6.466 6.443-6.466 11.241 0 7.18 5.82 13 13 13 4.192 0 7.92-1.985 10.297-5.065l-2.078-2.238z"></path>
</svg>
