<?xml version="1.0" encoding="utf-8"?>
<!-- Generated by IcoMoon.io -->
<!DOCTYPE svg PUBLIC "-//W3C//DTD SVG 1.1//EN" "http://www.w3.org/Graphics/SVG/1.1/DTD/svg11.dtd">
<svg version="1.1" xmlns="http://www.w3.org/2000/svg" xmlns:xlink="http://www.w3.org/1999/xlink" width="32" height="32" viewBox="0 0 32 32">
<path fill="#444444" d="M27 2h-22c-0.552 0-1 0.448-1 1v3h-2c-1.105 0-2 0.895-2 2s0.895 2 2 2h2v2h-2c-1.105 0-2 0.895-2 2s0.895 2 2 2h2v2h-2c-1.105 0-2 0.895-2 2s0.895 2 2 2h2v2h-2c-1.105 0-2 0.895-2 2s0.895 2 2 2h2v3c0 0.552 0.448 1 1 1h22c1.654 0 3-1.346 3-3v-24c0-1.654-1.346-3-3-3zM10 30h-4v-2c1.105 0 2-0.895 2-2s-0.895-2-2-2v-2c1.105 0 2-0.895 2-2s-0.895-2-2-2v-2c1.105 0 2-0.895 2-2s-0.895-2-2-2v-2c1.105 0 2-0.895 2-2s-0.895-2-2-2v-2h4v26zM24 12h-3.221c-0.503 1.386-0.779 3.151-0.779 5s0.276 3.614 0.779 5h3.221v6h-2c-1.055 0-2.071-0.435-2.936-1.259-0.667-0.635-1.246-1.498-1.72-2.565-0.867-1.95-1.344-4.499-1.344-7.176s0.477-5.226 1.344-7.176c0.474-1.067 1.053-1.93 1.72-2.565 0.865-0.823 1.88-1.258 2.936-1.258h2v6z"></path>
</svg>
