<?xml version="1.0" encoding="utf-8"?>
<!-- Generated by IcoMoon.io -->
<!DOCTYPE svg PUBLIC "-//W3C//DTD SVG 1.1//EN" "http://www.w3.org/Graphics/SVG/1.1/DTD/svg11.dtd">
<svg version="1.1" xmlns="http://www.w3.org/2000/svg" xmlns:xlink="http://www.w3.org/1999/xlink" width="32" height="32" viewBox="0 0 32 32">
<path fill="#444444" d="M16 6c-1.105 0-2-0.895-2-2v-2c0-1.105 0.895-2 2-2s2 0.895 2 2v2c0 1.105-0.895 2-2 2z"></path>
<path fill="#444444" d="M25 22h-1v-6c0-4.418-3.582-8-8-8s-8 3.582-8 8v6h-1c-0.552 0-1 0.448-1 1v4c0 0.552 0.448 1 1 1h18c0.552 0 1-0.448 1-1v-4c0-0.552-0.448-1-1-1z"></path>
<path fill="#444444" d="M27 32h-22c-0.552 0-1-0.448-1-1s0.448-1 1-1h22c0.552 0 1 0.448 1 1s-0.448 1-1 1z"></path>
<path fill="#444444" d="M6 8c-0.512 0-1.024-0.195-1.414-0.586l-2-2c-0.781-0.781-0.781-2.047 0-2.828s2.047-0.781 2.828 0l2 2c0.781 0.781 0.781 2.047 0 2.828-0.391 0.391-0.902 0.586-1.414 0.586z"></path>
<path fill="#444444" d="M4 18h-2c-1.105 0-2-0.895-2-2s0.895-2 2-2h2c1.105 0 2 0.895 2 2s-0.895 2-2 2z"></path>
<path fill="#444444" d="M26 8c-0.512 0-1.024-0.195-1.414-0.586-0.781-0.781-0.781-2.047 0-2.828l2-2c0.781-0.781 2.047-0.781 2.828 0s0.781 2.047 0 2.828l-2 2c-0.39 0.391-0.902 0.586-1.414 0.586z"></path>
<path fill="#444444" d="M30 18h-2c-1.105 0-2-0.895-2-2s0.895-2 2-2h2c1.105 0 2 0.895 2 2s-0.895 2-2 2z"></path>
</svg>
