<?xml version="1.0" encoding="utf-8"?>
<!-- Generated by IcoMoon.io -->
<!DOCTYPE svg PUBLIC "-//W3C//DTD SVG 1.1//EN" "http://www.w3.org/Graphics/SVG/1.1/DTD/svg11.dtd">
<svg version="1.1" xmlns="http://www.w3.org/2000/svg" xmlns:xlink="http://www.w3.org/1999/xlink" width="32" height="32" viewBox="0 0 32 32">
<path fill="#444444" d="M29 8h-26c-0.55 0-1 0.45-1 1v22c0 0.55 0.45 1 1 1h26c0.55 0 1-0.45 1-1v-22c0-0.55-0.45-1-1-1zM24 25c0 1.657-1.791 3-4 3s-4-1.343-4-3 1.791-3 4-3c0.729 0 1.412 0.147 2 0.402v-5.831l-8 2.857v7.571c0 1.657-1.791 3-4 3s-4-1.343-4-3 1.791-3 4-3c0.729 0 1.412 0.147 2 0.402v-8.402l12-4v13z"></path>
<path fill="#444444" d="M27 6h-22c-0.552 0-1-0.448-1-1s0.448-1 1-1h22c0.552 0 1 0.448 1 1s-0.448 1-1 1z"></path>
<path fill="#444444" d="M25 2h-18c-0.552 0-1-0.448-1-1s0.448-1 1-1h18c0.552 0 1 0.448 1 1s-0.448 1-1 1z"></path>
</svg>
