<?xml version="1.0" encoding="utf-8"?>
<!-- Generated by IcoMoon.io -->
<!DOCTYPE svg PUBLIC "-//W3C//DTD SVG 1.1//EN" "http://www.w3.org/Graphics/SVG/1.1/DTD/svg11.dtd">
<svg version="1.1" xmlns="http://www.w3.org/2000/svg" xmlns:xlink="http://www.w3.org/1999/xlink" width="32" height="32" viewBox="0 0 32 32">
<path fill="#444444" d="M31.894 18.553l-4-8c-0.169-0.339-0.516-0.553-0.894-0.553h-5v-3c0-0.552-0.448-1-1-1h-3v-2h-6v2h-11c-0.552 0-1 0.448-1 1v18c0 0.552 0.448 1 1 1h3.538c-0.341 0.589-0.538 1.272-0.538 2 0 2.206 1.794 4 4 4s4-1.794 4-4c0-0.728-0.197-1.411-0.538-2h11.076c-0.342 0.589-0.538 1.272-0.538 2 0 2.206 1.794 4 4 4s4-1.794 4-4c0-0.728-0.197-1.411-0.538-2h1.538c0.552 0 1-0.448 1-1v-6c0-0.155-0.036-0.308-0.106-0.447zM22 12h4.382l2 4h-6.382v-4zM30 24h-28v-16h18v9c0 0.552 0.448 1 1 1h8.382l0.618 1.236v4.764z"></path>
<path fill="#444444" d="M12 10h-4v4h-4v4h4v4h4v-4h4v-4h-4z"></path>
</svg>
