<?xml version="1.0" encoding="utf-8"?>
<!-- Generated by IcoMoon.io -->
<!DOCTYPE svg PUBLIC "-//W3C//DTD SVG 1.1//EN" "http://www.w3.org/Graphics/SVG/1.1/DTD/svg11.dtd">
<svg version="1.1" xmlns="http://www.w3.org/2000/svg" xmlns:xlink="http://www.w3.org/1999/xlink" width="32" height="32" viewBox="0 0 32 32">
<path fill="#444444" d="M7.742 7.008l-0 0c-0.087-0.154-0.196-0.299-0.327-0.431-0.781-0.781-2.047-0.781-2.828 0-0.131 0.131-0.24 0.277-0.327 0.431l-0-0c-1.586 2.43-2.258 7.032-2.258 11.016v0 12.984c0 0.552 0.448 1 1 1h6c0.552 0 1-0.448 1-1v-12.984c-0-3.984-0.672-8.586-2.258-11.016zM6 29c0 0.552-0.448 1-1 1s-1-0.448-1-1v-12c0-0.552 0.448-1 1-1s1 0.448 1 1v1.008c0 0 0.006 0.006 0.016 0.016h-0.016v10.976z"></path>
<path fill="#444444" d="M17.742 7.008l-0 0c-0.087-0.154-0.196-0.299-0.327-0.431-0.781-0.781-2.047-0.781-2.828 0-0.131 0.131-0.24 0.277-0.327 0.431l-0-0c-1.586 2.43-2.258 7.032-2.258 11.016v0 12.984c0 0.552 0.448 1 1 1h6c0.552 0 1-0.448 1-1v-12.984c-0-3.984-0.673-8.586-2.258-11.016zM16 29c0 0.552-0.448 1-1 1s-1-0.448-1-1v-12c0-0.552 0.448-1 1-1s1 0.448 1 1v1.008c0 0 0.006 0.006 0.016 0.016h-0.016v10.976z"></path>
<path fill="#444444" d="M27.742 7.008l-0 0c-0.087-0.154-0.196-0.299-0.327-0.431-0.781-0.781-2.047-0.781-2.828 0-0.131 0.131-0.24 0.277-0.327 0.431l-0-0c-1.586 2.43-2.258 7.032-2.258 11.016v0 12.984c0 0.552 0.448 1 1 1h6c0.552 0 1-0.448 1-1v-12.984c0-3.984-0.672-8.586-2.258-11.016zM26 29c0 0.552-0.448 1-1 1s-1-0.448-1-1v-12c0-0.552 0.448-1 1-1s1 0.448 1 1v1.008c0 0 0.006 0.006 0.016 0.016h-0.016v10.976z"></path>
</svg>
