<?xml version="1.0" encoding="utf-8"?>
<!-- Generated by IcoMoon.io -->
<!DOCTYPE svg PUBLIC "-//W3C//DTD SVG 1.1//EN" "http://www.w3.org/Graphics/SVG/1.1/DTD/svg11.dtd">
<svg version="1.1" xmlns="http://www.w3.org/2000/svg" xmlns:xlink="http://www.w3.org/1999/xlink" width="32" height="32" viewBox="0 0 32 32">
<path fill="#444444" d="M25.985 14.181c-1.883-0.655-3.933 0.765-3.984 2.768-0.037 0.705 0.68 1.237 1.344 0.993 0.552-0.203 0.548-0.624 0.664-1.098 0.117-0.478 0.476-0.846 0.991-0.854 0.347 0.009 1.020 0.252 1.020 0.985 0.004 1.25-0.765 2.41-1.941 2.861-0.504 0.194-1.093 0.265-1.629 0.155-0.755-0.129-1.14-0.576-1.717-0.949-0.337-0.31-0.729-0.586-1.18-0.818-3.322-1.713-7.946 0.764-7.553 4.751 0.050 0.704 0.829 1.145 1.458 0.823 0.465-0.238 0.483-0.65 0.592-1.092 0.338-1.36 1.497-2.412 2.949-2.343 0.524 0.005 1.362 0.348 1.813 0.824 0.736 0.775 0.792 1.778 0.67 2.776-0.404 3.29-3.036 6.135-6.482 6.057-5.443-0.058-7.649-7.249-4.581-11.217 1.014-1.311 2.456-2.207 4.039-2.662 0.567-0.163 1.294-0.046 1.6-0.671 0.271-0.554-0.054-1.237-0.654-1.377-1.364-0.47-2.56-0.758-3.547-1.916-0.759-0.891-1.181-2.007-1.201-3.177 0.032-2.291 1.833-4.46 4.342-4.693-0.008 0-0.017-0-0.025-0.001 2.776-0.129 5.035 1.914 5.183 4.689 0-0.012 0.001-0.023 0.001-0.035 0.018 0.654-0.473 1.218-1.151 1.207-0.201-0.006-0.359-0.072-0.543-0.162-0.77-0.498-0.158-1.404-0.804-1.954-0.673-0.573-1.737-0.027-1.666 0.853-0.009 0.771 0.391 1.58 0.94 2.104 1.581 1.508 4.351 0.794 4.843-1.435 0.731-3.504-2.292-6.984-5.552-7.717-2.654-0.596-5.473 0.387-7.206 2.488-1.896 2.298-2.222 5.653-0.733 8.245 0.473 0.827 1.114 1.55 1.867 2.12-2.931 1.459-5.024 4.64-5.113 8.002-0.12 4.538 3.281 8.164 7.614 9.050 3.957 0.809 8.336-0.755 10.513-4.25 1.026-1.648 1.504-3.749 1.135-5.607 1.213 0.172 2.478-0.107 3.503-0.806 2.145-1.464 3.476-5.772 0.181-6.919v0z"></path>
</svg>
