<?xml version="1.0" encoding="utf-8"?>
<!-- Generated by IcoMoon.io -->
<!DOCTYPE svg PUBLIC "-//W3C//DTD SVG 1.1//EN" "http://www.w3.org/Graphics/SVG/1.1/DTD/svg11.dtd">
<svg version="1.1" xmlns="http://www.w3.org/2000/svg" xmlns:xlink="http://www.w3.org/1999/xlink" width="32" height="32" viewBox="0 0 32 32">
<path fill="#444444" d="M30 26h-6.092c-0.203-2.264-0.75-4.464-1.638-6.564-1.108-2.62-2.694-4.973-4.714-6.993-0.045-0.045-0.090-0.089-0.135-0.133l3.858-4.715c0.699-0.855 0.573-2.115-0.281-2.814s-2.115-0.573-2.814 0.281l-17.725 21.664c-0.001 0.001-0.001 0.001-0.002 0.002l-0.004 0.004 0 0c-0.282 0.345-0.452 0.786-0.452 1.266 0 1.104 0.895 1.999 1.999 2v0c0.001 0 0.002-0 0.002-0h27.999c1.105 0 2-0.895 2-2s-0.895-2-2-2zM16.149 13.865c3.298 3.301 5.299 7.552 5.751 12.135h-15.68l9.929-12.135z"></path>
</svg>
