<?xml version="1.0" encoding="utf-8"?>
<!-- Generated by IcoMoon.io -->
<!DOCTYPE svg PUBLIC "-//W3C//DTD SVG 1.1//EN" "http://www.w3.org/Graphics/SVG/1.1/DTD/svg11.dtd">
<svg version="1.1" xmlns="http://www.w3.org/2000/svg" xmlns:xlink="http://www.w3.org/1999/xlink" width="32" height="32" viewBox="0 0 32 32">
<path fill="#444444" d="M22.364 23.864c-0.384 0-0.768-0.146-1.061-0.439-0.586-0.586-0.586-1.535 0-2.121 2.924-2.924 2.924-7.682 0-10.607s-7.682-2.924-10.607 0c-1.417 1.417-2.197 3.3-2.197 5.303s0.78 3.887 2.197 5.303c0.586 0.586 0.586 1.535 0 2.121s-1.535 0.586-2.121 0c-1.983-1.983-3.075-4.62-3.075-7.425s1.092-5.441 3.075-7.425c4.094-4.094 10.755-4.094 14.849 0s4.094 10.755 0 14.849c-0.293 0.293-0.677 0.439-1.061 0.439v0z"></path>
<path fill="#444444" d="M26.253 27.753c-0.384 0-0.768-0.146-1.061-0.439-0.586-0.586-0.586-1.535 0-2.121 5.069-5.069 5.069-13.316 0-18.385s-13.316-5.069-18.385 0c-5.069 5.069-5.069 13.316 0 18.385 0.586 0.586 0.586 1.535 0 2.121s-1.535 0.586-2.121 0c-3.022-3.022-4.686-7.040-4.686-11.314s1.664-8.292 4.686-11.314c3.022-3.022 7.040-4.686 11.314-4.686s8.292 1.664 11.314 4.686c3.022 3.022 4.686 7.040 4.686 11.314s-1.664 8.292-4.686 11.314c-0.293 0.293-0.677 0.439-1.061 0.439v0z"></path>
<path fill="#444444" d="M19 30h-1.002l0.002-10.536c1.195-0.692 2-1.983 2-3.464 0-2.209-1.791-4-4-4s-4 1.791-4 4c0 1.48 0.805 2.772 2 3.464l-0.002 10.536h-0.998c-0.552 0-1 0.448-1 1s0.448 1 1 1h6c0.552 0 1-0.448 1-1s-0.448-1-1-1z"></path>
</svg>
