<?xml version="1.0" encoding="utf-8"?>
<!-- Generated by IcoMoon.io -->
<!DOCTYPE svg PUBLIC "-//W3C//DTD SVG 1.1//EN" "http://www.w3.org/Graphics/SVG/1.1/DTD/svg11.dtd">
<svg version="1.1" xmlns="http://www.w3.org/2000/svg" xmlns:xlink="http://www.w3.org/1999/xlink" width="32" height="32" viewBox="0 0 32 32">
<path fill="#444444" d="M27 6h-3v-3c0-0.552-0.448-1-1-1s-1 0.448-1 1v2c0-0.552-0.448-1-1-1s-1 0.448-1 1v3.586l-1.097 1.097c-1.355-1.054-3.057-1.683-4.903-1.683-4.411 0-8 3.589-8 8s3.589 8 8 8c4.411 0 8-3.589 8-8 0-1.846-0.629-3.548-1.683-4.903l1.097-1.097h3.586c0.552 0 1-0.448 1-1s-0.448-1-1-1h2c0.552 0 1-0.448 1-1s-0.448-1-1-1zM20 16c0 3.308-2.692 6-6 6s-6-2.692-6-6 2.692-6 6-6c1.294 0 2.494 0.412 3.475 1.111l-2.957 2.957c-0.165-0.044-0.339-0.068-0.518-0.068-1.105 0-2 0.895-2 2s0.895 2 2 2 2-0.895 2-2c0-0.179-0.024-0.353-0.068-0.518l2.957-2.957c0.699 0.981 1.111 2.181 1.111 3.475z"></path>
<path fill="#444444" d="M26.125 16c0-1.123-0.154-2.235-0.457-3.306-0.169-0.598-0.791-0.945-1.389-0.776s-0.945 0.791-0.776 1.389c0.247 0.872 0.372 1.778 0.372 2.694 0 5.445-4.43 9.875-9.875 9.875s-9.875-4.43-9.875-9.875c0-5.445 4.43-9.875 9.875-9.875 0.916 0 1.822 0.125 2.694 0.372 0.598 0.169 1.22-0.178 1.389-0.776s-0.178-1.22-0.776-1.389c-1.071-0.303-2.184-0.457-3.306-0.457-6.686 0-12.125 5.439-12.125 12.125 0 3.492 1.484 6.642 3.854 8.857l-3.436 3.436c-0.391 0.39-0.391 1.024 0 1.414 0.195 0.195 0.451 0.293 0.707 0.293s0.512-0.098 0.707-0.293l3.601-3.601c1.919 1.275 4.22 2.019 6.692 2.019s4.773-0.744 6.692-2.019l3.601 3.601c0.195 0.195 0.451 0.293 0.707 0.293s0.512-0.098 0.707-0.293c0.391-0.39 0.391-1.024 0-1.414l-3.436-3.436c2.37-2.214 3.854-5.365 3.854-8.857z"></path>
</svg>
