<?xml version="1.0" encoding="utf-8"?>
<!-- Generated by IcoMoon.io -->
<!DOCTYPE svg PUBLIC "-//W3C//DTD SVG 1.1//EN" "http://www.w3.org/Graphics/SVG/1.1/DTD/svg11.dtd">
<svg version="1.1" xmlns="http://www.w3.org/2000/svg" xmlns:xlink="http://www.w3.org/1999/xlink" width="32" height="32" viewBox="0 0 32 32">
<path fill="#444444" d="M30.5 6h-18c-0.825 0-1.977 0.477-2.561 1.061l-8.879 8.879c-0.583 0.583-0.583 1.538 0 2.121l8.879 8.879c0.583 0.583 1.736 1.061 2.561 1.061h18c0.825 0 1.5-0.675 1.5-1.5v-19c0-0.825-0.675-1.5-1.5-1.5zM28 21l-3 3-4-4-4 4-3-3 4-4-4-4 3-3 4 4 4-4 3 3-4 4 4 4z"></path>
</svg>
