<?xml version="1.0" encoding="utf-8"?>
<!-- Generated by IcoMoon.io -->
<!DOCTYPE svg PUBLIC "-//W3C//DTD SVG 1.1//EN" "http://www.w3.org/Graphics/SVG/1.1/DTD/svg11.dtd">
<svg version="1.1" xmlns="http://www.w3.org/2000/svg" xmlns:xlink="http://www.w3.org/1999/xlink" width="32" height="32" viewBox="0 0 32 32">
<path fill="#444444" d="M12 15v-1h-12v1c0 1.657 1.343 3 3 3h6c1.657 0 3-1.343 3-3z"></path>
<path fill="#444444" d="M20 15c0 1.657 1.343 3 3 3h6c1.657 0 3-1.343 3-3v-1h-12v1z"></path>
<path fill="#444444" d="M18 4h6.3l-4.175 7.514c-0.268 0.483-0.094 1.092 0.389 1.36s1.092 0.094 1.36-0.389l4.126-7.426 4.126 7.426c0.183 0.329 0.524 0.514 0.875 0.514 0.164 0 0.331-0.041 0.485-0.126 0.483-0.268 0.657-0.877 0.389-1.36l-5-9c-0.176-0.317-0.511-0.514-0.874-0.514h-8c0-1.105-0.895-2-2-2s-2 0.895-2 2h-8c-0.363 0-0.698 0.197-0.874 0.514l-5 9c-0.268 0.483-0.094 1.092 0.389 1.36s1.092 0.094 1.36-0.389l4.126-7.426 4.126 7.426c0.183 0.329 0.524 0.514 0.875 0.514 0.164 0 0.331-0.041 0.485-0.126 0.483-0.268 0.657-0.877 0.389-1.36l-4.175-7.514h6.301v24l-6 2v2h16v-2l-6-2v-24z"></path>
</svg>
