<?xml version="1.0" encoding="utf-8"?>
<!-- Generated by IcoMoon.io -->
<!DOCTYPE svg PUBLIC "-//W3C//DTD SVG 1.1//EN" "http://www.w3.org/Graphics/SVG/1.1/DTD/svg11.dtd">
<svg version="1.1" xmlns="http://www.w3.org/2000/svg" xmlns:xlink="http://www.w3.org/1999/xlink" width="34" height="32" viewBox="0 0 34 32">
<path fill="#444444" d="M33 14h-2v8h2c0.552 0 1-0.448 1-1v-6c0-0.552-0.448-1-1-1z"></path>
<path fill="#444444" d="M28 8h-7.245l-0.982 2h8.227v16h-11.548l-1.625 2h13.173c1.1 0 2-0.9 2-2v-16c0-1.1-0.9-2-2-2z"></path>
<path fill="#444444" d="M9.87 26h-7.87v-16h11.439l1.6-2h-13.039c-1.1 0-2 0.9-2 2v16c0 1.1 0.9 2 2 2h6.828l1.042-2z"></path>
<path fill="#444444" d="M22 16h-7.4l5.4-11-12 15h7.25l-6.25 12z"></path>
</svg>
