<?xml version="1.0" encoding="utf-8"?>
<!-- Generated by IcoMoon.io -->
<!DOCTYPE svg PUBLIC "-//W3C//DTD SVG 1.1//EN" "http://www.w3.org/Graphics/SVG/1.1/DTD/svg11.dtd">
<svg version="1.1" xmlns="http://www.w3.org/2000/svg" xmlns:xlink="http://www.w3.org/1999/xlink" width="32" height="32" viewBox="0 0 32 32">
<path fill="#444444" d="M30 10c-1.105 0-2 0.895-2 2v6h-21c-1.657 0-3-1.343-3-3v-9c0-1.105-0.895-2-2-2s-2 0.895-2 2v20h4v-4h24v4h4v-14c0-1.105-0.895-2-2-2z"></path>
<path fill="#444444" d="M11 13.5c0 1.933-1.567 3.5-3.5 3.5s-3.5-1.567-3.5-3.5c0-1.933 1.567-3.5 3.5-3.5s3.5 1.567 3.5 3.5z"></path>
<path fill="#444444" d="M25 12h-10c-1.657 0-3 1.343-3 3v2h16v-2c0-1.657-1.343-3-3-3z"></path>
</svg>
