<?xml version="1.0" encoding="utf-8"?>
<!-- Generated by IcoMoon.io -->
<!DOCTYPE svg PUBLIC "-//W3C//DTD SVG 1.1//EN" "http://www.w3.org/Graphics/SVG/1.1/DTD/svg11.dtd">
<svg version="1.1" xmlns="http://www.w3.org/2000/svg" xmlns:xlink="http://www.w3.org/1999/xlink" width="32" height="32" viewBox="0 0 32 32">
<path fill="#444444" d="M32 26c-3.314 0-6-2.686-6-6v-8.909c0-4.398-3.436-8.066-8-8.909v-2.182h-4v2.182c-4.564 0.842-8 4.511-8 8.909v8.909c0 3.314-2.686 6-6 6v2h13.425c-0.163 0.357-0.253 0.754-0.253 1.172 0 1.562 1.266 2.828 2.829 2.828s2.828-1.266 2.828-2.828c0-0.418-0.091-0.815-0.253-1.172h13.425v-2z"></path>
<path fill="#444444" d="M30.966 12c-0.522 0-0.962-0.406-0.997-0.934-0.235-3.574-1.816-6.888-4.451-9.332-0.405-0.376-0.429-1.008-0.053-1.413s1.008-0.429 1.413-0.053c3.011 2.793 4.818 6.582 5.087 10.667 0.036 0.551-0.381 1.027-0.932 1.063-0.022 0.002-0.045 0.002-0.067 0.002z"></path>
<path fill="#444444" d="M1.034 12c-0.022 0-0.044-0.001-0.067-0.002-0.551-0.036-0.968-0.512-0.932-1.063 0.269-4.086 2.075-7.874 5.087-10.668 0.405-0.376 1.038-0.352 1.413 0.053s0.352 1.038-0.053 1.413c-2.635 2.444-4.216 5.758-4.451 9.332-0.035 0.529-0.475 0.934-0.997 0.934z"></path>
</svg>
