<?xml version="1.0" encoding="utf-8"?>
<!-- Generated by IcoMoon.io -->
<!DOCTYPE svg PUBLIC "-//W3C//DTD SVG 1.1//EN" "http://www.w3.org/Graphics/SVG/1.1/DTD/svg11.dtd">
<svg version="1.1" xmlns="http://www.w3.org/2000/svg" xmlns:xlink="http://www.w3.org/1999/xlink" width="32" height="32" viewBox="0 0 32 32">
<path fill="#444444" d="M12 14h2v2h-2v-2z"></path>
<path fill="#444444" d="M16 14h2v2h-2v-2z"></path>
<path fill="#444444" d="M18 20h2v2h-2v-2z"></path>
<path fill="#444444" d="M18 16h2v2h-2v-2z"></path>
<path fill="#444444" d="M20 14h2v2h-2v-2z"></path>
<path fill="#444444" d="M8 18h2v2h-2v-2z"></path>
<path fill="#444444" d="M6 12h2v2h-2v-2z"></path>
<path fill="#444444" d="M6 16h2v2h-2v-2z"></path>
<path fill="#444444" d="M10 20h2v2h-2v-2z"></path>
<path fill="#444444" d="M14 20h2v2h-2v-2z"></path>
<path fill="#444444" d="M16 18h2v2h-2v-2z"></path>
<path fill="#444444" d="M12 18h2v2h-2v-2z"></path>
<path fill="#444444" d="M14 16h2v2h-2v-2z"></path>
<path fill="#444444" d="M10 16h2v2h-2v-2z"></path>
<path fill="#444444" d="M14 24h2v2h-2v-2z"></path>
<path fill="#444444" d="M16 22h2v2h-2v-2z"></path>
<path fill="#444444" d="M12 22h2v2h-2v-2z"></path>
<path fill="#444444" d="M8 22h2v2h-2v-2z"></path>
<path fill="#444444" d="M8 14h2v2h-2v-2z"></path>
<path fill="#444444" d="M20 22h2v2h-2v-2z"></path>
<path fill="#444444" d="M18 24h2v2h-2v-2z"></path>
<path fill="#444444" d="M16 26h2v2h-2v-2z"></path>
<path fill="#444444" d="M15 0c-8.284 0-15 2.239-15 5 0 0.195 0.035 0.388 0.1 0.577l3.886 22.423c0 2.209 4.928 4 11.007 4s11.007-1.791 11.007-4l3.899-22.421c0.066-0.19 0.101-0.383 0.101-0.579 0-2.761-6.716-5-15-5zM26 14h-2v2h2v2h-2v2h-2v2h2v2h-2v2h2v2h-2v-2h-2v2h-2v2h-2v-2h-2v2h-2v-2h-2v-2h-2v2h-2v-2h2v-2h-2v-2h2v-2h-2v-2h-2v-2h2v-2h-2v-2h2v-2h2v2h2v2h2v-2h2v2h2v-2h2v2h2v-2h2v-2h2v2h2v2zM24.111 6.642c-2.514 0.714-5.75 1.108-9.111 1.108s-6.598-0.393-9.111-1.108c-2.155-0.612-3.168-1.29-3.526-1.642 0.358-0.352 1.371-1.030 3.526-1.642 2.514-0.714 5.75-1.108 9.111-1.108s6.598 0.393 9.111 1.108c2.155 0.613 3.168 1.29 3.526 1.642-0.358 0.352-1.371 1.030-3.526 1.642z"></path>
<path fill="#444444" d="M12 26h2v2h-2v-2z"></path>
<path fill="#444444" d="M22 16h2v2h-2v-2z"></path>
<path fill="#444444" d="M20 18h2v2h-2v-2z"></path>
<path fill="#444444" d="M22 12h2v2h-2v-2z"></path>
<path fill="#444444" d="M10 24h2v2h-2v-2z"></path>
</svg>
