<?xml version="1.0" encoding="utf-8"?>
<!-- Generated by IcoMoon.io -->
<!DOCTYPE svg PUBLIC "-//W3C//DTD SVG 1.1//EN" "http://www.w3.org/Graphics/SVG/1.1/DTD/svg11.dtd">
<svg version="1.1" xmlns="http://www.w3.org/2000/svg" xmlns:xlink="http://www.w3.org/1999/xlink" width="32" height="32" viewBox="0 0 32 32">
<path fill="#444444" d="M12 11l10 6-10 6v-12z"></path>
<path fill="#444444" d="M16 30.461c-0.302 0-0.588-0.137-0.778-0.372-1.177-1.458-4.515-3.089-7.222-3.089-2.611 0-4.996 0.944-6.222 2.464-0.266 0.33-0.712 0.456-1.111 0.315s-0.667-0.519-0.667-0.943v-21c0-0.229 0.078-0.45 0.222-0.628 1.597-1.979 4.577-3.208 7.778-3.208 2.915 0 6.185 1.456 8 3.038 1.815-1.582 5.085-3.038 8-3.038 3.201 0 6.181 1.229 7.778 3.208 0.143 0.178 0.222 0.399 0.222 0.628v21c0 0.424-0.267 0.802-0.667 0.943s-0.845 0.015-1.111-0.315c-1.226-1.52-3.61-2.464-6.222-2.464-2.707 0-6.045 1.631-7.222 3.089-0.19 0.235-0.476 0.372-0.778 0.372zM8 25c2.915 0 6.185 1.456 8 3.038 1.815-1.582 5.085-3.038 8-3.038 2.241 0 4.374 0.603 6 1.643v-18.434c-1.278-1.37-3.538-2.209-6-2.209-2.707 0-6.045 1.631-7.222 3.089-0.19 0.235-0.476 0.372-0.778 0.372s-0.588-0.137-0.778-0.372c-1.177-1.458-4.515-3.089-7.222-3.089-2.462 0-4.722 0.839-6 2.209v18.434c1.626-1.040 3.759-1.643 6-1.643z"></path>
</svg>
