<?xml version="1.0" encoding="utf-8"?>
<!-- Generated by IcoMoon.io -->
<!DOCTYPE svg PUBLIC "-//W3C//DTD SVG 1.1//EN" "http://www.w3.org/Graphics/SVG/1.1/DTD/svg11.dtd">
<svg version="1.1" xmlns="http://www.w3.org/2000/svg" xmlns:xlink="http://www.w3.org/1999/xlink" width="32" height="32" viewBox="0 0 32 32">
<path fill="#444444" d="M24 9c0-1.654-1.346-3-3-3-0.551 0-1-0.449-1-1v-4c0-0.552-0.448-1-1-1h-6c-0.552 0-1 0.448-1 1v4c0 0.551-0.449 1-1 1-1.654 0-3 1.346-3 3v2c0 0.768 0.29 1.469 0.766 2-0.476 0.531-0.766 1.232-0.766 2v2c0 0.768 0.29 1.469 0.766 2-0.476 0.531-0.766 1.232-0.766 2v2c0 0.768 0.29 1.469 0.766 2-0.476 0.531-0.766 1.232-0.766 2v2c0 1.654 1.346 3 3 3h10c1.654 0 3-1.346 3-3v-2c0-0.768-0.29-1.469-0.766-2 0.476-0.531 0.766-1.232 0.766-2v-2c0-0.768-0.29-1.469-0.766-2 0.476-0.531 0.766-1.232 0.766-2v-2c0-0.768-0.29-1.469-0.766-2 0.476-0.531 0.766-1.232 0.766-2v-2zM20.5 30v-0.5h-0.5v0.5h-0.5v-0.5h-0.5v0.5h-0.5v-0.5h-0.5v0.5h-0.5v-0.5h-0.5v0.5h-0.5v-0.5h-0.5v0.5h-0.5v-0.5h-0.5v0.5h-0.5v-0.5h-0.5v0.5h-0.5v-0.5h-0.5v0.5h-0.5v-0.5h-0.5v0.5h-0.5v-0.5h-0.5v0.5c-0.182 0-0.353-0.050-0.5-0.135v-0.365h-0.365c-0.085-0.147-0.135-0.318-0.135-0.5h0.5v-0.5h-0.5v-0.5h0.5v-0.5h-0.5v-0.5h0.5v-0.5h-0.365c0.088-0.151 0.214-0.277 0.365-0.365v0.365h0.5v-0.5h0.5v-0.135c0.151-0.088 0.277-0.214 0.365-0.365h0.135v-0.5c0-0.182-0.050-0.353-0.135-0.5h0.135v-0.5h-0.5v0.135c-0.147-0.085-0.318-0.135-0.5-0.135s-0.353-0.050-0.5-0.135v-0.365h-0.365c-0.085-0.147-0.135-0.318-0.135-0.5h0.5v-0.5h-0.5v-0.5h0.5v-0.5h-0.5v-0.5h0.5v-0.5h-0.365c0.088-0.151 0.214-0.277 0.365-0.365v0.365h0.5v-0.5h0.5v-0.135c0.151-0.088 0.277-0.214 0.365-0.365h0.135v-0.5c0-0.182-0.050-0.353-0.135-0.5h0.135v-0.5h-0.5v0.135c-0.147-0.085-0.318-0.135-0.5-0.135s-0.353-0.050-0.5-0.135v-0.365h-0.365c-0.085-0.147-0.135-0.318-0.135-0.5h0.5v-0.5h-0.5v-0.5h0.5v-0.5h-0.5v-0.5h0.5v-0.5h-0.365c0.088-0.151 0.214-0.277 0.365-0.365v0.365h0.5v-0.5h0.5v-0.135c0.151-0.088 0.277-0.214 0.365-0.365h0.135v-0.5c0-0.182-0.050-0.353-0.135-0.5h0.135v-0.5h-0.5v0.135c-0.147-0.085-0.318-0.135-0.5-0.135s-0.353-0.050-0.5-0.135v-0.365h-0.365c-0.085-0.147-0.135-0.318-0.135-0.5h0.5v-0.5h-0.5v-1.5c0-0.551 0.449-1 1-1 1.654 0 3-1.346 3-3v-1h4v1c0 1.654 1.346 3 3 3 0.551 0 1 0.449 1 1v1h-0.5v0.5h0.5v0.5h-0.5v0.5h0.365c-0.088 0.151-0.214 0.277-0.365 0.365v-0.365h-0.5v0.5h-0.5v0.135c-0.151 0.088-0.277 0.214-0.365 0.365h-0.135v0.5c0 0.182 0.050 0.353 0.135 0.5h-0.135v0.5h0.5v-0.135c0.147 0.085 0.318 0.135 0.5 0.135s0.353 0.050 0.5 0.135v0.365h0.365c0.085 0.147 0.135 0.318 0.135 0.5h-0.5v0.5h0.5v0.5h-0.5v0.5h0.5v0.5h-0.5v0.5h0.365c-0.088 0.151-0.214 0.277-0.365 0.365v-0.365h-0.5v0.5h-0.5v0.135c-0.151 0.088-0.277 0.214-0.365 0.365h-0.135v0.5c0 0.182 0.050 0.353 0.135 0.5h-0.135v0.5h0.5v-0.135c0.147 0.085 0.318 0.135 0.5 0.135s0.353 0.050 0.5 0.135v0.365h0.365c0.085 0.147 0.135 0.318 0.135 0.5h-0.5v0.5h0.5v0.5h-0.5v0.5h0.5v0.5h-0.5v0.5h0.365c-0.088 0.151-0.214 0.277-0.365 0.365v-0.365h-0.5v0.5h-0.5v0.135c-0.151 0.088-0.277 0.214-0.365 0.365h-0.135v0.5c0 0.182 0.050 0.353 0.135 0.5h-0.135v0.5h0.5v-0.135c0.147 0.085 0.318 0.135 0.5 0.135s0.353 0.050 0.5 0.135v0.365h0.365c0.085 0.147 0.135 0.318 0.135 0.5h-0.5v0.5h0.5v0.5h-0.5v0.5h0.5v0.5h-0.5v0.5h0.365c-0.088 0.151-0.214 0.277-0.365 0.365v-0.365h-0.5v0.5h-0.5z"></path>
<path fill="#444444" d="M10.5 16h0.5v0.5h-0.5v-0.5z"></path>
<path fill="#444444" d="M11 16.5h0.5v0.5h-0.5v-0.5z"></path>
<path fill="#444444" d="M11.5 16h0.5v0.5h-0.5v-0.5z"></path>
<path fill="#444444" d="M10.5 17h0.5v0.5h-0.5v-0.5z"></path>
<path fill="#444444" d="M11 17.5h0.5v0.5h-0.5v-0.5z"></path>
<path fill="#444444" d="M11.5 17h0.5v0.5h-0.5v-0.5z"></path>
<path fill="#444444" d="M12 16.5h0.5v0.5h-0.5v-0.5z"></path>
<path fill="#444444" d="M12.5 16h0.5v0.5h-0.5v-0.5z"></path>
<path fill="#444444" d="M13 16.5h0.5v0.5h-0.5v-0.5z"></path>
<path fill="#444444" d="M13.5 16h0.5v0.5h-0.5v-0.5z"></path>
<path fill="#444444" d="M12 17.5h0.5v0.5h-0.5v-0.5z"></path>
<path fill="#444444" d="M12.5 17h0.5v0.5h-0.5v-0.5z"></path>
<path fill="#444444" d="M13 17.5h0.5v0.5h-0.5v-0.5z"></path>
<path fill="#444444" d="M13.5 17h0.5v0.5h-0.5v-0.5z"></path>
<path fill="#444444" d="M14 16.5h0.5v0.5h-0.5v-0.5z"></path>
<path fill="#444444" d="M14.5 16h0.5v0.5h-0.5v-0.5z"></path>
<path fill="#444444" d="M15 16.5h0.5v0.5h-0.5v-0.5z"></path>
<path fill="#444444" d="M15.5 16h0.5v0.5h-0.5v-0.5z"></path>
<path fill="#444444" d="M14 17.5h0.5v0.5h-0.5v-0.5z"></path>
<path fill="#444444" d="M14.5 17h0.5v0.5h-0.5v-0.5z"></path>
<path fill="#444444" d="M15 17.5h0.5v0.5h-0.5v-0.5z"></path>
<path fill="#444444" d="M15.5 17h0.5v0.5h-0.5v-0.5z"></path>
<path fill="#444444" d="M12 18.5h0.5v0.5h-0.5v-0.5z"></path>
<path fill="#444444" d="M12.5 18h0.5v0.5h-0.5v-0.5z"></path>
<path fill="#444444" d="M13 18.5h0.5v0.5h-0.5v-0.5z"></path>
<path fill="#444444" d="M13.5 18h0.5v0.5h-0.5v-0.5z"></path>
<path fill="#444444" d="M12 19.5h0.5v0.5h-0.5v-0.5z"></path>
<path fill="#444444" d="M12.5 19h0.5v0.5h-0.5v-0.5z"></path>
<path fill="#444444" d="M13 19.5h0.5v0.5h-0.5v-0.5z"></path>
<path fill="#444444" d="M13.5 19h0.5v0.5h-0.5v-0.5z"></path>
<path fill="#444444" d="M14 18.5h0.5v0.5h-0.5v-0.5z"></path>
<path fill="#444444" d="M14.5 18h0.5v0.5h-0.5v-0.5z"></path>
<path fill="#444444" d="M15 18.5h0.5v0.5h-0.5v-0.5z"></path>
<path fill="#444444" d="M15.5 18h0.5v0.5h-0.5v-0.5z"></path>
<path fill="#444444" d="M14 19.5h0.5v0.5h-0.5v-0.5z"></path>
<path fill="#444444" d="M14.5 19h0.5v0.5h-0.5v-0.5z"></path>
<path fill="#444444" d="M15 19.5h0.5v0.5h-0.5v-0.5z"></path>
<path fill="#444444" d="M15.5 19h0.5v0.5h-0.5v-0.5z"></path>
<path fill="#444444" d="M11 20.5h0.5v0.5h-0.5v-0.5z"></path>
<path fill="#444444" d="M11.5 20h0.5v0.5h-0.5v-0.5z"></path>
<path fill="#444444" d="M10.5 21h0.5v0.5h-0.5v-0.5z"></path>
<path fill="#444444" d="M11 21.5h0.5v0.5h-0.5v-0.5z"></path>
<path fill="#444444" d="M11.5 21h0.5v0.5h-0.5v-0.5z"></path>
<path fill="#444444" d="M10.5 22h0.5v0.5h-0.5v-0.5z"></path>
<path fill="#444444" d="M11 22.5h0.5v0.5h-0.5v-0.5z"></path>
<path fill="#444444" d="M11.5 22h0.5v0.5h-0.5v-0.5z"></path>
<path fill="#444444" d="M10.5 23h0.5v0.5h-0.5v-0.5z"></path>
<path fill="#444444" d="M11 23.5h0.5v0.5h-0.5v-0.5z"></path>
<path fill="#444444" d="M11.5 23h0.5v0.5h-0.5v-0.5z"></path>
<path fill="#444444" d="M12 20.5h0.5v0.5h-0.5v-0.5z"></path>
<path fill="#444444" d="M12.5 20h0.5v0.5h-0.5v-0.5z"></path>
<path fill="#444444" d="M13 20.5h0.5v0.5h-0.5v-0.5z"></path>
<path fill="#444444" d="M13.5 20h0.5v0.5h-0.5v-0.5z"></path>
<path fill="#444444" d="M12 21.5h0.5v0.5h-0.5v-0.5z"></path>
<path fill="#444444" d="M12.5 21h0.5v0.5h-0.5v-0.5z"></path>
<path fill="#444444" d="M13 21.5h0.5v0.5h-0.5v-0.5z"></path>
<path fill="#444444" d="M13.5 21h0.5v0.5h-0.5v-0.5z"></path>
<path fill="#444444" d="M14 20.5h0.5v0.5h-0.5v-0.5z"></path>
<path fill="#444444" d="M14.5 20h0.5v0.5h-0.5v-0.5z"></path>
<path fill="#444444" d="M15 20.5h0.5v0.5h-0.5v-0.5z"></path>
<path fill="#444444" d="M15.5 20h0.5v0.5h-0.5v-0.5z"></path>
<path fill="#444444" d="M14 21.5h0.5v0.5h-0.5v-0.5z"></path>
<path fill="#444444" d="M14.5 21h0.5v0.5h-0.5v-0.5z"></path>
<path fill="#444444" d="M15 21.5h0.5v0.5h-0.5v-0.5z"></path>
<path fill="#444444" d="M15.5 21h0.5v0.5h-0.5v-0.5z"></path>
<path fill="#444444" d="M12 22.5h0.5v0.5h-0.5v-0.5z"></path>
<path fill="#444444" d="M12.5 22h0.5v0.5h-0.5v-0.5z"></path>
<path fill="#444444" d="M13 22.5h0.5v0.5h-0.5v-0.5z"></path>
<path fill="#444444" d="M13.5 22h0.5v0.5h-0.5v-0.5z"></path>
<path fill="#444444" d="M12 23.5h0.5v0.5h-0.5v-0.5z"></path>
<path fill="#444444" d="M12.5 23h0.5v0.5h-0.5v-0.5z"></path>
<path fill="#444444" d="M13 23.5h0.5v0.5h-0.5v-0.5z"></path>
<path fill="#444444" d="M13.5 23h0.5v0.5h-0.5v-0.5z"></path>
<path fill="#444444" d="M14 22.5h0.5v0.5h-0.5v-0.5z"></path>
<path fill="#444444" d="M14.5 22h0.5v0.5h-0.5v-0.5z"></path>
<path fill="#444444" d="M15 22.5h0.5v0.5h-0.5v-0.5z"></path>
<path fill="#444444" d="M15.5 22h0.5v0.5h-0.5v-0.5z"></path>
<path fill="#444444" d="M14 23.5h0.5v0.5h-0.5v-0.5z"></path>
<path fill="#444444" d="M14.5 23h0.5v0.5h-0.5v-0.5z"></path>
<path fill="#444444" d="M15 23.5h0.5v0.5h-0.5v-0.5z"></path>
<path fill="#444444" d="M15.5 23h0.5v0.5h-0.5v-0.5z"></path>
<path fill="#444444" d="M11 26.5h0.5v0.5h-0.5v-0.5z"></path>
<path fill="#444444" d="M11.5 26h0.5v0.5h-0.5v-0.5z"></path>
<path fill="#444444" d="M10.5 27h0.5v0.5h-0.5v-0.5z"></path>
<path fill="#444444" d="M11 27.5h0.5v0.5h-0.5v-0.5z"></path>
<path fill="#444444" d="M11.5 27h0.5v0.5h-0.5v-0.5z"></path>
<path fill="#444444" d="M12 24.5h0.5v0.5h-0.5v-0.5z"></path>
<path fill="#444444" d="M12.5 24h0.5v0.5h-0.5v-0.5z"></path>
<path fill="#444444" d="M13 24.5h0.5v0.5h-0.5v-0.5z"></path>
<path fill="#444444" d="M13.5 24h0.5v0.5h-0.5v-0.5z"></path>
<path fill="#444444" d="M12 25.5h0.5v0.5h-0.5v-0.5z"></path>
<path fill="#444444" d="M12.5 25h0.5v0.5h-0.5v-0.5z"></path>
<path fill="#444444" d="M13 25.5h0.5v0.5h-0.5v-0.5z"></path>
<path fill="#444444" d="M13.5 25h0.5v0.5h-0.5v-0.5z"></path>
<path fill="#444444" d="M14 24.5h0.5v0.5h-0.5v-0.5z"></path>
<path fill="#444444" d="M14.5 24h0.5v0.5h-0.5v-0.5z"></path>
<path fill="#444444" d="M15 24.5h0.5v0.5h-0.5v-0.5z"></path>
<path fill="#444444" d="M15.5 24h0.5v0.5h-0.5v-0.5z"></path>
<path fill="#444444" d="M14 25.5h0.5v0.5h-0.5v-0.5z"></path>
<path fill="#444444" d="M14.5 25h0.5v0.5h-0.5v-0.5z"></path>
<path fill="#444444" d="M15 25.5h0.5v0.5h-0.5v-0.5z"></path>
<path fill="#444444" d="M15.5 25h0.5v0.5h-0.5v-0.5z"></path>
<path fill="#444444" d="M12 26.5h0.5v0.5h-0.5v-0.5z"></path>
<path fill="#444444" d="M12.5 26h0.5v0.5h-0.5v-0.5z"></path>
<path fill="#444444" d="M13 26.5h0.5v0.5h-0.5v-0.5z"></path>
<path fill="#444444" d="M13.5 26h0.5v0.5h-0.5v-0.5z"></path>
<path fill="#444444" d="M12 27.5h0.5v0.5h-0.5v-0.5z"></path>
<path fill="#444444" d="M12.5 27h0.5v0.5h-0.5v-0.5z"></path>
<path fill="#444444" d="M13 27.5h0.5v0.5h-0.5v-0.5z"></path>
<path fill="#444444" d="M13.5 27h0.5v0.5h-0.5v-0.5z"></path>
<path fill="#444444" d="M14 26.5h0.5v0.5h-0.5v-0.5z"></path>
<path fill="#444444" d="M14.5 26h0.5v0.5h-0.5v-0.5z"></path>
<path fill="#444444" d="M15 26.5h0.5v0.5h-0.5v-0.5z"></path>
<path fill="#444444" d="M15.5 26h0.5v0.5h-0.5v-0.5z"></path>
<path fill="#444444" d="M14 27.5h0.5v0.5h-0.5v-0.5z"></path>
<path fill="#444444" d="M14.5 27h0.5v0.5h-0.5v-0.5z"></path>
<path fill="#444444" d="M15 27.5h0.5v0.5h-0.5v-0.5z"></path>
<path fill="#444444" d="M15.5 27h0.5v0.5h-0.5v-0.5z"></path>
<path fill="#444444" d="M10.5 28h0.5v0.5h-0.5v-0.5z"></path>
<path fill="#444444" d="M11 28.5h0.5v0.5h-0.5v-0.5z"></path>
<path fill="#444444" d="M11.5 28h0.5v0.5h-0.5v-0.5z"></path>
<path fill="#444444" d="M10.5 29h0.5v0.5h-0.5v-0.5z"></path>
<path fill="#444444" d="M11.5 29h0.5v0.5h-0.5v-0.5z"></path>
<path fill="#444444" d="M12 28.5h0.5v0.5h-0.5v-0.5z"></path>
<path fill="#444444" d="M12.5 28h0.5v0.5h-0.5v-0.5z"></path>
<path fill="#444444" d="M13 28.5h0.5v0.5h-0.5v-0.5z"></path>
<path fill="#444444" d="M13.5 28h0.5v0.5h-0.5v-0.5z"></path>
<path fill="#444444" d="M12.5 29h0.5v0.5h-0.5v-0.5z"></path>
<path fill="#444444" d="M13.5 29h0.5v0.5h-0.5v-0.5z"></path>
<path fill="#444444" d="M14 28.5h0.5v0.5h-0.5v-0.5z"></path>
<path fill="#444444" d="M14.5 28h0.5v0.5h-0.5v-0.5z"></path>
<path fill="#444444" d="M15 28.5h0.5v0.5h-0.5v-0.5z"></path>
<path fill="#444444" d="M15.5 28h0.5v0.5h-0.5v-0.5z"></path>
<path fill="#444444" d="M14.5 29h0.5v0.5h-0.5v-0.5z"></path>
<path fill="#444444" d="M15.5 29h0.5v0.5h-0.5v-0.5z"></path>
<path fill="#444444" d="M16 16.5h0.5v0.5h-0.5v-0.5z"></path>
<path fill="#444444" d="M16.5 16h0.5v0.5h-0.5v-0.5z"></path>
<path fill="#444444" d="M17 16.5h0.5v0.5h-0.5v-0.5z"></path>
<path fill="#444444" d="M17.5 16h0.5v0.5h-0.5v-0.5z"></path>
<path fill="#444444" d="M16 17.5h0.5v0.5h-0.5v-0.5z"></path>
<path fill="#444444" d="M16.5 17h0.5v0.5h-0.5v-0.5z"></path>
<path fill="#444444" d="M17 17.5h0.5v0.5h-0.5v-0.5z"></path>
<path fill="#444444" d="M17.5 17h0.5v0.5h-0.5v-0.5z"></path>
<path fill="#444444" d="M18 16.5h0.5v0.5h-0.5v-0.5z"></path>
<path fill="#444444" d="M18.5 16h0.5v0.5h-0.5v-0.5z"></path>
<path fill="#444444" d="M19 16.5h0.5v0.5h-0.5v-0.5z"></path>
<path fill="#444444" d="M19.5 16h0.5v0.5h-0.5v-0.5z"></path>
<path fill="#444444" d="M18 17.5h0.5v0.5h-0.5v-0.5z"></path>
<path fill="#444444" d="M18.5 17h0.5v0.5h-0.5v-0.5z"></path>
<path fill="#444444" d="M19 17.5h0.5v0.5h-0.5v-0.5z"></path>
<path fill="#444444" d="M19.5 17h0.5v0.5h-0.5v-0.5z"></path>
<path fill="#444444" d="M16 18.5h0.5v0.5h-0.5v-0.5z"></path>
<path fill="#444444" d="M16.5 18h0.5v0.5h-0.5v-0.5z"></path>
<path fill="#444444" d="M17 18.5h0.5v0.5h-0.5v-0.5z"></path>
<path fill="#444444" d="M17.5 18h0.5v0.5h-0.5v-0.5z"></path>
<path fill="#444444" d="M16 19.5h0.5v0.5h-0.5v-0.5z"></path>
<path fill="#444444" d="M16.5 19h0.5v0.5h-0.5v-0.5z"></path>
<path fill="#444444" d="M17 19.5h0.5v0.5h-0.5v-0.5z"></path>
<path fill="#444444" d="M17.5 19h0.5v0.5h-0.5v-0.5z"></path>
<path fill="#444444" d="M18 18.5h0.5v0.5h-0.5v-0.5z"></path>
<path fill="#444444" d="M18.5 18h0.5v0.5h-0.5v-0.5z"></path>
<path fill="#444444" d="M19 18.5h0.5v0.5h-0.5v-0.5z"></path>
<path fill="#444444" d="M19.5 18h0.5v0.5h-0.5v-0.5z"></path>
<path fill="#444444" d="M18 19.5h0.5v0.5h-0.5v-0.5z"></path>
<path fill="#444444" d="M18.5 19h0.5v0.5h-0.5v-0.5z"></path>
<path fill="#444444" d="M19 19.5h0.5v0.5h-0.5v-0.5z"></path>
<path fill="#444444" d="M19.5 19h0.5v0.5h-0.5v-0.5z"></path>
<path fill="#444444" d="M20 16.5h0.5v0.5h-0.5v-0.5z"></path>
<path fill="#444444" d="M20.5 16h0.5v0.5h-0.5v-0.5z"></path>
<path fill="#444444" d="M21 16.5h0.5v0.5h-0.5v-0.5z"></path>
<path fill="#444444" d="M20 17.5h0.5v0.5h-0.5v-0.5z"></path>
<path fill="#444444" d="M20.5 17h0.5v0.5h-0.5v-0.5z"></path>
<path fill="#444444" d="M16 20.5h0.5v0.5h-0.5v-0.5z"></path>
<path fill="#444444" d="M16.5 20h0.5v0.5h-0.5v-0.5z"></path>
<path fill="#444444" d="M17 20.5h0.5v0.5h-0.5v-0.5z"></path>
<path fill="#444444" d="M17.5 20h0.5v0.5h-0.5v-0.5z"></path>
<path fill="#444444" d="M16 21.5h0.5v0.5h-0.5v-0.5z"></path>
<path fill="#444444" d="M16.5 21h0.5v0.5h-0.5v-0.5z"></path>
<path fill="#444444" d="M17 21.5h0.5v0.5h-0.5v-0.5z"></path>
<path fill="#444444" d="M17.5 21h0.5v0.5h-0.5v-0.5z"></path>
<path fill="#444444" d="M18 20.5h0.5v0.5h-0.5v-0.5z"></path>
<path fill="#444444" d="M18.5 20h0.5v0.5h-0.5v-0.5z"></path>
<path fill="#444444" d="M19 20.5h0.5v0.5h-0.5v-0.5z"></path>
<path fill="#444444" d="M19.5 20h0.5v0.5h-0.5v-0.5z"></path>
<path fill="#444444" d="M18 21.5h0.5v0.5h-0.5v-0.5z"></path>
<path fill="#444444" d="M18.5 21h0.5v0.5h-0.5v-0.5z"></path>
<path fill="#444444" d="M19 21.5h0.5v0.5h-0.5v-0.5z"></path>
<path fill="#444444" d="M19.5 21h0.5v0.5h-0.5v-0.5z"></path>
<path fill="#444444" d="M16 22.5h0.5v0.5h-0.5v-0.5z"></path>
<path fill="#444444" d="M16.5 22h0.5v0.5h-0.5v-0.5z"></path>
<path fill="#444444" d="M17 22.5h0.5v0.5h-0.5v-0.5z"></path>
<path fill="#444444" d="M17.5 22h0.5v0.5h-0.5v-0.5z"></path>
<path fill="#444444" d="M16 23.5h0.5v0.5h-0.5v-0.5z"></path>
<path fill="#444444" d="M16.5 23h0.5v0.5h-0.5v-0.5z"></path>
<path fill="#444444" d="M17 23.5h0.5v0.5h-0.5v-0.5z"></path>
<path fill="#444444" d="M17.5 23h0.5v0.5h-0.5v-0.5z"></path>
<path fill="#444444" d="M18 22.5h0.5v0.5h-0.5v-0.5z"></path>
<path fill="#444444" d="M18.5 22h0.5v0.5h-0.5v-0.5z"></path>
<path fill="#444444" d="M19 22.5h0.5v0.5h-0.5v-0.5z"></path>
<path fill="#444444" d="M19.5 22h0.5v0.5h-0.5v-0.5z"></path>
<path fill="#444444" d="M18 23.5h0.5v0.5h-0.5v-0.5z"></path>
<path fill="#444444" d="M18.5 23h0.5v0.5h-0.5v-0.5z"></path>
<path fill="#444444" d="M19 23.5h0.5v0.5h-0.5v-0.5z"></path>
<path fill="#444444" d="M19.5 23h0.5v0.5h-0.5v-0.5z"></path>
<path fill="#444444" d="M20 20.5h0.5v0.5h-0.5v-0.5z"></path>
<path fill="#444444" d="M20.5 20h0.5v0.5h-0.5v-0.5z"></path>
<path fill="#444444" d="M21 20.5h0.5v0.5h-0.5v-0.5z"></path>
<path fill="#444444" d="M20 21.5h0.5v0.5h-0.5v-0.5z"></path>
<path fill="#444444" d="M20.5 21h0.5v0.5h-0.5v-0.5z"></path>
<path fill="#444444" d="M21 21.5h0.5v0.5h-0.5v-0.5z"></path>
<path fill="#444444" d="M20 22.5h0.5v0.5h-0.5v-0.5z"></path>
<path fill="#444444" d="M20.5 22h0.5v0.5h-0.5v-0.5z"></path>
<path fill="#444444" d="M21 22.5h0.5v0.5h-0.5v-0.5z"></path>
<path fill="#444444" d="M20 23.5h0.5v0.5h-0.5v-0.5z"></path>
<path fill="#444444" d="M20.5 23h0.5v0.5h-0.5v-0.5z"></path>
<path fill="#444444" d="M16 24.5h0.5v0.5h-0.5v-0.5z"></path>
<path fill="#444444" d="M16.5 24h0.5v0.5h-0.5v-0.5z"></path>
<path fill="#444444" d="M17 24.5h0.5v0.5h-0.5v-0.5z"></path>
<path fill="#444444" d="M17.5 24h0.5v0.5h-0.5v-0.5z"></path>
<path fill="#444444" d="M16 25.5h0.5v0.5h-0.5v-0.5z"></path>
<path fill="#444444" d="M16.5 25h0.5v0.5h-0.5v-0.5z"></path>
<path fill="#444444" d="M17 25.5h0.5v0.5h-0.5v-0.5z"></path>
<path fill="#444444" d="M17.5 25h0.5v0.5h-0.5v-0.5z"></path>
<path fill="#444444" d="M18 24.5h0.5v0.5h-0.5v-0.5z"></path>
<path fill="#444444" d="M18.5 24h0.5v0.5h-0.5v-0.5z"></path>
<path fill="#444444" d="M19 24.5h0.5v0.5h-0.5v-0.5z"></path>
<path fill="#444444" d="M19.5 24h0.5v0.5h-0.5v-0.5z"></path>
<path fill="#444444" d="M18 25.5h0.5v0.5h-0.5v-0.5z"></path>
<path fill="#444444" d="M18.5 25h0.5v0.5h-0.5v-0.5z"></path>
<path fill="#444444" d="M19 25.5h0.5v0.5h-0.5v-0.5z"></path>
<path fill="#444444" d="M19.5 25h0.5v0.5h-0.5v-0.5z"></path>
<path fill="#444444" d="M16 26.5h0.5v0.5h-0.5v-0.5z"></path>
<path fill="#444444" d="M16.5 26h0.5v0.5h-0.5v-0.5z"></path>
<path fill="#444444" d="M17 26.5h0.5v0.5h-0.5v-0.5z"></path>
<path fill="#444444" d="M17.5 26h0.5v0.5h-0.5v-0.5z"></path>
<path fill="#444444" d="M16 27.5h0.5v0.5h-0.5v-0.5z"></path>
<path fill="#444444" d="M16.5 27h0.5v0.5h-0.5v-0.5z"></path>
<path fill="#444444" d="M17 27.5h0.5v0.5h-0.5v-0.5z"></path>
<path fill="#444444" d="M17.5 27h0.5v0.5h-0.5v-0.5z"></path>
<path fill="#444444" d="M18 26.5h0.5v0.5h-0.5v-0.5z"></path>
<path fill="#444444" d="M18.5 26h0.5v0.5h-0.5v-0.5z"></path>
<path fill="#444444" d="M19 26.5h0.5v0.5h-0.5v-0.5z"></path>
<path fill="#444444" d="M19.5 26h0.5v0.5h-0.5v-0.5z"></path>
<path fill="#444444" d="M18 27.5h0.5v0.5h-0.5v-0.5z"></path>
<path fill="#444444" d="M18.5 27h0.5v0.5h-0.5v-0.5z"></path>
<path fill="#444444" d="M19 27.5h0.5v0.5h-0.5v-0.5z"></path>
<path fill="#444444" d="M19.5 27h0.5v0.5h-0.5v-0.5z"></path>
<path fill="#444444" d="M20 26.5h0.5v0.5h-0.5v-0.5z"></path>
<path fill="#444444" d="M20.5 26h0.5v0.5h-0.5v-0.5z"></path>
<path fill="#444444" d="M21 26.5h0.5v0.5h-0.5v-0.5z"></path>
<path fill="#444444" d="M20 27.5h0.5v0.5h-0.5v-0.5z"></path>
<path fill="#444444" d="M20.5 27h0.5v0.5h-0.5v-0.5z"></path>
<path fill="#444444" d="M21 27.5h0.5v0.5h-0.5v-0.5z"></path>
<path fill="#444444" d="M16 28.5h0.5v0.5h-0.5v-0.5z"></path>
<path fill="#444444" d="M16.5 28h0.5v0.5h-0.5v-0.5z"></path>
<path fill="#444444" d="M17 28.5h0.5v0.5h-0.5v-0.5z"></path>
<path fill="#444444" d="M17.5 28h0.5v0.5h-0.5v-0.5z"></path>
<path fill="#444444" d="M16.5 29h0.5v0.5h-0.5v-0.5z"></path>
<path fill="#444444" d="M17.5 29h0.5v0.5h-0.5v-0.5z"></path>
<path fill="#444444" d="M18 28.5h0.5v0.5h-0.5v-0.5z"></path>
<path fill="#444444" d="M18.5 28h0.5v0.5h-0.5v-0.5z"></path>
<path fill="#444444" d="M19 28.5h0.5v0.5h-0.5v-0.5z"></path>
<path fill="#444444" d="M19.5 28h0.5v0.5h-0.5v-0.5z"></path>
<path fill="#444444" d="M18.5 29h0.5v0.5h-0.5v-0.5z"></path>
<path fill="#444444" d="M19.5 29h0.5v0.5h-0.5v-0.5z"></path>
<path fill="#444444" d="M20 28.5h0.5v0.5h-0.5v-0.5z"></path>
<path fill="#444444" d="M20.5 28h0.5v0.5h-0.5v-0.5z"></path>
<path fill="#444444" d="M21 28.5h0.5v0.5h-0.5v-0.5z"></path>
<path fill="#444444" d="M20.5 29h0.5v0.5h-0.5v-0.5z"></path>
<path fill="#444444" d="M10.5 10h0.5v0.5h-0.5v-0.5z"></path>
<path fill="#444444" d="M11 10.5h0.5v0.5h-0.5v-0.5z"></path>
<path fill="#444444" d="M11.5 10h0.5v0.5h-0.5v-0.5z"></path>
<path fill="#444444" d="M10.5 11h0.5v0.5h-0.5v-0.5z"></path>
<path fill="#444444" d="M11 11.5h0.5v0.5h-0.5v-0.5z"></path>
<path fill="#444444" d="M11.5 11h0.5v0.5h-0.5v-0.5z"></path>
<path fill="#444444" d="M12 10.5h0.5v0.5h-0.5v-0.5z"></path>
<path fill="#444444" d="M12.5 10h0.5v0.5h-0.5v-0.5z"></path>
<path fill="#444444" d="M13 10.5h0.5v0.5h-0.5v-0.5z"></path>
<path fill="#444444" d="M13.5 10h0.5v0.5h-0.5v-0.5z"></path>
<path fill="#444444" d="M12 11.5h0.5v0.5h-0.5v-0.5z"></path>
<path fill="#444444" d="M12.5 11h0.5v0.5h-0.5v-0.5z"></path>
<path fill="#444444" d="M13 11.5h0.5v0.5h-0.5v-0.5z"></path>
<path fill="#444444" d="M13.5 11h0.5v0.5h-0.5v-0.5z"></path>
<path fill="#444444" d="M14 10.5h0.5v0.5h-0.5v-0.5z"></path>
<path fill="#444444" d="M14.5 10h0.5v0.5h-0.5v-0.5z"></path>
<path fill="#444444" d="M15 10.5h0.5v0.5h-0.5v-0.5z"></path>
<path fill="#444444" d="M15.5 10h0.5v0.5h-0.5v-0.5z"></path>
<path fill="#444444" d="M14 11.5h0.5v0.5h-0.5v-0.5z"></path>
<path fill="#444444" d="M14.5 11h0.5v0.5h-0.5v-0.5z"></path>
<path fill="#444444" d="M15 11.5h0.5v0.5h-0.5v-0.5z"></path>
<path fill="#444444" d="M15.5 11h0.5v0.5h-0.5v-0.5z"></path>
<path fill="#444444" d="M11 14.5h0.5v0.5h-0.5v-0.5z"></path>
<path fill="#444444" d="M11.5 14h0.5v0.5h-0.5v-0.5z"></path>
<path fill="#444444" d="M10.5 15h0.5v0.5h-0.5v-0.5z"></path>
<path fill="#444444" d="M11 15.5h0.5v0.5h-0.5v-0.5z"></path>
<path fill="#444444" d="M11.5 15h0.5v0.5h-0.5v-0.5z"></path>
<path fill="#444444" d="M12 12.5h0.5v0.5h-0.5v-0.5z"></path>
<path fill="#444444" d="M12.5 12h0.5v0.5h-0.5v-0.5z"></path>
<path fill="#444444" d="M13 12.5h0.5v0.5h-0.5v-0.5z"></path>
<path fill="#444444" d="M13.5 12h0.5v0.5h-0.5v-0.5z"></path>
<path fill="#444444" d="M12 13.5h0.5v0.5h-0.5v-0.5z"></path>
<path fill="#444444" d="M12.5 13h0.5v0.5h-0.5v-0.5z"></path>
<path fill="#444444" d="M13 13.5h0.5v0.5h-0.5v-0.5z"></path>
<path fill="#444444" d="M13.5 13h0.5v0.5h-0.5v-0.5z"></path>
<path fill="#444444" d="M14 12.5h0.5v0.5h-0.5v-0.5z"></path>
<path fill="#444444" d="M14.5 12h0.5v0.5h-0.5v-0.5z"></path>
<path fill="#444444" d="M15 12.5h0.5v0.5h-0.5v-0.5z"></path>
<path fill="#444444" d="M15.5 12h0.5v0.5h-0.5v-0.5z"></path>
<path fill="#444444" d="M14 13.5h0.5v0.5h-0.5v-0.5z"></path>
<path fill="#444444" d="M14.5 13h0.5v0.5h-0.5v-0.5z"></path>
<path fill="#444444" d="M15 13.5h0.5v0.5h-0.5v-0.5z"></path>
<path fill="#444444" d="M15.5 13h0.5v0.5h-0.5v-0.5z"></path>
<path fill="#444444" d="M12 14.5h0.5v0.5h-0.5v-0.5z"></path>
<path fill="#444444" d="M12.5 14h0.5v0.5h-0.5v-0.5z"></path>
<path fill="#444444" d="M13 14.5h0.5v0.5h-0.5v-0.5z"></path>
<path fill="#444444" d="M13.5 14h0.5v0.5h-0.5v-0.5z"></path>
<path fill="#444444" d="M12 15.5h0.5v0.5h-0.5v-0.5z"></path>
<path fill="#444444" d="M12.5 15h0.5v0.5h-0.5v-0.5z"></path>
<path fill="#444444" d="M13 15.5h0.5v0.5h-0.5v-0.5z"></path>
<path fill="#444444" d="M13.5 15h0.5v0.5h-0.5v-0.5z"></path>
<path fill="#444444" d="M14 14.5h0.5v0.5h-0.5v-0.5z"></path>
<path fill="#444444" d="M14.5 14h0.5v0.5h-0.5v-0.5z"></path>
<path fill="#444444" d="M15 14.5h0.5v0.5h-0.5v-0.5z"></path>
<path fill="#444444" d="M15.5 14h0.5v0.5h-0.5v-0.5z"></path>
<path fill="#444444" d="M14 15.5h0.5v0.5h-0.5v-0.5z"></path>
<path fill="#444444" d="M14.5 15h0.5v0.5h-0.5v-0.5z"></path>
<path fill="#444444" d="M15 15.5h0.5v0.5h-0.5v-0.5z"></path>
<path fill="#444444" d="M15.5 15h0.5v0.5h-0.5v-0.5z"></path>
<path fill="#444444" d="M16 10.5h0.5v0.5h-0.5v-0.5z"></path>
<path fill="#444444" d="M16.5 10h0.5v0.5h-0.5v-0.5z"></path>
<path fill="#444444" d="M17 10.5h0.5v0.5h-0.5v-0.5z"></path>
<path fill="#444444" d="M17.5 10h0.5v0.5h-0.5v-0.5z"></path>
<path fill="#444444" d="M16 11.5h0.5v0.5h-0.5v-0.5z"></path>
<path fill="#444444" d="M16.5 11h0.5v0.5h-0.5v-0.5z"></path>
<path fill="#444444" d="M17 11.5h0.5v0.5h-0.5v-0.5z"></path>
<path fill="#444444" d="M17.5 11h0.5v0.5h-0.5v-0.5z"></path>
<path fill="#444444" d="M18 10.5h0.5v0.5h-0.5v-0.5z"></path>
<path fill="#444444" d="M18.5 10h0.5v0.5h-0.5v-0.5z"></path>
<path fill="#444444" d="M19 10.5h0.5v0.5h-0.5v-0.5z"></path>
<path fill="#444444" d="M19.5 10h0.5v0.5h-0.5v-0.5z"></path>
<path fill="#444444" d="M18 11.5h0.5v0.5h-0.5v-0.5z"></path>
<path fill="#444444" d="M18.5 11h0.5v0.5h-0.5v-0.5z"></path>
<path fill="#444444" d="M19 11.5h0.5v0.5h-0.5v-0.5z"></path>
<path fill="#444444" d="M19.5 11h0.5v0.5h-0.5v-0.5z"></path>
<path fill="#444444" d="M20 10.5h0.5v0.5h-0.5v-0.5z"></path>
<path fill="#444444" d="M20.5 10h0.5v0.5h-0.5v-0.5z"></path>
<path fill="#444444" d="M21 10.5h0.5v0.5h-0.5v-0.5z"></path>
<path fill="#444444" d="M20 11.5h0.5v0.5h-0.5v-0.5z"></path>
<path fill="#444444" d="M20.5 11h0.5v0.5h-0.5v-0.5z"></path>
<path fill="#444444" d="M16 12.5h0.5v0.5h-0.5v-0.5z"></path>
<path fill="#444444" d="M16.5 12h0.5v0.5h-0.5v-0.5z"></path>
<path fill="#444444" d="M17 12.5h0.5v0.5h-0.5v-0.5z"></path>
<path fill="#444444" d="M17.5 12h0.5v0.5h-0.5v-0.5z"></path>
<path fill="#444444" d="M16 13.5h0.5v0.5h-0.5v-0.5z"></path>
<path fill="#444444" d="M16.5 13h0.5v0.5h-0.5v-0.5z"></path>
<path fill="#444444" d="M17 13.5h0.5v0.5h-0.5v-0.5z"></path>
<path fill="#444444" d="M17.5 13h0.5v0.5h-0.5v-0.5z"></path>
<path fill="#444444" d="M18 12.5h0.5v0.5h-0.5v-0.5z"></path>
<path fill="#444444" d="M18.5 12h0.5v0.5h-0.5v-0.5z"></path>
<path fill="#444444" d="M19 12.5h0.5v0.5h-0.5v-0.5z"></path>
<path fill="#444444" d="M19.5 12h0.5v0.5h-0.5v-0.5z"></path>
<path fill="#444444" d="M18 13.5h0.5v0.5h-0.5v-0.5z"></path>
<path fill="#444444" d="M18.5 13h0.5v0.5h-0.5v-0.5z"></path>
<path fill="#444444" d="M19 13.5h0.5v0.5h-0.5v-0.5z"></path>
<path fill="#444444" d="M19.5 13h0.5v0.5h-0.5v-0.5z"></path>
<path fill="#444444" d="M16 14.5h0.5v0.5h-0.5v-0.5z"></path>
<path fill="#444444" d="M16.5 14h0.5v0.5h-0.5v-0.5z"></path>
<path fill="#444444" d="M17 14.5h0.5v0.5h-0.5v-0.5z"></path>
<path fill="#444444" d="M17.5 14h0.5v0.5h-0.5v-0.5z"></path>
<path fill="#444444" d="M16 15.5h0.5v0.5h-0.5v-0.5z"></path>
<path fill="#444444" d="M16.5 15h0.5v0.5h-0.5v-0.5z"></path>
<path fill="#444444" d="M17 15.5h0.5v0.5h-0.5v-0.5z"></path>
<path fill="#444444" d="M17.5 15h0.5v0.5h-0.5v-0.5z"></path>
<path fill="#444444" d="M18 14.5h0.5v0.5h-0.5v-0.5z"></path>
<path fill="#444444" d="M18.5 14h0.5v0.5h-0.5v-0.5z"></path>
<path fill="#444444" d="M19 14.5h0.5v0.5h-0.5v-0.5z"></path>
<path fill="#444444" d="M19.5 14h0.5v0.5h-0.5v-0.5z"></path>
<path fill="#444444" d="M18 15.5h0.5v0.5h-0.5v-0.5z"></path>
<path fill="#444444" d="M18.5 15h0.5v0.5h-0.5v-0.5z"></path>
<path fill="#444444" d="M19 15.5h0.5v0.5h-0.5v-0.5z"></path>
<path fill="#444444" d="M19.5 15h0.5v0.5h-0.5v-0.5z"></path>
<path fill="#444444" d="M20 14.5h0.5v0.5h-0.5v-0.5z"></path>
<path fill="#444444" d="M20.5 14h0.5v0.5h-0.5v-0.5z"></path>
<path fill="#444444" d="M21 14.5h0.5v0.5h-0.5v-0.5z"></path>
<path fill="#444444" d="M20 15.5h0.5v0.5h-0.5v-0.5z"></path>
<path fill="#444444" d="M20.5 15h0.5v0.5h-0.5v-0.5z"></path>
<path fill="#444444" d="M21 15.5h0.5v0.5h-0.5v-0.5z"></path>
</svg>
