<?xml version="1.0" encoding="utf-8"?>
<!-- Generated by IcoMoon.io -->
<!DOCTYPE svg PUBLIC "-//W3C//DTD SVG 1.1//EN" "http://www.w3.org/Graphics/SVG/1.1/DTD/svg11.dtd">
<svg version="1.1" xmlns="http://www.w3.org/2000/svg" xmlns:xlink="http://www.w3.org/1999/xlink" width="32" height="32" viewBox="0 0 32 32">
<path fill="#444444" d="M24 9c0-1.654-1.346-3-3-3-0.551 0-1-0.449-1-1v-4c0-0.552-0.448-1-1-1h-6c-0.552 0-1 0.448-1 1v4c0 0.551-0.449 1-1 1-1.654 0-3 1.346-3 3v2c0 0.768 0.29 1.469 0.766 2-0.476 0.531-0.766 1.232-0.766 2v2c0 0.768 0.29 1.469 0.766 2-0.476 0.531-0.766 1.232-0.766 2v2c0 0.768 0.29 1.469 0.766 2-0.476 0.531-0.766 1.232-0.766 2v2c0 1.654 1.346 3 3 3h10c1.654 0 3-1.346 3-3v-2c0-0.768-0.29-1.469-0.766-2 0.476-0.531 0.766-1.232 0.766-2v-2c0-0.768-0.29-1.469-0.766-2 0.476-0.531 0.766-1.232 0.766-2v-2c0-0.768-0.29-1.469-0.766-2 0.476-0.531 0.766-1.232 0.766-2v-2zM22 11c0 0.551-0.449 1-1 1s-1 0.448-1 1 0.448 1 1 1c0.551 0 1 0.449 1 1v2c0 0.551-0.449 1-1 1s-1 0.448-1 1 0.448 1 1 1c0.551 0 1 0.449 1 1v2c0 0.551-0.449 1-1 1s-1 0.448-1 1 0.448 1 1 1c0.551 0 1 0.449 1 1v2c0 0.551-0.449 1-1 1h-10c-0.551 0-1-0.449-1-1v-2c0-0.551 0.449-1 1-1s1-0.448 1-1-0.448-1-1-1c-0.551 0-1-0.449-1-1v-2c0-0.551 0.449-1 1-1s1-0.448 1-1-0.448-1-1-1c-0.551 0-1-0.449-1-1v-2c0-0.551 0.449-1 1-1s1-0.448 1-1-0.448-1-1-1c-0.551 0-1-0.449-1-1v-2c0-0.551 0.449-1 1-1 1.654 0 3-1.346 3-3v-1h4v1c0 1.654 1.346 3 3 3 0.551 0 1 0.449 1 1v2z"></path>
</svg>
