<?xml version="1.0" encoding="utf-8"?>
<!-- Generated by IcoMoon.io -->
<!DOCTYPE svg PUBLIC "-//W3C//DTD SVG 1.1//EN" "http://www.w3.org/Graphics/SVG/1.1/DTD/svg11.dtd">
<svg version="1.1" xmlns="http://www.w3.org/2000/svg" xmlns:xlink="http://www.w3.org/1999/xlink" width="32" height="32" viewBox="0 0 32 32">
<path fill="#444444" d="M31.707 1.707c0.181-0.181 0.293-0.431 0.293-0.707 0-0.552-0.448-1-1-1-4.711 0-8.94 0.55-12.568 1.636-3.881 1.161-7.196 2.969-9.853 5.373-0.027 0.025-0.054 0.050-0.082 0.075l-5.083-5.083h1.586c0.552 0 1-0.448 1-1s-0.448-1-1-1h-5v5c0 0.552 0.448 1 1 1s1-0.448 1-1v-1.586l5.084 5.084c-2.076 2.277-3.709 5.023-4.867 8.189-1.471 4.021-2.217 8.837-2.217 14.312 0 0.552 0.448 1 1 1 0.276 0 0.526-0.112 0.707-0.293l14.293-14.293 6 6v4l4 4v-5.414h5.414l-4-4h-4l-6-6 14.293-14.293zM20.407 4.484c2.673-1.247 5.364-2.029 8.030-2.336l-12.437 12.437-4.2-4.2c2.59-2.444 5.548-4.474 8.607-5.901zM2.149 28.437c0.307-2.666 1.088-5.357 2.336-8.030 1.428-3.059 3.458-6.017 5.901-8.607l4.2 4.2-12.437 12.437z"></path>
</svg>
