<?xml version="1.0" encoding="utf-8"?>
<!-- Generated by IcoMoon.io -->
<!DOCTYPE svg PUBLIC "-//W3C//DTD SVG 1.1//EN" "http://www.w3.org/Graphics/SVG/1.1/DTD/svg11.dtd">
<svg version="1.1" xmlns="http://www.w3.org/2000/svg" xmlns:xlink="http://www.w3.org/1999/xlink" width="32" height="32" viewBox="0 0 32 32">
<path fill="#444444" d="M28.661 5.566c-0.302-0.372-0.825-0.478-1.248-0.253l-8.788 4.687h-5.25l-8.788-4.687c-0.423-0.225-0.946-0.119-1.248 0.253-2.153 2.658-3.339 6.009-3.339 9.434s1.186 6.776 3.339 9.434c0.195 0.241 0.484 0.371 0.778 0.371 0.16 0 0.321-0.038 0.47-0.118l8.788-4.687h5.25l8.788 4.687c0.149 0.079 0.31 0.118 0.47 0.118 0.294 0 0.582-0.13 0.778-0.371 2.153-2.658 3.339-6.009 3.339-9.434s-1.186-6.776-3.339-9.434zM4.397 22.521c-1.359-1.915-2.176-4.179-2.358-6.521h4.961c0.552 0 1-0.448 1-1s-0.448-1-1-1h-4.961c0.182-2.343 1-4.606 2.358-6.521l7.603 4.055v6.933l-7.603 4.055zM27.603 22.521l-7.603-4.055v-6.933l7.603-4.055c1.358 1.915 2.176 4.179 2.358 6.522h-4.961c-0.552 0-1 0.448-1 1s0.448 1 1 1h4.961c-0.182 2.343-1 4.606-2.358 6.521z"></path>
</svg>
