<?xml version="1.0" encoding="utf-8"?>
<!-- Generated by IcoMoon.io -->
<!DOCTYPE svg PUBLIC "-//W3C//DTD SVG 1.1//EN" "http://www.w3.org/Graphics/SVG/1.1/DTD/svg11.dtd">
<svg version="1.1" xmlns="http://www.w3.org/2000/svg" xmlns:xlink="http://www.w3.org/1999/xlink" width="32" height="32" viewBox="0 0 32 32">
<path fill="#444444" d="M26 4h-18c-1.631 0-3.112 0.654-4.194 1.714l-0-0-2.14 2.142c-1.031 1.078-1.666 2.538-1.666 4.144 0 1.747 0.765 3.355 2 4.466v14.534c0 0.552 0.448 1 1 1h24c0 0 0 0 0 0 0.276 0 0.527-0.112 0.708-0.293l1.999-1.999c0.181-0.181 0.293-0.431 0.293-0.708v-14.534c1.235-1.111 2-2.718 2-4.467 0-3.308-2.692-6-6-6zM24.801 15.92c-0.541 0.11-0.891 0.638-0.781 1.179 0.096 0.474 0.513 0.801 0.979 0.801 0.066 0 0.133-0.006 0.2-0.020 0.275-0.056 0.542-0.131 0.801-0.223v12.343h-22v-12.343c0.256 0.091 0.52 0.166 0.792 0.221 0.541 0.111 1.069-0.238 1.18-0.779s-0.238-1.069-0.779-1.18c-0.428-0.088-0.829-0.243-1.193-0.454v-0.001c-1.207-0.7-2-2.010-2-3.463 0-2.206 1.794-4 4-4h18c2.206 0 4 1.794 4 4 0 1.895-1.345 3.544-3.199 3.92z"></path>
<path fill="#444444" d="M8 11c0 0.552-0.448 1-1 1s-1-0.448-1-1c0-0.552 0.448-1 1-1s1 0.448 1 1z"></path>
<path fill="#444444" d="M8 27c0 0.552-0.448 1-1 1s-1-0.448-1-1c0-0.552 0.448-1 1-1s1 0.448 1 1z"></path>
<path fill="#444444" d="M14 13c0 0.552-0.448 1-1 1s-1-0.448-1-1c0-0.552 0.448-1 1-1s1 0.448 1 1z"></path>
<path fill="#444444" d="M10 21c0 0.552-0.448 1-1 1s-1-0.448-1-1c0-0.552 0.448-1 1-1s1 0.448 1 1z"></path>
<path fill="#444444" d="M16 19c0 0.552-0.448 1-1 1s-1-0.448-1-1c0-0.552 0.448-1 1-1s1 0.448 1 1z"></path>
<path fill="#444444" d="M22 21c0 0.552-0.448 1-1 1s-1-0.448-1-1c0-0.552 0.448-1 1-1s1 0.448 1 1z"></path>
<path fill="#444444" d="M20 15c0 0.552-0.448 1-1 1s-1-0.448-1-1c0-0.552 0.448-1 1-1s1 0.448 1 1z"></path>
<path fill="#444444" d="M16 25c0 0.552-0.448 1-1 1s-1-0.448-1-1c0-0.552 0.448-1 1-1s1 0.448 1 1z"></path>
<path fill="#444444" d="M24 27c0 0.552-0.448 1-1 1s-1-0.448-1-1c0-0.552 0.448-1 1-1s1 0.448 1 1z"></path>
<path fill="#444444" d="M24 11c0 0.552-0.448 1-1 1s-1-0.448-1-1c0-0.552 0.448-1 1-1s1 0.448 1 1z"></path>
</svg>
