<?xml version="1.0" encoding="utf-8"?>
<!-- Generated by IcoMoon.io -->
<!DOCTYPE svg PUBLIC "-//W3C//DTD SVG 1.1//EN" "http://www.w3.org/Graphics/SVG/1.1/DTD/svg11.dtd">
<svg version="1.1" xmlns="http://www.w3.org/2000/svg" xmlns:xlink="http://www.w3.org/1999/xlink" width="32" height="32" viewBox="0 0 32 32">
<path fill="#444444" d="M31.414 0.586c-0.781-0.781-2.047-0.781-2.828 0l-7.5 7.5-2.086-2.086-4 3.476-14.203 4.322c-0.474 0.144-0.797 0.581-0.797 1.076v1c0 4.307 1.677 8.357 4.723 11.402s7.095 4.723 11.402 4.723h1c0.495 0 0.932-0.324 1.076-0.797l4.323-14.203 3.476-4-2.086-2.086 7.5-7.5c0.781-0.781 0.781-2.047 0-2.828zM16.291 29.75h-0.166c-1.663 0-3.281-0.291-4.797-0.849l4.672-10.901-7.751 9.301c-0.685-0.474-1.333-1.013-1.935-1.615s-1.141-1.25-1.615-1.935l9.301-7.751-10.901 4.672c-0.557-1.516-0.849-3.134-0.849-4.797v-0.166l14.553-4.429 3.918 3.918-4.429 14.553z"></path>
</svg>
