<?xml version="1.0" encoding="utf-8"?>
<!-- Generated by IcoMoon.io -->
<!DOCTYPE svg PUBLIC "-//W3C//DTD SVG 1.1//EN" "http://www.w3.org/Graphics/SVG/1.1/DTD/svg11.dtd">
<svg version="1.1" xmlns="http://www.w3.org/2000/svg" xmlns:xlink="http://www.w3.org/1999/xlink" width="32" height="32" viewBox="0 0 32 32">
<path fill="#444444" d="M6.9 31.984c-0 0-0 0-0.001 0-3.711-0-6.408-2.111-6.521-2.201-0.333-0.265-0.462-0.711-0.322-1.112s0.519-0.67 0.944-0.67c2.979 0 3.676-1.602 4.559-3.63 0.847-1.947 1.902-4.37 5.442-4.37 1.335 0 2.591 0.52 3.535 1.465s1.464 2.2 1.464 3.535c0 1.336-0.52 2.591-1.464 3.535-2.288 2.288-4.857 3.448-7.636 3.448z"></path>
<path fill="#444444" d="M31.323 0.502c-0.829-0.733-2.096-0.655-2.829 0.175l-15.13 17.121c-0.089 0.102-0.186 0.225-0.264 0.34-0.132 0.194-0.242 0.397-0.329 0.605 1.058 0.298 2.027 0.863 2.825 1.661 0.803 0.803 1.37 1.779 1.666 2.845 0.596-0.247 1.129-0.664 1.52-1.237l12.87-18.879c0.562-0.822 0.437-1.954-0.329-2.63z"></path>
</svg>
