<?xml version="1.0" encoding="utf-8"?>
<!-- Generated by IcoMoon.io -->
<!DOCTYPE svg PUBLIC "-//W3C//DTD SVG 1.1//EN" "http://www.w3.org/Graphics/SVG/1.1/DTD/svg11.dtd">
<svg version="1.1" xmlns="http://www.w3.org/2000/svg" xmlns:xlink="http://www.w3.org/1999/xlink" width="32" height="32" viewBox="0 0 32 32">
<path fill="#444444" d="M29 0h-26c-1.65 0-3 1.35-3 3v18c0 1.65 1.35 3 3 3h5v8l9.6-8h11.4c1.65 0 3-1.35 3-3v-18c0-1.65-1.35-3-3-3zM6.265 4.163c0.275 1.282 0.854 2.461 1.754 3.438 1.934 2.1 4.918 2.803 7.973 2.184v-6.785l9 9-9 9v-7c-5.519 0-9.992-3.582-9.992-8 0-0.632 0.092-1.247 0.265-1.837z"></path>
</svg>
