<?xml version="1.0" encoding="utf-8"?>
<!-- Generated by IcoMoon.io -->
<!DOCTYPE svg PUBLIC "-//W3C//DTD SVG 1.1//EN" "http://www.w3.org/Graphics/SVG/1.1/DTD/svg11.dtd">
<svg version="1.1" xmlns="http://www.w3.org/2000/svg" xmlns:xlink="http://www.w3.org/1999/xlink" width="32" height="32" viewBox="0 0 32 32">
<path fill="#444444" d="M18 16c0 1.105-0.895 2-2 2s-2-0.895-2-2c0-1.105 0.895-2 2-2s2 0.895 2 2z"></path>
<path fill="#444444" d="M18 6h-4c-1.103 0-2 0.897-2 2v2h8v-2c0-1.103-0.897-2-2-2z"></path>
<path fill="#444444" d="M29 0h-26c-1.65 0-3 1.35-3 3v18c0 1.65 1.35 3 3 3h5v8l9.6-8h11.4c1.65 0 3-1.35 3-3v-18c0-1.65-1.35-3-3-3zM24 18.5c0 0.825-0.675 1.5-1.5 1.5h-13c-0.825 0-1.5-0.675-1.5-1.5v-7c0-0.825 0.675-1.5 1.5-1.5h0.5v-2c0-2.206 1.794-4 4-4h4c2.206 0 4 1.794 4 4v2h0.5c0.825 0 1.5 0.675 1.5 1.5v7z"></path>
</svg>
