<?xml version="1.0" encoding="utf-8"?>
<!-- Generated by IcoMoon.io -->
<!DOCTYPE svg PUBLIC "-//W3C//DTD SVG 1.1//EN" "http://www.w3.org/Graphics/SVG/1.1/DTD/svg11.dtd">
<svg version="1.1" xmlns="http://www.w3.org/2000/svg" xmlns:xlink="http://www.w3.org/1999/xlink" width="32" height="32" viewBox="0 0 32 32">
<path fill="#444444" d="M29 0h-26c-1.65 0-3 1.35-3 3v18c0 1.65 1.35 3 3 3h5v8l9.6-8h11.4c1.65 0 3-1.35 3-3v-18c0-1.65-1.35-3-3-3zM23 12.989l-0.008 0.008c-0.15 0.177-6.992 7.004-6.992 7.004s-6.835-6.821-6.976-6.984l-0.011-0.011 0.001-0.001c-0.632-0.742-1.014-1.703-1.014-2.754 0-2.347 1.903-4.25 4.25-4.25 1.624 0 3.034 0.911 3.75 2.249 0.716-1.338 2.126-2.249 3.75-2.249 2.347 0 4.25 1.903 4.25 4.25 0 1.043-0.377 1.999-1.001 2.738l0.001 0z"></path>
</svg>
