<?xml version="1.0" encoding="utf-8"?>
<!-- Generated by IcoMoon.io -->
<!DOCTYPE svg PUBLIC "-//W3C//DTD SVG 1.1//EN" "http://www.w3.org/Graphics/SVG/1.1/DTD/svg11.dtd">
<svg version="1.1" xmlns="http://www.w3.org/2000/svg" xmlns:xlink="http://www.w3.org/1999/xlink" width="32" height="32" viewBox="0 0 32 32">
<path fill="#444444" d="M26.53 11.303c-0.623-0.268-1.489-0.504-2.573-0.701-2.135-0.388-4.961-0.602-7.957-0.602s-5.822 0.214-7.957 0.602c-1.084 0.197-1.95 0.433-2.573 0.701-0.975 0.419-1.47 0.99-1.47 1.697 0 0.093 0.009 0.184 0.026 0.272l1.976 15.805c0.067 1.406 1.976 1.993 3.417 2.314 1.769 0.393 4.106 0.61 6.581 0.61s4.812-0.216 6.581-0.61c1.442-0.32 3.35-0.908 3.417-2.314l1.976-15.805c0.017-0.088 0.026-0.179 0.026-0.272 0-0.707-0.494-1.278-1.47-1.697zM9.078 12.457c1.928-0.295 4.386-0.457 6.922-0.457s4.995 0.162 6.922 0.457c1.203 0.184 1.968 0.381 2.447 0.543-0.479 0.162-1.244 0.359-2.447 0.543-1.928 0.295-4.386 0.457-6.922 0.457s-4.995-0.162-6.922-0.457c-1.203-0.184-1.968-0.381-2.447-0.543 0.479-0.162 1.244-0.359 2.447-0.543zM24.020 28.776c-0.174 0.127-0.773 0.469-2.454 0.779-1.552 0.287-3.528 0.444-5.566 0.444s-4.014-0.158-5.566-0.444c-1.681-0.31-2.28-0.652-2.454-0.779l-1.725-13.797c0.505 0.154 1.102 0.294 1.788 0.418 0.601 0.109 1.258 0.205 1.957 0.286v4.316c0 1.105 0.895 2 2 2s2-0.895 2-2v-4.032c0.654 0.021 1.323 0.032 2 0.032v9c0 0.552 0.448 1 1 1s1-0.448 1-1v-9.032c0.685-0.022 1.354-0.056 2-0.101v3.134c0 0.552 0.448 1 1 1s1-0.448 1-1v-3.316c0.699-0.081 1.356-0.176 1.957-0.286 0.685-0.125 1.283-0.265 1.788-0.418l-1.725 13.797z"></path>
<path fill="#444444" d="M27.392 4.080c-1.098-1.313-2.568-2.321-4.369-2.996-1.919-0.72-4.282-1.084-7.023-1.084s-5.104 0.365-7.023 1.084c-1.801 0.675-3.271 1.683-4.369 2.996-1.779 2.126-2.608 4.961-2.608 8.92 0 0.552 0.448 1 1 1s1-0.448 1-1c0-3.464 0.681-5.89 2.142-7.636 0.886-1.059 2.043-1.846 3.537-2.407 1.693-0.635 3.82-0.957 6.321-0.957s4.627 0.322 6.321 0.957c1.494 0.56 2.651 1.347 3.537 2.407 1.461 1.746 2.142 4.173 2.142 7.636 0 0.552 0.448 1 1 1s1-0.448 1-1c0-3.959-0.829-6.794-2.608-8.92z"></path>
</svg>
