<?xml version="1.0" encoding="utf-8"?>
<!-- Generated by IcoMoon.io -->
<!DOCTYPE svg PUBLIC "-//W3C//DTD SVG 1.1//EN" "http://www.w3.org/Graphics/SVG/1.1/DTD/svg11.dtd">
<svg version="1.1" xmlns="http://www.w3.org/2000/svg" xmlns:xlink="http://www.w3.org/1999/xlink" width="32" height="32" viewBox="0 0 32 32">
<path fill="#444444" d="M29.97 14.758l-2.5-12c-0.111-0.445-0.511-0.757-0.97-0.757h-21c-0.459 0-0.859 0.312-0.97 0.757l-2.5 12c-0.020 0.079-0.030 0.161-0.030 0.242v12c0 0.552 0.448 1 1 1h3v2c0 1.105 0.895 2 2 2s2-0.895 2-2v-2h12v2c0 1.105 0.895 2 2 2s2-0.895 2-2v-2h3c0.552 0 1-0.448 1-1v-12c0-0.082-0.010-0.163-0.030-0.242zM11 4h10c0.552 0 1 0.448 1 1s-0.448 1-1 1h-10c-0.552 0-1-0.448-1-1s0.448-1 1-1zM8 24c-1.105 0-2-0.895-2-2s0.895-2 2-2 2 0.895 2 2-0.895 2-2 2zM7 16c-0.294 0-0.573-0.129-0.763-0.354s-0.272-0.521-0.223-0.811l1-6c0.080-0.482 0.498-0.836 0.986-0.836h16c0.489 0 0.906 0.353 0.986 0.836l1 6c0.048 0.29-0.033 0.587-0.223 0.811s-0.469 0.354-0.763 0.354h-18zM24 24c-1.105 0-2-0.895-2-2s0.895-2 2-2 2 0.895 2 2-0.895 2-2 2z"></path>
</svg>
