<?xml version="1.0" encoding="utf-8"?>
<!-- Generated by IcoMoon.io -->
<!DOCTYPE svg PUBLIC "-//W3C//DTD SVG 1.1//EN" "http://www.w3.org/Graphics/SVG/1.1/DTD/svg11.dtd">
<svg version="1.1" xmlns="http://www.w3.org/2000/svg" xmlns:xlink="http://www.w3.org/1999/xlink" width="32" height="32" viewBox="0 0 32 32">
<path fill="#444444" d="M4 32h24v-8h-24v8zM12 27c0-0.552 0.448-1 1-1h6c0.552 0 1 0.448 1 1v2c0 0.552-0.448 1-1 1s-1-0.448-1-1v-1h-4v1c0 0.552-0.448 1-1 1s-1-0.448-1-1v-2z"></path>
<path fill="#444444" d="M4 22h24v-8h-24v8zM12 17c0-0.552 0.448-1 1-1h6c0.552 0 1 0.448 1 1v2c0 0.552-0.448 1-1 1s-1-0.448-1-1v-1h-4v1c0 0.552-0.448 1-1 1s-1-0.448-1-1v-2z"></path>
<path fill="#444444" d="M22 0h-12l-6 4v8h24v-8l-6-4zM20 9c0 0.552-0.448 1-1 1s-1-0.448-1-1v-1h-4v1c0 0.552-0.448 1-1 1s-1-0.448-1-1v-2c0-0.552 0.448-1 1-1h6c0.552 0 1 0.448 1 1v2z"></path>
</svg>
