<?xml version="1.0" encoding="utf-8"?>
<!-- Generated by IcoMoon.io -->
<!DOCTYPE svg PUBLIC "-//W3C//DTD SVG 1.1//EN" "http://www.w3.org/Graphics/SVG/1.1/DTD/svg11.dtd">
<svg version="1.1" xmlns="http://www.w3.org/2000/svg" xmlns:xlink="http://www.w3.org/1999/xlink" width="32" height="32" viewBox="0 0 32 32">
<path fill="#444444" d="M29 10h-1v-3c0-1.657-1.343-3-3-3s-3 1.343-3 3v6c0 0.542-0.458 1-1 1h-3v-11c0-1.657-1.343-3-3-3s-3 1.343-3 3v3h-1c-0.552 0-1 0.448-1 1s0.448 1 1 1h1v10h-3c-0.542 0-1-0.458-1-1v-2c0-1.657-1.343-3-3-3s-3 1.343-3 3v2c0 3.86 3.14 7 7 7h3v8h6v-6h1c0.552 0 1-0.448 1-1s-0.448-1-1-1h-1v-4h3c3.86 0 7-3.14 7-7v-1h1c0.552 0 1-0.448 1-1s-0.448-1-1-1z"></path>
</svg>
