<?xml version="1.0" encoding="utf-8"?>
<!-- Generated by IcoMoon.io -->
<!DOCTYPE svg PUBLIC "-//W3C//DTD SVG 1.1//EN" "http://www.w3.org/Graphics/SVG/1.1/DTD/svg11.dtd">
<svg version="1.1" xmlns="http://www.w3.org/2000/svg" xmlns:xlink="http://www.w3.org/1999/xlink" width="32" height="32" viewBox="0 0 32 32">
<path fill="#444444" d="M29 32h-28c-0.552 0-1-0.448-1-1v-30c0-0.552 0.448-1 1-1h28c0.552 0 1 0.448 1 1v30c0 0.552-0.448 1-1 1zM2 30h26v-28h-26v28z"></path>
<path fill="#444444" d="M4 4h22v6h-22v-6z"></path>
<path fill="#444444" d="M4 12h4v4h-4v-4z"></path>
<path fill="#444444" d="M10 12h4v4h-4v-4z"></path>
<path fill="#444444" d="M16 12h4v4h-4v-4z"></path>
<path fill="#444444" d="M4 18h4v4h-4v-4z"></path>
<path fill="#444444" d="M10 18h4v4h-4v-4z"></path>
<path fill="#444444" d="M16 18h4v4h-4v-4z"></path>
<path fill="#444444" d="M4 24h4v4h-4v-4z"></path>
<path fill="#444444" d="M10 24h4v4h-4v-4z"></path>
<path fill="#444444" d="M16 24h4v4h-4v-4z"></path>
<path fill="#444444" d="M22 18h4v10h-4v-10z"></path>
<path fill="#444444" d="M22 12h4v4h-4v-4z"></path>
</svg>
