<?xml version="1.0" encoding="utf-8"?>
<!-- Generated by IcoMoon.io -->
<!DOCTYPE svg PUBLIC "-//W3C//DTD SVG 1.1//EN" "http://www.w3.org/Graphics/SVG/1.1/DTD/svg11.dtd">
<svg version="1.1" xmlns="http://www.w3.org/2000/svg" xmlns:xlink="http://www.w3.org/1999/xlink" width="32" height="32" viewBox="0 0 32 32">
<path fill="#444444" d="M16 14h2v2h-2v-2z"></path>
<path fill="#444444" d="M20 18h2v2h-2v-2z"></path>
<path fill="#444444" d="M20 22h2v2h-2v-2z"></path>
<path fill="#444444" d="M16 10h2v2h-2v-2z"></path>
<path fill="#444444" d="M16 18h2v2h-2v-2z"></path>
<path fill="#444444" d="M16 26h2v2h-2v-2z"></path>
<path fill="#444444" d="M16 22h2v2h-2v-2z"></path>
<path fill="#444444" d="M12 10h2v2h-2v-2z"></path>
<path fill="#444444" d="M24 18h2v2h-2v-2z"></path>
<path fill="#444444" d="M24 14h2v2h-2v-2z"></path>
<path fill="#444444" d="M24 10h2v2h-2v-2z"></path>
<path fill="#444444" d="M24 22h2v2h-2v-2z"></path>
<path fill="#444444" d="M20 10h2v2h-2v-2z"></path>
<path fill="#444444" d="M24 26h2v2h-2v-2z"></path>
<path fill="#444444" d="M20 14h2v2h-2v-2z"></path>
<path fill="#444444" d="M20 26h2v2h-2v-2z"></path>
<path fill="#444444" d="M4 14h2v2h-2v-2z"></path>
<path fill="#444444" d="M4 18h2v2h-2v-2z"></path>
<path fill="#444444" d="M8 26h2v2h-2v-2z"></path>
<path fill="#444444" d="M12 14h2v2h-2v-2z"></path>
<path fill="#444444" d="M4 26h2v2h-2v-2z"></path>
<path fill="#444444" d="M4 22h2v2h-2v-2z"></path>
<path fill="#444444" d="M4 10h2v2h-2v-2z"></path>
<path fill="#444444" d="M12 22h2v2h-2v-2z"></path>
<path fill="#444444" d="M8 22h2v2h-2v-2z"></path>
<path fill="#444444" d="M12 18h2v2h-2v-2z"></path>
<path fill="#444444" d="M12 26h2v2h-2v-2z"></path>
<path fill="#444444" d="M8 10h2v2h-2v-2z"></path>
<path fill="#444444" d="M8 18h2v2h-2v-2z"></path>
<path fill="#444444" d="M8 14h2v2h-2v-2z"></path>
<path fill="#444444" d="M24 2v-2h-4v2h-10v-2h-4v2h-6v30h30v-30h-6zM20 4h4v2h-4v-2zM6 4h4v2h-4v-2zM28 30h-26v-22h26v22z"></path>
</svg>
