<?xml version="1.0" encoding="utf-8"?>
<!-- Generated by IcoMoon.io -->
<!DOCTYPE svg PUBLIC "-//W3C//DTD SVG 1.1//EN" "http://www.w3.org/Graphics/SVG/1.1/DTD/svg11.dtd">
<svg version="1.1" xmlns="http://www.w3.org/2000/svg" xmlns:xlink="http://www.w3.org/1999/xlink" width="32" height="32" viewBox="0 0 32 32">
<path fill="#444444" d="M30 10h-6c-0.171 0-0.476-0.188-0.553-0.342l-1.106-2.211c-0.413-0.825-1.419-1.447-2.342-1.447h-8c-0.922 0-1.929 0.622-2.342 1.447l-1.106 2.211c-0.077 0.153-0.381 0.342-0.553 0.342v-1c0-0.552-0.448-1-1-1h-4c-0.552 0-1 0.448-1 1v1c-1.103 0-2 0.897-2 2v18c0 1.103 0.897 2 2 2h28c1.103 0 2-0.897 2-2v-18c0-1.103-0.897-2-2-2zM2 30v-18h6c0.922 0 1.929-0.622 2.342-1.447l1.106-2.211c0.077-0.153 0.381-0.342 0.553-0.342h8c0.171 0 0.476 0.188 0.553 0.342l1.106 2.211c0.413 0.825 1.419 1.447 2.342 1.447h6l0 18h-28z"></path>
<path fill="#444444" d="M16 11.75c-4.549 0-8.25 3.701-8.25 8.25s3.701 8.25 8.25 8.25 8.25-3.701 8.25-8.25-3.701-8.25-8.25-8.25zM16 26.188c-3.412 0-6.188-2.776-6.188-6.188s2.776-6.188 6.188-6.188 6.188 2.776 6.188 6.188-2.776 6.188-6.188 6.188z"></path>
<path fill="#444444" d="M20 20c0 2.209-1.791 4-4 4s-4-1.791-4-4c0-2.209 1.791-4 4-4s4 1.791 4 4z"></path>
<path fill="#444444" d="M26 14h2v2h-2v-2z"></path>
</svg>
