<?xml version="1.0" encoding="utf-8"?>
<!-- Generated by IcoMoon.io -->
<!DOCTYPE svg PUBLIC "-//W3C//DTD SVG 1.1//EN" "http://www.w3.org/Graphics/SVG/1.1/DTD/svg11.dtd">
<svg version="1.1" xmlns="http://www.w3.org/2000/svg" xmlns:xlink="http://www.w3.org/1999/xlink" width="32" height="32" viewBox="0 0 32 32">
<path fill="#444444" d="M30 16h-2c0-0.164-0.020-0.326-0.060-0.485l-2-8c-0.223-0.89-1.023-1.515-1.94-1.515h-16c-0.918 0-1.718 0.625-1.94 1.515l-2 8c-0.040 0.159-0.060 0.322-0.060 0.485h-2c-1.105 0-2 0.895-2 2v8c0 1.105 0.895 2 2 2h2v2c0 1.105 0.895 2 2 2s2-0.895 2-2v-2h16v2c0 1.105 0.895 2 2 2s2-0.895 2-2v-2h2c1.105 0 2-0.895 2-2v-8c0-1.105-0.895-2-2-2zM6 24c-1.105 0-2-0.895-2-2s0.895-2 2-2 2 0.895 2 2-0.895 2-2 2zM8.062 16l1.5-6h12.877l1.5 6h-15.877zM26 24c-1.105 0-2-0.895-2-2s0.895-2 2-2 2 0.895 2 2-0.895 2-2 2z"></path>
<path fill="#444444" d="M21 4l-1.030-3.243c-0.111-0.445-0.511-0.757-0.97-0.757h-6c-0.459 0-0.859 0.312-0.97 0.757l-1.030 3.243h10z"></path>
</svg>
