<?xml version="1.0" encoding="utf-8"?>
<!-- Generated by IcoMoon.io -->
<!DOCTYPE svg PUBLIC "-//W3C//DTD SVG 1.1//EN" "http://www.w3.org/Graphics/SVG/1.1/DTD/svg11.dtd">
<svg version="1.1" xmlns="http://www.w3.org/2000/svg" xmlns:xlink="http://www.w3.org/1999/xlink" width="32" height="32" viewBox="0 0 32 32">
<path fill="#444444" d="M26.476 18c1.1 0 2.247-0.865 2.549-1.923l2.901-10.154c0.302-1.058-0.351-1.923-1.451-1.923h-20.476c0-2.209-1.791-4-4-4h-6v4h6v17c0 1.657 1.343 3 3 3h19c1.105 0 2-0.895 2-2s-0.895-2-2-2h-18v-2h16.476zM10 8h18.088l-1.714 6h-16.373v-6z"></path>
<path fill="#444444" d="M12 29c0 1.657-1.343 3-3 3s-3-1.343-3-3c0-1.657 1.343-3 3-3s3 1.343 3 3z"></path>
<path fill="#444444" d="M30 29c0 1.657-1.343 3-3 3s-3-1.343-3-3c0-1.657 1.343-3 3-3s3 1.343 3 3z"></path>
</svg>
