<?xml version="1.0" encoding="utf-8"?>
<!-- Generated by IcoMoon.io -->
<!DOCTYPE svg PUBLIC "-//W3C//DTD SVG 1.1//EN" "http://www.w3.org/Graphics/SVG/1.1/DTD/svg11.dtd">
<svg version="1.1" xmlns="http://www.w3.org/2000/svg" xmlns:xlink="http://www.w3.org/1999/xlink" width="34" height="32" viewBox="0 0 34 32">
<path fill="#444444" d="M14 18h2v2h-2v-2z"></path>
<path fill="#444444" d="M0 12v18h34v-18h-34zM6 28h-4v-4h2v2h2v2zM6 16h-2v2h-2v-4h4v2zM21 20c0.552 0 1 0.448 1 1v4c0 0.552-0.448 1-1 1h-3v1c0 0.552-0.448 1-1 1s-1-0.448-1-1v-1h-3c-0.552 0-1-0.448-1-1s0.448-1 1-1h3v-2h-3c-0.552 0-1-0.448-1-1v-4c0-0.552 0.448-1 1-1h3v-1c0-0.552 0.448-1 1-1s1 0.448 1 1v1h3c0.552 0 1 0.448 1 1s-0.448 1-1 1h-3v2h3zM32 28h-4v-2h2v-2h2v4zM32 18h-2v-2h-2v-2h4v4z"></path>
<path fill="#444444" d="M18 22h2v2h-2v-2z"></path>
<path fill="#444444" d="M2 8h30v3h-30v-3z"></path>
<path fill="#444444" d="M4 4h26v3h-26v-3z"></path>
</svg>
