<?xml version="1.0" encoding="utf-8"?>
<!-- Generated by IcoMoon.io -->
<!DOCTYPE svg PUBLIC "-//W3C//DTD SVG 1.1//EN" "http://www.w3.org/Graphics/SVG/1.1/DTD/svg11.dtd">
<svg version="1.1" xmlns="http://www.w3.org/2000/svg" xmlns:xlink="http://www.w3.org/1999/xlink" width="34" height="32" viewBox="0 0 34 32">
<path fill="#444444" d="M2 8h30v3h-30v-3z"></path>
<path fill="#444444" d="M4 4h26v3h-26v-3z"></path>
<path fill="#444444" d="M0 12v18h34v-18h-34zM6 28h-4v-4h2v2h2v2zM6 16h-2v2h-2v-4h4v2zM17 28c-3.86 0-7-3.14-7-7s3.14-7 7-7 7 3.14 7 7-3.14 7-7 7zM32 28h-4v-2h2v-2h2v4zM32 18h-2v-2h-2v-2h4v4z"></path>
<path fill="#444444" d="M17 16c-2.757 0-5 2.243-5 5s2.243 5 5 5 5-2.243 5-5-2.243-5-5-5z"></path>
</svg>
