<?xml version="1.0" encoding="utf-8"?>
<!-- Generated by IcoMoon.io -->
<!DOCTYPE svg PUBLIC "-//W3C//DTD SVG 1.1//EN" "http://www.w3.org/Graphics/SVG/1.1/DTD/svg11.dtd">
<svg version="1.1" xmlns="http://www.w3.org/2000/svg" xmlns:xlink="http://www.w3.org/1999/xlink" width="32" height="32" viewBox="0 0 32 32">
<path fill="#444444" d="M7.721 24l-1.333 4h19.217l-1.326-4z"></path>
<path fill="#444444" d="M31 6h-30c-0.552 0-1 0.448-1 1v20c0 0.552 0.448 1 1 1h3.279l1.772-5.316c0.136-0.408 0.518-0.684 0.949-0.684h18c0.431 0 0.814 0.276 0.949 0.685l1.762 5.315h3.288c0.552 0 1-0.448 1-1v-20c0-0.552-0.448-1-1-1zM8 20c-2.209 0-4-1.791-4-4s1.791-4 4-4 4 1.791 4 4c0 2.209-1.791 4-4 4zM24 20c-2.209 0-4-1.791-4-4s1.791-4 4-4 4 1.791 4 4c0 2.209-1.791 4-4 4zM27 10h-22c-0.552 0-1-0.448-1-1s0.448-1 1-1h22c0.552 0 1 0.448 1 1s-0.448 1-1 1z"></path>
<path fill="#444444" d="M10 16c0 1.105-0.895 2-2 2s-2-0.895-2-2c0-1.105 0.895-2 2-2s2 0.895 2 2z"></path>
<path fill="#444444" d="M26 16c0 1.105-0.895 2-2 2s-2-0.895-2-2c0-1.105 0.895-2 2-2s2 0.895 2 2z"></path>
</svg>
