<?xml version="1.0" encoding="utf-8"?>
<!-- Generated by IcoMoon.io -->
<!DOCTYPE svg PUBLIC "-//W3C//DTD SVG 1.1//EN" "http://www.w3.org/Graphics/SVG/1.1/DTD/svg11.dtd">
<svg version="1.1" xmlns="http://www.w3.org/2000/svg" xmlns:xlink="http://www.w3.org/1999/xlink" width="32" height="32" viewBox="0 0 32 32">
<path fill="#444444" d="M2 0v32h28v-32h-28zM28 30h-24v-28h24v28zM6 6h10v2h-10v-2zM6 10h10v2h-10v-2zM6 14h10v2h-10v-2zM6 17.98h10v2h-10v-2zM6 22h10v2h-10v-2zM6 26h20v2h-20v-2zM26 6.828l-1.172 1.172 1.172 1.172v0.828h-2v2h-0.828l-1.172-1.172-1.172 1.172h-0.828v-2h-2v-0.828l1.172-1.172-1.172-1.172v-0.828h2v-2h0.828l1.172 1.172 1.172-1.172h0.828v2h2v0.828z"></path>
<path fill="#444444" d="M24 14v9l-2-2-2 2v-9z"></path>
</svg>
