<?xml version="1.0" encoding="utf-8"?>
<!-- Generated by IcoMoon.io -->
<!DOCTYPE svg PUBLIC "-//W3C//DTD SVG 1.1//EN" "http://www.w3.org/Graphics/SVG/1.1/DTD/svg11.dtd">
<svg version="1.1" xmlns="http://www.w3.org/2000/svg" xmlns:xlink="http://www.w3.org/1999/xlink" width="32" height="32" viewBox="0 0 32 32">
<path fill="#444444" d="M28 18h-4v-14c0-1.105-0.895-2-2-2s-2 0.895-2 2v2h-10v-2c0-1.105-0.895-2-2-2s-2 0.895-2 2v14h-4v4h2v10h4v-4h14v4h4v-10h2v-4zM10 12h10v2h-10v-2zM20 8v2h-10v-2h10zM10 16h10v2h-10v-2zM22 26h-14v-4h14v4z"></path>
</svg>
