<?xml version="1.0" encoding="utf-8"?>
<!-- Generated by IcoMoon.io -->
<!DOCTYPE svg PUBLIC "-//W3C//DTD SVG 1.1//EN" "http://www.w3.org/Graphics/SVG/1.1/DTD/svg11.dtd">
<svg version="1.1" xmlns="http://www.w3.org/2000/svg" xmlns:xlink="http://www.w3.org/1999/xlink" width="32" height="32" viewBox="0 0 32 32">
<path fill="#444444" d="M31.486 14.126l-22.15-12.31c-0.29-0.161-0.642-0.168-0.938-0.018-5.18 2.626-8.398 7.685-8.398 13.202v12c0 0.552 0.448 1 1 1h30c0.552 0 1-0.448 1-1v-11.996c0.002-0.358-0.19-0.698-0.514-0.878zM15.938 10.188c1.035 0 1.875 0.784 1.875 1.75s-0.84 1.75-1.875 1.75-1.875-0.783-1.875-1.75c0-0.966 0.839-1.75 1.875-1.75zM8 8.133c1.105 0 2 0.836 2 1.867s-0.895 1.867-2 1.867-2-0.836-2-1.867c0-1.031 0.895-1.867 2-1.867zM24 26c0-1.105-0.895-2-2-2s-2 0.895-2 2h-18v-10h28v2h-1c-1.657 0-3 1.343-3 3s1.343 3 3 3h1v2h-6z"></path>
<path fill="#444444" d="M8 20c0 1.105-0.895 2-2 2s-2-0.895-2-2c0-1.105 0.895-2 2-2s2 0.895 2 2z"></path>
<path fill="#444444" d="M16 21c0 1.657-1.343 3-3 3s-3-1.343-3-3c0-1.657 1.343-3 3-3s3 1.343 3 3z"></path>
<path fill="#444444" d="M22 20c0 1.105-0.895 2-2 2s-2-0.895-2-2c0-1.105 0.895-2 2-2s2 0.895 2 2z"></path>
</svg>
