<?xml version="1.0" encoding="utf-8"?>
<!-- Generated by IcoMoon.io -->
<!DOCTYPE svg PUBLIC "-//W3C//DTD SVG 1.1//EN" "http://www.w3.org/Graphics/SVG/1.1/DTD/svg11.dtd">
<svg version="1.1" xmlns="http://www.w3.org/2000/svg" xmlns:xlink="http://www.w3.org/1999/xlink" width="32" height="32" viewBox="0 0 32 32">
<path fill="#444444" d="M26 12c-2.221 0-4.161 1.207-5.198 3.001-2.085-0.609-4.052-1.377-5.877-2.298-2.438-1.231-4.635-2.737-6.528-4.476-2.424-2.226-3.878-4.438-4.396-5.457v-0.77c0-1.105-0.895-2-2-2s-2 0.895-2 2 0.895 2 2 2c0.013 0 0.025-0.001 0.038-0.001 0.233 3.235 1.531 7.637 3.437 11.563 1.174 2.416 2.496 4.509 3.93 6.221 0.051 0.061 0.103 0.122 0.154 0.182-0.969 1.066-1.56 2.481-1.56 4.035 0 3.314 2.686 6 6 6s6-2.686 6-6-2.686-6-6-6c-1.040 0-2.018 0.265-2.87 0.73-1.377-1.592-2.684-3.631-3.855-6.042-1.198-2.466-2.155-5.18-2.718-7.593 0.65 0.781 1.444 1.639 2.401 2.525 2.030 1.88 4.383 3.505 6.994 4.831 1.915 0.973 3.974 1.784 6.154 2.429-0.068 0.363-0.105 0.737-0.105 1.119 0 3.314 2.686 6 6 6s6-2.686 6-6-2.686-6-6-6z"></path>
</svg>
