<?xml version="1.0" encoding="utf-8"?>
<!-- Generated by IcoMoon.io -->
<!DOCTYPE svg PUBLIC "-//W3C//DTD SVG 1.1//EN" "http://www.w3.org/Graphics/SVG/1.1/DTD/svg11.dtd">
<svg version="1.1" xmlns="http://www.w3.org/2000/svg" xmlns:xlink="http://www.w3.org/1999/xlink" width="32" height="32" viewBox="0 0 32 32">
<path fill="#444444" d="M30 24c-5 0-7.5-4.5-7.5-4.5-2 0-3 1-3 3 0 0 4.5 2.5 4.5 7.5 0 1.105 0.895 2 2 2s2-0.895 2-2v-1c0-0.552 0.448-1 1-1h1c1.105 0 2-0.895 2-2s-0.895-2-2-2z"></path>
<path fill="#444444" d="M18 21c0-1.657 1.343-3 3-3 0.341 0 0.669 0.058 0.975 0.163 0.287-0.997 0.301-2.093-0.028-2.972l-0.893-2.382c-0.579-1.545-1.441-4.102-1.915-5.682-0-0-2.138-7.127-10.138-7.127-4.971 0-9 4.029-9 9 0 8 7.127 10.138 7.127 10.138 1.58 0.474 2.873 0.862 2.873 0.862s1.264 0.474 2.809 1.053l2.382 0.893c0.879 0.329 1.975 0.316 2.972 0.028-0.105-0.306-0.163-0.634-0.163-0.975z"></path>
</svg>
