<?xml version="1.0" encoding="utf-8"?>
<!-- Generated by IcoMoon.io -->
<!DOCTYPE svg PUBLIC "-//W3C//DTD SVG 1.1//EN" "http://www.w3.org/Graphics/SVG/1.1/DTD/svg11.dtd">
<svg version="1.1" xmlns="http://www.w3.org/2000/svg" xmlns:xlink="http://www.w3.org/1999/xlink" width="32" height="32" viewBox="0 0 32 32">
<path fill="#444444" d="M31 10c-0.552 0-1 0.448-1 1v1.528l-10 3.064v-1.592c0-2.206-1.794-4-4-4h-4v-2h11c0.552 0 1-0.448 1-1s-0.448-1-1-1h-22c-0.552 0-1 0.448-1 1s0.448 1 1 1h9v2c-2.116 0-4.173 1.16-5.793 3.265-1.362 1.77-2.207 3.967-2.207 5.735v1.875c0 0.148 0.032 0.289 0.090 0.415 0.359 1.551 1.752 2.71 3.41 2.71h0.5v2h-3c-0.551 0-1-0.449-1-1s-0.448-1-1-1-1 0.448-1 1c0 1.654 1.346 3 3 3h16c0.552 0 1-0.448 1-1s-0.448-1-1-1h-5v-2.223c0.873-0.198 1.689-0.52 2.421-0.947 0.030-0.014 0.061-0.029 0.090-0.047l13.489-7.378v1.594c0 0.552 0.448 1 1 1s1-0.448 1-1v-6c0-0.552-0.448-1-1-1zM4.116 18c0.244-1.142 0.857-2.451 1.676-3.515 0.714-0.928 2.21-2.485 4.207-2.485h2v5c0 0.551-0.449 1-1 1h-6.884zM8 26v-2h4v2h-4z"></path>
</svg>
