<?xml version="1.0" encoding="utf-8"?>
<!-- Generated by IcoMoon.io -->
<!DOCTYPE svg PUBLIC "-//W3C//DTD SVG 1.1//EN" "http://www.w3.org/Graphics/SVG/1.1/DTD/svg11.dtd">
<svg version="1.1" xmlns="http://www.w3.org/2000/svg" xmlns:xlink="http://www.w3.org/1999/xlink" width="32" height="32" viewBox="0 0 32 32">
<path fill="#444444" d="M16 0c-8.837 0-16 7.163-16 16s7.163 16 16 16 16-7.163 16-16-7.163-16-16-16zM13.414 20.586c0.781 0.781 0.781 2.047 0 2.829-0.39 0.39-0.902 0.586-1.414 0.586s-1.024-0.195-1.414-0.586l-6-6c-0.781-0.781-0.781-2.047 0-2.828l6-6c0.781-0.781 2.047-0.781 2.828 0s0.781 2.047 0 2.828l-4.586 4.586 4.586 4.586zM21.414 23.414c-0.781 0.781-2.047 0.781-2.828 0s-0.781-2.047 0-2.828l4.586-4.586-4.586-4.586c-0.781-0.781-0.781-2.047 0-2.829 0.391-0.39 0.902-0.586 1.414-0.586s1.024 0.195 1.414 0.586l6 6c0.781 0.781 0.781 2.047 0 2.828l-6 6z"></path>
</svg>
