<?xml version="1.0" encoding="utf-8"?>
<!-- Generated by IcoMoon.io -->
<!DOCTYPE svg PUBLIC "-//W3C//DTD SVG 1.1//EN" "http://www.w3.org/Graphics/SVG/1.1/DTD/svg11.dtd">
<svg version="1.1" xmlns="http://www.w3.org/2000/svg" xmlns:xlink="http://www.w3.org/1999/xlink" width="32" height="32" viewBox="0 0 32 32">
<path fill="#444444" d="M22.25 30.733c0.168-0.072 0.335-0.147 0.5-0.224v-3.397c-0.164 0.1-0.331 0.196-0.5 0.289v3.332z"></path>
<path fill="#444444" d="M23.25 30.267c0.169-0.086 0.335-0.175 0.5-0.267v-3.562c-0.164 0.122-0.33 0.24-0.5 0.354v3.475z"></path>
<path fill="#444444" d="M24.25 29.711c0.169-0.102 0.335-0.207 0.5-0.315v-3.782c-0.163 0.148-0.33 0.293-0.5 0.433v3.664z"></path>
<path fill="#444444" d="M29.25 24.971c0.174-0.257 0.341-0.519 0.5-0.787v-16.369c-0.159-0.267-0.326-0.53-0.5-0.787v17.942z"></path>
<path fill="#444444" d="M17.75 28.882c-0.166 0.022-0.332 0.042-0.5 0.058v2.986h-0.5v-2.948c-0.166 0.009-0.332 0.016-0.5 0.019v2.929h-0.5v-2.929c-0.168-0.003-0.334-0.009-0.5-0.019v2.948h-0.5v-2.986c-0.168-0.016-0.334-0.035-0.5-0.058v3.022c0.575 0.063 1.159 0.096 1.75 0.096s1.175-0.033 1.75-0.096v-3.022z"></path>
<path fill="#444444" d="M26.25 28.285c0.169-0.142 0.337-0.286 0.5-0.434v-4.539c-0.159 0.234-0.326 0.462-0.5 0.685v4.289z"></path>
<path fill="#444444" d="M27.25 27.376c0.171-0.169 0.337-0.341 0.5-0.517v-5.291c-0.154 0.324-0.321 0.641-0.5 0.95v4.858z"></path>
<path fill="#444444" d="M21.25 31.118c0.168-0.058 0.335-0.119 0.5-0.183v-3.273c-0.165 0.081-0.331 0.159-0.5 0.234v3.222z"></path>
<path fill="#444444" d="M31.25 11.148v9.705c0.209-0.656 0.377-1.33 0.5-2.020v-5.665c-0.123-0.69-0.291-1.364-0.5-2.020z"></path>
<path fill="#444444" d="M30.25 23.283c0.18-0.35 0.346-0.709 0.5-1.073v-12.42c-0.154-0.365-0.32-0.723-0.5-1.073v14.566z"></path>
<path fill="#444444" d="M18.25 31.842c0.168-0.024 0.334-0.049 0.5-0.078v-3.056c-0.166 0.036-0.332 0.069-0.5 0.098v3.036z"></path>
<path fill="#444444" d="M20.25 31.428c0.168-0.046 0.335-0.094 0.5-0.145v-3.178c-0.165 0.065-0.332 0.126-0.5 0.184v3.14z"></path>
<path fill="#444444" d="M19.25 31.669c0.168-0.035 0.334-0.073 0.5-0.112v-3.107c-0.165 0.050-0.332 0.097-0.5 0.14v3.079z"></path>
<path fill="#444444" d="M28.25 20.36v5.932c0.172-0.204 0.338-0.413 0.5-0.625v-7.12c-0.123 0.622-0.291 1.227-0.5 1.813z"></path>
<path fill="#444444" d="M12.25 31.557c0.166 0.040 0.332 0.078 0.5 0.112v-3.079c-0.168-0.043-0.335-0.091-0.5-0.14v3.107z"></path>
<path fill="#444444" d="M11.25 31.283c0.165 0.051 0.332 0.099 0.5 0.145v-3.14c-0.168-0.058-0.335-0.119-0.5-0.184v3.178z"></path>
<path fill="#444444" d="M13.25 28.708v3.056c0.166 0.029 0.332 0.054 0.5 0.078v-3.036c-0.168-0.029-0.334-0.062-0.5-0.098z"></path>
<path fill="#444444" d="M10.25 30.935c0.165 0.064 0.332 0.125 0.5 0.183v-3.222c-0.169-0.075-0.335-0.153-0.5-0.234v3.273z"></path>
<path fill="#444444" d="M4.75 9.482v-4.858c-0.171 0.169-0.337 0.341-0.5 0.517v5.291c0.154-0.324 0.321-0.641 0.5-0.95z"></path>
<path fill="#444444" d="M27.25 9.482c0.179 0.309 0.346 0.626 0.5 0.95v-5.291c-0.163-0.176-0.329-0.349-0.5-0.517v4.858z"></path>
<path fill="#444444" d="M5.25 27.851c0.163 0.148 0.33 0.293 0.5 0.434v-4.289c-0.174-0.223-0.341-0.451-0.5-0.685v4.539z"></path>
<path fill="#444444" d="M3.25 25.666c0.162 0.213 0.328 0.421 0.5 0.625v-5.932c-0.209-0.586-0.377-1.192-0.5-1.813v7.12z"></path>
<path fill="#444444" d="M9.25 30.509c0.165 0.077 0.332 0.152 0.5 0.224v-3.332c-0.169-0.093-0.336-0.189-0.5-0.289v3.397z"></path>
<path fill="#444444" d="M4.25 26.858c0.163 0.176 0.329 0.349 0.5 0.517v-4.858c-0.179-0.309-0.346-0.626-0.5-0.95v5.291z"></path>
<path fill="#444444" d="M6.25 28.686c0.164 0.127 0.331 0.251 0.5 0.371v-3.923c-0.172-0.174-0.338-0.353-0.5-0.536v4.088z"></path>
<path fill="#444444" d="M8.25 30c0.165 0.092 0.331 0.181 0.5 0.267v-3.475c-0.17-0.114-0.336-0.232-0.5-0.354v3.562z"></path>
<path fill="#444444" d="M7.25 29.396c0.165 0.108 0.331 0.213 0.5 0.315v-3.664c-0.17-0.14-0.337-0.284-0.5-0.433v3.782z"></path>
<path fill="#444444" d="M25.25 29.057c0.169-0.12 0.336-0.244 0.5-0.371v-4.088c-0.162 0.183-0.328 0.362-0.5 0.536v3.923z"></path>
<path fill="#444444" d="M28.25 11.64c0.209 0.586 0.377 1.192 0.5 1.813v-7.12c-0.162-0.213-0.328-0.421-0.5-0.625v5.932z"></path>
<path fill="#444444" d="M8.25 5.562c0.164-0.122 0.33-0.24 0.5-0.354v-3.475c-0.169 0.086-0.335 0.175-0.5 0.267v3.562z"></path>
<path fill="#444444" d="M10.25 4.339c0.165-0.081 0.331-0.159 0.5-0.234v-3.222c-0.168 0.058-0.335 0.119-0.5 0.183v3.273z"></path>
<path fill="#444444" d="M9.25 4.888c0.164-0.1 0.331-0.196 0.5-0.289v-3.332c-0.168 0.071-0.335 0.147-0.5 0.224v3.397z"></path>
<path fill="#444444" d="M13.25 3.292c0.166-0.036 0.332-0.069 0.5-0.098v-3.036c-0.168 0.024-0.334 0.049-0.5 0.078v3.056z"></path>
<path fill="#444444" d="M11.25 3.895c0.165-0.065 0.332-0.126 0.5-0.184v-3.14c-0.168 0.046-0.335 0.094-0.5 0.145v3.178z"></path>
<path fill="#444444" d="M12.25 3.55c0.165-0.050 0.332-0.097 0.5-0.14v-3.079c-0.168 0.035-0.334 0.073-0.5 0.112v3.107z"></path>
<path fill="#444444" d="M1.25 22.21c0.154 0.365 0.321 0.723 0.5 1.073v-14.566c-0.179 0.35-0.346 0.708-0.5 1.073v12.42z"></path>
<path fill="#444444" d="M6.25 7.402c0.162-0.183 0.328-0.362 0.5-0.536v-3.923c-0.169 0.12-0.336 0.244-0.5 0.371v4.088z"></path>
<path fill="#444444" d="M2.25 24.184c0.159 0.267 0.326 0.53 0.5 0.787v-17.942c-0.174 0.257-0.341 0.519-0.5 0.787v16.369z"></path>
<path fill="#444444" d="M0.25 18.833c0.123 0.69 0.291 1.364 0.5 2.020v-9.705c-0.209 0.656-0.377 1.33-0.5 2.020v5.666z"></path>
<path fill="#444444" d="M3.25 13.454c0.123-0.622 0.291-1.227 0.5-1.813v-5.932c-0.172 0.204-0.338 0.413-0.5 0.625v7.12z"></path>
<path fill="#444444" d="M5.25 8.689c0.159-0.234 0.326-0.462 0.5-0.685v-4.289c-0.17 0.142-0.337 0.286-0.5 0.434v4.539z"></path>
<path fill="#444444" d="M7.25 6.386c0.163-0.148 0.33-0.292 0.5-0.433v-3.664c-0.169 0.102-0.335 0.207-0.5 0.315v3.782z"></path>
<path fill="#444444" d="M24.25 5.953c0.17 0.14 0.337 0.284 0.5 0.433v-3.782c-0.165-0.108-0.331-0.213-0.5-0.315v3.664z"></path>
<path fill="#444444" d="M23.25 5.208c0.17 0.114 0.336 0.232 0.5 0.354v-3.562c-0.165-0.092-0.331-0.181-0.5-0.267v3.475z"></path>
<path fill="#444444" d="M22.25 4.599c0.169 0.093 0.336 0.189 0.5 0.289v-3.397c-0.165-0.077-0.332-0.152-0.5-0.224v3.332z"></path>
<path fill="#444444" d="M25.25 6.867c0.172 0.174 0.338 0.353 0.5 0.536v-4.088c-0.164-0.126-0.331-0.251-0.5-0.371v3.923z"></path>
<path fill="#444444" d="M21.25 4.105c0.169 0.074 0.335 0.152 0.5 0.234v-3.273c-0.165-0.064-0.332-0.125-0.5-0.183v3.222z"></path>
<path fill="#444444" d="M14.25 3.118c0.166-0.022 0.332-0.042 0.5-0.058v-3.012c-0.168 0.013-0.334 0.029-0.5 0.047v3.022z"></path>
<path fill="#444444" d="M26.25 8.004c0.174 0.223 0.341 0.451 0.5 0.685v-4.539c-0.163-0.148-0.331-0.293-0.5-0.434v4.289z"></path>
<path fill="#444444" d="M17.25 3.060c0.168 0.016 0.334 0.035 0.5 0.058v-3.022c-0.166-0.018-0.332-0.034-0.5-0.047v3.012z"></path>
<path fill="#444444" d="M16.25 3.003c0.168 0.003 0.334 0.009 0.5 0.019v-3.004c-0.166-0.008-0.333-0.012-0.5-0.015v3z"></path>
<path fill="#444444" d="M20.25 3.711c0.168 0.058 0.335 0.119 0.5 0.184v-3.178c-0.165-0.051-0.332-0.099-0.5-0.145v3.14z"></path>
<path fill="#444444" d="M15.25 3.022c0.166-0.009 0.332-0.016 0.5-0.019v-3c-0.167 0.003-0.334 0.007-0.5 0.015v3.004z"></path>
<path fill="#444444" d="M19.25 3.41c0.168 0.043 0.335 0.091 0.5 0.14v-3.107c-0.166-0.040-0.332-0.078-0.5-0.112v3.079z"></path>
<path fill="#444444" d="M18.25 3.195c0.168 0.029 0.334 0.062 0.5 0.098v-3.056c-0.166-0.029-0.332-0.054-0.5-0.078v3.036z"></path>
<path fill="#444444" d="M22.086 20.914l2.829-2.829-8.914-8.914-8.914 8.914 2.828 2.828 6.086-6.086z"></path>
</svg>
