<?xml version="1.0" encoding="utf-8"?>
<!-- Generated by IcoMoon.io -->
<!DOCTYPE svg PUBLIC "-//W3C//DTD SVG 1.1//EN" "http://www.w3.org/Graphics/SVG/1.1/DTD/svg11.dtd">
<svg version="1.1" xmlns="http://www.w3.org/2000/svg" xmlns:xlink="http://www.w3.org/1999/xlink" width="32" height="32" viewBox="0 0 32 32">
<path fill="#444444" d="M16 0c-8.837 0-16 7.163-16 16s7.163 16 16 16 16-7.163 16-16-7.163-16-16-16zM14 8.222c-1.105 0-2 0.995-2 2.222v2.222c0 1.841-1.343 3.333-3 3.333 1.657 0 3 1.492 3 3.333v2.222c0 1.227 0.895 2.222 2 2.222v2.222h-2c-2.206 0-4-1.994-4-4.444v-2.222c0-1.227-0.895-2.222-2-2.222v-2.222c1.105 0 2-0.995 2-2.222v-2.222c0-2.451 1.794-4.444 4-4.444h2v2.222zM26 17.111c-1.105 0-2 0.995-2 2.222v2.222c0 2.451-1.794 4.444-4 4.444h-2v-2.222c1.105 0 2-0.995 2-2.222v-2.222c0-1.841 1.343-3.333 3-3.333-1.657 0-3-1.492-3-3.333v-2.222c0-1.227-0.895-2.222-2-2.222v-2.222h2c2.206 0 4 1.994 4 4.444v2.222c0 1.227 0.895 2.222 2 2.222v2.222z"></path>
</svg>
