<?xml version="1.0" encoding="utf-8"?>
<!-- Generated by IcoMoon.io -->
<!DOCTYPE svg PUBLIC "-//W3C//DTD SVG 1.1//EN" "http://www.w3.org/Graphics/SVG/1.1/DTD/svg11.dtd">
<svg version="1.1" xmlns="http://www.w3.org/2000/svg" xmlns:xlink="http://www.w3.org/1999/xlink" width="32" height="32" viewBox="0 0 32 32">
<path fill="#444444" d="M1.267 22.25c0.071 0.168 0.147 0.335 0.224 0.5h3.397c-0.1-0.164-0.196-0.331-0.289-0.5h-3.332z"></path>
<path fill="#444444" d="M1.734 23.25c0.086 0.169 0.175 0.335 0.267 0.5h3.562c-0.122-0.164-0.24-0.33-0.354-0.5h-3.475z"></path>
<path fill="#444444" d="M2.289 24.25c0.102 0.169 0.207 0.335 0.315 0.5h3.782c-0.148-0.163-0.293-0.33-0.433-0.5h-3.664z"></path>
<path fill="#444444" d="M7.029 29.25c0.257 0.174 0.519 0.341 0.787 0.5h16.369c0.267-0.159 0.53-0.326 0.787-0.5h-17.942z"></path>
<path fill="#444444" d="M3.118 17.75c-0.022-0.166-0.042-0.332-0.058-0.5h-2.986v-0.5h2.948c-0.009-0.166-0.016-0.332-0.019-0.5h-2.929v-0.5h2.929c0.003-0.168 0.009-0.334 0.019-0.5h-2.948v-0.5h2.986c0.016-0.168 0.035-0.334 0.058-0.5h-3.022c-0.063 0.575-0.096 1.159-0.096 1.75s0.033 1.175 0.096 1.75h3.022z"></path>
<path fill="#444444" d="M3.715 26.25c0.142 0.169 0.286 0.337 0.434 0.5h4.539c-0.234-0.159-0.462-0.326-0.685-0.5h-4.289z"></path>
<path fill="#444444" d="M4.624 27.25c0.169 0.171 0.341 0.337 0.517 0.5h5.291c-0.324-0.154-0.641-0.321-0.95-0.5h-4.858z"></path>
<path fill="#444444" d="M0.882 21.25c0.058 0.168 0.119 0.335 0.183 0.5h3.273c-0.081-0.165-0.159-0.331-0.234-0.5h-3.222z"></path>
<path fill="#444444" d="M20.852 31.25h-9.705c0.656 0.209 1.33 0.377 2.020 0.5h5.665c0.69-0.123 1.364-0.291 2.020-0.5z"></path>
<path fill="#444444" d="M8.717 30.25c0.35 0.18 0.709 0.346 1.073 0.5h12.42c0.365-0.154 0.723-0.32 1.073-0.5h-14.566z"></path>
<path fill="#444444" d="M0.158 18.25c0.024 0.168 0.049 0.334 0.078 0.5h3.056c-0.036-0.166-0.069-0.332-0.098-0.5h-3.036z"></path>
<path fill="#444444" d="M0.572 20.25c0.046 0.168 0.094 0.335 0.145 0.5h3.178c-0.065-0.165-0.126-0.332-0.184-0.5h-3.14z"></path>
<path fill="#444444" d="M0.331 19.25c0.035 0.168 0.073 0.334 0.112 0.5h3.107c-0.050-0.165-0.097-0.332-0.14-0.5h-3.079z"></path>
<path fill="#444444" d="M11.64 28.25h-5.932c0.204 0.172 0.413 0.338 0.625 0.5h7.12c-0.621-0.123-1.227-0.291-1.813-0.5z"></path>
<path fill="#444444" d="M0.443 12.25c-0.040 0.166-0.078 0.332-0.112 0.5h3.079c0.043-0.168 0.091-0.335 0.14-0.5h-3.107z"></path>
<path fill="#444444" d="M0.717 11.25c-0.051 0.165-0.099 0.332-0.145 0.5h3.14c0.058-0.168 0.119-0.335 0.184-0.5h-3.178z"></path>
<path fill="#444444" d="M3.292 13.25h-3.056c-0.029 0.166-0.054 0.332-0.078 0.5h3.036c0.029-0.168 0.062-0.334 0.098-0.5z"></path>
<path fill="#444444" d="M1.065 10.25c-0.064 0.165-0.125 0.332-0.183 0.5h3.222c0.074-0.169 0.153-0.335 0.234-0.5h-3.273z"></path>
<path fill="#444444" d="M22.518 4.75h4.858c-0.169-0.171-0.341-0.337-0.517-0.5h-5.291c0.324 0.154 0.641 0.321 0.95 0.5z"></path>
<path fill="#444444" d="M22.518 27.25c-0.309 0.179-0.626 0.346-0.95 0.5h5.291c0.176-0.163 0.349-0.329 0.517-0.5h-4.858z"></path>
<path fill="#444444" d="M4.149 5.25c-0.148 0.163-0.293 0.33-0.434 0.5h4.289c0.223-0.174 0.451-0.341 0.685-0.5h-4.539z"></path>
<path fill="#444444" d="M6.334 3.25c-0.213 0.162-0.421 0.328-0.625 0.5h5.932c0.586-0.209 1.192-0.377 1.813-0.5h-7.12z"></path>
<path fill="#444444" d="M1.491 9.25c-0.077 0.165-0.152 0.332-0.224 0.5h3.332c0.093-0.169 0.189-0.336 0.289-0.5h-3.397z"></path>
<path fill="#444444" d="M5.142 4.25c-0.176 0.163-0.349 0.329-0.517 0.5h4.858c0.309-0.179 0.626-0.346 0.95-0.5h-5.291z"></path>
<path fill="#444444" d="M3.314 6.25c-0.127 0.164-0.251 0.331-0.371 0.5h3.923c0.174-0.172 0.353-0.338 0.536-0.5h-4.088z"></path>
<path fill="#444444" d="M2 8.25c-0.092 0.165-0.181 0.331-0.267 0.5h3.475c0.114-0.17 0.232-0.336 0.354-0.5h-3.562z"></path>
<path fill="#444444" d="M2.604 7.25c-0.108 0.165-0.213 0.331-0.315 0.5h3.664c0.14-0.17 0.284-0.337 0.433-0.5h-3.782z"></path>
<path fill="#444444" d="M2.943 25.25c0.12 0.169 0.244 0.336 0.371 0.5h4.088c-0.183-0.162-0.362-0.328-0.536-0.5h-3.923z"></path>
<path fill="#444444" d="M20.36 28.25c-0.586 0.209-1.192 0.377-1.813 0.5h7.12c0.213-0.162 0.421-0.328 0.625-0.5h-5.932z"></path>
<path fill="#444444" d="M26.438 8.25c0.122 0.164 0.24 0.33 0.354 0.5h3.475c-0.086-0.169-0.175-0.335-0.267-0.5h-3.562z"></path>
<path fill="#444444" d="M27.661 10.25c0.081 0.165 0.159 0.331 0.234 0.5h3.222c-0.058-0.168-0.119-0.335-0.183-0.5h-3.273z"></path>
<path fill="#444444" d="M27.112 9.25c0.1 0.164 0.196 0.331 0.289 0.5h3.332c-0.072-0.168-0.147-0.335-0.224-0.5h-3.397z"></path>
<path fill="#444444" d="M28.708 13.25c0.036 0.166 0.069 0.332 0.098 0.5h3.036c-0.024-0.168-0.049-0.334-0.078-0.5h-3.056z"></path>
<path fill="#444444" d="M28.105 11.25c0.065 0.165 0.126 0.332 0.184 0.5h3.14c-0.046-0.168-0.094-0.335-0.145-0.5h-3.178z"></path>
<path fill="#444444" d="M28.45 12.25c0.050 0.165 0.097 0.332 0.14 0.5h3.079c-0.035-0.168-0.073-0.334-0.112-0.5h-3.107z"></path>
<path fill="#444444" d="M9.79 1.25c-0.365 0.154-0.723 0.321-1.073 0.5h14.566c-0.35-0.179-0.708-0.346-1.073-0.5h-12.42z"></path>
<path fill="#444444" d="M24.598 6.25c0.183 0.162 0.362 0.328 0.536 0.5h3.923c-0.12-0.169-0.244-0.336-0.371-0.5h-4.088z"></path>
<path fill="#444444" d="M7.816 2.25c-0.267 0.159-0.53 0.326-0.787 0.5h17.942c-0.257-0.174-0.519-0.341-0.787-0.5h-16.369z"></path>
<path fill="#444444" d="M13.167 0.25c-0.69 0.123-1.364 0.291-2.020 0.5h9.705c-0.656-0.209-1.33-0.377-2.020-0.5h-5.666z"></path>
<path fill="#444444" d="M18.546 3.25c0.622 0.123 1.227 0.291 1.813 0.5h5.932c-0.204-0.172-0.413-0.338-0.625-0.5h-7.12z"></path>
<path fill="#444444" d="M23.311 5.25c0.234 0.159 0.462 0.326 0.685 0.5h4.289c-0.142-0.17-0.286-0.337-0.434-0.5h-4.539z"></path>
<path fill="#444444" d="M25.614 7.25c0.148 0.163 0.293 0.33 0.433 0.5h3.664c-0.102-0.169-0.207-0.335-0.315-0.5h-3.782z"></path>
<path fill="#444444" d="M26.047 24.25c-0.14 0.17-0.284 0.337-0.433 0.5h3.782c0.108-0.165 0.213-0.331 0.315-0.5h-3.664z"></path>
<path fill="#444444" d="M26.792 23.25c-0.114 0.17-0.232 0.336-0.354 0.5h3.562c0.092-0.165 0.181-0.331 0.267-0.5h-3.475z"></path>
<path fill="#444444" d="M27.401 22.25c-0.093 0.169-0.189 0.336-0.289 0.5h3.397c0.077-0.165 0.152-0.332 0.224-0.5h-3.332z"></path>
<path fill="#444444" d="M25.133 25.25c-0.174 0.172-0.353 0.338-0.536 0.5h4.088c0.126-0.164 0.251-0.331 0.371-0.5h-3.923z"></path>
<path fill="#444444" d="M27.895 21.25c-0.075 0.169-0.152 0.335-0.234 0.5h3.273c0.064-0.165 0.125-0.332 0.183-0.5h-3.222z"></path>
<path fill="#444444" d="M28.882 14.25c0.022 0.166 0.042 0.332 0.058 0.5h3.012c-0.013-0.168-0.029-0.334-0.047-0.5h-3.022z"></path>
<path fill="#444444" d="M23.996 26.25c-0.223 0.174-0.451 0.341-0.685 0.5h4.539c0.148-0.163 0.293-0.331 0.434-0.5h-4.289z"></path>
<path fill="#444444" d="M28.94 17.25c-0.016 0.168-0.035 0.334-0.058 0.5h3.022c0.018-0.166 0.034-0.332 0.047-0.5h-3.012z"></path>
<path fill="#444444" d="M28.997 16.25c-0.003 0.168-0.009 0.334-0.019 0.5h3.004c0.008-0.166 0.012-0.333 0.015-0.5h-3z"></path>
<path fill="#444444" d="M28.289 20.25c-0.058 0.168-0.119 0.335-0.184 0.5h3.178c0.051-0.165 0.099-0.332 0.145-0.5h-3.14z"></path>
<path fill="#444444" d="M28.978 15.25c0.009 0.166 0.016 0.332 0.019 0.5h3c-0.003-0.167-0.007-0.334-0.015-0.5h-3.004z"></path>
<path fill="#444444" d="M28.59 19.25c-0.043 0.168-0.091 0.335-0.14 0.5h3.107c0.040-0.166 0.078-0.332 0.112-0.5h-3.079z"></path>
<path fill="#444444" d="M28.805 18.25c-0.029 0.168-0.062 0.334-0.098 0.5h3.056c0.029-0.166 0.054-0.332 0.078-0.5h-3.036z"></path>
<path fill="#444444" d="M11.086 22.086l2.829 2.829 8.914-8.914-8.914-8.914-2.828 2.828 6.086 6.086z"></path>
</svg>
