<?xml version="1.0" encoding="utf-8"?>
<!-- Generated by IcoMoon.io -->
<!DOCTYPE svg PUBLIC "-//W3C//DTD SVG 1.1//EN" "http://www.w3.org/Graphics/SVG/1.1/DTD/svg11.dtd">
<svg version="1.1" xmlns="http://www.w3.org/2000/svg" xmlns:xlink="http://www.w3.org/1999/xlink" width="32" height="32" viewBox="0 0 32 32">
<path fill="#444444" d="M16 2c-7.732 0-14 6.268-14 14s6.268 14 14 14 14-6.268 14-14-6.268-14-14-14zM16 26c-5.523 0-10-4.477-10-10s4.477-10 10-10 10 4.477 10 10-4.477 10-10 10z"></path>
<path fill="#444444" d="M16 10.5c3.033 0 5.5 2.467 5.5 5.5s-2.467 5.5-5.5 5.5-5.5-2.467-5.5-5.5 2.467-5.5 5.5-5.5zM16 8.5c-4.142 0-7.5 3.358-7.5 7.5s3.358 7.5 7.5 7.5c4.142 0 7.5-3.358 7.5-7.5s-3.358-7.5-7.5-7.5v0z"></path>
</svg>
