<?xml version="1.0" encoding="utf-8"?>
<!-- Generated by IcoMoon.io -->
<!DOCTYPE svg PUBLIC "-//W3C//DTD SVG 1.1//EN" "http://www.w3.org/Graphics/SVG/1.1/DTD/svg11.dtd">
<svg version="1.1" xmlns="http://www.w3.org/2000/svg" xmlns:xlink="http://www.w3.org/1999/xlink" width="32" height="32" viewBox="0 0 32 32">
<path fill="#444444" d="M9.75 1.267c-0.168 0.071-0.335 0.147-0.5 0.224v3.397c0.164-0.1 0.331-0.196 0.5-0.289v-3.332z"></path>
<path fill="#444444" d="M8.75 1.734c-0.168 0.086-0.335 0.175-0.5 0.267v3.562c0.164-0.122 0.33-0.24 0.5-0.354v-3.475z"></path>
<path fill="#444444" d="M7.75 2.289c-0.169 0.102-0.335 0.207-0.5 0.315v3.782c0.163-0.148 0.33-0.293 0.5-0.433v-3.664z"></path>
<path fill="#444444" d="M2.75 7.029c-0.174 0.257-0.341 0.519-0.5 0.787v16.369c0.159 0.267 0.326 0.53 0.5 0.787v-17.942z"></path>
<path fill="#444444" d="M14.25 3.118c0.166-0.022 0.332-0.042 0.5-0.058v-2.986h0.5v2.948c0.166-0.009 0.332-0.016 0.5-0.019v-2.929h0.5v2.929c0.168 0.003 0.334 0.009 0.5 0.019v-2.948h0.5v2.986c0.168 0.016 0.334 0.035 0.5 0.058v-3.022c-0.575-0.063-1.159-0.096-1.75-0.096s-1.175 0.033-1.75 0.096v3.022z"></path>
<path fill="#444444" d="M5.75 3.715c-0.17 0.142-0.337 0.286-0.5 0.434v4.539c0.159-0.234 0.326-0.462 0.5-0.685v-4.289z"></path>
<path fill="#444444" d="M4.75 4.624c-0.171 0.169-0.337 0.341-0.5 0.517v5.291c0.154-0.324 0.321-0.641 0.5-0.95v-4.858z"></path>
<path fill="#444444" d="M10.75 0.882c-0.168 0.058-0.335 0.119-0.5 0.183v3.273c0.165-0.081 0.331-0.159 0.5-0.234v-3.222z"></path>
<path fill="#444444" d="M0.75 20.852v-9.705c-0.209 0.656-0.377 1.33-0.5 2.020v5.665c0.123 0.69 0.291 1.364 0.5 2.020z"></path>
<path fill="#444444" d="M1.75 8.717c-0.179 0.35-0.346 0.709-0.5 1.073v12.42c0.154 0.365 0.321 0.723 0.5 1.073v-14.566z"></path>
<path fill="#444444" d="M13.75 0.158c-0.168 0.024-0.334 0.049-0.5 0.078v3.056c0.166-0.036 0.332-0.069 0.5-0.098v-3.036z"></path>
<path fill="#444444" d="M11.75 0.572c-0.168 0.046-0.335 0.094-0.5 0.145v3.178c0.165-0.065 0.332-0.126 0.5-0.184v-3.14z"></path>
<path fill="#444444" d="M12.75 0.331c-0.168 0.035-0.334 0.073-0.5 0.112v3.107c0.165-0.050 0.332-0.097 0.5-0.14v-3.079z"></path>
<path fill="#444444" d="M3.75 11.64v-5.932c-0.172 0.204-0.338 0.413-0.5 0.625v7.12c0.123-0.621 0.291-1.227 0.5-1.813z"></path>
<path fill="#444444" d="M19.75 0.443c-0.166-0.040-0.332-0.078-0.5-0.112v3.079c0.168 0.043 0.335 0.091 0.5 0.14v-3.107z"></path>
<path fill="#444444" d="M20.75 0.717c-0.165-0.051-0.332-0.099-0.5-0.145v3.14c0.168 0.058 0.335 0.119 0.5 0.184v-3.178z"></path>
<path fill="#444444" d="M18.75 3.292v-3.056c-0.166-0.029-0.332-0.054-0.5-0.078v3.036c0.168 0.029 0.334 0.062 0.5 0.098z"></path>
<path fill="#444444" d="M21.75 1.065c-0.165-0.064-0.332-0.125-0.5-0.183v3.222c0.169 0.074 0.335 0.153 0.5 0.234v-3.273z"></path>
<path fill="#444444" d="M27.25 22.518v4.858c0.171-0.169 0.337-0.341 0.5-0.517v-5.291c-0.154 0.324-0.321 0.641-0.5 0.95z"></path>
<path fill="#444444" d="M4.75 22.518c-0.179-0.309-0.346-0.626-0.5-0.95v5.291c0.163 0.176 0.329 0.349 0.5 0.517v-4.858z"></path>
<path fill="#444444" d="M26.75 4.149c-0.163-0.148-0.331-0.293-0.5-0.434v4.289c0.174 0.223 0.341 0.451 0.5 0.685v-4.539z"></path>
<path fill="#444444" d="M28.75 6.334c-0.162-0.213-0.328-0.421-0.5-0.625v5.932c0.209 0.586 0.377 1.192 0.5 1.813v-7.12z"></path>
<path fill="#444444" d="M22.75 1.491c-0.165-0.077-0.332-0.152-0.5-0.224v3.332c0.169 0.093 0.336 0.189 0.5 0.289v-3.397z"></path>
<path fill="#444444" d="M27.75 5.142c-0.163-0.176-0.329-0.349-0.5-0.517v4.858c0.179 0.309 0.346 0.626 0.5 0.95v-5.291z"></path>
<path fill="#444444" d="M25.75 3.314c-0.164-0.127-0.331-0.251-0.5-0.371v3.923c0.172 0.174 0.338 0.353 0.5 0.536v-4.088z"></path>
<path fill="#444444" d="M23.75 2c-0.165-0.092-0.331-0.181-0.5-0.267v3.475c0.17 0.114 0.336 0.232 0.5 0.354v-3.562z"></path>
<path fill="#444444" d="M24.75 2.604c-0.165-0.108-0.331-0.213-0.5-0.315v3.664c0.17 0.14 0.337 0.284 0.5 0.433v-3.782z"></path>
<path fill="#444444" d="M6.75 2.943c-0.169 0.12-0.336 0.244-0.5 0.371v4.088c0.162-0.183 0.328-0.362 0.5-0.536v-3.923z"></path>
<path fill="#444444" d="M3.75 20.36c-0.209-0.586-0.377-1.192-0.5-1.813v7.12c0.162 0.213 0.328 0.421 0.5 0.625v-5.932z"></path>
<path fill="#444444" d="M23.75 26.438c-0.164 0.122-0.33 0.24-0.5 0.354v3.475c0.169-0.086 0.335-0.175 0.5-0.267v-3.562z"></path>
<path fill="#444444" d="M21.75 27.661c-0.165 0.081-0.331 0.159-0.5 0.234v3.222c0.168-0.058 0.335-0.119 0.5-0.183v-3.273z"></path>
<path fill="#444444" d="M22.75 27.112c-0.164 0.1-0.331 0.196-0.5 0.289v3.332c0.168-0.072 0.335-0.147 0.5-0.224v-3.397z"></path>
<path fill="#444444" d="M18.75 28.708c-0.166 0.036-0.332 0.069-0.5 0.098v3.036c0.168-0.024 0.334-0.049 0.5-0.078v-3.056z"></path>
<path fill="#444444" d="M20.75 28.105c-0.165 0.065-0.332 0.126-0.5 0.184v3.14c0.168-0.046 0.335-0.094 0.5-0.145v-3.178z"></path>
<path fill="#444444" d="M19.75 28.45c-0.165 0.050-0.332 0.097-0.5 0.14v3.079c0.168-0.035 0.334-0.073 0.5-0.112v-3.107z"></path>
<path fill="#444444" d="M30.75 9.79c-0.154-0.365-0.32-0.723-0.5-1.073v14.566c0.18-0.35 0.346-0.708 0.5-1.073v-12.42z"></path>
<path fill="#444444" d="M25.75 24.598c-0.162 0.183-0.328 0.362-0.5 0.536v3.923c0.169-0.12 0.336-0.244 0.5-0.371v-4.088z"></path>
<path fill="#444444" d="M29.75 7.816c-0.159-0.267-0.326-0.53-0.5-0.787v17.942c0.174-0.257 0.341-0.519 0.5-0.787v-16.369z"></path>
<path fill="#444444" d="M31.75 13.167c-0.123-0.69-0.291-1.364-0.5-2.020v9.705c0.209-0.656 0.377-1.33 0.5-2.020v-5.666z"></path>
<path fill="#444444" d="M28.75 18.546c-0.123 0.622-0.291 1.227-0.5 1.813v5.932c0.172-0.204 0.338-0.413 0.5-0.625v-7.12z"></path>
<path fill="#444444" d="M26.75 23.311c-0.159 0.234-0.326 0.462-0.5 0.685v4.289c0.169-0.142 0.337-0.286 0.5-0.434v-4.539z"></path>
<path fill="#444444" d="M24.75 25.614c-0.163 0.148-0.33 0.293-0.5 0.433v3.664c0.169-0.102 0.335-0.207 0.5-0.315v-3.782z"></path>
<path fill="#444444" d="M7.75 26.047c-0.17-0.14-0.337-0.284-0.5-0.433v3.782c0.165 0.108 0.331 0.213 0.5 0.315v-3.664z"></path>
<path fill="#444444" d="M8.75 26.792c-0.17-0.114-0.336-0.232-0.5-0.354v3.562c0.165 0.092 0.332 0.181 0.5 0.267v-3.475z"></path>
<path fill="#444444" d="M9.75 27.401c-0.169-0.093-0.336-0.189-0.5-0.289v3.397c0.165 0.077 0.332 0.152 0.5 0.224v-3.332z"></path>
<path fill="#444444" d="M6.75 25.133c-0.172-0.174-0.338-0.353-0.5-0.536v4.088c0.164 0.126 0.331 0.251 0.5 0.371v-3.923z"></path>
<path fill="#444444" d="M10.75 27.895c-0.169-0.075-0.335-0.152-0.5-0.234v3.273c0.165 0.064 0.332 0.125 0.5 0.183v-3.222z"></path>
<path fill="#444444" d="M17.75 28.882c-0.166 0.022-0.332 0.042-0.5 0.058v3.012c0.168-0.013 0.334-0.029 0.5-0.047v-3.022z"></path>
<path fill="#444444" d="M5.75 23.996c-0.174-0.223-0.341-0.451-0.5-0.685v4.539c0.163 0.148 0.33 0.293 0.5 0.434v-4.289z"></path>
<path fill="#444444" d="M14.75 28.94c-0.168-0.016-0.334-0.035-0.5-0.058v3.022c0.166 0.018 0.332 0.034 0.5 0.047v-3.012z"></path>
<path fill="#444444" d="M15.75 28.997c-0.168-0.003-0.334-0.009-0.5-0.019v3.004c0.166 0.008 0.333 0.012 0.5 0.015v-3z"></path>
<path fill="#444444" d="M11.75 28.289c-0.168-0.058-0.335-0.119-0.5-0.184v3.178c0.165 0.051 0.332 0.099 0.5 0.145v-3.14z"></path>
<path fill="#444444" d="M16.75 28.978c-0.166 0.009-0.332 0.016-0.5 0.019v3c0.167-0.003 0.334-0.007 0.5-0.015v-3.004z"></path>
<path fill="#444444" d="M12.75 28.59c-0.168-0.043-0.335-0.091-0.5-0.14v3.107c0.166 0.040 0.332 0.078 0.5 0.112v-3.079z"></path>
<path fill="#444444" d="M13.75 28.805c-0.168-0.029-0.334-0.062-0.5-0.098v3.056c0.166 0.029 0.332 0.054 0.5 0.078v-3.036z"></path>
<path fill="#444444" d="M9.914 11.086l-2.829 2.829 8.914 8.914 8.914-8.914-2.828-2.828-6.086 6.086z"></path>
</svg>
