<?xml version="1.0" encoding="utf-8"?>
<!-- Generated by IcoMoon.io -->
<!DOCTYPE svg PUBLIC "-//W3C//DTD SVG 1.1//EN" "http://www.w3.org/Graphics/SVG/1.1/DTD/svg11.dtd">
<svg version="1.1" xmlns="http://www.w3.org/2000/svg" xmlns:xlink="http://www.w3.org/1999/xlink" width="32" height="32" viewBox="0 0 32 32">
<path fill="#444444" d="M16 17l-7 7h5v6h4v-6h5l-7-7z"></path>
<path fill="#444444" d="M27.882 16.079c0.078-0.353 0.118-0.715 0.118-1.079 0-2.757-2.243-5-5-5-0.436 0-0.869 0.057-1.286 0.168-0.776-2.415-3.044-4.168-5.714-4.168-2.708 0-5.028 1.814-5.76 4.316-0.718-0.208-1.47-0.316-2.24-0.316-4.411 0-8 3.589-8 8 0 1.937 0.701 3.806 1.975 5.263 1.261 1.443 2.995 2.386 4.883 2.656 0.048 0.007 0.096 0.010 0.143 0.010 0.49 0 0.917-0.36 0.989-0.858 0.078-0.547-0.302-1.053-0.848-1.131-1.414-0.202-2.715-0.91-3.661-1.992-0.955-1.092-1.481-2.494-1.481-3.947 0-3.308 2.692-6 6-6 1.626 0 3.148 0.64 4.286 1.801 0.386 0.395 1.020 0.401 1.414 0.014s0.401-1.020 0.014-1.414c-0.49-0.5-1.033-0.927-1.617-1.277 0.401-1.794 2.009-3.125 3.903-3.125 2.206 0 4 1.794 4 4 0 0.272-0.027 0.544-0.081 0.807-0.111 0.541 0.238 1.069 0.779 1.18 0.068 0.014 0.135 0.021 0.201 0.021 0.465 0 0.882-0.326 0.979-0.8 0.069-0.339 0.109-0.687 0.119-1.035 0.32-0.113 0.659-0.173 1.003-0.173 1.654 0 3 1.346 3 3 0 0.343-0.059 0.681-0.171 1h-0.829c-0.552 0-1 0.448-1 1s0.448 1 1 1h2c1.654 0 3 1.346 3 3s-1.346 3-3 3h-2c-0.552 0-1 0.448-1 1s0.448 1 1 1h2c2.757 0 5-2.243 5-5 0-2.456-1.78-4.503-4.118-4.921z"></path>
</svg>
