<?xml version="1.0" encoding="utf-8"?>
<!-- Generated by IcoMoon.io -->
<!DOCTYPE svg PUBLIC "-//W3C//DTD SVG 1.1//EN" "http://www.w3.org/Graphics/SVG/1.1/DTD/svg11.dtd">
<svg version="1.1" xmlns="http://www.w3.org/2000/svg" xmlns:xlink="http://www.w3.org/1999/xlink" width="40" height="32" viewBox="0 0 40 32">
<path fill="#444444" d="M8 11v-4c0-1.657 1.343-3 3-3h1v-4h-1c-3.866 0-7 3.134-7 7v4c0 1.657-1.343 3-3 3h-1v4h1c1.657 0 3 1.343 3 3v4c0 3.866 3.134 7 7 7h1v-4h-1c-1.657 0-3-1.343-3-3v-4c0-1.959-0.805-3.729-2.102-5 1.297-1.271 2.102-3.041 2.102-5z"></path>
<path fill="#444444" d="M32 11v-4c0-1.657-1.343-3-3-3h-1v-4h1c3.866 0 7 3.134 7 7v4c0 1.657 1.343 3 3 3h1v4h-1c-1.657 0-3 1.343-3 3v4c0 3.866-3.134 7-7 7h-1v-4h1c1.657 0 3-1.343 3-3v-4c0-1.959 0.805-3.729 2.102-5-1.297-1.271-2.102-3.041-2.102-5z"></path>
<path fill="#444444" d="M24 10.028c0 2.209-1.791 4-4 4s-4-1.791-4-4c0-2.209 1.791-4 4-4s4 1.791 4 4z"></path>
<path fill="#444444" d="M20 15.972c-2.209 0-4 1.791-4 4 0 2.148 1 3.851 4.067 3.995-0.912 1.285-2.286 1.793-4.067 1.959v2.375c0 0 8 0.698 8-8.33-0.008-2.209-1.791-4-4-4z"></path>
</svg>
