<?xml version="1.0" encoding="utf-8"?>
<!-- Generated by IcoMoon.io -->
<!DOCTYPE svg PUBLIC "-//W3C//DTD SVG 1.1//EN" "http://www.w3.org/Graphics/SVG/1.1/DTD/svg11.dtd">
<svg version="1.1" xmlns="http://www.w3.org/2000/svg" xmlns:xlink="http://www.w3.org/1999/xlink" width="32" height="32" viewBox="0 0 32 32">
<path fill="#444444" d="M15.668 20.462c-2.016-7.4-3.787-13.201 0.572-20.459-0.080-0.001-0.159-0.003-0.24-0.003-9 0-12 7.163-12 16 0 8.128 2.539 14.84 9.95 15.864 1.832-3.286 2.709-7.762 1.717-11.402z"></path>
<path fill="#444444" d="M18.038 0.134c-1.754 2.716-2.636 6.7-1.779 9.804 2.219 8.035 3.628 14.025-0.6 22.057 0.113 0.002 0.226 0.004 0.341 0.004 9 0 12-7.163 12-16 0-8.132-2.541-14.847-9.962-15.866z"></path>
</svg>
