<?xml version="1.0" encoding="utf-8"?>
<!-- Generated by IcoMoon.io -->
<!DOCTYPE svg PUBLIC "-//W3C//DTD SVG 1.1//EN" "http://www.w3.org/Graphics/SVG/1.1/DTD/svg11.dtd">
<svg version="1.1" xmlns="http://www.w3.org/2000/svg" xmlns:xlink="http://www.w3.org/1999/xlink" width="32" height="32" viewBox="0 0 32 32">
<path fill="#444444" d="M27 4h-1.382l-1.724-3.447c-0.169-0.339-0.516-0.553-0.894-0.553h-14c-0.379 0-0.725 0.214-0.894 0.553l-1.724 3.447h-1.382c-0.552 0-1 0.448-1 1v6c0 0.552 0.448 1 1 1h1c0 0.035 0.002 0.069 0.005 0.105l2 19c0.054 0.509 0.483 0.895 0.995 0.895h14c0.512 0 0.941-0.386 0.994-0.895l2-19c0.004-0.035 0.005-0.070 0.005-0.105h1c0.552 0 1-0.448 1-1v-6c0-0.552-0.448-1-1-1zM9.618 2h12.764l1 2h-14.764l1-2zM9.9 30l-0.632-6h13.463l-0.632 6h-12.2zM14 20c0-1.105 0.895-2 2-2s2 0.895 2 2-0.895 2-2 2c-1.105 0-2-0.895-2-2zM23.573 16h-15.147l-0.421-4h15.989l-0.421 4zM26 10h-20v-4h18.995c0.002 0 0.004 0 0.006 0s0.003-0 0.004-0h0.995v4z"></path>
</svg>
