<?xml version="1.0" encoding="utf-8"?>
<!-- Generated by IcoMoon.io -->
<!DOCTYPE svg PUBLIC "-//W3C//DTD SVG 1.1//EN" "http://www.w3.org/Graphics/SVG/1.1/DTD/svg11.dtd">
<svg version="1.1" xmlns="http://www.w3.org/2000/svg" xmlns:xlink="http://www.w3.org/1999/xlink" width="32" height="32" viewBox="0 0 32 32">
<path fill="#444444" d="M8 7c0 1.657-1.343 3-3 3s-3-1.343-3-3c0-1.657 1.343-3 3-3s3 1.343 3 3z"></path>
<path fill="#444444" d="M5 10c-2.761 0-5 0.895-5 2v2h10v-2c0-1.105-2.239-2-5-2z"></path>
<path fill="#444444" d="M28 7c0 1.657-1.343 3-3 3s-3-1.343-3-3c0-1.657 1.343-3 3-3s3 1.343 3 3z"></path>
<path fill="#444444" d="M25 10c-2.761 0-5 0.895-5 2v2h10v-2c0-1.105-2.239-2-5-2z"></path>
<path fill="#444444" d="M18 23c0 1.657-1.343 3-3 3s-3-1.343-3-3c0-1.657 1.343-3 3-3s3 1.343 3 3z"></path>
<path fill="#444444" d="M15 26c-2.761 0-5 0.895-5 2v2h10v-2c0-1.105-2.239-2-5-2z"></path>
<path fill="#444444" d="M19 8h-8c-0.552 0-1-0.448-1-1s0.448-1 1-1h8c0.552 0 1 0.448 1 1s-0.448 1-1 1z"></path>
<path fill="#444444" d="M20.999 24c-0.191 0-0.383-0.054-0.554-0.168-0.46-0.306-0.584-0.927-0.277-1.387l4-6c0.306-0.46 0.927-0.584 1.387-0.277s0.584 0.927 0.277 1.387l-4 6c-0.193 0.289-0.51 0.445-0.833 0.445z"></path>
<path fill="#444444" d="M9.001 24c-0.323 0-0.64-0.156-0.833-0.445l-4-6c-0.306-0.459-0.182-1.080 0.277-1.387s1.080-0.182 1.387 0.277l4 6c0.306 0.46 0.182 1.080-0.277 1.387-0.17 0.114-0.363 0.168-0.554 0.168z"></path>
</svg>
