<?xml version="1.0" encoding="utf-8"?>
<!-- Generated by IcoMoon.io -->
<!DOCTYPE svg PUBLIC "-//W3C//DTD SVG 1.1//EN" "http://www.w3.org/Graphics/SVG/1.1/DTD/svg11.dtd">
<svg version="1.1" xmlns="http://www.w3.org/2000/svg" xmlns:xlink="http://www.w3.org/1999/xlink" width="32" height="32" viewBox="0 0 32 32">
<path fill="#444444" d="M31.414 28.586l-26-26-2.828 2.828 4.652 4.652c-0.906 1.517-1.675 3.095-2.257 4.72-1.271 3.545-1.396 7.393 0.393 10.794 2.058 3.911 6.207 6.42 10.626 6.42 3.479 0 6.791-1.555 9.046-4.125l3.54 3.54 2.829-2.829z"></path>
<path fill="#444444" d="M27.020 14.786c-2.055-5.732-6.41-10.88-11.020-14.786-1.611 1.365-3.189 2.881-4.65 4.521l16.575 16.575c0.18-2.108-0.17-4.26-0.905-6.31z"></path>
</svg>
