<?xml version="1.0" encoding="utf-8"?>
<!-- Generated by IcoMoon.io -->
<!DOCTYPE svg PUBLIC "-//W3C//DTD SVG 1.1//EN" "http://www.w3.org/Graphics/SVG/1.1/DTD/svg11.dtd">
<svg version="1.1" xmlns="http://www.w3.org/2000/svg" xmlns:xlink="http://www.w3.org/1999/xlink" width="32" height="32" viewBox="0 0 32 32">
<path fill="#444444" d="M28 10h-26c-1.105 0-2 0.895-2 2v11c0 0.552 0.448 1 1 1s1-0.448 1-1v-7h2v7c0 0.552 0.448 1 1 1s1-0.448 1-1v-7h2v7c0 0.552 0.448 1 1 1s1-0.448 1-1v-7h2v7c0 0.552 0.448 1 1 1s1-0.448 1-1v-7h2v7c0 0.552 0.448 1 1 1s1-0.448 1-1v-7h2v7c0 0.552 0.448 1 1 1s1-0.448 1-1v-7h2v7c0 0.552 0.448 1 1 1s1-0.448 1-1v-7h2v7c0 0.552 0.448 1 1 1s1-0.448 1-1v-11c0-1.105-0.895-2-2-2z"></path>
</svg>
