<?xml version="1.0" encoding="utf-8"?>
<!-- Generated by IcoMoon.io -->
<!DOCTYPE svg PUBLIC "-//W3C//DTD SVG 1.1//EN" "http://www.w3.org/Graphics/SVG/1.1/DTD/svg11.dtd">
<svg version="1.1" xmlns="http://www.w3.org/2000/svg" xmlns:xlink="http://www.w3.org/1999/xlink" width="40" height="32" viewBox="0 0 40 32">
<path fill="#444444" d="M20 18c3.308 0 6.308 1.346 8.481 3.519l-2.827 2.827c-1.449-1.449-3.449-2.346-5.654-2.346s-4.206 0.897-5.654 2.346l-2.827-2.827c2.173-2.173 5.173-3.519 8.481-3.519v0z"></path>
<path fill="#444444" d="M5.858 15.858c3.777-3.777 8.8-5.858 14.142-5.858s10.365 2.080 14.142 5.858l-2.828 2.828c-3.022-3.022-7.040-4.686-11.314-4.686s-8.292 1.664-11.314 4.686l-2.828-2.828z"></path>
<path fill="#444444" d="M18 28c0-1.105 0.895-2 2-2s2 0.895 2 2-0.895 2-2 2-2-0.895-2-2z"></path>
<path fill="#444444" d="M26.25 6.818c0.167 0.045 0.334 0.091 0.5 0.14v-4.139c-0.166-0.041-0.333-0.081-0.5-0.12v4.119z"></path>
<path fill="#444444" d="M25.25 6.573c0.167 0.037 0.334 0.076 0.5 0.117v-4.1c-0.166-0.035-0.333-0.068-0.5-0.1v4.083z"></path>
<path fill="#444444" d="M29.25 7.84c0.168 0.070 0.334 0.142 0.5 0.215v-4.311c-0.166-0.062-0.333-0.122-0.5-0.181v4.276z"></path>
<path fill="#444444" d="M27.25 7.109c0.167 0.053 0.334 0.108 0.5 0.164v-4.187c-0.166-0.048-0.333-0.095-0.5-0.139v4.162z"></path>
<path fill="#444444" d="M28.25 7.449c0.167 0.061 0.334 0.124 0.5 0.189v-4.244c-0.166-0.055-0.333-0.108-0.5-0.16v4.215z"></path>
<path fill="#444444" d="M22.25 6.104c0.167 0.015 0.334 0.032 0.5 0.051v-4.022c-0.166-0.016-0.333-0.031-0.5-0.044v4.015z"></path>
<path fill="#444444" d="M20.25 6.002c0.167 0.002 0.334 0.005 0.5 0.010v-4.002c-0.166-0.004-0.333-0.007-0.5-0.008v4z"></path>
<path fill="#444444" d="M24.25 6.373c0.167 0.030 0.334 0.061 0.5 0.094v-4.067c-0.166-0.028-0.333-0.056-0.5-0.081v4.054z"></path>
<path fill="#444444" d="M23.25 6.217c0.167 0.022 0.334 0.047 0.5 0.073v-4.042c-0.166-0.022-0.333-0.043-0.5-0.062v4.031z"></path>
<path fill="#444444" d="M21.25 6.032c0.167 0.008 0.334 0.019 0.5 0.031v-4.009c-0.166-0.010-0.333-0.018-0.5-0.026v4.004z"></path>
<path fill="#444444" d="M38.25 11.75l0.5-0.5v-2.046c-0.165-0.149-0.332-0.296-0.5-0.441v2.987z"></path>
<path fill="#444444" d="M37.25 12.75l0.5-0.5v-3.908c-0.165-0.136-0.332-0.27-0.5-0.402v4.809z"></path>
<path fill="#444444" d="M36.25 12.338c0.168 0.155 0.335 0.313 0.5 0.474v-5.254c-0.165-0.124-0.332-0.245-0.5-0.365v5.145z"></path>
<path fill="#444444" d="M39.25 9.667v1.083l0.5-0.5v-0.097c-0.165-0.164-0.332-0.326-0.5-0.486z"></path>
<path fill="#444444" d="M30.25 3.936v4.349c0.168 0.079 0.334 0.161 0.5 0.244v-4.39c-0.166-0.069-0.333-0.137-0.5-0.203z"></path>
<path fill="#444444" d="M31.25 8.787c0.168 0.089 0.334 0.181 0.5 0.274v-4.483c-0.166-0.077-0.332-0.152-0.5-0.225v4.435z"></path>
<path fill="#444444" d="M32.25 9.351c0.168 0.1 0.334 0.202 0.5 0.306v-4.593c-0.166-0.085-0.332-0.168-0.5-0.249v4.535z"></path>
<path fill="#444444" d="M34.25 10.682c0.168 0.125 0.335 0.251 0.5 0.381v-4.87c-0.166-0.103-0.332-0.204-0.5-0.303v4.792z"></path>
<path fill="#444444" d="M35.25 11.465c0.168 0.139 0.335 0.281 0.5 0.425v-5.046c-0.165-0.113-0.332-0.224-0.5-0.333v4.954z"></path>
<path fill="#444444" d="M33.25 9.98c0.168 0.112 0.335 0.225 0.5 0.341v-4.72c-0.166-0.093-0.332-0.185-0.5-0.275v4.654z"></path>
<path fill="#444444" d="M6.25 10.322c0.165-0.116 0.332-0.23 0.5-0.341v-4.654c-0.168 0.090-0.334 0.182-0.5 0.275v4.72z"></path>
<path fill="#444444" d="M19.25 6.012c0.166-0.005 0.333-0.009 0.5-0.010v-4c-0.167 0.001-0.334 0.004-0.5 0.008v4.002z"></path>
<path fill="#444444" d="M7.25 9.657c0.165-0.104 0.332-0.206 0.5-0.306v-4.536c-0.168 0.082-0.334 0.164-0.5 0.249v4.593z"></path>
<path fill="#444444" d="M4.25 11.89c0.165-0.144 0.332-0.286 0.5-0.425v-4.954c-0.168 0.109-0.335 0.22-0.5 0.333v5.046z"></path>
<path fill="#444444" d="M8.25 4.578v4.483c0.166-0.093 0.332-0.185 0.5-0.274v-4.435c-0.168 0.074-0.334 0.149-0.5 0.226z"></path>
<path fill="#444444" d="M0.25 10.25l0.5 0.5v-1.083c-0.168 0.16-0.335 0.321-0.5 0.486v0.097z"></path>
<path fill="#444444" d="M3.25 12.812c0.165-0.161 0.332-0.318 0.5-0.474v-5.145c-0.168 0.12-0.335 0.242-0.5 0.365v5.254z"></path>
<path fill="#444444" d="M9.25 8.529c0.166-0.083 0.332-0.165 0.5-0.244v-4.349c-0.167 0.066-0.334 0.134-0.5 0.203v4.39z"></path>
<path fill="#444444" d="M1.25 11.25l0.5 0.5v-2.987c-0.168 0.145-0.335 0.292-0.5 0.441v2.046z"></path>
<path fill="#444444" d="M2.25 12.25l0.5 0.5v-4.809c-0.168 0.132-0.335 0.266-0.5 0.402v3.908z"></path>
<path fill="#444444" d="M5.25 11.063c0.165-0.129 0.332-0.256 0.5-0.381v-4.792c-0.168 0.099-0.334 0.2-0.5 0.303v4.87z"></path>
<path fill="#444444" d="M10.25 8.056c0.166-0.074 0.333-0.145 0.5-0.215v-4.276c-0.167 0.059-0.334 0.119-0.5 0.181v4.311z"></path>
<path fill="#444444" d="M17.25 6.155c0.166-0.019 0.333-0.036 0.5-0.051v-4.015c-0.167 0.013-0.334 0.028-0.5 0.044v4.022z"></path>
<path fill="#444444" d="M18.25 6.063c0.166-0.012 0.333-0.022 0.5-0.031v-4.004c-0.167 0.007-0.334 0.016-0.5 0.026v4.009z"></path>
<path fill="#444444" d="M15.25 6.467c0.166-0.033 0.333-0.064 0.5-0.094v-4.054c-0.167 0.025-0.334 0.053-0.5 0.081v4.067z"></path>
<path fill="#444444" d="M16.25 6.29c0.166-0.026 0.333-0.050 0.5-0.073v-4.031c-0.167 0.019-0.334 0.040-0.5 0.062v4.042z"></path>
<path fill="#444444" d="M12.25 7.273c0.166-0.056 0.333-0.111 0.5-0.164v-4.162c-0.167 0.045-0.334 0.091-0.5 0.139v4.187z"></path>
<path fill="#444444" d="M11.25 7.638c0.166-0.065 0.333-0.128 0.5-0.189v-4.215c-0.167 0.052-0.334 0.105-0.5 0.16v4.244z"></path>
<path fill="#444444" d="M14.25 6.69c0.166-0.041 0.333-0.080 0.5-0.117v-4.083c-0.167 0.032-0.334 0.065-0.5 0.1v4.1z"></path>
<path fill="#444444" d="M13.25 6.957c0.166-0.048 0.333-0.095 0.5-0.14v-4.119c-0.167 0.038-0.334 0.078-0.5 0.12v4.139z"></path>
</svg>
