<?xml version="1.0" encoding="utf-8"?>
<!-- Generated by IcoMoon.io -->
<!DOCTYPE svg PUBLIC "-//W3C//DTD SVG 1.1//EN" "http://www.w3.org/Graphics/SVG/1.1/DTD/svg11.dtd">
<svg version="1.1" xmlns="http://www.w3.org/2000/svg" xmlns:xlink="http://www.w3.org/1999/xlink" width="40" height="32" viewBox="0 0 40 32">
<path fill="#444444" d="M18 28c0-1.105 0.895-2 2-2s2 0.895 2 2-0.895 2-2 2-2-0.895-2-2z"></path>
<path fill="#444444" d="M26.25 6.818c0.167 0.045 0.334 0.091 0.5 0.14v-4.139c-0.166-0.041-0.333-0.081-0.5-0.12v4.119z"></path>
<path fill="#444444" d="M25.25 6.573c0.167 0.037 0.334 0.076 0.5 0.117v-4.1c-0.166-0.035-0.333-0.068-0.5-0.1v4.083z"></path>
<path fill="#444444" d="M29.25 7.84c0.168 0.070 0.334 0.142 0.5 0.215v-4.311c-0.166-0.062-0.333-0.122-0.5-0.181v4.276z"></path>
<path fill="#444444" d="M27.25 7.109c0.167 0.053 0.334 0.108 0.5 0.164v-4.187c-0.166-0.048-0.333-0.095-0.5-0.139v4.162z"></path>
<path fill="#444444" d="M28.25 7.449c0.167 0.061 0.334 0.124 0.5 0.189v-4.244c-0.166-0.055-0.333-0.108-0.5-0.16v4.215z"></path>
<path fill="#444444" d="M22.25 6.104c0.167 0.015 0.334 0.032 0.5 0.051v-4.022c-0.166-0.016-0.333-0.031-0.5-0.044v4.015z"></path>
<path fill="#444444" d="M20.25 6.002c0.167 0.002 0.334 0.005 0.5 0.010v-4.002c-0.166-0.004-0.333-0.007-0.5-0.008v4z"></path>
<path fill="#444444" d="M24.25 6.373c0.167 0.030 0.334 0.061 0.5 0.094v-4.067c-0.166-0.028-0.333-0.056-0.5-0.081v4.054z"></path>
<path fill="#444444" d="M23.25 6.217c0.167 0.022 0.334 0.047 0.5 0.073v-4.042c-0.166-0.022-0.333-0.043-0.5-0.062v4.031z"></path>
<path fill="#444444" d="M21.25 6.032c0.167 0.008 0.334 0.019 0.5 0.031v-4.009c-0.166-0.010-0.333-0.018-0.5-0.026v4.004z"></path>
<path fill="#444444" d="M38.25 11.75l0.5-0.5v-2.046c-0.165-0.149-0.332-0.296-0.5-0.441v2.987z"></path>
<path fill="#444444" d="M37.25 12.75l0.5-0.5v-3.908c-0.165-0.136-0.332-0.27-0.5-0.402v4.809z"></path>
<path fill="#444444" d="M36.25 12.338c0.168 0.155 0.335 0.313 0.5 0.474v-5.254c-0.165-0.124-0.332-0.245-0.5-0.365v5.145z"></path>
<path fill="#444444" d="M39.25 9.667v1.083l0.5-0.5v-0.097c-0.165-0.164-0.332-0.326-0.5-0.486z"></path>
<path fill="#444444" d="M30.25 3.936v4.349c0.168 0.079 0.334 0.161 0.5 0.244v-4.39c-0.166-0.069-0.333-0.137-0.5-0.203z"></path>
<path fill="#444444" d="M31.25 8.787c0.168 0.089 0.334 0.181 0.5 0.274v-4.483c-0.166-0.077-0.332-0.152-0.5-0.225v4.435z"></path>
<path fill="#444444" d="M32.25 9.351c0.168 0.1 0.334 0.202 0.5 0.306v-4.593c-0.166-0.085-0.332-0.168-0.5-0.249v4.535z"></path>
<path fill="#444444" d="M34.25 10.682c0.168 0.125 0.335 0.251 0.5 0.381v-4.87c-0.166-0.103-0.332-0.204-0.5-0.303v4.792z"></path>
<path fill="#444444" d="M35.25 11.465c0.168 0.139 0.335 0.281 0.5 0.425v-5.046c-0.165-0.113-0.332-0.224-0.5-0.333v4.954z"></path>
<path fill="#444444" d="M33.25 9.98c0.168 0.112 0.335 0.225 0.5 0.341v-4.72c-0.166-0.093-0.332-0.185-0.5-0.275v4.654z"></path>
<path fill="#444444" d="M6.25 10.322c0.165-0.116 0.332-0.23 0.5-0.341v-4.654c-0.168 0.090-0.334 0.182-0.5 0.275v4.72z"></path>
<path fill="#444444" d="M19.25 6.012c0.166-0.005 0.333-0.009 0.5-0.010v-4c-0.167 0.001-0.334 0.004-0.5 0.008v4.002z"></path>
<path fill="#444444" d="M7.25 9.657c0.165-0.104 0.332-0.206 0.5-0.306v-4.536c-0.168 0.082-0.334 0.164-0.5 0.249v4.593z"></path>
<path fill="#444444" d="M4.25 11.89c0.165-0.144 0.332-0.286 0.5-0.425v-4.954c-0.168 0.109-0.335 0.22-0.5 0.333v5.046z"></path>
<path fill="#444444" d="M8.25 4.578v4.483c0.166-0.093 0.332-0.185 0.5-0.274v-4.435c-0.168 0.074-0.334 0.149-0.5 0.226z"></path>
<path fill="#444444" d="M0.25 10.25l0.5 0.5v-1.083c-0.168 0.16-0.335 0.321-0.5 0.486v0.097z"></path>
<path fill="#444444" d="M3.25 12.812c0.165-0.161 0.332-0.318 0.5-0.474v-5.145c-0.168 0.12-0.335 0.242-0.5 0.365v5.254z"></path>
<path fill="#444444" d="M9.25 8.529c0.166-0.083 0.332-0.165 0.5-0.244v-4.349c-0.167 0.066-0.334 0.134-0.5 0.203v4.39z"></path>
<path fill="#444444" d="M1.25 11.25l0.5 0.5v-2.987c-0.168 0.145-0.335 0.292-0.5 0.441v2.046z"></path>
<path fill="#444444" d="M2.25 12.25l0.5 0.5v-4.809c-0.168 0.132-0.335 0.266-0.5 0.402v3.908z"></path>
<path fill="#444444" d="M5.25 11.063c0.165-0.129 0.332-0.256 0.5-0.381v-4.792c-0.168 0.099-0.334 0.2-0.5 0.303v4.87z"></path>
<path fill="#444444" d="M10.25 8.056c0.166-0.074 0.333-0.145 0.5-0.215v-4.276c-0.167 0.059-0.334 0.119-0.5 0.181v4.311z"></path>
<path fill="#444444" d="M17.25 6.155c0.166-0.019 0.333-0.036 0.5-0.051v-4.015c-0.167 0.013-0.334 0.028-0.5 0.044v4.022z"></path>
<path fill="#444444" d="M18.25 6.063c0.166-0.012 0.333-0.022 0.5-0.031v-4.004c-0.167 0.007-0.334 0.016-0.5 0.026v4.009z"></path>
<path fill="#444444" d="M15.25 6.467c0.166-0.033 0.333-0.064 0.5-0.094v-4.054c-0.167 0.025-0.334 0.053-0.5 0.081v4.067z"></path>
<path fill="#444444" d="M16.25 6.29c0.166-0.026 0.333-0.050 0.5-0.073v-4.031c-0.167 0.019-0.334 0.040-0.5 0.062v4.042z"></path>
<path fill="#444444" d="M12.25 7.273c0.166-0.056 0.333-0.111 0.5-0.164v-4.162c-0.167 0.045-0.334 0.091-0.5 0.139v4.187z"></path>
<path fill="#444444" d="M11.25 7.638c0.166-0.065 0.333-0.128 0.5-0.189v-4.215c-0.167 0.052-0.334 0.105-0.5 0.16v4.244z"></path>
<path fill="#444444" d="M14.25 6.69c0.166-0.041 0.333-0.080 0.5-0.117v-4.083c-0.167 0.032-0.334 0.065-0.5 0.1v4.1z"></path>
<path fill="#444444" d="M13.25 6.957c0.166-0.048 0.333-0.095 0.5-0.14v-4.119c-0.167 0.038-0.334 0.078-0.5 0.12v4.139z"></path>
<path fill="#444444" d="M24.25 14.568c0.168 0.046 0.334 0.095 0.5 0.146v-4.149c-0.166-0.040-0.333-0.078-0.5-0.114v4.117z"></path>
<path fill="#444444" d="M25.25 14.878c0.168 0.058 0.335 0.118 0.5 0.182v-4.225c-0.166-0.050-0.333-0.097-0.5-0.142v4.185z"></path>
<path fill="#444444" d="M22.25 14.157c0.167 0.023 0.334 0.049 0.5 0.077v-4.046c-0.166-0.023-0.333-0.043-0.5-0.062v4.031z"></path>
<path fill="#444444" d="M21.25 14.048c0.167 0.013 0.334 0.029 0.5 0.047v-4.019c-0.166-0.014-0.333-0.027-0.5-0.037v4.009z"></path>
<path fill="#444444" d="M23.25 14.329c0.168 0.034 0.334 0.072 0.5 0.111v-4.090c-0.166-0.031-0.333-0.061-0.5-0.088v4.067z"></path>
<path fill="#444444" d="M26.25 15.263c0.168 0.071 0.335 0.145 0.5 0.222v-4.323c-0.166-0.059-0.333-0.116-0.5-0.171v4.271z"></path>
<path fill="#444444" d="M27.25 15.729c0.168 0.086 0.335 0.175 0.5 0.267v-4.443c-0.166-0.070-0.332-0.137-0.5-0.203v4.379z"></path>
<path fill="#444444" d="M32.25 17.75l0.5-0.5v-2.66c-0.165-0.137-0.331-0.271-0.5-0.403v3.563z"></path>
<path fill="#444444" d="M33.25 15.020v1.73l0.5-0.5v-0.773c-0.164-0.156-0.331-0.307-0.5-0.457z"></path>
<path fill="#444444" d="M31.25 18.624c0.021 0.021 0.043 0.041 0.064 0.062l0.436-0.436v-4.438c-0.165-0.12-0.332-0.238-0.5-0.353v5.165z"></path>
<path fill="#444444" d="M28.25 16.284c0.169 0.102 0.335 0.207 0.5 0.316v-4.594c-0.166-0.081-0.332-0.159-0.5-0.235v4.514z"></path>
<path fill="#444444" d="M30.25 17.714c0.169 0.142 0.336 0.286 0.5 0.435v-5.022c-0.165-0.106-0.332-0.21-0.5-0.31v4.897z"></path>
<path fill="#444444" d="M20.25 14.003c0.167 0.003 0.334 0.007 0.5 0.015v-4.002c-0.166-0.006-0.333-0.010-0.5-0.012v4z"></path>
<path fill="#444444" d="M29.25 16.941c0.169 0.12 0.335 0.244 0.5 0.371v-4.783c-0.165-0.093-0.332-0.182-0.5-0.27v4.683z"></path>
<path fill="#444444" d="M14.25 15.060c0.165-0.064 0.332-0.124 0.5-0.182v-4.185c-0.167 0.045-0.334 0.092-0.5 0.142v4.224z"></path>
<path fill="#444444" d="M9.25 18.149c0.164-0.149 0.331-0.294 0.5-0.435v-4.897c-0.168 0.101-0.335 0.205-0.5 0.31v5.022z"></path>
<path fill="#444444" d="M8.25 18.25l0.436 0.436c0.021-0.021 0.043-0.041 0.064-0.062v-5.165c-0.168 0.115-0.335 0.232-0.5 0.353v4.438z"></path>
<path fill="#444444" d="M10.25 17.312c0.165-0.127 0.331-0.251 0.5-0.371v-4.683c-0.168 0.088-0.335 0.178-0.5 0.27v4.783z"></path>
<path fill="#444444" d="M11.25 16.6c0.165-0.108 0.332-0.214 0.5-0.316v-4.514c-0.168 0.076-0.334 0.155-0.5 0.235v4.594z"></path>
<path fill="#444444" d="M7.25 17.25l0.5 0.5v-3.563c-0.169 0.131-0.335 0.266-0.5 0.403v2.66z"></path>
<path fill="#444444" d="M6.25 16.25l0.5 0.5v-1.73c-0.169 0.15-0.336 0.301-0.5 0.457v0.773z"></path>
<path fill="#444444" d="M18.25 14.095c0.166-0.018 0.333-0.034 0.5-0.047v-4.009c-0.167 0.010-0.334 0.023-0.5 0.037v4.019z"></path>
<path fill="#444444" d="M12.25 15.995c0.165-0.092 0.332-0.181 0.5-0.267v-4.379c-0.168 0.065-0.334 0.133-0.5 0.203v4.443z"></path>
<path fill="#444444" d="M19.25 14.018c0.166-0.008 0.333-0.012 0.5-0.015v-4c-0.167 0.002-0.334 0.006-0.5 0.012v4.002z"></path>
<path fill="#444444" d="M16.25 14.441c0.166-0.040 0.333-0.077 0.5-0.111v-4.067c-0.167 0.027-0.334 0.056-0.5 0.088v4.090z"></path>
<path fill="#444444" d="M17.25 14.234c0.166-0.029 0.333-0.054 0.5-0.077v-4.031c-0.167 0.019-0.334 0.039-0.5 0.062v4.046z"></path>
<path fill="#444444" d="M13.25 15.485c0.165-0.077 0.332-0.151 0.5-0.222v-4.271c-0.167 0.055-0.334 0.111-0.5 0.171v4.323z"></path>
<path fill="#444444" d="M15.25 14.714c0.166-0.051 0.332-0.1 0.5-0.146v-4.117c-0.167 0.036-0.334 0.074-0.5 0.114v4.149z"></path>
<path fill="#444444" d="M20.25 22.004c0.168 0.005 0.335 0.016 0.5 0.031v-4.011c-0.166-0.010-0.332-0.017-0.5-0.021v4.001z"></path>
<path fill="#444444" d="M22.25 22.323c0.169 0.050 0.336 0.104 0.5 0.164v-4.169c-0.165-0.039-0.332-0.074-0.5-0.106v4.11z"></path>
<path fill="#444444" d="M21.25 22.098c0.168 0.027 0.335 0.058 0.5 0.095v-4.065c-0.166-0.024-0.332-0.046-0.5-0.063v4.033z"></path>
<path fill="#444444" d="M24.25 23.225c0.171 0.108 0.338 0.222 0.5 0.342v-4.586c-0.165-0.071-0.331-0.139-0.5-0.203v4.447z"></path>
<path fill="#444444" d="M23.25 22.691c0.17 0.076 0.337 0.158 0.5 0.245v-4.335c-0.165-0.055-0.332-0.106-0.5-0.153v4.243z"></path>
<path fill="#444444" d="M25.25 23.969c0.139 0.121 0.274 0.247 0.404 0.377l0.096-0.096v-4.78c-0.164-0.090-0.331-0.176-0.5-0.259v4.758z"></path>
<path fill="#444444" d="M28.25 21.294v0.456l0.231-0.231c-0.076-0.076-0.153-0.151-0.231-0.225z"></path>
<path fill="#444444" d="M27.25 22.75l0.5-0.5v-1.404c-0.163-0.138-0.33-0.272-0.5-0.402v2.306z"></path>
<path fill="#444444" d="M26.25 23.75l0.5-0.5v-3.166c-0.164-0.112-0.331-0.22-0.5-0.324v3.99z"></path>
<path fill="#444444" d="M19.25 22.035c0.165-0.015 0.332-0.026 0.5-0.031v-4.001c-0.168 0.003-0.334 0.011-0.5 0.021v4.011z"></path>
<path fill="#444444" d="M13.25 23.25l0.5 0.5v-3.99c-0.169 0.104-0.336 0.212-0.5 0.324v3.166z"></path>
<path fill="#444444" d="M18.25 22.193c0.165-0.037 0.331-0.069 0.5-0.095v-4.033c-0.168 0.017-0.334 0.039-0.5 0.063v4.065z"></path>
<path fill="#444444" d="M11.75 21.75v-0.456c-0.078 0.074-0.155 0.149-0.231 0.225l0.231 0.231z"></path>
<path fill="#444444" d="M14.25 24.25l0.096 0.096c0.13-0.13 0.265-0.256 0.404-0.377v-4.758c-0.169 0.082-0.336 0.169-0.5 0.259v4.78z"></path>
<path fill="#444444" d="M12.25 22.25l0.5 0.5v-2.306c-0.17 0.13-0.337 0.264-0.5 0.402v1.404z"></path>
<path fill="#444444" d="M15.25 23.567c0.162-0.12 0.329-0.234 0.5-0.342v-4.447c-0.168 0.064-0.335 0.132-0.5 0.203v4.586z"></path>
<path fill="#444444" d="M17.25 22.487c0.164-0.060 0.331-0.115 0.5-0.164v-4.11c-0.168 0.032-0.335 0.067-0.5 0.106v4.169z"></path>
<path fill="#444444" d="M16.25 22.935c0.163-0.087 0.33-0.169 0.5-0.245v-4.243c-0.168 0.047-0.335 0.099-0.5 0.153v4.335z"></path>
</svg>
