<?xml version="1.0" encoding="utf-8"?>
<!-- Generated by IcoMoon.io -->
<!DOCTYPE svg PUBLIC "-//W3C//DTD SVG 1.1//EN" "http://www.w3.org/Graphics/SVG/1.1/DTD/svg11.dtd">
<svg version="1.1" xmlns="http://www.w3.org/2000/svg" xmlns:xlink="http://www.w3.org/1999/xlink" width="32" height="32" viewBox="0 0 32 32">
<path fill="#444444" d="M24 4c-1.051 0-2.091 0.208-3.055 0.606-1.083-1.573-2.895-2.606-4.945-2.606s-3.862 1.033-4.945 2.606c-0.964-0.398-2.004-0.606-3.055-0.606-4.411 0-8 3.589-8 8 0 3.914 1.749 5.664 3.293 7.207 1.453 1.453 2.707 2.707 2.707 5.793v6c0 0.552 0.448 1 1 1h18c0.552 0 1-0.448 1-1v-6c0-3.086 1.255-4.34 2.707-5.793 1.544-1.543 3.293-3.293 3.293-7.207 0-4.411-3.589-8-8-8zM24 30h-16v-4h16v4zM27.293 17.793c-1.405 1.405-2.982 2.982-3.252 6.207h-16.081c-0.271-3.226-1.847-4.802-3.252-6.207-1.452-1.453-2.707-2.707-2.707-5.793 0-3.308 2.692-6 6-6 0.079 0 0.354 0.012 0.358 0.012 1.642 0.115 1.642 1.052 1.642 1.988v1c0 0.552 0.448 1 1 1s1-0.448 1-1v-1c0-2.206 1.794-4 4-4s4 1.794 4 4v1c0 0.552 0.448 1 1 1s1-0.448 1-1v-1c0-0.936 0-1.873 1.642-1.988 0.004-0 0.279-0.012 0.358-0.012 3.308 0 6 2.692 6 6 0 3.086-1.255 4.34-2.707 5.793z"></path>
</svg>
