<?xml version="1.0" encoding="utf-8"?>
<!-- Generated by IcoMoon.io -->
<!DOCTYPE svg PUBLIC "-//W3C//DTD SVG 1.1//EN" "http://www.w3.org/Graphics/SVG/1.1/DTD/svg11.dtd">
<svg version="1.1" xmlns="http://www.w3.org/2000/svg" xmlns:xlink="http://www.w3.org/1999/xlink" width="34" height="32" viewBox="0 0 34 32">
<path fill="#444444" d="M28.125 14h-27.125c-0.552 0-1 0.448-1 1 0 3.050 0.622 6.040 1.799 8.647 1.157 2.564 2.815 4.693 4.794 6.157 0.172 0.127 0.381 0.196 0.595 0.196h-4.188c-0.552 0-1 0.448-1 1s0.448 1 1 1h20c0.552 0 1-0.448 1-1s-0.448-1-1-1h-4.188c0.214 0 0.423-0.069 0.595-0.196 1.822-1.348 3.371-3.259 4.509-5.554h0.209c3.169 0 5.078-1.106 6.122-2.034 1.254-1.115 2.003-2.644 2.003-4.091 0-2.275-1.85-4.125-4.125-4.125zM22.723 22h-19.445c-0.713-1.835-1.149-3.874-1.253-6h21.951c-0.104 2.126-0.54 4.165-1.253 6zM28.753 20.534c-0.674 0.599-1.878 1.3-3.89 1.44 0.618-1.803 0.992-3.741 1.103-5.724h2.16c1.034 0 1.875 0.841 1.875 1.875 0 0.629-0.328 1.592-1.247 2.409z"></path>
<path fill="#444444" d="M9 12c-0.552 0-1-0.448-1-1v-4c0-0.552 0.448-1 1-1s1 0.448 1 1v4c0 0.552-0.448 1-1 1z"></path>
<path fill="#444444" d="M13 12c-0.552 0-1-0.448-1-1v-8c0-0.552 0.448-1 1-1s1 0.448 1 1v8c0 0.552-0.448 1-1 1z"></path>
<path fill="#444444" d="M17 12c-0.552 0-1-0.448-1-1v-4c0-0.552 0.448-1 1-1s1 0.448 1 1v4c0 0.552-0.448 1-1 1z"></path>
</svg>
