<?xml version="1.0" encoding="utf-8"?>
<!-- Generated by IcoMoon.io -->
<!DOCTYPE svg PUBLIC "-//W3C//DTD SVG 1.1//EN" "http://www.w3.org/Graphics/SVG/1.1/DTD/svg11.dtd">
<svg version="1.1" xmlns="http://www.w3.org/2000/svg" xmlns:xlink="http://www.w3.org/1999/xlink" width="32" height="32" viewBox="0 0 32 32">
<path fill="#444444" d="M18 28h12v4h-12v-4z"></path>
<path fill="#444444" d="M30 18h-4v-4h-4v4h-4v4h4v4h4v-4h4z"></path>
<path fill="#444444" d="M16 26.842c-1.504 0.346-3.223 0.533-5 0.533-2.484 0-4.858-0.363-6.684-1.021-1.525-0.55-2.148-1.125-2.316-1.354v-5.187c1.991 1.285 5.279 2.125 9 2.125 1.8 0 3.5-0.197 5-0.545v-2.613c-1.504 0.346-3.223 0.533-5 0.533-2.484 0-4.858-0.363-6.684-1.021-1.525-0.55-2.148-1.125-2.316-1.354v-5.062c1.991 1.285 5.279 2.125 9 2.125 6.075 0 11-2.239 11-5s-4.925-5-11-5-11 2.239-11 5v16c0 2.761 4.925 5 11 5 1.8 0 3.5-0.197 5-0.545v-2.613zM4.804 7.646c1.692-0.658 3.893-1.021 6.196-1.021s4.503 0.362 6.196 1.021c1.414 0.55 1.991 1.125 2.147 1.354-0.156 0.23-0.733 0.805-2.147 1.354-1.692 0.658-3.893 1.021-6.196 1.021s-4.503-0.363-6.196-1.021c-1.414-0.55-1.991-1.125-2.147-1.354 0.156-0.23 0.733-0.805 2.147-1.354z"></path>
</svg>
