<?xml version="1.0" encoding="utf-8"?>
<!-- Generated by IcoMoon.io -->
<!DOCTYPE svg PUBLIC "-//W3C//DTD SVG 1.1//EN" "http://www.w3.org/Graphics/SVG/1.1/DTD/svg11.dtd">
<svg version="1.1" xmlns="http://www.w3.org/2000/svg" xmlns:xlink="http://www.w3.org/1999/xlink" width="32" height="32" viewBox="0 0 32 32">
<path fill="#444444" d="M15 20l-7-7v5h-8v4h8v5z"></path>
<path fill="#444444" d="M21 4c-6.075 0-11 2.239-11 5s4.925 5 11 5c3.721 0 7.009-0.84 9-2.125v5.062c-0.168 0.23-0.791 0.805-2.316 1.354-1.826 0.658-4.199 1.021-6.684 1.021-1.777 0-3.496-0.186-5-0.533v2.613c1.5 0.349 3.2 0.545 5 0.545 3.721 0 7.009-0.84 9-2.125v5.187c-0.168 0.23-0.791 0.805-2.316 1.354-1.826 0.658-4.199 1.021-6.684 1.021s-4.858-0.363-6.684-1.021c-0.11-0.040-0.215-0.080-0.316-0.119v2.622c1.902 0.714 4.341 1.143 7 1.143 6.075 0 11-2.239 11-5v-16c0-2.761-4.925-5-11-5zM27.196 10.354c-1.692 0.658-3.893 1.021-6.196 1.021s-4.503-0.363-6.196-1.021c-1.414-0.55-1.991-1.125-2.147-1.354 0.156-0.23 0.733-0.805 2.147-1.354 1.692-0.658 3.893-1.021 6.196-1.021s4.503 0.362 6.196 1.021c1.414 0.55 1.991 1.125 2.147 1.354-0.156 0.23-0.733 0.805-2.147 1.354z"></path>
</svg>
