<?xml version="1.0" encoding="utf-8"?>
<!-- Generated by IcoMoon.io -->
<!DOCTYPE svg PUBLIC "-//W3C//DTD SVG 1.1//EN" "http://www.w3.org/Graphics/SVG/1.1/DTD/svg11.dtd">
<svg version="1.1" xmlns="http://www.w3.org/2000/svg" xmlns:xlink="http://www.w3.org/1999/xlink" width="32" height="32" viewBox="0 0 32 32">
<path fill="#444444" d="M15 4c-6.075 0-11 2.239-11 5v16c0 2.761 4.925 5 11 5s11-2.239 11-5v-16c0-2.761-4.925-5-11-5zM8.804 7.646c1.692-0.658 3.893-1.021 6.196-1.021s4.503 0.362 6.196 1.021c1.414 0.55 1.991 1.125 2.147 1.354-0.156 0.23-0.733 0.805-2.147 1.354-1.692 0.658-3.893 1.021-6.196 1.021s-4.504-0.363-6.196-1.021c-1.414-0.55-1.991-1.125-2.147-1.354 0.156-0.23 0.733-0.805 2.147-1.354zM24 25c-0.168 0.23-0.791 0.805-2.316 1.354-1.826 0.658-4.199 1.021-6.684 1.021s-4.858-0.363-6.684-1.021c-1.525-0.55-2.148-1.125-2.316-1.354v-5.187c1.991 1.285 5.279 2.125 9 2.125s7.009-0.84 9-2.125v5.187zM24 16.938c-0.168 0.23-0.791 0.805-2.316 1.354-1.826 0.658-4.199 1.021-6.684 1.021s-4.858-0.363-6.684-1.021c-1.525-0.55-2.148-1.125-2.316-1.354v-5.062c1.991 1.285 5.279 2.125 9 2.125s7.009-0.84 9-2.125v5.062z"></path>
</svg>
