<?xml version="1.0" encoding="utf-8"?>
<!-- Generated by IcoMoon.io -->
<!DOCTYPE svg PUBLIC "-//W3C//DTD SVG 1.1//EN" "http://www.w3.org/Graphics/SVG/1.1/DTD/svg11.dtd">
<svg version="1.1" xmlns="http://www.w3.org/2000/svg" xmlns:xlink="http://www.w3.org/1999/xlink" width="32" height="32" viewBox="0 0 32 32">
<path fill="#444444" d="M10 4c-5.523 0-10 2.239-10 5v16c0 2.761 4.477 5 10 5s10-2.239 10-5v-16c0-2.761-4.477-5-10-5zM18 17.152c-0.283 0.284-0.863 0.719-1.924 1.14-1.66 0.658-3.818 1.021-6.076 1.021s-4.416-0.363-6.076-1.021c-1.061-0.421-1.641-0.856-1.924-1.14v-5.152c1.824 1.214 4.729 2 8 2s6.176-0.785 8-2v5.152zM4.367 7.646c1.539-0.658 3.539-1.021 5.633-1.021s4.094 0.362 5.633 1.021c1.285 0.55 1.81 1.125 1.952 1.354-0.142 0.23-0.667 0.805-1.952 1.354-1.539 0.658-3.539 1.021-5.633 1.021s-4.094-0.363-5.633-1.021c-1.285-0.55-1.81-1.125-1.952-1.354 0.142-0.23 0.667-0.805 1.952-1.354zM16.076 26.354c-1.66 0.658-3.818 1.021-6.076 1.021s-4.416-0.363-6.076-1.021c-1.061-0.421-1.641-0.856-1.924-1.14v-5.276c1.824 1.214 4.729 2 8 2s6.176-0.785 8-2v5.276c-0.283 0.284-0.863 0.719-1.924 1.14z"></path>
<path fill="#444444" d="M22 10h10v4h-10v-4z"></path>
<path fill="#444444" d="M22 16h10v4h-10v-4z"></path>
<path fill="#444444" d="M22 22h10v4h-10v-4z"></path>
</svg>
