<?xml version="1.0" encoding="utf-8"?>
<!-- Generated by IcoMoon.io -->
<!DOCTYPE svg PUBLIC "-//W3C//DTD SVG 1.1//EN" "http://www.w3.org/Graphics/SVG/1.1/DTD/svg11.dtd">
<svg version="1.1" xmlns="http://www.w3.org/2000/svg" xmlns:xlink="http://www.w3.org/1999/xlink" width="32" height="32" viewBox="0 0 32 32">
<path fill="#444444" d="M32 18h-4v-4h-4v4h-4v4h4v4h4v-4h4z"></path>
<path fill="#444444" d="M20 24v1c-0.168 0.23-0.791 0.805-2.316 1.354-1.826 0.658-4.199 1.021-6.684 1.021s-4.858-0.363-6.684-1.021c-1.525-0.55-2.148-1.125-2.316-1.354v-5.187c1.991 1.285 5.279 2.125 9 2.125 2.66 0 5.098-0.429 7-1.143v-2.622c-0.101 0.040-0.206 0.080-0.316 0.119-1.826 0.658-4.199 1.021-6.684 1.021s-4.858-0.363-6.684-1.021c-1.525-0.55-2.148-1.125-2.316-1.354v-5.062c1.991 1.285 5.279 2.125 9 2.125s7.009-0.84 9-2.125v4.125h2v-7c0-2.761-4.925-5-11-5s-11 2.239-11 5v16c0 2.761 4.925 5 11 5s11-2.239 11-5v-1h-2zM4.804 7.646c1.692-0.658 3.893-1.021 6.196-1.021s4.503 0.362 6.196 1.021c1.414 0.55 1.991 1.125 2.147 1.354-0.156 0.23-0.733 0.805-2.147 1.354-1.692 0.658-3.893 1.021-6.196 1.021s-4.503-0.363-6.196-1.021c-1.414-0.55-1.991-1.125-2.147-1.354 0.156-0.23 0.733-0.805 2.147-1.354z"></path>
</svg>
