<?xml version="1.0" encoding="utf-8"?>
<!-- Generated by IcoMoon.io -->
<!DOCTYPE svg PUBLIC "-//W3C//DTD SVG 1.1//EN" "http://www.w3.org/Graphics/SVG/1.1/DTD/svg11.dtd">
<svg version="1.1" xmlns="http://www.w3.org/2000/svg" xmlns:xlink="http://www.w3.org/1999/xlink" width="32" height="32" viewBox="0 0 32 32">
<path fill="#444444" d="M31.062 11.859l-3.392-2.12c-0.933-0.583-2.173-0.297-2.756 0.636l-8.81 14.099 0.014 7.526 6.77-3.287 8.81-14.099c0.583-0.933 0.297-2.173-0.636-2.756zM28.942 15.251l-6.889 11.025-3.392-2.12 6.889-11.025 3.392 2.12z"></path>
<path fill="#444444" d="M11 14c6.075 0 11-2.239 11-5s-4.925-5-11-5-11 2.239-11 5v16c0 2.761 4.925 5 11 5 1.040 0 2.046-0.066 3-0.188v-2.62c-0.96 0.12-1.97 0.183-3 0.183-2.484 0-4.858-0.363-6.684-1.021-1.525-0.55-2.148-1.125-2.316-1.354v-5.187c1.991 1.285 5.279 2.125 9 2.125 1.801 0 3.5-0.197 5-0.546v-2.612c-1.504 0.346-3.223 0.533-5 0.533-2.484 0-4.858-0.363-6.684-1.021-1.525-0.55-2.148-1.125-2.316-1.354v-5.062c1.991 1.285 5.279 2.125 9 2.125zM4.804 7.646c1.692-0.658 3.893-1.021 6.196-1.021s4.503 0.362 6.196 1.021c1.414 0.55 1.991 1.125 2.147 1.354-0.156 0.23-0.733 0.805-2.147 1.354-1.692 0.658-3.893 1.021-6.196 1.021s-4.503-0.363-6.196-1.021c-1.414-0.55-1.991-1.125-2.147-1.354 0.156-0.23 0.733-0.805 2.147-1.354z"></path>
</svg>
