<?xml version="1.0" encoding="utf-8"?>
<!-- Generated by IcoMoon.io -->
<!DOCTYPE svg PUBLIC "-//W3C//DTD SVG 1.1//EN" "http://www.w3.org/Graphics/SVG/1.1/DTD/svg11.dtd">
<svg version="1.1" xmlns="http://www.w3.org/2000/svg" xmlns:xlink="http://www.w3.org/1999/xlink" width="32" height="32" viewBox="0 0 32 32">
<path fill="#444444" d="M28.844 14.156c-1.572-1.344-3.613-2.156-5.844-2.156-4.405 0-8.070 3.164-8.847 7.344h3.080c0.721-2.505 3.033-4.344 5.767-4.344 1.4 0 2.689 0.483 3.71 1.29l-3.71 3.71h9v-9l-3.156 3.156z"></path>
<path fill="#444444" d="M23 27c-1.4 0-2.689-0.483-3.71-1.29l3.71-3.71h-9v9l3.156-3.156c1.572 1.344 3.613 2.156 5.844 2.156 4.405 0 8.070-3.164 8.847-7.344h-3.080c-0.721 2.505-3.033 4.344-5.767 4.344z"></path>
<path fill="#444444" d="M4.316 18.292c-1.525-0.55-2.148-1.125-2.316-1.354v-5.062c1.991 1.285 5.279 2.125 9 2.125 0.337 0 0.671-0.007 1-0.021v-2.628c-0.33 0.015-0.664 0.024-1 0.024-2.303 0-4.503-0.363-6.196-1.021-1.414-0.55-1.991-1.125-2.147-1.354 0.156-0.23 0.733-0.804 2.147-1.354 1.692-0.658 3.893-1.021 6.196-1.021s4.503 0.362 6.196 1.021c1.414 0.55 1.991 1.125 2.147 1.354-0.123 0.18-0.505 0.573-1.348 1h3.784c0.144-0.323 0.22-0.658 0.22-1 0-2.761-4.925-5-11-5s-11 2.239-11 5v16c0 2.761 4.925 5 11 5 0.337 0 0.671-0.007 1-0.021v-2.625c-0.331 0.013-0.664 0.020-1 0.020-2.484 0-4.858-0.363-6.684-1.021-1.525-0.55-2.148-1.125-2.316-1.354v-5.187c1.991 1.285 5.279 2.125 9 2.125 0.337 0 0.671-0.007 1-0.021v-2.624c-0.331 0.013-0.664 0.020-1 0.020-2.484 0-4.858-0.363-6.684-1.021z"></path>
</svg>
