<?xml version="1.0" encoding="utf-8"?>
<!-- Generated by IcoMoon.io -->
<!DOCTYPE svg PUBLIC "-//W3C//DTD SVG 1.1//EN" "http://www.w3.org/Graphics/SVG/1.1/DTD/svg11.dtd">
<svg version="1.1" xmlns="http://www.w3.org/2000/svg" xmlns:xlink="http://www.w3.org/1999/xlink" width="32" height="32" viewBox="0 0 32 32">
<path fill="#444444" d="M11 14c6.075 0 11-2.239 11-5s-4.925-5-11-5-11 2.239-11 5v16c0 2.761 4.925 5 11 5 1.005 0 1.979-0.062 2.905-0.177-0.573-0.762-1.053-1.599-1.422-2.493-0.487 0.029-0.982 0.044-1.482 0.044-2.484 0-4.858-0.363-6.684-1.021-1.525-0.55-2.148-1.125-2.316-1.354v-5.187c1.991 1.285 5.279 2.125 9 2.125 0.227 0 0.452-0.003 0.676-0.010 0.086-0.918 0.282-1.805 0.574-2.647-0.412 0.020-0.829 0.032-1.25 0.032-2.484 0-4.858-0.363-6.684-1.021-1.525-0.55-2.148-1.125-2.316-1.354v-5.062c1.991 1.285 5.279 2.125 9 2.125zM4.804 7.646c1.692-0.658 3.893-1.021 6.196-1.021s4.503 0.362 6.196 1.021c1.414 0.55 1.991 1.125 2.147 1.354-0.156 0.23-0.733 0.805-2.147 1.354-1.692 0.658-3.893 1.021-6.196 1.021s-4.503-0.363-6.196-1.021c-1.414-0.55-1.991-1.125-2.147-1.354 0.156-0.23 0.733-0.805 2.147-1.354z"></path>
<path fill="#444444" d="M23 14c-4.971 0-9 4.029-9 9s4.029 9 9 9 9-4.029 9-9-4.029-9-9-9zM28 24h-6v-6h2v4h4v2z"></path>
</svg>
