<?xml version="1.0" encoding="utf-8"?>
<!-- Generated by IcoMoon.io -->
<!DOCTYPE svg PUBLIC "-//W3C//DTD SVG 1.1//EN" "http://www.w3.org/Graphics/SVG/1.1/DTD/svg11.dtd">
<svg version="1.1" xmlns="http://www.w3.org/2000/svg" xmlns:xlink="http://www.w3.org/1999/xlink" width="33" height="32" viewBox="0 0 33 32">
<path fill="#444444" d="M13 14c2.757 0 5 2.243 5 5s-2.243 5-5 5-5-2.243-5-5 2.243-5 5-5zM13 12c-3.866 0-7 3.134-7 7s3.134 7 7 7c3.866 0 7-3.134 7-7s-3.134-7-7-7v0z"></path>
<path fill="#444444" d="M13 10c-0.552 0-1-0.448-1-1v-2c0-0.552 0.448-1 1-1s1 0.448 1 1v2c0 0.552-0.448 1-1 1z"></path>
<path fill="#444444" d="M13 32c-0.552 0-1-0.448-1-1v-2c0-0.552 0.448-1 1-1s1 0.448 1 1v2c0 0.552-0.448 1-1 1z"></path>
<path fill="#444444" d="M4 19c0 0.552-0.448 1-1 1h-2c-0.552 0-1-0.448-1-1s0.448-1 1-1h2c0.552 0 1 0.448 1 1z"></path>
<path fill="#444444" d="M26 19c0 0.552-0.448 1-1 1h-2c-0.552 0-1-0.448-1-1s0.448-1 1-1h2c0.552 0 1 0.448 1 1z"></path>
<path fill="#444444" d="M6.636 12.636c-0.391 0.39-1.024 0.39-1.414 0l-1.414-1.414c-0.391-0.391-0.391-1.024 0-1.414s1.024-0.391 1.414 0l1.414 1.414c0.391 0.39 0.391 1.024 0 1.414z"></path>
<path fill="#444444" d="M22.192 28.192c-0.39 0.39-1.024 0.39-1.414 0l-1.414-1.414c-0.39-0.39-0.39-1.024 0-1.414s1.024-0.39 1.414 0l1.414 1.414c0.39 0.39 0.39 1.024 0 1.414z"></path>
<path fill="#444444" d="M6.636 25.364c0.391 0.391 0.391 1.024 0 1.414l-1.414 1.414c-0.391 0.39-1.024 0.391-1.414 0s-0.391-1.024 0-1.414l1.414-1.414c0.39-0.39 1.024-0.39 1.414 0z"></path>
<path fill="#444444" d="M25.404 9.596c-1.993-1.993-2.617-4.805-1.825-7.166-2.673 0.985-4.579 3.555-4.579 6.57 0 3.866 3.134 7 7 7 3.015 0 5.585-1.906 6.57-4.579-2.361 0.792-5.173 0.168-7.166-1.825z"></path>
</svg>
