<?xml version="1.0" encoding="utf-8"?>
<!-- Generated by IcoMoon.io -->
<!DOCTYPE svg PUBLIC "-//W3C//DTD SVG 1.1//EN" "http://www.w3.org/Graphics/SVG/1.1/DTD/svg11.dtd">
<svg version="1.1" xmlns="http://www.w3.org/2000/svg" xmlns:xlink="http://www.w3.org/1999/xlink" width="32" height="32" viewBox="0 0 32 32">
<path fill="#444444" d="M23 8c-0.556 0-1.101 0.051-1.629 0.148 2.747 1.98 4.536 5.207 4.536 8.852s-1.789 6.872-4.536 8.852c0.528 0.097 1.073 0.148 1.629 0.148 4.971 0 9-4.029 9-9s-4.029-9-9-9z"></path>
<path fill="#444444" d="M15 32c-0.552 0-1-0.448-1-1v-2c0-0.552 0.448-1 1-1s1 0.448 1 1v2c0 0.552-0.448 1-1 1z"></path>
<path fill="#444444" d="M15 6c-0.552 0-1-0.448-1-1v-2c0-0.552 0.448-1 1-1s1 0.448 1 1v2c0 0.552-0.448 1-1 1z"></path>
<path fill="#444444" d="M5 28c-0.256 0-0.512-0.098-0.707-0.293-0.39-0.39-0.39-1.024 0-1.414l2-2c0.391-0.39 1.024-0.39 1.414 0s0.391 1.024 0 1.414l-2 2c-0.195 0.195-0.451 0.293-0.707 0.293z"></path>
<path fill="#444444" d="M7 10c-0.256 0-0.512-0.098-0.707-0.293l-2-2c-0.39-0.391-0.39-1.024 0-1.414s1.024-0.391 1.414 0l2 2c0.391 0.391 0.391 1.024 0 1.414-0.195 0.195-0.451 0.293-0.707 0.293z"></path>
<path fill="#444444" d="M3 18h-2c-0.552 0-1-0.448-1-1s0.448-1 1-1h2c0.552 0 1 0.448 1 1s-0.448 1-1 1z"></path>
<path fill="#444444" d="M15 26c-4.963 0-9-4.037-9-9s4.037-9 9-9c4.963 0 9 4.037 9 9s-4.037 9-9 9zM15 10c-3.86 0-7 3.14-7 7s3.14 7 7 7 7-3.14 7-7-3.14-7-7-7z"></path>
</svg>
