<?xml version="1.0" encoding="utf-8"?>
<!-- Generated by IcoMoon.io -->
<!DOCTYPE svg PUBLIC "-//W3C//DTD SVG 1.1//EN" "http://www.w3.org/Graphics/SVG/1.1/DTD/svg11.dtd">
<svg version="1.1" xmlns="http://www.w3.org/2000/svg" xmlns:xlink="http://www.w3.org/1999/xlink" width="32" height="32" viewBox="0 0 32 32">
<path fill="#444444" d="M32 9v-8l-31 31h8v-2h1v2h3v-4h1v4h3v-2h1v2h3v-4h1v4h3v-2h1v2h6v-6h-2v-1h2v-3h-4v-1h4v-3h-2v-1h2v-3h-4v-1h4v-3h-2v-1h2zM26 26h-11l11-11v11z"></path>
<path fill="#444444" d="M19 0l-16 16-3 8 8-3 16-16c0-3-2-5-5-5zM7 18l-2-2 14-14 2 2-14 14z"></path>
</svg>
