<?xml version="1.0" encoding="utf-8"?>
<!-- Generated by IcoMoon.io -->
<!DOCTYPE svg PUBLIC "-//W3C//DTD SVG 1.1//EN" "http://www.w3.org/Graphics/SVG/1.1/DTD/svg11.dtd">
<svg version="1.1" xmlns="http://www.w3.org/2000/svg" xmlns:xlink="http://www.w3.org/1999/xlink" width="32" height="32" viewBox="0 0 32 32">
<path fill="#444444" d="M16 13.015c-1.646 0-2.985 1.339-2.985 2.985s1.339 2.985 2.985 2.985 2.985-1.339 2.985-2.985-1.339-2.985-2.985-2.985z"></path>
<path fill="#444444" d="M16 0c-8.837 0-16 7.163-16 16s7.163 16 16 16 16-7.163 16-16-7.163-16-16-16zM21.219 16c0 2.878-2.341 5.219-5.219 5.219s-5.219-2.341-5.219-5.219 2.341-5.219 5.219-5.219 5.219 2.341 5.219 5.219zM4.127 23.421l6.601-4.126c0.501 0.799 1.178 1.476 1.977 1.977l-4.126 6.601c-1.8-1.127-3.325-2.652-4.452-4.452zM21.272 12.705c-0.501-0.799-1.178-1.476-1.977-1.977l4.126-6.601c1.8 1.127 3.325 2.652 4.452 4.452l-6.601 4.126z"></path>
</svg>
