<?xml version="1.0" encoding="utf-8"?>
<!-- Generated by IcoMoon.io -->
<!DOCTYPE svg PUBLIC "-//W3C//DTD SVG 1.1//EN" "http://www.w3.org/Graphics/SVG/1.1/DTD/svg11.dtd">
<svg version="1.1" xmlns="http://www.w3.org/2000/svg" xmlns:xlink="http://www.w3.org/1999/xlink" width="32" height="32" viewBox="0 0 32 32">
<path fill="#444444" d="M31.781 20.375l-8-10c-0.345-0.431-0.974-0.501-1.406-0.156s-0.501 0.974-0.156 1.406l7.781 9.726v0.649h-7l-4 4h-6l-4-4h-7v-0.649l7.781-9.726c0.345-0.431 0.275-1.061-0.156-1.406s-1.061-0.275-1.406 0.156l-8 10c-0.142 0.177-0.219 0.398-0.219 0.625v9c0 1.105 0.895 2 2 2h28c1.105 0 2-0.895 2-2v-9c0-0.227-0.077-0.447-0.219-0.625z"></path>
<path fill="#444444" d="M16 23l7-7h-5v-10h-4v10h-5z"></path>
</svg>
