<?xml version="1.0" encoding="utf-8"?>
<!-- Generated by IcoMoon.io -->
<!DOCTYPE svg PUBLIC "-//W3C//DTD SVG 1.1//EN" "http://www.w3.org/Graphics/SVG/1.1/DTD/svg11.dtd">
<svg version="1.1" xmlns="http://www.w3.org/2000/svg" xmlns:xlink="http://www.w3.org/1999/xlink" width="32" height="32" viewBox="0 0 32 32">
<path fill="#444444" d="M16 4.029c1.525 1.449 2.895 2.96 4.092 4.512 1.861 2.413 3.242 4.855 4.103 7.258 0.774 2.159 1.363 5.367-0.224 8.384-1.54 2.926-4.669 4.817-7.971 4.817s-6.432-1.891-7.971-4.817c-1.588-3.018-0.998-6.225-0.224-8.384 0.861-2.403 2.242-4.845 4.103-7.258 1.197-1.552 2.568-3.063 4.092-4.512v0zM16 0c-4.61 3.907-8.965 9.054-11.020 14.786-1.271 3.545-1.396 7.393 0.393 10.794 2.058 3.911 6.207 6.42 10.626 6.42s8.569-2.509 10.626-6.42c1.79-3.401 1.664-7.249 0.393-10.794-2.055-5.732-6.41-10.88-11.020-14.786v0z"></path>
</svg>
