<?xml version="1.0" encoding="utf-8"?>
<!-- Generated by IcoMoon.io -->
<!DOCTYPE svg PUBLIC "-//W3C//DTD SVG 1.1//EN" "http://www.w3.org/Graphics/SVG/1.1/DTD/svg11.dtd">
<svg version="1.1" xmlns="http://www.w3.org/2000/svg" xmlns:xlink="http://www.w3.org/1999/xlink" width="32" height="32" viewBox="0 0 32 32">
<path fill="#444444" d="M16 0c-8.837 0-16 7.163-16 16s7.163 16 16 16 16-7.163 16-16-7.163-16-16-16zM16 23c-4.418 0-8-3.582-8-8s3.582-8 8-8 8 3.582 8 8-3.582 8-8 8z"></path>
<path fill="#444444" d="M19.004 15c0.622-0.527 0.996-1.225 0.996-2 0-1.682-1.757-3-4-3s-4 1.318-4 3c0 0.775 0.374 1.473 0.996 2-0.622 0.527-0.996 1.225-0.996 2 0 1.682 1.757 3 4 3s4-1.318 4-3c0-0.775-0.374-1.473-0.996-2zM14 13c0-0.408 0.779-1 2-1s2 0.592 2 1c0 0.408-0.779 1-1.999 1-0 0-0.001 0-0.001 0s-0.001 0-0.001 0c-1.22-0-1.999-0.592-1.999-1zM16 18c-1.221 0-2-0.592-2-1s0.779-1 1.999-1c0 0 0.001 0 0.001 0s0.001 0 0.001 0c1.22 0 1.999 0.592 1.999 1s-0.779 1-2 1z"></path>
</svg>
