<?xml version="1.0" encoding="utf-8"?>
<!-- Generated by IcoMoon.io -->
<!DOCTYPE svg PUBLIC "-//W3C//DTD SVG 1.1//EN" "http://www.w3.org/Graphics/SVG/1.1/DTD/svg11.dtd">
<svg version="1.1" xmlns="http://www.w3.org/2000/svg" xmlns:xlink="http://www.w3.org/1999/xlink" width="32" height="32" viewBox="0 0 32 32">
<path fill="#444444" d="M29.996 6c0.001 0.001 0.003 0.002 0.004 0.004v19.993c-0.001 0.001-0.002 0.003-0.004 0.004h-27.993c-0.001-0.001-0.003-0.002-0.004-0.004v-19.993c0.001-0.001 0.002-0.003 0.004-0.004h27.993zM30 4h-28c-1.1 0-2 0.9-2 2v20c0 1.1 0.9 2 2 2h28c1.1 0 2-0.9 2-2v-20c0-1.1-0.9-2-2-2v0z"></path>
<path fill="#444444" d="M11.662 19.546l-6 4.364c-0.2 0.145-0.431 0.215-0.661 0.215-0.348 0-0.691-0.161-0.911-0.463-0.365-0.502-0.254-1.206 0.248-1.572l6-4.364c0.502-0.365 1.206-0.254 1.572 0.248s0.254 1.206-0.248 1.572z"></path>
<path fill="#444444" d="M27.91 23.662c-0.22 0.303-0.563 0.463-0.911 0.463-0.23 0-0.461-0.070-0.661-0.215l-6-4.364c-0.503-0.366-0.614-1.069-0.248-1.572s1.069-0.613 1.572-0.248l6 4.364c0.502 0.366 0.613 1.069 0.248 1.572z"></path>
<path fill="#444444" d="M27.662 9.91l-11 8c-0.197 0.144-0.429 0.215-0.662 0.215s-0.464-0.072-0.662-0.215l-11-8c-0.502-0.365-0.614-1.069-0.248-1.572s1.069-0.614 1.572-0.248l10.338 7.519 10.338-7.519c0.502-0.365 1.206-0.254 1.572 0.248s0.254 1.206-0.248 1.572v0z"></path>
</svg>
