<?xml version="1.0" encoding="utf-8"?>
<!-- Generated by IcoMoon.io -->
<!DOCTYPE svg PUBLIC "-//W3C//DTD SVG 1.1//EN" "http://www.w3.org/Graphics/SVG/1.1/DTD/svg11.dtd">
<svg version="1.1" xmlns="http://www.w3.org/2000/svg" xmlns:xlink="http://www.w3.org/1999/xlink" width="32" height="32" viewBox="0 0 32 32">
<path fill="#444444" d="M29.997 8.845c-0.001-0.035-0.006-0.111-0.006-0.114-0.115-1.751-1.337-2.882-2.322-3.336-0.006-0.003-0.109-0.049-0.154-0.067l-6.286-2.514c-0.406-0.163-0.854-0.245-1.33-0.245-1.143 0-2.283 0.483-2.974 1.261l-13.342 15.010c-0.045 0.050-0.087 0.102-0.127 0.154-0.002 0.002-0.003 0.003-0.004 0.005-0.879 1-1.45 2-1.45 4v2c0 1.501 1.092 3.114 2.486 3.671l5.909 2.364c0.912 0.355 2.432 1.168 4.287-0.486 0.133-0.108 0.265-0.234 0.395-0.38l0.15-0.169c0-0 0-0 0.001-0.001l13.192-14.841c0.887-0.998 1.581-2.824 1.581-4.159v-2c0-0.053-0.001-0.105-0.003-0.155zM18.419 5.159c0.314-0.353 0.908-0.59 1.48-0.59 0.218 0 0.421 0.035 0.587 0.102l6.286 2.514c0.175 0.070 0.297 0.171 0.319 0.265s-0.042 0.239-0.167 0.38l-7.829 8.808-8.026-3.21 7.35-8.268zM28 11c0 0.848-0.513 2.197-1.076 2.83l-6.924 7.789v-2.99l8-9v1.37z"></path>
</svg>
