<?xml version="1.0" encoding="utf-8"?>
<!-- Generated by IcoMoon.io -->
<!DOCTYPE svg PUBLIC "-//W3C//DTD SVG 1.1//EN" "http://www.w3.org/Graphics/SVG/1.1/DTD/svg11.dtd">
<svg version="1.1" xmlns="http://www.w3.org/2000/svg" xmlns:xlink="http://www.w3.org/1999/xlink" width="32" height="32" viewBox="0 0 32 32">
<path fill="#444444" d="M31.9 21.614c-0.931-2.226-2.534-4.124-4.636-5.489-2.14-1.39-4.652-2.125-7.264-2.125s-5.124 0.735-7.264 2.125c-2.102 1.365-3.705 3.263-4.636 5.489-0.103 0.247-0.103 0.525 0 0.772 0.931 2.226 2.534 4.124 4.636 5.489 2.14 1.39 4.652 2.125 7.264 2.125s5.124-0.735 7.264-2.125c2.102-1.365 3.705-3.263 4.636-5.489 0.103-0.247 0.103-0.525-0-0.772zM20 20c0 1.105-0.895 2-2 2s-2-0.895-2-2 0.895-2 2-2 2 0.895 2 2zM26.175 26.198c-1.815 1.179-3.95 1.802-6.175 1.802s-4.359-0.623-6.175-1.802c-1.64-1.065-2.915-2.51-3.709-4.198 0.794-1.688 2.069-3.133 3.709-4.198 0.203-0.132 0.411-0.257 0.622-0.375-0.398 0.81-0.622 1.72-0.622 2.683 0 3.362 2.725 6.087 6.087 6.087s6.087-2.725 6.087-6.087c0-1.016-0.249-1.973-0.689-2.815 0.295 0.155 0.583 0.324 0.864 0.506 1.64 1.065 2.915 2.51 3.709 4.198-0.794 1.688-2.069 3.133-3.709 4.198v0z"></path>
<path fill="#444444" d="M28.681 7.159c-0.694-0.947-1.662-2.053-2.724-3.116s-2.169-2.030-3.116-2.724c-1.612-1.182-2.393-1.319-2.841-1.319h-15.5c-1.378 0-2.5 1.121-2.5 2.5v27c0 1.378 1.122 2.5 2.5 2.5h10.5c0.552 0 1-0.448 1-1s-0.448-1-1-1h-10.5c-0.271 0-0.5-0.229-0.5-0.5v-27c0-0.271 0.229-0.5 0.5-0.5 0 0 15.499-0 15.5 0v7c0 0.552 0.448 1 1 1h7v5c0 0.552 0.448 1 1 1s1-0.448 1-1v-5c0-0.448-0.137-1.23-1.319-2.841zM22 8v-4.811c0.718 0.556 1.584 1.309 2.543 2.268s1.712 1.825 2.268 2.543h-4.811z"></path>
</svg>
