<?xml version="1.0" encoding="utf-8"?>
<!-- Generated by IcoMoon.io -->
<!DOCTYPE svg PUBLIC "-//W3C//DTD SVG 1.1//EN" "http://www.w3.org/Graphics/SVG/1.1/DTD/svg11.dtd">
<svg version="1.1" xmlns="http://www.w3.org/2000/svg" xmlns:xlink="http://www.w3.org/1999/xlink" width="32" height="32" viewBox="0 0 32 32">
<path fill="#444444" d="M22 8h7.254c-0.157-0.252-0.345-0.531-0.572-0.841-0.694-0.947-1.662-2.053-2.724-3.116s-2.169-2.030-3.116-2.724c-0.31-0.227-0.589-0.416-0.841-0.572v7.254z"></path>
<path fill="#444444" d="M11.51 31.762c-2.483-1.613-4.38-3.863-5.486-6.508-0.333-0.797-0.333-1.712 0-2.508 1.107-2.645 3.004-4.895 5.486-6.508 2.506-1.628 5.442-2.488 8.49-2.488s5.984 0.86 8.489 2.488c0.531 0.345 1.035 0.719 1.511 1.12v-7.358h-9c-0.552 0-1-0.448-1-1v-9h-15.5c-1.378 0-2.5 1.121-2.5 2.5v27c0 1.378 1.121 2.5 2.5 2.5h7.39c-0.127-0.078-0.254-0.157-0.38-0.238z"></path>
<path fill="#444444" d="M31.9 23.614c-0.931-2.226-2.534-4.124-4.636-5.489-2.14-1.39-4.652-2.125-7.264-2.125s-5.124 0.735-7.264 2.125c-2.102 1.365-3.705 3.263-4.636 5.489-0.103 0.247-0.103 0.525 0 0.772 0.931 2.226 2.534 4.124 4.636 5.489 2.14 1.39 4.652 2.125 7.264 2.125s5.124-0.735 7.264-2.125c2.102-1.365 3.705-3.263 4.636-5.489 0.103-0.247 0.103-0.525-0-0.772zM20 22c0 1.105-0.895 2-2 2s-2-0.895-2-2 0.895-2 2-2 2 0.895 2 2zM26.175 28.198c-1.815 1.179-3.95 1.802-6.175 1.802s-4.359-0.623-6.175-1.802c-1.64-1.065-2.915-2.51-3.709-4.198 0.794-1.688 2.069-3.133 3.709-4.198 0.203-0.132 0.411-0.257 0.622-0.375-0.398 0.81-0.622 1.72-0.622 2.683 0 3.362 2.725 6.087 6.087 6.087s6.087-2.725 6.087-6.087c0-1.016-0.249-1.973-0.689-2.815 0.295 0.155 0.583 0.324 0.864 0.506 1.64 1.065 2.915 2.51 3.709 4.198-0.794 1.687-2.069 3.133-3.709 4.198v0 0z"></path>
</svg>
