<?xml version="1.0" encoding="utf-8"?>
<!-- Generated by IcoMoon.io -->
<!DOCTYPE svg PUBLIC "-//W3C//DTD SVG 1.1//EN" "http://www.w3.org/Graphics/SVG/1.1/DTD/svg11.dtd">
<svg version="1.1" xmlns="http://www.w3.org/2000/svg" xmlns:xlink="http://www.w3.org/1999/xlink" width="32" height="32" viewBox="0 0 32 32">
<path fill="#444444" d="M22 8h7.254c-0.157-0.252-0.345-0.531-0.572-0.841-0.694-0.947-1.662-2.053-2.724-3.116s-2.169-2.030-3.116-2.724c-0.31-0.227-0.589-0.416-0.841-0.572v7.254z"></path>
<path fill="#444444" d="M21 10c-0.552 0-1-0.448-1-1v-9h-15.5c-1.378 0-2.5 1.121-2.5 2.5v27c0 1.378 1.121 2.5 2.5 2.5h23c1.378 0 2.5-1.122 2.5-2.5v-19.5h-9zM12 22.5v2.5c0 0.551 0.449 1 1 1s1 0.448 1 1-0.448 1-1 1c-1.654 0-3-1.346-3-3v-2.5c0-0.276-0.224-0.5-0.5-0.5h-0.5c-0.552 0-1-0.448-1-1s0.448-1 1-1h0.5c0.276 0 0.5-0.224 0.5-0.5v-2.5c0-1.654 1.346-3 3-3 0.552 0 1 0.448 1 1s-0.448 1-1 1c-0.551 0-1 0.449-1 1v2.5c0 0.562-0.187 1.082-0.501 1.5 0.315 0.418 0.501 0.938 0.501 1.5zM23 22h-0.5c-0.276 0-0.5 0.224-0.5 0.5v2.5c0 1.654-1.346 3-3 3-0.552 0-1-0.448-1-1s0.448-1 1-1c0.551 0 1-0.449 1-1v-2.5c0-0.562 0.187-1.082 0.501-1.5-0.315-0.418-0.501-0.938-0.501-1.5v-2.5c0-0.551-0.449-1-1-1s-1-0.448-1-1 0.448-1 1-1c1.654 0 3 1.346 3 3v2.5c0 0.276 0.224 0.5 0.5 0.5h0.5c0.552 0 1 0.448 1 1s-0.448 1-1 1z"></path>
</svg>
