<?xml version="1.0" encoding="utf-8"?>
<!-- Generated by IcoMoon.io -->
<!DOCTYPE svg PUBLIC "-//W3C//DTD SVG 1.1//EN" "http://www.w3.org/Graphics/SVG/1.1/DTD/svg11.dtd">
<svg version="1.1" xmlns="http://www.w3.org/2000/svg" xmlns:xlink="http://www.w3.org/1999/xlink" width="32" height="32" viewBox="0 0 32 32">
<path fill="#444444" d="M26.681 7.159c-0.694-0.947-1.662-2.053-2.724-3.116s-2.169-2.030-3.116-2.724c-1.612-1.182-2.393-1.319-2.841-1.319h-13.5c-1.378 0-2.5 1.121-2.5 2.5v7.5l1 22 1-22v-7.5c0-0.271 0.229-0.5 0.5-0.5 0 0 13.499-0 13.5 0v7c0 0.552 0.448 1 1 1h7l1 22 1-22c0-0.448-0.137-1.23-1.319-2.841zM20 8v-4.811c0.718 0.556 1.584 1.309 2.543 2.268s1.712 1.825 2.268 2.543h-4.811z"></path>
<path fill="#444444" d="M18 14h-6v10h-5l8 8 8-8h-5z"></path>
</svg>
