<?xml version="1.0" encoding="utf-8"?>
<!-- Generated by IcoMoon.io -->
<!DOCTYPE svg PUBLIC "-//W3C//DTD SVG 1.1//EN" "http://www.w3.org/Graphics/SVG/1.1/DTD/svg11.dtd">
<svg version="1.1" xmlns="http://www.w3.org/2000/svg" xmlns:xlink="http://www.w3.org/1999/xlink" width="32" height="32" viewBox="0 0 32 32">
<path fill="#444444" d="M31.854 14.479c-1.563-2.561-3.617-4.687-5.939-6.147-2.426-1.526-5.163-2.332-7.914-2.332-3.946 0-7.737 1.628-10.789 4.608-1.734-2.048-3.724-3.601-5.807-4.523-0.386-0.171-0.837-0.081-1.128 0.224s-0.36 0.76-0.171 1.138l3.777 7.553-3.777 7.553c-0.189 0.377-0.12 0.832 0.171 1.138 0.193 0.202 0.456 0.31 0.724 0.31 0.137-0 0.274-0.028 0.405-0.086 2.083-0.922 4.073-2.475 5.806-4.523 3.052 2.98 6.844 4.608 10.79 4.608 2.751 0 5.488-0.806 7.914-2.332 2.323-1.461 4.377-3.586 5.939-6.147 0.195-0.32 0.195-0.722 0-1.042zM26 16c-1.105 0-2-0.895-2-2s0.895-2 2-2 2 0.895 2 2-0.895 2-2 2z"></path>
</svg>
