<?xml version="1.0" encoding="utf-8"?>
<!-- Generated by IcoMoon.io -->
<!DOCTYPE svg PUBLIC "-//W3C//DTD SVG 1.1//EN" "http://www.w3.org/Graphics/SVG/1.1/DTD/svg11.dtd">
<svg version="1.1" xmlns="http://www.w3.org/2000/svg" xmlns:xlink="http://www.w3.org/1999/xlink" width="32" height="32" viewBox="0 0 32 32">
<path fill="#444444" d="M0 0h4v32h-4v-32z"></path>
<path fill="#444444" d="M25 4.094c-1.892 0-3.63-0.247-5-0.658v-1.889c-1.365-0.922-3.988-1.547-7-1.547s-5.635 0.625-7 1.547v16c1.365-0.922 3.988-1.547 7-1.547 1.892 0 3.63 0.246 5 0.658v1.889c1.365 0.922 3.988 1.547 7 1.547s5.635-0.625 7-1.547v-16c-1.365 0.922-3.988 1.547-7 1.547zM19 12.719v2.152l-0.424-0.127c-1.617-0.486-3.545-0.743-5.576-0.743-1.807 0-3.526 0.207-5 0.586v-11.928c1.37-0.412 3.108-0.658 5-0.658 2.39 0 4.534 0.393 6 1.017v9.702zM30 17.325c-1.114 0.425-2.867 0.768-5 0.768s-3.886-0.343-5-0.768v-11.815c1.49 0.382 3.205 0.583 5 0.583 1.807 0 3.526-0.207 5-0.586v11.817z"></path>
</svg>
