<?xml version="1.0" encoding="utf-8"?>
<!-- Generated by IcoMoon.io -->
<!DOCTYPE svg PUBLIC "-//W3C//DTD SVG 1.1//EN" "http://www.w3.org/Graphics/SVG/1.1/DTD/svg11.dtd">
<svg version="1.1" xmlns="http://www.w3.org/2000/svg" xmlns:xlink="http://www.w3.org/1999/xlink" width="32" height="32" viewBox="0 0 32 32">
<path fill="#444444" d="M0 0h4v32h-4v-32z"></path>
<path fill="#444444" d="M20 2c-1 0-1.5-0.5-2-1s-1-1-2-1h-10v20h10c1 0 1.5 0.5 2 1s1 1 2 1h10v-20h-10zM8 18v-16h8c0.155 0 0.172 0 0.586 0.414 0.112 0.112 0.239 0.239 0.383 0.37v15.317c-0.294-0.064-0.616-0.101-0.969-0.101h-8zM28 20h-8c-0.155 0-0.172 0-0.586-0.414-0.326-0.326-0.774-0.773-1.414-1.109v-14.953c0.524 0.275 1.177 0.477 2 0.477h8v16z"></path>
</svg>
