<?xml version="1.0" encoding="utf-8"?>
<!-- Generated by IcoMoon.io -->
<!DOCTYPE svg PUBLIC "-//W3C//DTD SVG 1.1//EN" "http://www.w3.org/Graphics/SVG/1.1/DTD/svg11.dtd">
<svg version="1.1" xmlns="http://www.w3.org/2000/svg" xmlns:xlink="http://www.w3.org/1999/xlink" width="32" height="32" viewBox="0 0 32 32">
<path fill="#444444" d="M0 0h4v32h-4v-32z"></path>
<path fill="#444444" d="M29.024 18c-0-0-0.001-0-0.001 0h-22.023c-0.552 0-1-0.448-1-1v-14c0-0.552 0.448-1 1-1h22.023c0.404 0 0.769 0.244 0.924 0.617s0.069 0.804-0.217 1.090l-6.293 6.293 6.264 6.264c0.199 0.183 0.323 0.445 0.323 0.736 0 0.552-0.448 1-1 1zM8 16h18.609l-5.293-5.293c-0.391-0.39-0.391-1.024 0-1.414l5.293-5.293h-18.609v12z"></path>
</svg>
