<?xml version="1.0" encoding="utf-8"?>
<!-- Generated by IcoMoon.io -->
<!DOCTYPE svg PUBLIC "-//W3C//DTD SVG 1.1//EN" "http://www.w3.org/Graphics/SVG/1.1/DTD/svg11.dtd">
<svg version="1.1" xmlns="http://www.w3.org/2000/svg" xmlns:xlink="http://www.w3.org/1999/xlink" width="32" height="32" viewBox="0 0 32 32">
<path fill="#444444" d="M0 32l14-32v32z"></path>
<path fill="#444444" d="M18 24.25v0.5h10.828l-0.219-0.5z"></path>
<path fill="#444444" d="M18 23.25v0.5h10.391l-0.219-0.5z"></path>
<path fill="#444444" d="M18 16.25v0.5h7.328l-0.219-0.5z"></path>
<path fill="#444444" d="M18 21.25v0.5h9.516l-0.219-0.5z"></path>
<path fill="#444444" d="M18 17.25v0.5h7.766l-0.219-0.5z"></path>
<path fill="#444444" d="M18 18.25v0.5h8.203l-0.219-0.5z"></path>
<path fill="#444444" d="M18 19.25v0.5h8.641l-0.219-0.5z"></path>
<path fill="#444444" d="M18 20.25v0.5h9.078l-0.219-0.5z"></path>
<path fill="#444444" d="M18 30.25v0.5h13.453l-0.219-0.5z"></path>
<path fill="#444444" d="M31.672 31.25h-13.672v0.5h13.891z"></path>
<path fill="#444444" d="M18 25.25v0.5h11.266l-0.219-0.5z"></path>
<path fill="#444444" d="M18 29.25v0.5h13.016l-0.219-0.5z"></path>
<path fill="#444444" d="M18 26.25v0.5h11.703l-0.219-0.5z"></path>
<path fill="#444444" d="M18 27.25v0.5h12.141l-0.219-0.5z"></path>
<path fill="#444444" d="M18 28.25v0.5h12.578l-0.219-0.5z"></path>
<path fill="#444444" d="M18 22.25v0.5h9.953l-0.219-0.5z"></path>
<path fill="#444444" d="M18 3.25v0.5h1.641l-0.219-0.5z"></path>
<path fill="#444444" d="M18 5.25v0.5h2.516l-0.219-0.5z"></path>
<path fill="#444444" d="M18 4.25v0.5h2.078l-0.219-0.5z"></path>
<path fill="#444444" d="M18 6.25v0.5h2.953l-0.219-0.5z"></path>
<path fill="#444444" d="M18 2.25v0.5h1.203l-0.219-0.5z"></path>
<path fill="#444444" d="M18 15.25v0.5h6.891l-0.219-0.5z"></path>
<path fill="#444444" d="M18 1.25v0.5h0.766l-0.219-0.5z"></path>
<path fill="#444444" d="M18 7.25v0.5h3.391l-0.219-0.5z"></path>
<path fill="#444444" d="M18 0.25v0.5h0.328l-0.219-0.5z"></path>
<path fill="#444444" d="M18 12.25v0.5h5.578l-0.219-0.5z"></path>
<path fill="#444444" d="M18 8.25v0.5h3.828l-0.219-0.5z"></path>
<path fill="#444444" d="M18 14.25v0.5h6.453l-0.219-0.5z"></path>
<path fill="#444444" d="M18 13.25v0.5h6.016l-0.219-0.5z"></path>
<path fill="#444444" d="M18 9.25v0.5h4.266l-0.219-0.5z"></path>
<path fill="#444444" d="M18 11.25v0.5h5.141l-0.219-0.5z"></path>
<path fill="#444444" d="M18 10.25v0.5h4.703l-0.219-0.5z"></path>
</svg>
