<?xml version="1.0" encoding="utf-8"?>
<!-- Generated by IcoMoon.io -->
<!DOCTYPE svg PUBLIC "-//W3C//DTD SVG 1.1//EN" "http://www.w3.org/Graphics/SVG/1.1/DTD/svg11.dtd">
<svg version="1.1" xmlns="http://www.w3.org/2000/svg" xmlns:xlink="http://www.w3.org/1999/xlink" width="32" height="32" viewBox="0 0 32 32">
<path fill="#444444" d="M1.707 10.293c-0.286-0.286-0.716-0.371-1.090-0.217s-0.617 0.519-0.617 0.924v20c0 0.404 0.244 0.769 0.617 0.924 0.124 0.051 0.254 0.076 0.383 0.076 0.26 0 0.516-0.102 0.707-0.293l10-10c0.39-0.39 0.39-1.024 0-1.414l-10-10z"></path>
<path fill="#444444" d="M15 14c-0.552 0-1-0.448-1-1v-2c0-0.552 0.448-1 1-1s1 0.448 1 1v2c0 0.552-0.448 1-1 1z"></path>
<path fill="#444444" d="M15 20c-0.552 0-1-0.448-1-1v-2c0-0.552 0.448-1 1-1s1 0.448 1 1v2c0 0.552-0.448 1-1 1z"></path>
<path fill="#444444" d="M15 26c-0.552 0-1-0.448-1-1v-2c0-0.552 0.448-1 1-1s1 0.448 1 1v2c0 0.552-0.448 1-1 1z"></path>
<path fill="#444444" d="M15 32c-0.552 0-1-0.448-1-1v-2c0-0.552 0.448-1 1-1s1 0.448 1 1v2c0 0.552-0.448 1-1 1z"></path>
<path fill="#444444" d="M29.383 10.076c-0.124-0.051-0.254-0.076-0.382-0.076-0.26 0-0.516 0.102-0.707 0.293l-10 10c-0.39 0.39-0.39 1.024 0 1.414l10 10c0.286 0.286 0.716 0.371 1.090 0.217s0.617-0.519 0.617-0.924v-20c0-0.405-0.244-0.769-0.617-0.924zM27.75 27.982l-6.982-6.982 6.982-6.982v13.964z"></path>
<path fill="#444444" d="M23 6c-1.887-2.514-4.838-4-8-4-3.344 0-6.453 1.661-8.315 4.444-0.307 0.459-0.184 1.080 0.275 1.387s1.080 0.184 1.387-0.275c1.491-2.227 3.978-3.556 6.653-3.556 2.625 0 5.069 1.281 6.568 3.432l-2.568 2.568h7v-7l-3 3z"></path>
</svg>
