<?xml version="1.0" encoding="utf-8"?>
<!-- Generated by IcoMoon.io -->
<!DOCTYPE svg PUBLIC "-//W3C//DTD SVG 1.1//EN" "http://www.w3.org/Graphics/SVG/1.1/DTD/svg11.dtd">
<svg version="1.1" xmlns="http://www.w3.org/2000/svg" xmlns:xlink="http://www.w3.org/1999/xlink" width="32" height="32" viewBox="0 0 32 32">
<path fill="#444444" d="M32 32l-32-14h32z"></path>
<path fill="#444444" d="M32 5.75v-0.5h-12l-1.143 0.5z"></path>
<path fill="#444444" d="M32 3.75v-0.5h-7.429l-1.143 0.5z"></path>
<path fill="#444444" d="M32 1.75v-0.5h-2.857l-1.143 0.5z"></path>
<path fill="#444444" d="M30.286 0.75h1.714v-0.5h-0.571z"></path>
<path fill="#444444" d="M32 2.75v-0.5h-5.143l-1.143 0.5z"></path>
<path fill="#444444" d="M32 6.75v-0.5h-14.286l-1.143 0.5z"></path>
<path fill="#444444" d="M32 4.75v-0.5h-9.714l-1.143 0.5z"></path>
<path fill="#444444" d="M32 12.75v-0.5h-28l-1.143 0.5z"></path>
<path fill="#444444" d="M32 13.75v-0.5h-30.286l-1.143 0.5z"></path>
<path fill="#444444" d="M32 11.75v-0.5h-25.714l-1.143 0.5z"></path>
<path fill="#444444" d="M32 9.75v-0.5h-21.143l-1.143 0.5z"></path>
<path fill="#444444" d="M32 8.75v-0.5h-18.857l-1.143 0.5z"></path>
<path fill="#444444" d="M32 10.75v-0.5h-23.429l-1.143 0.5z"></path>
<path fill="#444444" d="M32 7.75v-0.5h-16.571l-1.143 0.5z"></path>
</svg>
