<?xml version="1.0" encoding="utf-8"?>
<!-- Generated by IcoMoon.io -->
<!DOCTYPE svg PUBLIC "-//W3C//DTD SVG 1.1//EN" "http://www.w3.org/Graphics/SVG/1.1/DTD/svg11.dtd">
<svg version="1.1" xmlns="http://www.w3.org/2000/svg" xmlns:xlink="http://www.w3.org/1999/xlink" width="32" height="32" viewBox="0 0 32 32">
<path fill="#444444" d="M21.707 3.707c0.286-0.286 0.371-0.716 0.217-1.090s-0.519-0.617-0.924-0.617h-20c-0.405 0-0.769 0.244-0.924 0.617-0.051 0.124-0.076 0.254-0.076 0.382 0 0.26 0.102 0.516 0.293 0.707l10 10c0.39 0.39 1.024 0.39 1.414 0l10-10z"></path>
<path fill="#444444" d="M18 17c0-0.552 0.448-1 1-1h2c0.552 0 1 0.448 1 1s-0.448 1-1 1h-2c-0.552 0-1-0.448-1-1z"></path>
<path fill="#444444" d="M12 17c0-0.552 0.448-1 1-1h2c0.552 0 1 0.448 1 1s-0.448 1-1 1h-2c-0.552 0-1-0.448-1-1z"></path>
<path fill="#444444" d="M6 17c0-0.552 0.448-1 1-1h2c0.552 0 1 0.448 1 1s-0.448 1-1 1h-2c-0.552 0-1-0.448-1-1z"></path>
<path fill="#444444" d="M0 17c0-0.552 0.448-1 1-1h2c0.552 0 1 0.448 1 1s-0.448 1-1 1h-2c-0.552 0-1-0.448-1-1z"></path>
<path fill="#444444" d="M21.924 31.383c0.051-0.124 0.076-0.254 0.076-0.382 0-0.26-0.102-0.516-0.293-0.707l-10-10c-0.39-0.39-1.024-0.39-1.414 0l-10 10c-0.286 0.286-0.371 0.716-0.217 1.090s0.519 0.617 0.924 0.617h20c0.404 0 0.769-0.244 0.924-0.617zM4.018 29.75l6.982-6.982 6.982 6.982h-13.964z"></path>
<path fill="#444444" d="M26 25c2.514-1.887 4-4.838 4-8 0-3.344-1.661-6.453-4.444-8.315-0.459-0.307-1.080-0.184-1.387 0.275s-0.184 1.080 0.275 1.387c2.227 1.491 3.556 3.978 3.556 6.653 0 2.625-1.281 5.069-3.432 6.568l-2.568-2.568v7h7l-3-3z"></path>
</svg>
