<?xml version="1.0" encoding="utf-8"?>
<!-- Generated by IcoMoon.io -->
<!DOCTYPE svg PUBLIC "-//W3C//DTD SVG 1.1//EN" "http://www.w3.org/Graphics/SVG/1.1/DTD/svg11.dtd">
<svg version="1.1" xmlns="http://www.w3.org/2000/svg" xmlns:xlink="http://www.w3.org/1999/xlink" width="32" height="32" viewBox="0 0 32 32">
<path fill="#444444" d="M16 0c-8.837 0-16 7.163-16 16s7.163 16 16 16 16-7.163 16-16-7.163-16-16-16zM16 29c-7.18 0-13-5.82-13-13s5.82-13 13-13 13 5.82 13 13-5.82 13-13 13z"></path>
<path fill="#444444" d="M16 11h2v4h-2v-4z"></path>
<path fill="#444444" d="M21 8h-12c-0.55 0-1 0.45-1 1v14c0 0.55 0.45 1 1 1h14c0.55 0 1-0.45 1-1v-12l-3-3zM12 10h8v6h-8v-6zM22 22h-12v-2h12v2z"></path>
</svg>
