<?xml version="1.0" encoding="utf-8"?>
<!-- Generated by IcoMoon.io -->
<!DOCTYPE svg PUBLIC "-//W3C//DTD SVG 1.1//EN" "http://www.w3.org/Graphics/SVG/1.1/DTD/svg11.dtd">
<svg version="1.1" xmlns="http://www.w3.org/2000/svg" xmlns:xlink="http://www.w3.org/1999/xlink" width="32" height="32" viewBox="0 0 32 32">
<path fill="#444444" d="M27 0h-26c-0.55 0-1 0.45-1 1v30c0 0.55 0.45 1 1 1h30c0.55 0 1-0.45 1-1v-26l-5-5zM8 1h16v8c0 0.55-0.45 1-1 1h-14c-0.55 0-1-0.45-1-1v-8zM28 31h-24v-13c0-1.105 0.895-2 2-2h20c1.105 0 2 0.895 2 2v13z"></path>
<path fill="#444444" d="M18 2h4v6h-4v-6z"></path>
<path fill="#444444" d="M8 18h16v2h-16v-2z"></path>
<path fill="#444444" d="M8 22h16v2h-16v-2z"></path>
<path fill="#444444" d="M8 26h16v2h-16v-2z"></path>
</svg>
