<?xml version="1.0" encoding="utf-8"?>
<!-- Generated by IcoMoon.io -->
<!DOCTYPE svg PUBLIC "-//W3C//DTD SVG 1.1//EN" "http://www.w3.org/Graphics/SVG/1.1/DTD/svg11.dtd">
<svg version="1.1" xmlns="http://www.w3.org/2000/svg" xmlns:xlink="http://www.w3.org/1999/xlink" width="32" height="32" viewBox="0 0 32 32">
<path fill="#444444" d="M22 12h2v4h-2v-4z"></path>
<path fill="#444444" d="M27 10h-5v-5l-5-5h-16c-0.55 0-1 0.45-1 1v20c0 0.55 0.45 1 1 1h9v9c0 0.55 0.45 1 1 1h20c0.55 0 1-0.45 1-1v-16l-5-5zM15 24h12c0.253 0 0.484 0.095 0.66 0.25h-13.32c0.176-0.155 0.407-0.25 0.66-0.25zM14 30v-0.25h14v0.25h-14zM14 29.25v-0.5h14v0.5h-14zM14 28.25v-0.5h14v0.5h-14zM14 27.25v-0.5h14v0.5h-14zM14 26.25v-0.5h14v0.5h-14zM14 25.25v-0.25c0-0.087 0.012-0.17 0.033-0.25h13.934c0.021 0.080 0.033 0.163 0.033 0.25v0.25h-14zM26 11v6c0 0.55-0.45 1-1 1h-8c-0.55 0-1-0.45-1-1v-6h10zM10 14.25h-5.66c0.176-0.155 0.407-0.25 0.66-0.25h5v0.25zM4 20v-0.25h6v0.25h-6zM4 19.25v-0.5h6v0.5h-6zM4 18.25v-0.5h6v0.5h-6zM4 17.25v-0.5h6v0.5h-6zM4 16.25v-0.5h6v0.5h-6zM4 15.25v-0.25c0-0.086 0.012-0.17 0.033-0.25h5.967v0.5h-6zM7 8c-0.55 0-1-0.45-1-1v-6h10v6c0 0.55-0.45 1-1 1h-8z"></path>
<path fill="#444444" d="M12 2h2v4h-2v-4z"></path>
</svg>
