<?xml version="1.0" encoding="utf-8"?>
<!-- Generated by IcoMoon.io -->
<!DOCTYPE svg PUBLIC "-//W3C//DTD SVG 1.1//EN" "http://www.w3.org/Graphics/SVG/1.1/DTD/svg11.dtd">
<svg version="1.1" xmlns="http://www.w3.org/2000/svg" xmlns:xlink="http://www.w3.org/1999/xlink" width="32" height="32" viewBox="0 0 32 32">
<path fill="#444444" d="M22 12h2v4h-2v-4z"></path>
<path fill="#444444" d="M27 10h-5v-5l-5-5h-16c-0.55 0-1 0.45-1 1v20c0 0.55 0.45 1 1 1h9v9c0 0.55 0.45 1 1 1h20c0.55 0 1-0.45 1-1v-16l-5-5zM26 11v6c0 0.55-0.45 1-1 1h-8c-0.55 0-1-0.45-1-1v-6h10zM10 20h-6v-5c0-0.552 0.448-1 1-1h5v6zM7 8c-0.55 0-1-0.45-1-1v-6h10v6c0 0.55-0.45 1-1 1h-8zM28 30h-14v-5c0-0.552 0.448-1 1-1h12c0.552 0 1 0.448 1 1v5z"></path>
<path fill="#444444" d="M12 2h2v4h-2v-4z"></path>
</svg>
