<?xml version="1.0" encoding="utf-8"?>
<!-- Generated by IcoMoon.io -->
<!DOCTYPE svg PUBLIC "-//W3C//DTD SVG 1.1//EN" "http://www.w3.org/Graphics/SVG/1.1/DTD/svg11.dtd">
<svg version="1.1" xmlns="http://www.w3.org/2000/svg" xmlns:xlink="http://www.w3.org/1999/xlink" width="32" height="32" viewBox="0 0 32 32">
<path fill="#444444" d="M21.447 31.499c-1.582 0-3.087-0.667-4.238-1.878-0.469-0.494-0.874-1.067-1.21-1.709-0.336 0.641-0.741 1.215-1.21 1.709-1.15 1.211-2.655 1.878-4.238 1.878-1.393 0-2.838-0.513-4.179-1.483-1.955-1.414-2.941-3.353-2.776-5.46 0.128-1.641 0.933-3.219 2.257-4.529-2.051-0.3-3.747-1.228-4.775-2.645-1.106-1.524-1.34-3.516-0.657-5.607 0.914-2.801 2.845-4.407 5.297-4.407 1.11 0 2.272 0.332 3.416 0.962-0.206-1.694 0.111-3.342 0.953-4.717 1.21-1.976 3.365-3.11 5.912-3.11s4.703 1.134 5.913 3.111c0.842 1.375 1.159 3.022 0.953 4.716 1.144-0.63 2.306-0.962 3.416-0.962 2.452 0 4.383 1.606 5.297 4.407 0.683 2.092 0.449 4.083-0.657 5.608-1.028 1.417-2.724 2.345-4.775 2.645 1.324 1.31 2.128 2.888 2.256 4.529 0.165 2.107-0.821 4.047-2.776 5.461-1.341 0.97-2.787 1.483-4.18 1.483zM16 23.688c0.491 0 0.91 0.357 0.987 0.842 0.483 3.019 2.234 4.969 4.46 4.969 0.983 0 1.995-0.371 3.007-1.104 1.388-1.004 2.064-2.279 1.954-3.685-0.143-1.834-1.623-3.68-3.862-4.819-0.438-0.223-0.649-0.731-0.498-1.199s0.621-0.756 1.106-0.68c0.507 0.079 1.011 0.12 1.499 0.12 0 0 0.001 0 0.001 0 2.066 0 3.76-0.702 4.648-1.926 0.73-1.007 0.86-2.325 0.374-3.813-0.451-1.381-1.406-3.028-3.396-3.028-1.41 0-3.078 0.854-4.576 2.344-0.349 0.346-0.897 0.388-1.294 0.098s-0.525-0.825-0.301-1.263c1.054-2.065 1.091-4.267 0.098-5.889-0.851-1.39-2.345-2.155-4.207-2.155s-3.356 0.765-4.206 2.154c-0.994 1.622-0.957 3.824 0.097 5.89 0.223 0.438 0.096 0.973-0.301 1.262s-0.946 0.248-1.294-0.099c-1.499-1.489-3.167-2.343-4.576-2.343-1.99 0-2.945 1.646-3.396 3.027-0.485 1.487-0.356 2.806 0.375 3.812 0.888 1.224 2.583 1.926 4.649 1.926 0.488 0 0.992-0.040 1.499-0.12 0.486-0.076 0.955 0.212 1.106 0.68s-0.060 0.976-0.498 1.199c-2.239 1.139-3.719 2.985-3.862 4.819-0.11 1.406 0.566 2.68 1.954 3.684 0.998 0.722 2.038 1.104 3.007 1.104 2.226 0 3.976-1.95 4.46-4.969 0.078-0.485 0.496-0.842 0.987-0.842z"></path>
<path fill="#444444" d="M16 21.434c-2.55 0-4.625-2.075-4.625-4.626s2.075-4.626 4.625-4.626c2.551 0 4.626 2.075 4.626 4.626s-2.075 4.626-4.626 4.626zM16 14.183c-1.448 0-2.625 1.178-2.625 2.626s1.178 2.626 2.625 2.626c1.448 0 2.626-1.178 2.626-2.626s-1.178-2.626-2.626-2.626z"></path>
</svg>
