<?xml version="1.0" encoding="utf-8"?>
<!-- Generated by IcoMoon.io -->
<!DOCTYPE svg PUBLIC "-//W3C//DTD SVG 1.1//EN" "http://www.w3.org/Graphics/SVG/1.1/DTD/svg11.dtd">
<svg version="1.1" xmlns="http://www.w3.org/2000/svg" xmlns:xlink="http://www.w3.org/1999/xlink" width="32" height="32" viewBox="0 0 32 32">
<path fill="#444444" d="M29 4h-13l-1-2h-11l-2 4h28z"></path>
<path fill="#444444" d="M28.261 22h2.339l1.4-14h-32l2 20h15.127c-3.278-1.18-5.628-4.321-5.628-8 0-4.687 3.813-8.5 8.5-8.5s8.5 3.813 8.5 8.5c0 0.677-0.082 1.348-0.239 2z"></path>
<path fill="#444444" d="M31.344 28.555l-6.203-5.459c0.545-0.904 0.859-1.963 0.859-3.096 0-3.314-2.686-6-6-6s-6 2.686-6 6 2.686 6 6 6c1.133 0 2.192-0.314 3.096-0.859l5.459 6.203c0.718 0.834 1.941 0.879 2.719 0.102l0.172-0.172c0.778-0.778 0.732-2.001-0.102-2.719zM20 23.875c-2.14 0-3.875-1.735-3.875-3.875s1.735-3.875 3.875-3.875 3.875 1.735 3.875 3.875-1.735 3.875-3.875 3.875z"></path>
</svg>
