<?xml version="1.0" encoding="utf-8"?>
<!-- Generated by IcoMoon.io -->
<!DOCTYPE svg PUBLIC "-//W3C//DTD SVG 1.1//EN" "http://www.w3.org/Graphics/SVG/1.1/DTD/svg11.dtd">
<svg version="1.1" xmlns="http://www.w3.org/2000/svg" xmlns:xlink="http://www.w3.org/1999/xlink" width="32" height="32" viewBox="0 0 32 32">
<path fill="#444444" d="M13 0c-0.552 0-1 0.448-1 1v9c0 0.593-0.101 0.986-0.301 1.169-0.188 0.172-0.554 0.264-0.942 0.361-0.227 0.057-0.489 0.122-0.758 0.219v-10.749c0-0.552-0.448-1-1-1s-1 0.448-1 1v10.749c-0.269-0.097-0.53-0.162-0.758-0.219-0.388-0.097-0.754-0.188-0.942-0.361-0.199-0.183-0.301-0.576-0.301-1.169v-9c0-0.552-0.448-1-1-1s-1 0.448-1 1v9c0 2.781 1.726 3.212 2.757 3.47 0.388 0.097 0.754 0.188 0.942 0.361 0.2 0.183 0.301 0.576 0.301 1.169v5.171c-1.165 0.412-2 1.523-2 2.829v6c0 1.657 1.343 3 3 3s3-1.343 3-3v-6c0-1.306-0.835-2.417-2-2.829v-5.171c0-0.593 0.101-0.986 0.301-1.169 0.188-0.172 0.554-0.264 0.942-0.361 1.031-0.258 2.757-0.689 2.757-3.47v-9c0-0.552-0.448-1-1-1z"></path>
<path fill="#444444" d="M26 20.171v-19.171c0-0.552-0.448-1-1-1-2.156 0-3.534 1.439-4.31 2.647-0.812 1.263-1.457 2.994-1.918 5.144-0.763 3.563-0.772 7.062-0.772 7.21 0 0.552 0.448 1 1 1h5v4.171c-1.165 0.412-2 1.522-2 2.829v6c0 1.657 1.343 3 3 3s3-1.343 3-3v-6c0-1.306-0.835-2.417-2-2.829zM20.733 8.184c0.518-2.404 1.49-5.2 3.267-5.975v11.792h-3.972c0.055-1.267 0.219-3.557 0.706-5.816z"></path>
</svg>
