<?xml version="1.0" encoding="utf-8"?>
<!-- Generated by IcoMoon.io -->
<!DOCTYPE svg PUBLIC "-//W3C//DTD SVG 1.1//EN" "http://www.w3.org/Graphics/SVG/1.1/DTD/svg11.dtd">
<svg version="1.1" xmlns="http://www.w3.org/2000/svg" xmlns:xlink="http://www.w3.org/1999/xlink" width="32" height="32" viewBox="0 0 32 32">
<path fill="#444444" d="M28 12c-2.209 0-4 1.791-4 4v4h-16v-4c0-2.209-1.791-4-4-4s-4 1.791-4 4v8c0 2.209 1.791 4 4 4v4h2l1-4h18l1 4h2v-4c2.209 0 4-1.791 4-4v-8c0-2.209-1.791-4-4-4z"></path>
<path fill="#444444" d="M10 15.375v2.625h12v-2.625c0-3.284 2-5.375 5.928-5.374-0.486-3.388-3.408-6.001-6.928-6.001h-10c-3.521 0-6.442 2.613-6.928 6.001 3.928-0.001 5.928 2.090 5.928 5.374z"></path>
</svg>
