<?xml version="1.0" encoding="utf-8"?>
<!-- Generated by IcoMoon.io -->
<!DOCTYPE svg PUBLIC "-//W3C//DTD SVG 1.1//EN" "http://www.w3.org/Graphics/SVG/1.1/DTD/svg11.dtd">
<svg version="1.1" xmlns="http://www.w3.org/2000/svg" xmlns:xlink="http://www.w3.org/1999/xlink" width="40" height="32" viewBox="0 0 40 32">
<path fill="#444444" d="M31 6.050v-0.050h-21c-5.523 0-10 4.477-10 10s4.477 10 10 10c3.272 0 6.176-1.571 8-4h3.999c1.824 2.429 4.729 4 8 4 5.523 0 10-4.477 10-10 0-5.185-3.947-9.449-9-9.95zM16 18h-4v4h-4v-4h-4v-4h4v-4h4v4h4v4zM28 18c-1.105 0-2-0.895-2-2s0.895-2 2-2 2 0.895 2 2-0.895 2-2 2zM34 18c-1.105 0-2-0.895-2-2s0.895-2 2-2 2 0.895 2 2c0 1.105-0.895 2-2 2z"></path>
</svg>
