<?xml version="1.0" encoding="utf-8"?>
<!-- Generated by IcoMoon.io -->
<!DOCTYPE svg PUBLIC "-//W3C//DTD SVG 1.1//EN" "http://www.w3.org/Graphics/SVG/1.1/DTD/svg11.dtd">
<svg version="1.1" xmlns="http://www.w3.org/2000/svg" xmlns:xlink="http://www.w3.org/1999/xlink" width="32" height="32" viewBox="0 0 32 32">
<path fill="#444444" d="M29.707 8.293l-4-4c-0.188-0.188-0.442-0.293-0.707-0.293h-2c-0.552 0-1 0.448-1 1s0.448 1 1 1h1.086l2 2h-1.086c-0.552 0-1 0.448-1 1v4c0 0.552 0.448 1 1 1h3v8c0 1.103-0.897 2-2 2s-2-0.897-2-2v-5c0-0.552-0.448-1-1-1h-3v-11c0-1.65-1.35-3-3-3h-12c-1.65 0-3 1.35-3 3v25h-2v2h22v-2h-2v-12h2v4c0 2.206 1.794 4 4 4s4-1.794 4-4v-13c0-0.265-0.105-0.52-0.293-0.707zM4 11v-6c0-0.55 0.45-1 1-1h12c0.551 0 1 0.45 1 1v6c0 0.55-0.449 1-1 1h-12c-0.55 0-1-0.45-1-1zM26 12v-2h2v2h-2z"></path>
</svg>
