<?xml version="1.0" encoding="utf-8"?>
<!-- Generated by IcoMoon.io -->
<!DOCTYPE svg PUBLIC "-//W3C//DTD SVG 1.1//EN" "http://www.w3.org/Graphics/SVG/1.1/DTD/svg11.dtd">
<svg version="1.1" xmlns="http://www.w3.org/2000/svg" xmlns:xlink="http://www.w3.org/1999/xlink" width="36" height="32" viewBox="0 0 36 32">
<path fill="#444444" d="M16 21v-3h-12v8h7l5-5zM6 24v-4h8l-4 4h-4z"></path>
<path fill="#444444" d="M32 26v-8h-12v3l5 5z"></path>
<path fill="#444444" d="M20.753 0.196c-0.414-0.362-0.753-0.208-0.753 0.342v2.25c0 0.55 0.031 0.851 0.375 1.281l7.625 9.931h-20l7.625-9.931c0.344-0.429 0.375-0.731 0.375-1.281v-2.25c0-0.55-0.339-0.704-0.753-0.342l-15.247 13.804v16h13l5-5 5 5h13v-16l-15.247-13.804zM34 28h-10.172l-4.414-4.414c-0.39-0.391-0.902-0.586-1.414-0.586s-1.024 0.195-1.414 0.586l-4.414 4.414h-10.172v-12h32v12z"></path>
</svg>
