<?xml version="1.0" encoding="utf-8"?>
<!-- Generated by IcoMoon.io -->
<!DOCTYPE svg PUBLIC "-//W3C//DTD SVG 1.1//EN" "http://www.w3.org/Graphics/SVG/1.1/DTD/svg11.dtd">
<svg version="1.1" xmlns="http://www.w3.org/2000/svg" xmlns:xlink="http://www.w3.org/1999/xlink" width="32" height="32" viewBox="0 0 32 32">
<path fill="#444444" d="M32 17c0 1.657-1.343 3-3 3s-3-1.343-3-3 1.343-3 3-3c1.657 0 3 1.343 3 3z"></path>
<path fill="#444444" d="M8 2v12l14-6-14-6z"></path>
<path fill="#444444" d="M12 18c-1.403 0-2.749 0.141-4 0.399v7.601h-2v-25c0-0.552-0.448-1-1-1s-1 0.448-1 1v18.784c-2.454 1.282-4 3.143-4 5.216 0 3.866 5.373 7 12 7s12-3.134 12-7-5.373-7-12-7zM14 28c-2.209 0-4-1.343-4-3s1.791-3 4-3c2.209 0 4 1.343 4 3s-1.791 3-4 3z"></path>
</svg>
