<?xml version="1.0" encoding="utf-8"?>
<!-- Generated by IcoMoon.io -->
<!DOCTYPE svg PUBLIC "-//W3C//DTD SVG 1.1//EN" "http://www.w3.org/Graphics/SVG/1.1/DTD/svg11.dtd">
<svg version="1.1" xmlns="http://www.w3.org/2000/svg" xmlns:xlink="http://www.w3.org/1999/xlink" width="32" height="32" viewBox="0 0 32 32">
<path fill="#444444" d="M24 32h-10c-0.239 0-0.47-0.085-0.651-0.241l-7-6c-0.222-0.19-0.349-0.467-0.349-0.759v-8c0-0.552 0.448-1 1-1h3v-5c0-0.552 0.448-1 1-1h4c0 0 0 0 0 0h8c0.552 0 1 0.448 1 1v1h3c0.552 0 1 0.448 1 1v12c0 0.155-0.036 0.308-0.106 0.447l-3 6c-0.169 0.339-0.516 0.553-0.894 0.553zM14.37 30h9.012l2.618-5.236v-10.764h-2v3c0 0.552-0.448 1-1 1s-1-0.448-1-1v-5h-2v5c0 0.552-0.448 1-1 1s-1-0.448-1-1v-5h-2v5c0 0.552-0.448 1-1 1s-1-0.448-1-1v-5h-2v9c0 0.552-0.448 1-1 1s-1-0.448-1-1v-3h-2v6.54l6.37 5.46z"></path>
</svg>
