<?xml version="1.0" encoding="utf-8"?>
<!-- Generated by IcoMoon.io -->
<!DOCTYPE svg PUBLIC "-//W3C//DTD SVG 1.1//EN" "http://www.w3.org/Graphics/SVG/1.1/DTD/svg11.dtd">
<svg version="1.1" xmlns="http://www.w3.org/2000/svg" xmlns:xlink="http://www.w3.org/1999/xlink" width="32" height="32" viewBox="0 0 32 32">
<path fill="#444444" d="M6 29c0 1.657-1.343 3-3 3s-3-1.343-3-3c0-1.657 1.343-3 3-3s3 1.343 3 3z"></path>
<path fill="#444444" d="M14 29c0 1.657-1.343 3-3 3s-3-1.343-3-3c0-1.657 1.343-3 3-3s3 1.343 3 3z"></path>
<path fill="#444444" d="M22 29c0 1.657-1.343 3-3 3s-3-1.343-3-3c0-1.657 1.343-3 3-3s3 1.343 3 3z"></path>
<path fill="#444444" d="M10 23c0 1.657-1.343 3-3 3s-3-1.343-3-3c0-1.657 1.343-3 3-3s3 1.343 3 3z"></path>
<path fill="#444444" d="M18 23c0 1.657-1.343 3-3 3s-3-1.343-3-3c0-1.657 1.343-3 3-3s3 1.343 3 3z"></path>
<path fill="#444444" d="M26 23c0 1.657-1.343 3-3 3s-3-1.343-3-3c0-1.657 1.343-3 3-3s3 1.343 3 3z"></path>
<path fill="#444444" d="M14 17c0 1.657-1.343 3-3 3s-3-1.343-3-3c0-1.657 1.343-3 3-3s3 1.343 3 3z"></path>
<path fill="#444444" d="M22 17c0 1.657-1.343 3-3 3s-3-1.343-3-3c0-1.657 1.343-3 3-3s3 1.343 3 3z"></path>
<path fill="#444444" d="M31 14c-0.083 0-0.168-0-0.255-0.001-1.173-0.007-2.833-0.015-4.822 0.99 0.060-0.572 0.078-0.989 0.078-0.989 0-7-3-10-10-10 0 6.283 2.418 9.343 7.976 9.904-0.069 1.437-0.322 2.403-1.204 3.42-0.295 0.292-0.595 0.608-0.898 0.953-0.365 0.415-0.324 1.047 0.090 1.411 0.19 0.167 0.426 0.249 0.66 0.249 0.256 0 0.51-0.099 0.703-0.291 0.002-0.001 0.004-0.002 0.006-0.004 0.332-0.333 0.632-0.647 0.901-0.954 2.765-2.71 4.901-2.699 6.5-2.691 0.091 0.001 0.18 0.001 0.266 0.001 0.552 0 1-0.448 1-1s-0.448-1-1-1z"></path>
</svg>
