<?xml version="1.0" encoding="utf-8"?>
<!-- Generated by IcoMoon.io -->
<!DOCTYPE svg PUBLIC "-//W3C//DTD SVG 1.1//EN" "http://www.w3.org/Graphics/SVG/1.1/DTD/svg11.dtd">
<svg version="1.1" xmlns="http://www.w3.org/2000/svg" xmlns:xlink="http://www.w3.org/1999/xlink" width="32" height="32" viewBox="0 0 32 32">
<path fill="#444444" d="M14 20c-0.728 0-1.411 0.197-2 0.538v-5.538c0-0.047-0.003-0.095-0.010-0.141l-2-14c-0.070-0.493-0.492-0.859-0.99-0.859s-0.92 0.366-0.99 0.859l-2 14c-0.007 0.047-0.010 0.094-0.010 0.141v5.538c-0.589-0.342-1.272-0.538-2-0.538-2.206 0-4 1.794-4 4s1.794 4 4 4 4-1.794 4-4v-8c0-0.552 0.448-1 1-1s1 0.448 1 1v8c0 1.603 0.948 2.988 2.312 3.625-0.201 0.427-0.312 0.898-0.312 1.375 0 1.654 1.346 3 3 3 0.552 0 1-0.448 1-1s-0.448-1-1-1c-0.551 0-1-0.449-1-1 0-0.394 0.229-0.819 0.554-1.039 1.944-0.271 3.446-1.943 3.446-3.961 0-2.206-1.794-4-4-4zM4 26c-1.103 0-2-0.897-2-2s0.897-2 2-2 2 0.897 2 2-0.897 2-2 2zM14 26c-1.103 0-2-0.897-2-2s0.897-2 2-2 2 0.897 2 2-0.897 2-2 2z"></path>
<path fill="#444444" d="M30 0h-7c-0.552 0-1 0.448-1 1s0.448 1 1 1h5v2h-5c-0.552 0-1 0.448-1 1s0.448 1 1 1h5v2h-5c-0.552 0-1 0.448-1 1s0.448 1 1 1h5v2h-5c-0.552 0-1 0.448-1 1s0.448 1 1 1h5v2h-5c-0.552 0-1 0.448-1 1s0.448 1 1 1h5v10c0 1.105 0.895 2 2 2s2-0.895 2-2v-26c0-1.105-0.895-2-2-2z"></path>
</svg>
