<?xml version="1.0" encoding="utf-8"?>
<!-- Generated by IcoMoon.io -->
<!DOCTYPE svg PUBLIC "-//W3C//DTD SVG 1.1//EN" "http://www.w3.org/Graphics/SVG/1.1/DTD/svg11.dtd">
<svg version="1.1" xmlns="http://www.w3.org/2000/svg" xmlns:xlink="http://www.w3.org/1999/xlink" width="32" height="32" viewBox="0 0 32 32">
<path fill="#444444" d="M24 32h-10c-0.265 0-0.52-0.105-0.707-0.293l-6-6c-0.053-0.053-0.101-0.113-0.141-0.177l-5-8c-0.287-0.459-0.157-1.062 0.293-1.362l3-2c0.425-0.283 0.996-0.201 1.323 0.192l3.232 3.878v-15.238c0-0.552 0.448-1 1-1h3v-1c0-0.552 0.448-1 1-1h4c0.552 0 1 0.448 1 1v1h3c0.552 0 1 0.448 1 1v3h3c0.552 0 1 0.448 1 1v18c0 0.155-0.036 0.308-0.106 0.447l-3 6c-0.169 0.339-0.516 0.553-0.894 0.553zM14.414 30h8.968l2.618-5.236v-16.764h-2v9c0 0.552-0.448 1-1 1s-1-0.448-1-1v-13h-2v13c0 0.552-0.448 1-1 1s-1-0.448-1-1v-15h-2v15c0 0.552-0.448 1-1 1s-1-0.448-1-1v-13h-2v17c0 0.421-0.264 0.797-0.66 0.94s-0.839 0.023-1.109-0.3l-4.425-5.31-1.444 0.963 4.425 7.080 5.627 5.627z"></path>
</svg>
