<?xml version="1.0" encoding="utf-8"?>
<!-- Generated by IcoMoon.io -->
<!DOCTYPE svg PUBLIC "-//W3C//DTD SVG 1.1//EN" "http://www.w3.org/Graphics/SVG/1.1/DTD/svg11.dtd">
<svg version="1.1" xmlns="http://www.w3.org/2000/svg" xmlns:xlink="http://www.w3.org/1999/xlink" width="32" height="32" viewBox="0 0 32 32">
<path fill="#444444" d="M26 15.536v-6.536c0-1.657-4.477-3-10-3s-10 1.343-10 3v6.536c-3.657 1.283-6 3.254-6 5.464 0 3.866 7.163 7 16 7s16-3.134 16-7c0-2.21-2.343-4.181-6-5.464zM26 21c0 1.657-4.477 3-10 3s-10-1.343-10-3v-4c0 1.657 4.477 3 10 3s10-1.343 10-3v4z"></path>
</svg>
