<?xml version="1.0" encoding="utf-8"?>
<!-- Generated by IcoMoon.io -->
<!DOCTYPE svg PUBLIC "-//W3C//DTD SVG 1.1//EN" "http://www.w3.org/Graphics/SVG/1.1/DTD/svg11.dtd">
<svg version="1.1" xmlns="http://www.w3.org/2000/svg" xmlns:xlink="http://www.w3.org/1999/xlink" width="32" height="32" viewBox="0 0 32 32">
<path fill="#444444" d="M25.899 4.101c-2.644-2.644-6.16-4.101-9.899-4.101s-7.255 1.456-9.899 4.101-4.101 6.16-4.101 9.899v7c0 1.657 1.343 3 3 3s3-1.343 3-3v-4c0-1.657-1.343-3-3-3-0.335 0-0.657 0.056-0.958 0.157v-0.157c0.51-6.151 5.678-11 11.958-11s11.448 4.849 11.958 11v0.157c-0.301-0.101-0.623-0.157-0.958-0.157-1.657 0-3 1.343-3 3v4c0 1.657 1.343 3 3 3 0.351 0 0.687-0.061 1-0.171v3.171c0 0.551-0.449 1-1 1h-5.171c-0.412-1.165-1.522-2-2.829-2-1.657 0-3 1.343-3 3s1.343 3 3 3c1.306 0 2.417-0.835 2.829-2h5.171c1.654 0 3-1.346 3-3v-13c0-3.74-1.456-7.255-4.101-9.899z"></path>
</svg>
