<?xml version="1.0" encoding="utf-8"?>
<!-- Generated by IcoMoon.io -->
<!DOCTYPE svg PUBLIC "-//W3C//DTD SVG 1.1//EN" "http://www.w3.org/Graphics/SVG/1.1/DTD/svg11.dtd">
<svg version="1.1" xmlns="http://www.w3.org/2000/svg" xmlns:xlink="http://www.w3.org/1999/xlink" width="32" height="32" viewBox="0 0 32 32">
<path fill="#444444" d="M26 13c0-2.722-1.585-5.182-4.008-6.329-0.172-3.708-3.242-6.671-6.992-6.671s-6.82 2.964-6.992 6.673c-2.367 1.124-4.008 3.537-4.008 6.327 0 2.892 1.763 5.38 4.271 6.446l5.829 11.991c0.167 0.344 0.517 0.563 0.899 0.563s0.732-0.218 0.899-0.563l5.829-11.991c2.508-1.066 4.271-3.554 4.271-6.446zM19 18h-8c-2.757 0-5-2.243-5-5s2.243-5 5-5c0.572 0 1.133 0.096 1.667 0.284 0.521 0.184 1.092-0.089 1.276-0.61s-0.089-1.092-0.61-1.276c-0.748-0.264-1.533-0.399-2.333-0.399-0.308 0-0.612 0.020-0.91 0.059 0.442-2.309 2.475-4.059 4.91-4.059 2.757 0 5 2.243 5 5 0 1.232-0.452 2.416-1.273 3.333-0.368 0.412-0.333 1.044 0.078 1.412 0.191 0.171 0.429 0.255 0.667 0.255 0.275 0 0.548-0.112 0.745-0.333 0.734-0.821 1.258-1.793 1.54-2.839 1.376 0.912 2.243 2.47 2.243 4.171 0 2.757-2.243 5-5 5z"></path>
</svg>
