<?xml version="1.0" encoding="utf-8"?>
<!-- Generated by IcoMoon.io -->
<!DOCTYPE svg PUBLIC "-//W3C//DTD SVG 1.1//EN" "http://www.w3.org/Graphics/SVG/1.1/DTD/svg11.dtd">
<svg version="1.1" xmlns="http://www.w3.org/2000/svg" xmlns:xlink="http://www.w3.org/1999/xlink" width="32" height="32" viewBox="0 0 32 32">
<path fill="#444444" d="M31.904 4.25h-31.809c-0.042 0.162-0.070 0.329-0.084 0.5h31.977c-0.014-0.171-0.042-0.338-0.084-0.5z"></path>
<path fill="#444444" d="M30.194 2.25h-28.388c-0.287 0.126-0.551 0.295-0.784 0.5h29.956c-0.233-0.205-0.496-0.374-0.784-0.5z"></path>
<path fill="#444444" d="M31.432 3.25h-30.864c-0.113 0.156-0.211 0.324-0.293 0.5h31.449c-0.082-0.176-0.18-0.344-0.293-0.5z"></path>
<path fill="#444444" d="M1.806 29.75h28.388c0.287-0.126 0.551-0.295 0.784-0.5h-29.955c0.232 0.205 0.496 0.374 0.784 0.5z"></path>
<path fill="#444444" d="M0.568 28.75h30.864c0.113-0.156 0.211-0.323 0.293-0.5h-31.449c0.082 0.177 0.18 0.344 0.293 0.5z"></path>
<path fill="#444444" d="M32 5.75v-0.5h-32v0.5h0.25v20.5h-0.25v0.5h32v-0.5h-0.25v-20.5h0.25zM2.75 5.75h0.5v20.5h-0.5v-20.5zM2.25 26.25h-0.5v-20.5h0.5v20.5zM3.75 5.75h24.5v20.5h-24.5v-20.5zM28.75 5.75h0.5v20.5h-0.5v-20.5zM29.75 5.75h0.5v20.5h-0.5v-20.5zM0.75 5.75h0.5v20.5h-0.5v-20.5zM31.25 26.25h-0.5v-20.5h0.5v20.5z"></path>
<path fill="#444444" d="M0.096 27.75h31.809c0.042-0.162 0.070-0.329 0.084-0.5h-31.978c0.014 0.171 0.042 0.338 0.084 0.5z"></path>
<path fill="#444444" d="M27 12l-7 7-6-6-10 10v3h24v-14z"></path>
</svg>
