<?xml version="1.0" encoding="utf-8"?>
<!-- Generated by IcoMoon.io -->
<!DOCTYPE svg PUBLIC "-//W3C//DTD SVG 1.1//EN" "http://www.w3.org/Graphics/SVG/1.1/DTD/svg11.dtd">
<svg version="1.1" xmlns="http://www.w3.org/2000/svg" xmlns:xlink="http://www.w3.org/1999/xlink" width="32" height="32" viewBox="0 0 32 32">
<path fill="#444444" d="M27 12l-7 7-6-6-10 10v3h24v-14z"></path>
<path fill="#444444" d="M29 4c0.542 0 1 0.458 1 1v22c0 0.542-0.458 1-1 1h-26c-0.542 0-1-0.458-1-1v-22c0-0.542 0.458-1 1-1h26zM29 2h-26c-1.65 0-3 1.35-3 3v22c0 1.65 1.35 3 3 3h26c1.65 0 3-1.35 3-3v-22c0-1.65-1.35-3-3-3v0z"></path>
</svg>
