<?xml version="1.0" encoding="utf-8"?>
<!-- Generated by IcoMoon.io -->
<!DOCTYPE svg PUBLIC "-//W3C//DTD SVG 1.1//EN" "http://www.w3.org/Graphics/SVG/1.1/DTD/svg11.dtd">
<svg version="1.1" xmlns="http://www.w3.org/2000/svg" xmlns:xlink="http://www.w3.org/1999/xlink" width="32" height="32" viewBox="0 0 32 32">
<path fill="#444444" d="M26 11c0 1.657-1.343 3-3 3s-3-1.343-3-3c0-1.657 1.343-3 3-3s3 1.343 3 3z"></path>
<path fill="#444444" d="M0 6v20c0 1.1 0.9 2 2 2h12v-2h-11.996c-0.001-0.001-0.003-0.002-0.004-0.004v-19.993c0.001-0.001 0.002-0.003 0.004-0.004h11.996v-2h-12c-1.1 0-2 0.9-2 2z"></path>
<path fill="#444444" d="M30 4h-12v-4h-2v32h2v-4h12c1.1 0 2-0.9 2-2v-20c0-1.1-0.9-2-2-2zM30 25.996c-0.001 0.001-0.002 0.003-0.004 0.004h-11.996v-2h10v-10l-7 6h-2l-1-1.25v-12.75h11.996c0.001 0.001 0.003 0.002 0.004 0.004v19.993z"></path>
<path fill="#444444" d="M4 22v2h10v-10.25l-3-3.75z"></path>
</svg>
