<?xml version="1.0" encoding="utf-8"?>
<!-- Generated by IcoMoon.io -->
<!DOCTYPE svg PUBLIC "-//W3C//DTD SVG 1.1//EN" "http://www.w3.org/Graphics/SVG/1.1/DTD/svg11.dtd">
<svg version="1.1" xmlns="http://www.w3.org/2000/svg" xmlns:xlink="http://www.w3.org/1999/xlink" width="32" height="32" viewBox="0 0 32 32">
<path fill="#444444" d="M8.563 12.045c-1.056 0-2.050 0.411-2.797 1.158s-1.158 1.74-1.158 2.797 0.411 2.050 1.158 2.797c0.747 0.747 1.74 1.158 2.797 1.158s2.050-0.411 2.797-1.158l2.796-2.797-2.797-2.797c-0.747-0.747-1.74-1.158-2.796-1.158z"></path>
<path fill="#444444" d="M23.437 12.045c-1.056 0-2.050 0.411-2.797 1.158l-2.796 2.797 2.797 2.797c0.747 0.747 1.74 1.158 2.796 1.158s2.050-0.411 2.797-1.158c0.747-0.747 1.158-1.74 1.158-2.797s-0.411-2.050-1.158-2.797c-0.747-0.747-1.74-1.158-2.797-1.158z"></path>
<path fill="#444444" d="M29 0h-26c-1.65 0-3 1.35-3 3v26c0 1.65 1.35 3 3 3h26c1.65 0 3-1.35 3-3v-26c0-1.65-1.35-3-3-3zM28.078 20.64c-1.239 1.24-2.887 1.922-4.64 1.922s-3.401-0.683-4.64-1.922l-2.797-2.797-2.797 2.796c-1.239 1.24-2.888 1.922-4.64 1.922s-3.401-0.683-4.641-1.922c-1.24-1.239-1.922-2.888-1.922-4.64s0.683-3.401 1.922-4.641c1.24-1.24 2.888-1.922 4.641-1.922s3.401 0.683 4.641 1.922l2.797 2.797 2.797-2.797c1.24-1.24 2.888-1.922 4.641-1.922s3.401 0.683 4.64 1.922c1.24 1.24 1.922 2.888 1.922 4.641s-0.683 3.401-1.922 4.64z"></path>
</svg>
