<?xml version="1.0" encoding="utf-8"?>
<!-- Generated by IcoMoon.io -->
<!DOCTYPE svg PUBLIC "-//W3C//DTD SVG 1.1//EN" "http://www.w3.org/Graphics/SVG/1.1/DTD/svg11.dtd">
<svg version="1.1" xmlns="http://www.w3.org/2000/svg" xmlns:xlink="http://www.w3.org/1999/xlink" width="32" height="32" viewBox="0 0 32 32">
<path fill="#444444" d="M23 0c-4.971 0-9 4.029-9 9v5h-5c-4.971 0-9 4.029-9 9s4.029 9 9 9 9-4.029 9-9v-5h5c4.971 0 9-4.029 9-9s-4.029-9-9-9zM14 23c0 2.761-2.239 5-5 5s-5-2.239-5-5 2.239-5 5-5h5v5zM23 14h-5v-5c0-2.761 2.239-5 5-5s5 2.239 5 5-2.239 5-5 5z"></path>
</svg>
