<?xml version="1.0" encoding="utf-8"?>
<!-- Generated by IcoMoon.io -->
<!DOCTYPE svg PUBLIC "-//W3C//DTD SVG 1.1//EN" "http://www.w3.org/Graphics/SVG/1.1/DTD/svg11.dtd">
<svg version="1.1" xmlns="http://www.w3.org/2000/svg" xmlns:xlink="http://www.w3.org/1999/xlink" width="32" height="32" viewBox="0 0 32 32">
<path fill="#444444" d="M22.875 0c-5.032 0-9.125 4.093-9.125 9.125 0 2.111 0.721 4.057 1.929 5.605l-13.35 13.35c-0.439 0.439-0.439 1.152 0 1.591 0.22 0.22 0.508 0.33 0.796 0.33s0.576-0.11 0.796-0.329l1.080-1.079 3.079 3.079c0.22 0.22 0.508 0.33 0.796 0.33s0.576-0.11 0.796-0.329c0.439-0.439 0.439-1.152 0-1.591l-3.079-3.080 2.409-2.409 3.079 3.079c0.22 0.22 0.508 0.33 0.796 0.33s0.576-0.11 0.796-0.329c0.439-0.439 0.439-1.152 0-1.591l-3.079-3.080 6.679-6.679c1.548 1.208 3.494 1.929 5.605 1.929 5.032 0 9.125-4.093 9.125-9.125s-4.093-9.125-9.125-9.125zM22.875 16c-3.791 0-6.875-3.084-6.875-6.875s3.084-6.875 6.875-6.875 6.875 3.084 6.875 6.875-3.084 6.875-6.875 6.875z"></path>
</svg>
