<?xml version="1.0" encoding="utf-8"?>
<!-- Generated by IcoMoon.io -->
<!DOCTYPE svg PUBLIC "-//W3C//DTD SVG 1.1//EN" "http://www.w3.org/Graphics/SVG/1.1/DTD/svg11.dtd">
<svg version="1.1" xmlns="http://www.w3.org/2000/svg" xmlns:xlink="http://www.w3.org/1999/xlink" width="32" height="32" viewBox="0 0 32 32">
<path fill="#444444" d="M26 20h-20c-3.314 0-6 2.686-6 6s2.686 6 6 6h20c3.314 0 6-2.686 6-6s-2.686-6-6-6zM6 28c-1.105 0-2-0.895-2-2s0.895-2 2-2 2 0.895 2 2-0.895 2-2 2z"></path>
<path fill="#444444" d="M6 18h5.559l5.854-8.424c1.891-2.721 1.218-6.46-1.503-8.351l-11.817 17.005c0.612-0.15 1.25-0.23 1.907-0.23z"></path>
<path fill="#444444" d="M26 16h-10.615l-1.385 1.992v0.008h12c2.288 0 4.354 0.965 5.814 2.51-0.663-2.593-3.014-4.51-5.814-4.51z"></path>
</svg>
