<?xml version="1.0" encoding="utf-8"?>
<!-- Generated by IcoMoon.io -->
<!DOCTYPE svg PUBLIC "-//W3C//DTD SVG 1.1//EN" "http://www.w3.org/Graphics/SVG/1.1/DTD/svg11.dtd">
<svg version="1.1" xmlns="http://www.w3.org/2000/svg" xmlns:xlink="http://www.w3.org/1999/xlink" width="32" height="32" viewBox="0 0 32 32">
<path fill="#444444" d="M16 2c2.141 0 4.153 0.834 5.666 2.349 1.508 1.51 2.337 3.516 2.334 5.648-0.003 2.46-0.969 3.776-1.992 5.169-0.939 1.28-2.003 2.73-2.008 4.829-0.002 1.020-0.352 1.294-0.711 1.488-0.636 0.343-1.742 0.517-3.289 0.517-2.377 0-3.29-0.415-3.638-0.764-0.090-0.090-0.364-0.365-0.362-1.232 0.005-2.107-1.066-3.561-2.011-4.844-1.025-1.391-1.993-2.706-1.989-5.158 0.003-2.139 0.836-4.149 2.346-5.66s3.518-2.343 5.654-2.343zM16 0c-5.523 0-9.992 4.477-10 10s4.008 6.686 4 10 2.686 4 6 4c3.314 0 5.992-0.686 6-4s3.992-4.477 4-10-4.477-10-10-10v0z"></path>
<path fill="#444444" d="M16 26c-2.468 0-4.519-0.549-4.926-3.032-0.048 0.335-0.074 0.68-0.074 1.032 0 3.314 2.239 4 5 4s5-0.686 5-4c0-0.352-0.026-0.696-0.074-1.032-0.408 2.483-2.458 3.032-4.926 3.032z"></path>
<path fill="#444444" d="M16 30c-1.975 0-3.615-0.549-3.941-3.032-0.039 0.335-0.059 0.68-0.059 1.032 0 3.314 1.791 4 4 4s4-0.686 4-4c0-0.352-0.020-0.696-0.059-1.032-0.326 2.483-1.966 3.032-3.941 3.032z"></path>
</svg>
