<?xml version="1.0" encoding="utf-8"?>
<!-- Generated by IcoMoon.io -->
<!DOCTYPE svg PUBLIC "-//W3C//DTD SVG 1.1//EN" "http://www.w3.org/Graphics/SVG/1.1/DTD/svg11.dtd">
<svg version="1.1" xmlns="http://www.w3.org/2000/svg" xmlns:xlink="http://www.w3.org/1999/xlink" width="32" height="32" viewBox="0 0 32 32">
<path fill="#444444" d="M16 0c-6.627 0-12 5.373-12 12 0 4.442 2.413 8.319 6 10.394v7.606l2 2h8l2-2v-7.606c3.587-2.075 6-5.953 6-10.394 0-6.627-5.373-12-12-12zM10 10c0-1.105 0.895-2 2-2s2 0.895 2 2v9c0 0.552-0.448 1-1 1s-1-0.448-1-1v-7c-1.105 0-2-0.895-2-2zM19 26h-6c-0.55 0-1-0.45-1-1s0.45-1 1-1h6c0.55 0 1 0.45 1 1s-0.45 1-1 1zM20 12v7c0 0.552-0.448 1-1 1s-1-0.448-1-1v-9c0-1.105 0.895-2 2-2s2 0.895 2 2-0.895 2-2 2zM19 30h-6c-0.55 0-1-0.45-1-1s0.45-1 1-1h6c0.55 0 1 0.45 1 1s-0.45 1-1 1z"></path>
</svg>
