<?xml version="1.0" encoding="utf-8"?>
<!-- Generated by IcoMoon.io -->
<!DOCTYPE svg PUBLIC "-//W3C//DTD SVG 1.1//EN" "http://www.w3.org/Graphics/SVG/1.1/DTD/svg11.dtd">
<svg version="1.1" xmlns="http://www.w3.org/2000/svg" xmlns:xlink="http://www.w3.org/1999/xlink" width="32" height="32" viewBox="0 0 32 32">
<path fill="#444444" d="M29.814 14.419l-10-14c-0.188-0.263-0.491-0.419-0.814-0.419h-8c-0.323 0-0.626 0.156-0.814 0.419l-10 14c-0.218 0.305-0.247 0.706-0.075 1.039s0.515 0.542 0.889 0.542h11v3c0 0.776-0.827 1.293-2.177 2.072-0.858 0.495-1.745 1.007-2.469 1.733-0.898 0.9-1.354 1.975-1.354 3.195 0 1.751 0.141 3.712 1.82 4.832 1.459 0.973 3.829 1.168 7.18 1.168s5.721-0.195 7.18-1.168c1.68-1.12 1.82-3.081 1.82-4.832 0-1.22-0.455-2.295-1.354-3.195-0.724-0.726-1.611-1.238-2.469-1.733-1.35-0.779-2.178-1.297-2.178-2.072v-3h11c0.375 0 0.718-0.209 0.889-0.542s0.142-0.734-0.075-1.039zM11.515 2h6.971l5.714 8h-18.399l5.714-8zM19.177 22.804c1.756 1.014 2.823 1.735 2.823 3.196 0 1.905-0.235 2.704-0.93 3.168-0.875 0.583-2.69 0.832-6.070 0.832s-5.195-0.249-6.070-0.832c-0.695-0.463-0.93-1.263-0.93-3.168 0-1.461 1.066-2.182 2.823-3.196 1.489-0.86 3.177-1.834 3.177-3.804v-3h2v3c0 1.97 1.688 2.944 3.178 3.804zM2.943 14l1.429-2h21.257l1.429 2h-24.114z"></path>
</svg>
