<?xml version="1.0" encoding="utf-8"?>
<!-- Generated by IcoMoon.io -->
<!DOCTYPE svg PUBLIC "-//W3C//DTD SVG 1.1//EN" "http://www.w3.org/Graphics/SVG/1.1/DTD/svg11.dtd">
<svg version="1.1" xmlns="http://www.w3.org/2000/svg" xmlns:xlink="http://www.w3.org/1999/xlink" width="32" height="32" viewBox="0 0 32 32">
<path fill="#444444" d="M28 18v-12c0-1.105-0.895-2-2-2h-22c-1.105 0-2 0.895-2 2v12h10v10h-1c-0.552 0-1 0.448-1 1s0.448 1 1 1h-2c-0.552 0-1 0.448-1 1s0.448 1 1 1h12c0.552 0 1-0.448 1-1s-0.448-1-1-1h-2c0.552 0 1-0.448 1-1s-0.448-1-1-1h-1v-10h4v6c0 1.105 0.895 2 2 2s2-0.895 2-2-0.895-2-2-2v-4h4zM24 6h2v10h-2v-10zM6 16h-2v-10h2v10zM10 16h-2v-10h2v10zM14 16h-2v-10h2v10zM18 16h-2v-10h2v10zM22 16h-2v-10h2v10z"></path>
</svg>
