<?xml version="1.0" encoding="utf-8"?>
<!-- Generated by IcoMoon.io -->
<!DOCTYPE svg PUBLIC "-//W3C//DTD SVG 1.1//EN" "http://www.w3.org/Graphics/SVG/1.1/DTD/svg11.dtd">
<svg version="1.1" xmlns="http://www.w3.org/2000/svg" xmlns:xlink="http://www.w3.org/1999/xlink" width="32" height="32" viewBox="0 0 32 32">
<path fill="#444444" d="M28 12c0-6.627-5.373-12-12-12s-12 5.373-12 12c0 4.442 2.413 8.319 6 10.394v7.606l2 2h8l2-2v-7.606c3.587-2.075 6-5.953 6-10.394zM19 26h-6c-0.55 0-1-0.45-1-1s0.45-1 1-1h6c0.55 0 1 0.45 1 1s-0.45 1-1 1zM20 21.171v-9.171c1.105 0 2-0.895 2-2s-0.895-2-2-2-2 0.895-2 2v11.801c-0.651 0.131-1.32 0.199-2 0.199s-1.349-0.068-2-0.199v-11.801c0-1.105-0.895-2-2-2s-2 0.895-2 2 0.895 2 2 2v9.171c-1.131-0.494-2.172-1.2-3.071-2.099-1.889-1.889-2.929-4.4-2.929-7.071s1.040-5.182 2.929-7.071 4.4-2.929 7.071-2.929c2.671 0 5.182 1.040 7.071 2.929s2.929 4.4 2.929 7.071-1.040 5.182-2.929 7.071c-0.899 0.899-1.94 1.605-3.071 2.099zM19 30h-6c-0.55 0-1-0.45-1-1s0.45-1 1-1h6c0.55 0 1 0.45 1 1s-0.45 1-1 1z"></path>
</svg>
