<?xml version="1.0" encoding="utf-8"?>
<!-- Generated by IcoMoon.io -->
<!DOCTYPE svg PUBLIC "-//W3C//DTD SVG 1.1//EN" "http://www.w3.org/Graphics/SVG/1.1/DTD/svg11.dtd">
<svg version="1.1" xmlns="http://www.w3.org/2000/svg" xmlns:xlink="http://www.w3.org/1999/xlink" width="32" height="32" viewBox="0 0 32 32">
<path fill="#444444" d="M14 24.325c-0.165 0.005-0.33 0.008-0.494 0.008-1.282 0-2.505-0.156-3.638-0.449 0.086-0.279 0.133-0.576 0.133-0.884 0-1.657-1.343-3-3-3-0.902 0-1.711 0.399-2.261 1.029-0.955-0.985-1.646-2.157-1.998-3.468-0.669-2.497-0.044-5.2 1.761-7.609 1.866-2.49 4.749-4.359 8.119-5.262 1.401-0.375 2.823-0.566 4.228-0.566 5.353 0 9.679 2.721 10.764 6.772 0.453 1.689 0.302 3.431-0.337 5.079l1.855 1.395c1.041-2.302 1.278-4.735 0.656-7.056-1.353-5.048-6.552-8.439-12.938-8.439-1.601 0-3.22 0.216-4.81 0.642-3.854 1.033-7.171 3.194-9.338 6.086-2.228 2.973-2.986 6.361-2.134 9.54 0.556 2.074 1.762 3.869 3.432 5.263v7.593c0 0.552 0.448 1 1 1s1-0.448 1-1v-5.171c0.313 0.111 0.649 0.171 1 0.171 0.436 0 0.85-0.094 1.223-0.261 1.611 0.548 3.395 0.844 5.282 0.844 0.165 0 0.329-0.003 0.494-0.007v-2.251zM7 24c-0.552 0-1-0.448-1-1s0.448-1 1-1 1 0.448 1 1-0.448 1-1 1z"></path>
<path fill="#444444" d="M16 10v19.957l7.108-5.742 8.853-2.215z"></path>
<path fill="#444444" d="M24.907 23.318l-3.579 1.785 3.438 6.894 0.002-0.005 3.576-1.784z"></path>
</svg>
