<?xml version="1.0" encoding="utf-8"?>
<!-- Generated by IcoMoon.io -->
<!DOCTYPE svg PUBLIC "-//W3C//DTD SVG 1.1//EN" "http://www.w3.org/Graphics/SVG/1.1/DTD/svg11.dtd">
<svg version="1.1" xmlns="http://www.w3.org/2000/svg" xmlns:xlink="http://www.w3.org/1999/xlink" width="32" height="32" viewBox="0 0 32 32">
<path fill="#444444" d="M31.604 4.203c-3.461-2.623-8.787-4.189-14.247-4.189-6.754 0-12.257 2.358-15.099 6.469-1.335 1.931-2.073 4.217-2.194 6.796-0.129 2.751 0.449 5.85 1.719 9.212-1.171 2.855-1.808 5.795-1.808 8.508 0 0.552 0.448 1 1 1s1-0.448 1-1c0-2.396 0.585-5.070 1.637-7.669 2.944 0.544 5.424 0.811 7.551 0.811 3.677 0 6.293-0.796 8.231-2.504 1.736-1.531 2.694-3.587 3.707-5.764 1.548-3.325 3.302-7.094 8.395-10.005 0.292-0.167 0.48-0.468 0.502-0.804s-0.126-0.659-0.394-0.862zM21.288 15.029c-0.962 2.068-1.794 3.854-3.216 5.108-1.551 1.367-3.747 2.004-6.908 2.004-1.889 0-4.094-0.227-6.702-0.689 0.477-0.953 1.014-1.883 1.608-2.771 1.385-2.072 3.011-3.862 4.834-5.322 1.969-1.576 4.117-2.721 6.385-3.401 0.529-0.159 0.829-0.716 0.671-1.245s-0.716-0.829-1.245-0.671c-2.515 0.754-4.89 2.018-7.060 3.755-1.983 1.588-3.748 3.53-5.247 5.772-0.505 0.756-0.971 1.534-1.396 2.326-0.721-2.37-1.040-4.557-0.948-6.521 0.103-2.199 0.723-4.134 1.841-5.753 1.272-1.84 3.167-3.266 5.632-4.239 2.268-0.895 4.973-1.368 7.822-1.368 4.344 0 8.713 1.11 11.8 2.951-4.629 3.101-6.412 6.933-7.869 10.064z"></path>
</svg>
