<?xml version="1.0" encoding="utf-8"?>
<!-- Generated by IcoMoon.io -->
<!DOCTYPE svg PUBLIC "-//W3C//DTD SVG 1.1//EN" "http://www.w3.org/Graphics/SVG/1.1/DTD/svg11.dtd">
<svg version="1.1" xmlns="http://www.w3.org/2000/svg" xmlns:xlink="http://www.w3.org/1999/xlink" width="32" height="32" viewBox="0 0 32 32">
<path fill="#444444" d="M9 32c-4.963 0-9-4.037-9-9s4.037-9 9-9c1.105 0 2 0.895 2 2s-0.895 2-2 2c-2.757 0-5 2.243-5 5s2.243 5 5 5 5-2.243 5-5c0-1.105 0.895-2 2-2s2 0.895 2 2c0 4.963-4.037 9-9 9z"></path>
<path fill="#444444" d="M23 18c-1.105 0-2-0.895-2-2s0.895-2 2-2c2.757 0 5-2.243 5-5s-2.243-5-5-5-5 2.243-5 5c0 1.105-0.895 2-2 2s-2-0.895-2-2c0-4.963 4.037-9 9-9s9 4.037 9 9-4.037 9-9 9z"></path>
<path fill="#444444" d="M12 22c-0.512 0-1.024-0.195-1.414-0.586-0.781-0.781-0.781-2.047 0-2.828l8-8c0.781-0.781 2.047-0.781 2.828 0s0.781 2.047 0 2.828l-8 8c-0.39 0.39-0.902 0.586-1.414 0.586z"></path>
</svg>
