<?xml version="1.0" encoding="utf-8"?>
<!-- Generated by IcoMoon.io -->
<!DOCTYPE svg PUBLIC "-//W3C//DTD SVG 1.1//EN" "http://www.w3.org/Graphics/SVG/1.1/DTD/svg11.dtd">
<svg version="1.1" xmlns="http://www.w3.org/2000/svg" xmlns:xlink="http://www.w3.org/1999/xlink" width="32" height="32" viewBox="0 0 32 32">
<path fill="#444444" d="M17.172 20.172l-6.73 6.73c-0.709 0.709-1.658 1.099-2.675 1.099-1.015 0-1.963-0.389-2.671-1.097s-1.097-1.656-1.096-2.671c0-1.016 0.39-1.966 1.099-2.674l6.73-6.73-2.828-2.828-6.73 6.73c-3.026 3.026-3.027 7.977-0.002 11.002 1.512 1.512 3.506 2.268 5.499 2.268 1.995 0 3.989-0.757 5.503-2.27l6.73-6.73-2.828-2.828z"></path>
<path fill="#444444" d="M20.172 17.172l6.73-6.73c0.709-0.709 1.099-1.658 1.099-2.675 0-1.015-0.389-1.963-1.097-2.671s-1.656-1.097-2.671-1.097c-1.016 0-1.966 0.39-2.674 1.099l-6.73 6.73-2.828-2.828 6.73-6.73c3.026-3.026 7.977-3.027 11.002-0.002 1.512 1.512 2.268 3.506 2.268 5.499 0 1.995-0.757 3.989-2.27 5.503l-6.73 6.73-2.828-2.828z"></path>
<path fill="#444444" d="M13 21l-2-2 8-8 2 2-8 8z"></path>
</svg>
