<?xml version="1.0" encoding="utf-8"?>
<!-- Generated by IcoMoon.io -->
<!DOCTYPE svg PUBLIC "-//W3C//DTD SVG 1.1//EN" "http://www.w3.org/Graphics/SVG/1.1/DTD/svg11.dtd">
<svg version="1.1" xmlns="http://www.w3.org/2000/svg" xmlns:xlink="http://www.w3.org/1999/xlink" width="32" height="32" viewBox="0 0 32 32">
<path fill="#444444" d="M21 12h4c0.552 0 1-0.448 1-1s-0.448-1-1-1h-4c-0.552 0-1 0.448-1 1s0.448 1 1 1z"></path>
<path fill="#444444" d="M21 8h4c0.552 0 1-0.448 1-1s-0.448-1-1-1h-4c-0.552 0-1 0.448-1 1s0.448 1 1 1z"></path>
<path fill="#444444" d="M21 16h4c0.552 0 1-0.448 1-1s-0.448-1-1-1h-4c-0.552 0-1 0.448-1 1s0.448 1 1 1z"></path>
<path fill="#444444" d="M7 24h18c0.552 0 1-0.448 1-1s-0.448-1-1-1h-18c-0.552 0-1 0.448-1 1s0.448 1 1 1z"></path>
<path fill="#444444" d="M7 20h18c0.552 0 1-0.448 1-1s-0.448-1-1-1h-18c-0.552 0-1 0.448-1 1s0.448 1 1 1z"></path>
<path fill="#444444" d="M29 0h-23c-1.277 0-2.276 0.354-2.969 1.051-0.691 0.695-1.038 1.689-1.031 2.949v27c0 0.552 0.448 1 1 1h22c0.552 0 1-0.448 1-1v-1h3c0.552 0 1-0.448 1-1v-28c0-0.552-0.448-1-1-1zM28 28h-24l0-24.005c-0.004-0.714 0.147-1.23 0.449-1.533 0.304-0.306 0.826-0.461 1.551-0.461h22v26z"></path>
<path fill="#444444" d="M17 4h-10c-0.55 0-1 0.45-1 1v10c0 0.55 0.45 1 1 1h10c0.55 0 1-0.45 1-1v-10c0-0.55-0.45-1-1-1zM16 14h-8v-2c0-1.105 0.895-2 2-2h2c-1.105 0-2-0.895-2-2s0.895-2 2-2 2 0.895 2 2-0.895 2-2 2h2c1.105 0 2 0.895 2 2v2z"></path>
</svg>
