<?xml version="1.0" encoding="utf-8"?>
<!-- Generated by IcoMoon.io -->
<!DOCTYPE svg PUBLIC "-//W3C//DTD SVG 1.1//EN" "http://www.w3.org/Graphics/SVG/1.1/DTD/svg11.dtd">
<svg version="1.1" xmlns="http://www.w3.org/2000/svg" xmlns:xlink="http://www.w3.org/1999/xlink" width="32" height="32" viewBox="0 0 32 32">
<path fill="#444444" d="M12 12v8c0 2.206 1.794 4 4 4s4-1.794 4-4v-8h8v8c0 6.627-5.373 12-12 12s-12-5.373-12-12v-8h8z"></path>
<path fill="#444444" d="M28 5.5v4.5h-8v-4.5c0-0.825 0.675-1.5 1.5-1.5h5c0.825 0 1.5 0.675 1.5 1.5z"></path>
<path fill="#444444" d="M12 5.5v4.5h-8v-4.5c0-0.825 0.675-1.5 1.5-1.5h5c0.825 0 1.5 0.675 1.5 1.5z"></path>
</svg>
