<?xml version="1.0" encoding="utf-8"?>
<!-- Generated by IcoMoon.io -->
<!DOCTYPE svg PUBLIC "-//W3C//DTD SVG 1.1//EN" "http://www.w3.org/Graphics/SVG/1.1/DTD/svg11.dtd">
<svg version="1.1" xmlns="http://www.w3.org/2000/svg" xmlns:xlink="http://www.w3.org/1999/xlink" width="32" height="32" viewBox="0 0 32 32">
<path fill="#444444" d="M31 6h-12c-0.552 0-1 0.448-1 1s0.448 1 1 1h11v14h-24v-14h3c0.552 0 1-0.448 1-1s-0.448-1-1-1h-8c-0.552 0-1 0.448-1 1v16c0 0.552 0.448 1 1 1h9v7c0 0.552 0.448 1 1 1h8c0.552 0 1-0.448 1-1v-7h11c0.552 0 1-0.448 1-1v-16c0-0.552-0.448-1-1-1zM2 8h2v14h-2v-14zM18 30h-6v-6h6v6z"></path>
<path fill="#444444" d="M15 16c1.657 0 3-1.343 3-3 0-1.306-0.835-2.417-2-2.829v-6.171h4v-4h-8v13c0 1.657 1.343 3 3 3z"></path>
</svg>
