<?xml version="1.0" encoding="utf-8"?>
<!-- Generated by IcoMoon.io -->
<!DOCTYPE svg PUBLIC "-//W3C//DTD SVG 1.1//EN" "http://www.w3.org/Graphics/SVG/1.1/DTD/svg11.dtd">
<svg version="1.1" xmlns="http://www.w3.org/2000/svg" xmlns:xlink="http://www.w3.org/1999/xlink" width="32" height="32" viewBox="0 0 32 32">
<path fill="#444444" d="M11 4c-3.866 0-7 3.134-7 7 0 1.487 0.464 2.866 1.255 4l5.745 7 5.745-7c0.791-1.134 1.255-2.513 1.255-4 0-3.866-3.134-7-7-7zM11 14c-1.657 0-3-1.343-3-3s1.343-3 3-3 3 1.343 3 3-1.343 3-3 3z"></path>
<path fill="#444444" d="M31 0h-30c-0.552 0-1 0.448-1 1v30c0 0.552 0.448 1 1 1h30c0.552 0 1-0.448 1-1v-30c0-0.552-0.448-1-1-1zM2 30v-2h16v-4h-16v-22h18v28h-18zM30 30h-6v-2h6v2zM30 24h-6v-22h6v22z"></path>
</svg>
