<?xml version="1.0" encoding="utf-8"?>
<!-- Generated by IcoMoon.io -->
<!DOCTYPE svg PUBLIC "-//W3C//DTD SVG 1.1//EN" "http://www.w3.org/Graphics/SVG/1.1/DTD/svg11.dtd">
<svg version="1.1" xmlns="http://www.w3.org/2000/svg" xmlns:xlink="http://www.w3.org/1999/xlink" width="48" height="32" viewBox="0 0 48 32">
<path fill="#444444" d="M34 14v-4h-4v-4h-4v4h-4v-4h-4v4h-4v4h4v4h-4v4h4v4h4v-4h4v4h4v-4h4v-4h-4v-4h4zM26 18h-4v-4h4v4z"></path>
<path fill="#444444" d="M17.414 3.414l-2.828-2.828-14.586 14.586v1.657l14.586 14.586 2.828-2.829-12.586-12.586z"></path>
<path fill="#444444" d="M30.586 3.414l2.828-2.828 14.586 14.586v1.657l-14.586 14.586-2.828-2.829 12.586-12.586z"></path>
</svg>
