<?xml version="1.0" encoding="utf-8"?>
<!-- Generated by IcoMoon.io -->
<!DOCTYPE svg PUBLIC "-//W3C//DTD SVG 1.1//EN" "http://www.w3.org/Graphics/SVG/1.1/DTD/svg11.dtd">
<svg version="1.1" xmlns="http://www.w3.org/2000/svg" xmlns:xlink="http://www.w3.org/1999/xlink" width="32" height="32" viewBox="0 0 32 32">
<path fill="#444444" d="M31.452 6.602c-0.687-1.658-1.991-3.326-3.578-4.576-1.658-1.306-3.433-2.026-4.999-2.026-1.215 0-2.256 0.425-3.095 1.264l-14.343 14.343c-0.145 0.145-0.257 0.32-0.327 0.513l-5.026 13.288c-0.187 0.514-0.060 1.089 0.327 1.476l0.704 0.704c0.268 0.268 0.628 0.412 0.995 0.412 0.161 0 0.324-0.028 0.481-0.085l13.288-5.026c0.193-0.070 0.368-0.182 0.513-0.327l14.343-14.343c1.387-1.388 1.642-3.383 0.716-5.618zM14.989 23.989l-6.978-6.978 12-12 6.978 6.978-12 12z"></path>
</svg>
