<?xml version="1.0" encoding="utf-8"?>
<!-- Generated by IcoMoon.io -->
<!DOCTYPE svg PUBLIC "-//W3C//DTD SVG 1.1//EN" "http://www.w3.org/Graphics/SVG/1.1/DTD/svg11.dtd">
<svg version="1.1" xmlns="http://www.w3.org/2000/svg" xmlns:xlink="http://www.w3.org/1999/xlink" width="32" height="32" viewBox="0 0 32 32">
<path fill="#444444" d="M32 27c0 1.657-1.791 3-4 3s-4-1.343-4-3 1.791-3 4-3c0.729 0 1.412 0.147 2 0.402v-5.831l-8 2.857v7.571c0 1.657-1.791 3-4 3s-4-1.343-4-3 1.791-3 4-3c0.729 0 1.412 0.147 2 0.402v-8.402l12-4v13z"></path>
<path fill="#444444" d="M9 6c-1.654 0-3 1.346-3 3s1.346 3 3 3 3-1.346 3-3-1.346-3-3-3z"></path>
<path fill="#444444" d="M17 2h-4.382l-0.724-1.447c-0.169-0.339-0.516-0.553-0.894-0.553h-4c-0.379 0-0.725 0.214-0.894 0.553l-0.724 1.447h-4.382c-0.552 0-1 0.448-1 1v12c0 0.552 0.448 1 1 1h16c0.552 0 1-0.448 1-1v-12c0-0.552-0.448-1-1-1zM9 14c-2.757 0-5-2.243-5-5s2.243-5 5-5 5 2.243 5 5-2.243 5-5 5z"></path>
</svg>
