<?xml version="1.0" encoding="utf-8"?>
<!-- Generated by IcoMoon.io -->
<!DOCTYPE svg PUBLIC "-//W3C//DTD SVG 1.1//EN" "http://www.w3.org/Graphics/SVG/1.1/DTD/svg11.dtd">
<svg version="1.1" xmlns="http://www.w3.org/2000/svg" xmlns:xlink="http://www.w3.org/1999/xlink" width="34" height="32" viewBox="0 0 34 32">
<path fill="#444444" d="M32 0h-30c-1.1 0-2 0.9-2 2v6c0 1.1 0.9 2 2 2h4v20c0 1.1 0.9 2 2 2h24c1.1 0 2-0.9 2-2v-28c0-1.1-0.9-2-2-2zM30 28h-20v-4h20v4zM30 22h-20v-4h20v4zM30 16h-20v-4h20v4zM26 10l-5-6h10l-5 6z"></path>
</svg>
