<?xml version="1.0" encoding="utf-8"?>
<!-- Generated by IcoMoon.io -->
<!DOCTYPE svg PUBLIC "-//W3C//DTD SVG 1.1//EN" "http://www.w3.org/Graphics/SVG/1.1/DTD/svg11.dtd">
<svg version="1.1" xmlns="http://www.w3.org/2000/svg" xmlns:xlink="http://www.w3.org/1999/xlink" width="32" height="32" viewBox="0 0 32 32">
<path fill="#444444" d="M16 8c-8.837 0-16 7.163-16 16h2c0-6.627 5.373-12 12-12 3.526 0 6.696 1.52 8.891 3.941l-5.423 4.338c-0.455-0.18-0.95-0.28-1.469-0.28-2.209 0-4 1.791-4 4s1.791 4 4 4c2.209 0 4-1.791 4-4 0-0.519-0.1-1.014-0.28-1.469l4.213-5.266c1.305 1.92 2.067 4.238 2.067 6.735h6c0-8.837-7.163-16-16-16z"></path>
</svg>
