<?xml version="1.0" encoding="utf-8"?>
<!-- Generated by IcoMoon.io -->
<!DOCTYPE svg PUBLIC "-//W3C//DTD SVG 1.1//EN" "http://www.w3.org/Graphics/SVG/1.1/DTD/svg11.dtd">
<svg version="1.1" xmlns="http://www.w3.org/2000/svg" xmlns:xlink="http://www.w3.org/1999/xlink" width="32" height="32" viewBox="0 0 32 32">
<path fill="#444444" d="M16 8c-8.837 0-16 7.163-16 16h2c0-3.638 1.619-6.898 4.176-9.098l6.104 7.63c-0.18 0.455-0.28 0.95-0.28 1.469 0 2.209 1.791 4 4 4s4-1.791 4-4-1.791-4-4-4c-0.519 0-1.014 0.1-1.469 0.28l-7.533-6.026c1.971-1.418 4.388-2.253 7.001-2.253 6.627 0 12 5.373 12 12h6c0-8.836-7.163-16-16-16z"></path>
</svg>
