<?xml version="1.0" encoding="utf-8"?>
<!-- Generated by IcoMoon.io -->
<!DOCTYPE svg PUBLIC "-//W3C//DTD SVG 1.1//EN" "http://www.w3.org/Graphics/SVG/1.1/DTD/svg11.dtd">
<svg version="1.1" xmlns="http://www.w3.org/2000/svg" xmlns:xlink="http://www.w3.org/1999/xlink" width="32" height="32" viewBox="0 0 32 32">
<path fill="#444444" d="M16 8c-8.837 0-16 7.163-16 16h2c0-6.627 5.373-12 12-12 0.3 0 0.597 0.012 0.892 0.034l-0.892 8.501h0.002c-1.196 0.691-2.002 1.984-2.002 3.465 0 2.209 1.791 4 4 4s4-1.791 4-4c0-1.481-0.806-2.773-2.002-3.465h0.002l-0.851-8.117c5.1 1.383 8.851 6.044 8.851 11.582h6c0-8.837-7.163-16-16-16z"></path>
</svg>
