<?xml version="1.0" encoding="utf-8"?>
<!-- Generated by IcoMoon.io -->
<!DOCTYPE svg PUBLIC "-//W3C//DTD SVG 1.1//EN" "http://www.w3.org/Graphics/SVG/1.1/DTD/svg11.dtd">
<svg version="1.1" xmlns="http://www.w3.org/2000/svg" xmlns:xlink="http://www.w3.org/1999/xlink" width="32" height="32" viewBox="0 0 32 32">
<path fill="#444444" d="M21.47 3.53c-0.941-2.082-3.036-3.53-5.47-3.53-3.314 0-6 2.686-6 6v8c0 0.316 0.025 0.626 0.072 0.928l11.398-11.398z"></path>
<path fill="#444444" d="M7.647 17.353c-0.417-1.037-0.647-2.168-0.647-3.353 0-0.147 0.004-0.295 0.011-0.441 0.040-0.828-0.599-1.53-1.426-1.57s-1.53 0.599-1.57 1.426c-0.009 0.194-0.014 0.39-0.014 0.585 0 2.024 0.504 3.933 1.392 5.608l2.255-2.255z"></path>
<path fill="#444444" d="M26.415 11.986c-0.827 0.040-1.466 0.743-1.426 1.571 0.007 0.146 0.011 0.296 0.011 0.443 0 4.965-4.037 9.005-9 9.005-1.715 0-3.32-0.483-4.685-1.32l2.216-2.216c0.753 0.341 1.589 0.531 2.469 0.531 3.314 0 6-2.686 6-6v-3l9-9-2-2-29 29 2 2 7.15-7.15c1.423 0.994 3.071 1.687 4.85 1.987v4.162c0 1.105 0.895 2 2 2s2-0.895 2-2v-4.163c5.668-0.955 10-5.899 10-11.838 0-0.196-0.005-0.393-0.014-0.588-0.040-0.827-0.742-1.466-1.57-1.426z"></path>
</svg>
