<?xml version="1.0" encoding="utf-8"?>
<!-- Generated by IcoMoon.io -->
<!DOCTYPE svg PUBLIC "-//W3C//DTD SVG 1.1//EN" "http://www.w3.org/Graphics/SVG/1.1/DTD/svg11.dtd">
<svg version="1.1" xmlns="http://www.w3.org/2000/svg" xmlns:xlink="http://www.w3.org/1999/xlink" width="32" height="32" viewBox="0 0 32 32">
<path fill="#444444" d="M28 14c0-0.196-0.005-0.393-0.014-0.588-0.040-0.827-0.742-1.466-1.57-1.426-0.827 0.040-1.466 0.743-1.426 1.571 0.007 0.146 0.011 0.296 0.011 0.443 0 4.965-4.037 9.005-9 9.005s-9-4.040-9-9.005c0-0.147 0.004-0.295 0.011-0.441 0.040-0.828-0.599-1.53-1.426-1.57s-1.53 0.599-1.57 1.426c-0.009 0.194-0.014 0.39-0.014 0.585 0 5.938 4.332 10.882 10 11.837v4.163c0 1.105 0.895 2 2 2s2-0.895 2-2v-4.163c5.668-0.955 10-5.899 10-11.838z"></path>
<path fill="#444444" d="M16 0c-3.314 0-6 2.686-6 6v8c0 3.314 2.686 6 6 6s6-2.686 6-6v-8c0-3.314-2.686-6-6-6z"></path>
</svg>
