<?xml version="1.0" encoding="utf-8"?>
<!-- Generated by IcoMoon.io -->
<!DOCTYPE svg PUBLIC "-//W3C//DTD SVG 1.1//EN" "http://www.w3.org/Graphics/SVG/1.1/DTD/svg11.dtd">
<svg version="1.1" xmlns="http://www.w3.org/2000/svg" xmlns:xlink="http://www.w3.org/1999/xlink" width="32" height="32" viewBox="0 0 32 32">
<path fill="#444444" d="M28 13.003v-0.003h-0c0-0.191-0.054-0.384-0.168-0.555l-3.832-5.748v-5.697c0-0.552-0.448-1-1-1h-16c-0.552 0-1 0.448-1 1v5.697l-3.828 5.742c-0.001 0.001-0.001 0.002-0.002 0.003l-0.002 0.003 0 0c-0.106 0.159-0.168 0.349-0.168 0.555v18c0 0.552 0.448 1 1 1h24c0.552 0 1-0.448 1-1v-17.993c0-0.001 0-0.003 0-0.004zM8 2h14v4h-14v-4zM7.535 8h13.596l-2.667 4h-13.596l2.667-4zM4 14h14v16h-14v-16zM20 30v-16.697l3-4.5 3 4.5v16.697h-6z"></path>
<path fill="#444444" d="M8 18h6v8h-6v-8z"></path>
</svg>
