<?xml version="1.0" encoding="utf-8"?>
<!-- Generated by IcoMoon.io -->
<!DOCTYPE svg PUBLIC "-//W3C//DTD SVG 1.1//EN" "http://www.w3.org/Graphics/SVG/1.1/DTD/svg11.dtd">
<svg version="1.1" xmlns="http://www.w3.org/2000/svg" xmlns:xlink="http://www.w3.org/1999/xlink" width="32" height="32" viewBox="0 0 32 32">
<path fill="#444444" d="M29.29 16.043c-0.422-0.128-0.877 0.036-1.122 0.402-0.655 0.982-1.469 1.523-2.293 1.523-0.815 0-1.586-0.541-1.964-1.379l-0.014-0.031c-0.459-1.018-0.933-2.070-1.63-2.924-0.884-1.084-1.984-1.634-3.268-1.634-1.634 0-3.087 0.788-4 2.003-0.913-1.216-2.366-2.003-4-2.003-1.284 0-2.384 0.55-3.268 1.634-0.697 0.854-1.171 1.907-1.63 2.924l-0.014 0.031c-0.378 0.837-1.148 1.379-1.964 1.379-0.824 0-1.638-0.541-2.292-1.523-0.244-0.367-0.7-0.53-1.122-0.402s-0.71 0.516-0.71 0.957c0 2.148 0.838 3.957 2.424 5.23 1.422 1.142 3.402 1.77 5.576 1.77 2.075 0 4.069-0.756 5.614-2.127 0.551-0.49 1.017-1.036 1.386-1.617 0.37 0.581 0.835 1.128 1.386 1.617 1.545 1.372 3.538 2.127 5.614 2.127 2.173 0 4.153-0.629 5.576-1.77 1.586-1.273 2.424-3.081 2.424-5.23 0-0.441-0.288-0.829-0.71-0.957z"></path>
</svg>
