<?xml version="1.0" encoding="utf-8"?>
<!-- Generated by IcoMoon.io -->
<!DOCTYPE svg PUBLIC "-//W3C//DTD SVG 1.1//EN" "http://www.w3.org/Graphics/SVG/1.1/DTD/svg11.dtd">
<svg version="1.1" xmlns="http://www.w3.org/2000/svg" xmlns:xlink="http://www.w3.org/1999/xlink" width="32" height="32" viewBox="0 0 32 32">
<path fill="#444444" d="M27 2h-22c-0.552 0-1 0.448-1 1v3h-2c-1.105 0-2 0.895-2 2s0.895 2 2 2h2v2h-2c-1.105 0-2 0.895-2 2s0.895 2 2 2h2v2h-2c-1.105 0-2 0.895-2 2s0.895 2 2 2h2v2h-2c-1.105 0-2 0.895-2 2s0.895 2 2 2h2v3c0 0.552 0.448 1 1 1h22c1.654 0 3-1.346 3-3v-24c0-1.654-1.346-3-3-3zM6 28c1.105 0 2-0.895 2-2s-0.895-2-2-2v-2c1.105 0 2-0.895 2-2s-0.895-2-2-2v-2c1.105 0 2-0.895 2-2s-0.895-2-2-2v-2c1.105 0 2-0.895 2-2s-0.895-2-2-2v-2h4v26h-4v-2z"></path>
</svg>
