<?xml version="1.0" encoding="utf-8"?>
<!-- Generated by IcoMoon.io -->
<!DOCTYPE svg PUBLIC "-//W3C//DTD SVG 1.1//EN" "http://www.w3.org/Graphics/SVG/1.1/DTD/svg11.dtd">
<svg version="1.1" xmlns="http://www.w3.org/2000/svg" xmlns:xlink="http://www.w3.org/1999/xlink" width="32" height="32" viewBox="0 0 32 32">
<path fill="#444444" d="M29.803 2.197c-2.929-2.929-7.678-2.929-10.607 0l-17 17c-2.929 2.929-2.929 7.678 0 10.607s7.678 2.929 10.607 0l17-17c2.929-2.929 2.929-7.678 0-10.607zM29 4c0.552 0 1 0.448 1 1s-0.448 1-1 1-1-0.448-1-1 0.448-1 1-1zM27 2c0.552 0 1 0.448 1 1s-0.448 1-1 1-1-0.448-1-1 0.448-1 1-1zM28 7c0 0.552-0.448 1-1 1s-1-0.448-1-1 0.448-1 1-1 1 0.448 1 1zM25 4c0.552 0 1 0.448 1 1s-0.448 1-1 1-1-0.448-1-1 0.448-1 1-1zM23 2c0.552 0 1 0.448 1 1s-0.448 1-1 1-1-0.448-1-1 0.448-1 1-1zM24 7c0 0.552-0.448 1-1 1s-1-0.448-1-1 0.448-1 1-1 1 0.448 1 1zM21 4c0.552 0 1 0.448 1 1s-0.448 1-1 1-1-0.448-1-1 0.448-1 1-1zM7 22c0.552 0 1 0.448 1 1s-0.448 1-1 1-1-0.448-1-1 0.448-1 1-1zM9 24c0.552 0 1 0.448 1 1s-0.448 1-1 1-1-0.448-1-1 0.448-1 1-1zM5 20c0.552 0 1 0.448 1 1s-0.448 1-1 1-1-0.448-1-1 0.448-1 1-1zM6 25c0 0.552-0.448 1-1 1s-1-0.448-1-1 0.448-1 1-1 1 0.448 1 1zM3 22c0.552 0 1 0.448 1 1s-0.448 1-1 1-1-0.448-1-1 0.448-1 1-1zM3 28c-0.552 0-1-0.448-1-1s0.448-1 1-1 1 0.448 1 1-0.448 1-1 1zM5 30c-0.552 0-1-0.448-1-1s0.448-1 1-1 1 0.448 1 1-0.448 1-1 1zM7 28c-0.552 0-1-0.448-1-1s0.448-1 1-1 1 0.448 1 1-0.448 1-1 1zM9 30c-0.552 0-1-0.448-1-1s0.448-1 1-1 1 0.448 1 1-0.448 1-1 1zM11 28c-0.552 0-1-0.448-1-1s0.448-1 1-1 1 0.448 1 1-0.448 1-1 1zM15.707 23.707c-0.195 0.195-0.451 0.293-0.707 0.293s-0.512-0.098-0.707-0.293l-6-6c-0.391-0.39-0.391-1.024 0-1.414s1.024-0.39 1.414 0l6 6c0.391 0.391 0.391 1.024 0 1.414zM23.707 15.707c-0.195 0.195-0.451 0.293-0.707 0.293s-0.512-0.098-0.707-0.293l-6-6c-0.391-0.39-0.391-1.024 0-1.414s1.024-0.391 1.414 0l6 6c0.391 0.391 0.391 1.024 0 1.414zM25 10c-0.552 0-1-0.448-1-1s0.448-1 1-1 1 0.448 1 1-0.448 1-1 1zM27 12c-0.552 0-1-0.448-1-1s0.448-1 1-1 1 0.448 1 1-0.448 1-1 1zM29 10c-0.552 0-1-0.448-1-1s0.448-1 1-1 1 0.448 1 1-0.448 1-1 1z"></path>
<path fill="#444444" d="M3.979 14.586l10.607-10.607-1.783-1.782c-1.464-1.464-3.384-2.197-5.303-2.197s-3.839 0.732-5.303 2.197c-2.929 2.929-2.929 7.678 0 10.607l1.782 1.783z"></path>
<path fill="#444444" d="M28.021 17.414l-10.607 10.607 1.782 1.782c1.465 1.465 3.384 2.197 5.303 2.197s3.839-0.732 5.303-2.197c2.929-2.929 2.929-7.678 0-10.607l-1.783-1.782z"></path>
</svg>
