<?xml version="1.0" encoding="utf-8"?>
<!-- Generated by IcoMoon.io -->
<!DOCTYPE svg PUBLIC "-//W3C//DTD SVG 1.1//EN" "http://www.w3.org/Graphics/SVG/1.1/DTD/svg11.dtd">
<svg version="1.1" xmlns="http://www.w3.org/2000/svg" xmlns:xlink="http://www.w3.org/1999/xlink" width="38" height="32" viewBox="0 0 38 32">
<path fill="#444444" d="M35 12l-9-9 3-3 9 9-3 3zM25.5 5.5l7 7-4.5 11.5-18 8-1.293-1.293 10.775-10.775c0.165 0.044 0.339 0.068 0.518 0.068 1.105 0 2-0.895 2-2s-0.895-2-2-2-2 0.895-2 2c0 0.179 0.024 0.353 0.068 0.518l-10.775 10.775-1.293-1.293 8-18 11.5-4.5z"></path>
<path fill="#444444" d="M0 4h12v4h-12v-4z"></path>
</svg>
