<?xml version="1.0" encoding="utf-8"?>
<!-- Generated by IcoMoon.io -->
<!DOCTYPE svg PUBLIC "-//W3C//DTD SVG 1.1//EN" "http://www.w3.org/Graphics/SVG/1.1/DTD/svg11.dtd">
<svg version="1.1" xmlns="http://www.w3.org/2000/svg" xmlns:xlink="http://www.w3.org/1999/xlink" width="32" height="32" viewBox="0 0 32 32">
<path fill="#444444" d="M7.799 0.442c-0.186-0.278-0.5-0.444-0.834-0.442s-0.646 0.169-0.83 0.448l-3.969 6c-0.108 0.164-0.166 0.356-0.166 0.552v23c0 1.103 0.897 2 2 2h6c1.103 0 2-0.897 2-2v-23c0-0.199-0.059-0.393-0.17-0.558l-4.031-6zM6.183 4h1.596l2.22 3.305 0.001 20.695h-6.001v-20.699l2.183-3.301z"></path>
<path fill="#444444" d="M7 26c0.552 0 1-0.448 1-1v-16c0-0.552-0.448-1-1-1s-1 0.448-1 1v16c0 0.552 0.448 1 1 1z"></path>
<path fill="#444444" d="M16 0v32h12v-32h-12zM26 4h-2v2h2v2h-4v2h4v2h-2v2h2v2h-4v2h4v2h-2v2h2v2h-4v2h4v4h-8v-28h8v2z"></path>
</svg>
