<?xml version="1.0" encoding="utf-8"?>
<!-- Generated by IcoMoon.io -->
<!DOCTYPE svg PUBLIC "-//W3C//DTD SVG 1.1//EN" "http://www.w3.org/Graphics/SVG/1.1/DTD/svg11.dtd">
<svg version="1.1" xmlns="http://www.w3.org/2000/svg" xmlns:xlink="http://www.w3.org/1999/xlink" width="32" height="32" viewBox="0 0 32 32">
<path fill="#444444" d="M20 20h2v4h-2v-4z"></path>
<path fill="#444444" d="M10 8h2v4h-2v-4z"></path>
<path fill="#444444" d="M16 0c-8.837 0-16 7.163-16 16s7.163 16 16 16 16-7.163 16-16-7.163-16-16-16zM8 7c0-0.552 0.448-1 1-1h4c0.552 0 1 0.448 1 1v6c0 0.552-0.448 1-1 1h-4c-0.552 0-1-0.448-1-1v-6zM24 25c0 0.552-0.448 1-1 1h-4c-0.552 0-1-0.448-1-1v-6c0-0.552 0.448-1 1-1h4c0.552 0 1 0.448 1 1v6zM23.888 7.691l-14 18c-0.222 0.285-0.554 0.434-0.889 0.434-0.241 0-0.485-0.077-0.69-0.237-0.49-0.381-0.579-1.088-0.197-1.579l14-18c0.381-0.49 1.088-0.579 1.579-0.197s0.579 1.088 0.197 1.579z"></path>
</svg>
