<?xml version="1.0" encoding="utf-8"?>
<!-- Generated by IcoMoon.io -->
<!DOCTYPE svg PUBLIC "-//W3C//DTD SVG 1.1//EN" "http://www.w3.org/Graphics/SVG/1.1/DTD/svg11.dtd">
<svg version="1.1" xmlns="http://www.w3.org/2000/svg" xmlns:xlink="http://www.w3.org/1999/xlink" width="32" height="32" viewBox="0 0 32 32">
<path fill="#444444" d="M10.039 17.961c-1.168-1.32-2.039-2.64-2.039-3.961 0-2 2-2 4-4s-4-8-6-8-6 6-6 6c0 3.364 2.906 9.633 6.144 13.856l3.895-3.895z"></path>
<path fill="#444444" d="M22 20c-2 2-2 4-4 4-1.299 0-2.597-0.844-3.896-1.983l13.457-13.457c0.586-0.586 0.586-1.536 0-2.121s-1.535-0.586-2.121 0l-23 23c-0.586 0.586-0.586 1.535 0 2.121 0.293 0.293 0.677 0.439 1.061 0.439s0.768-0.146 1.061-0.439l5.652-5.652c4.222 3.217 10.441 6.092 13.787 6.092 0 0 6-4 6-6s-6-8-8-6z"></path>
</svg>
