<?xml version="1.0" encoding="utf-8"?>
<!-- Generated by IcoMoon.io -->
<!DOCTYPE svg PUBLIC "-//W3C//DTD SVG 1.1//EN" "http://www.w3.org/Graphics/SVG/1.1/DTD/svg11.dtd">
<svg version="1.1" xmlns="http://www.w3.org/2000/svg" xmlns:xlink="http://www.w3.org/1999/xlink" width="32" height="32" viewBox="0 0 32 32">
<path fill="#444444" d="M22 20c2-2 8 4 8 6s-6 6-6 6c-4 0-12.109-4.109-16-8s-8-12-8-16c0 0 4-6 6-6s8 6 6 8-4 2-4 4 2 4 4 6 4 4 6 4 2-2 4-4z"></path>
<path fill="#444444" d="M23 16c-0.552 0-1-0.448-1-1 0-2.757-2.243-5-5-5-0.552 0-1-0.448-1-1s0.448-1 1-1c3.86 0 7 3.14 7 7 0 0.552-0.448 1-1 1z"></path>
<path fill="#444444" d="M27 16c-0.552 0-1-0.448-1-1 0-4.963-4.037-9-9-9-0.552 0-1-0.448-1-1s0.448-1 1-1c6.065 0 11 4.935 11 11 0 0.552-0.448 1-1 1z"></path>
<path fill="#444444" d="M31 16c-0.552 0-1-0.448-1-1 0-7.168-5.832-13-13-13-0.552 0-1-0.448-1-1s0.448-1 1-1c4.007 0 7.773 1.56 10.607 4.393s4.393 6.6 4.393 10.607c0 0.552-0.448 1-1 1z"></path>
</svg>
