<?xml version="1.0" encoding="utf-8"?>
<!-- Generated by IcoMoon.io -->
<!DOCTYPE svg PUBLIC "-//W3C//DTD SVG 1.1//EN" "http://www.w3.org/Graphics/SVG/1.1/DTD/svg11.dtd">
<svg version="1.1" xmlns="http://www.w3.org/2000/svg" xmlns:xlink="http://www.w3.org/1999/xlink" width="32" height="32" viewBox="0 0 32 32">
<path fill="#444444" d="M30.19 5.526c-0.889-0.75-2.106-1.405-3.618-1.945-2.855-1.019-6.609-1.581-10.572-1.581 0 0 0 0-0 0-3.963 0-7.718 0.561-10.572 1.581-1.512 0.54-2.729 1.194-3.618 1.945-1.496 1.263-1.81 2.587-1.81 3.474l0 2c0 0.53 0.211 1.039 0.586 1.414l1 1c0.382 0.382 0.894 0.586 1.415 0.586 0.25 0 0.502-0.047 0.742-0.143l5-2c0.759-0.304 1.257-1.039 1.257-1.857v-3.489c1.83-0.334 3.882-0.511 6-0.511 0 0 0 0 0 0 2.118 0 4.17 0.177 6 0.511v3.489c0 0.818 0.498 1.553 1.257 1.857l5 2c0.241 0.096 0.493 0.143 0.742 0.143 0.521 0 1.032-0.203 1.415-0.586l1-1c0.375-0.375 0.586-0.884 0.586-1.414l0-2c0-0.888-0.314-2.211-1.81-3.474z"></path>
<path fill="#444444" d="M29.863 24.879c-0.031-0.107-0.763-2.651-2.012-5.237-1.807-3.744-4.851-5.642-8.851-5.642h-6c-4 0-7.044 1.898-8.851 5.642-1.248 2.586-1.981 5.13-2.011 5.237-0.375 1.313-0.17 2.622 0.562 3.593s1.935 1.528 3.3 1.528h20c1.365 0 2.568-0.557 3.301-1.528s0.937-2.28 0.562-3.593zM16 26c-2.209 0-4-1.791-4-4s1.791-4 4-4c2.209 0 4 1.791 4 4s-1.791 4-4 4z"></path>
</svg>
