<?xml version="1.0" encoding="utf-8"?>
<!-- Generated by IcoMoon.io -->
<!DOCTYPE svg PUBLIC "-//W3C//DTD SVG 1.1//EN" "http://www.w3.org/Graphics/SVG/1.1/DTD/svg11.dtd">
<svg version="1.1" xmlns="http://www.w3.org/2000/svg" xmlns:xlink="http://www.w3.org/1999/xlink" width="32" height="32" viewBox="0 0 32 32">
<path fill="#444444" d="M30.047 12h-3.046c-0.718-1.368-1.791-2.577-3.125-3.544 0.011-0.86 0.334-1.681 0.915-2.316 0.117-0.129 0.245-0.249 0.38-0.359 0.321-0.261 0.448-0.691 0.321-1.085s-0.483-0.667-0.896-0.69c-0.073-0.004-0.148-0.006-0.221-0.006-1.77 0-3.275 1.156-3.8 2.753-1.41-0.485-2.955-0.753-4.575-0.753-6.487 0-11.771 4.289-11.992 9.65-0.117-0.004-0.236-0.004-0.357-0.004-1.365 0.023-1.565-1.584-1.63-2.656-0.129-1.195-1.934-1.212-2 0.019-0.232 0.77 0.019 1.966 0.245 2.693 0.523 1.702 1.996 2.51 3.667 2.656 0.137 0.010 0.269-0 0.396-0.026 0.387 1.349 1.101 2.592 2.070 3.667v0c0.082 0.091 0.166 0.18 0.252 0.269 0.451 0.529 1.349 1.823 1.349 3.731v2c0 1.105 1.343 2 3 2s3-0.895 3-2v-2.139c0.65 0.091 1.319 0.139 2 0.139s1.349-0.048 2-0.139v2.139c0 1.105 1.343 2 3 2s3-0.895 3-2v-2c0-1.908 0.898-3.202 1.349-3.731 0.085-0.088 0.169-0.178 0.251-0.268 0-0 0-0 0-0h-0c0.555-0.615 1.026-1.286 1.4-2h3.046c1.105 0 2-1.791 2-4s-0.895-4-2-4zM19 10h-6c-0.552 0-1-0.448-1-1s0.448-1 1-1h6c0.552 0 1 0.448 1 1s-0.448 1-1 1zM24 16c-1.105 0-2-0.895-2-2s0.895-2 2-2 2 0.895 2 2c0 1.105-0.895 2-2 2z"></path>
</svg>
