<?xml version="1.0" encoding="utf-8"?>
<!-- Generated by IcoMoon.io -->
<!DOCTYPE svg PUBLIC "-//W3C//DTD SVG 1.1//EN" "http://www.w3.org/Graphics/SVG/1.1/DTD/svg11.dtd">
<svg version="1.1" xmlns="http://www.w3.org/2000/svg" xmlns:xlink="http://www.w3.org/1999/xlink" width="32" height="32" viewBox="0 0 32 32">
<path fill="#444444" d="M29.364 2.636c-1.757-1.757-4.061-2.636-6.364-2.636s-4.606 0.878-6.364 2.636l-14 14c-3.515 3.515-3.515 9.213 0 12.728 1.757 1.757 4.061 2.636 6.364 2.636s4.607-0.879 6.364-2.636l14-14c3.515-3.515 3.515-9.213 0-12.728zM14.293 8.293l4-4c0.39-0.391 1.024-0.391 1.414 0s0.391 1.024 0 1.414l-4 4c-0.195 0.195-0.451 0.293-0.707 0.293s-0.512-0.098-0.707-0.293c-0.391-0.39-0.391-1.024 0-1.414zM13.508 27.508c-1.204 1.204-2.805 1.867-4.508 1.867s-3.304-0.663-4.508-1.867c-1.204-1.204-1.867-2.805-1.867-4.508s0.663-3.304 1.867-4.508l6.5-6.5 9.016 9.016-6.5 6.5z"></path>
</svg>
