<?xml version="1.0" encoding="utf-8"?>
<!-- Generated by IcoMoon.io -->
<!DOCTYPE svg PUBLIC "-//W3C//DTD SVG 1.1//EN" "http://www.w3.org/Graphics/SVG/1.1/DTD/svg11.dtd">
<svg version="1.1" xmlns="http://www.w3.org/2000/svg" xmlns:xlink="http://www.w3.org/1999/xlink" width="32" height="32" viewBox="0 0 32 32">
<path fill="#444444" d="M30 3c0 1.657-1.343 3-3 3s-3-1.343-3-3 1.343-3 3-3c1.657 0 3 1.343 3 3z"></path>
<path fill="#444444" d="M30.32 26.573l-5.957-5.574c-0.993-0.78-0.685-1-0.293-2 0.001-0.002 0.002-0.005 0.002-0.007 1.9-4.197 0.932-9.544-2.784-13.26-2.476-2.476-5.678-3.733-8.78-3.733-2.768 0-5.457 1-7.483 3.026-4.296 4.296-3.979 11.577 0.707 16.264 2.476 2.476 5.677 3.732 8.779 3.732 1.552 0 3.079-0.314 4.479-0.948 0.003-0.001 0.006-0.002 0.009-0.003 0.497-0.195 0.807-0.362 1.086-0.362 0.282 0 0.533 0.171 0.913 0.655l5.574 5.957c0.273 0.347 0.655 0.524 1.042 0.524 0.336 0 0.674-0.134 0.946-0.405l1.879-1.879c0.583-0.583 0.53-1.478-0.119-1.987v0zM10.229 21.771l11.542-11.542c0.344 0.711 0.603 1.457 0.772 2.228l-10.089 10.089c-0.575-0.127-1.143-0.306-1.702-0.539-0.177-0.074-0.351-0.153-0.524-0.236v0z"></path>
</svg>
