<?xml version="1.0" encoding="utf-8"?>
<!-- Generated by IcoMoon.io -->
<!DOCTYPE svg PUBLIC "-//W3C//DTD SVG 1.1//EN" "http://www.w3.org/Graphics/SVG/1.1/DTD/svg11.dtd">
<svg version="1.1" xmlns="http://www.w3.org/2000/svg" xmlns:xlink="http://www.w3.org/1999/xlink" width="32" height="32" viewBox="0 0 32 32">
<path fill="#444444" d="M30 14c-4.735 0-7.52 3.119-9.977 5.872-1.978 2.215-3.686 4.128-6.023 4.128-1.856 0-2-2.296-2-3v-4c0-0.552-0.448-1-1-1h-10c-0.552 0-1 0.448-1 1v4c0 4.607 1.234 7.825 3.669 9.564 2.011 1.436 4.253 1.436 5.331 1.436 2.981 0 5.673-1.068 8.232-3.266 2.166-1.861 3.896-4.212 5.57-6.486 2.467-3.353 4.598-6.248 7.199-6.248h2v-2h-2z"></path>
<path fill="#444444" d="M2.688 14c-0.165 0-0.325-0.082-0.419-0.228-0.128-0.197-0.102-0.457 0.064-0.624 1.060-1.071 1.642-2.216 1.779-3.499 0.122-1.144-0.11-2.244-0.334-3.307-0.315-1.494-0.613-2.905 0.223-4.085 0.809-1.141 2.595-1.857 5.623-2.253 0.206-0.027 0.406 0.076 0.505 0.258s0.075 0.406-0.060 0.564c-2.15 2.505-2.14 4.596-2.131 6.442 0.006 1.268 0.012 2.466-0.648 3.609-0.714 1.237-2.12 2.219-4.423 3.091-0.058 0.022-0.118 0.033-0.177 0.033z"></path>
</svg>
