<?xml version="1.0" encoding="utf-8"?>
<!-- Generated by IcoMoon.io -->
<!DOCTYPE svg PUBLIC "-//W3C//DTD SVG 1.1//EN" "http://www.w3.org/Graphics/SVG/1.1/DTD/svg11.dtd">
<svg version="1.1" xmlns="http://www.w3.org/2000/svg" xmlns:xlink="http://www.w3.org/1999/xlink" width="32" height="32" viewBox="0 0 32 32">
<path fill="#444444" d="M31.251 11.208l-29.691-11.134c-0.424-0.159-0.901-0.056-1.222 0.265s-0.423 0.798-0.265 1.222l11.134 29.691c0.169 0.452 0.601 0.749 1.081 0.749 0.015 0 0.031-0 0.046-0.001 5.157-0.207 10.012-2.335 13.671-5.994s5.787-8.514 5.994-13.671c0.020-0.498-0.282-0.952-0.748-1.127zM7.902 15.86c1.216-0.383 2.098-1.518 2.098-2.86 0-1.657-1.343-3-3-3-0.427 0-0.834 0.090-1.202 0.251l-2.672-7.124 24.713 9.268c-1.067 8.025-7.421 14.379-15.446 15.446l-4.492-11.98z"></path>
<path fill="#444444" d="M20 20c0 2.209-1.791 4-4 4s-4-1.791-4-4c0-2.209 1.791-4 4-4s4 1.791 4 4z"></path>
<path fill="#444444" d="M18 12c0 1.105-0.895 2-2 2s-2-0.895-2-2c0-1.105 0.895-2 2-2s2 0.895 2 2z"></path>
</svg>
