<?xml version="1.0" encoding="utf-8"?>
<!-- Generated by IcoMoon.io -->
<!DOCTYPE svg PUBLIC "-//W3C//DTD SVG 1.1//EN" "http://www.w3.org/Graphics/SVG/1.1/DTD/svg11.dtd">
<svg version="1.1" xmlns="http://www.w3.org/2000/svg" xmlns:xlink="http://www.w3.org/1999/xlink" width="32" height="32" viewBox="0 0 32 32">
<path fill="#444444" d="M31.557 7.018c-0.624-1.081-1.887-1.63-3.752-1.63-1.344 0-3.002 0.293-4.849 0.834-1.962-1.399-4.363-2.222-6.956-2.222-6.627 0-12 5.373-12 12 0 0.38 0.019 0.755 0.053 1.126-0.339 0.324-0.661 0.646-0.964 0.966-1.194 1.261-2.047 2.434-2.535 3.486-0.425 0.917-0.792 2.253-0.124 3.411 0.624 1.081 1.887 1.63 3.752 1.63 1.348 0 3.011-0.295 4.865-0.838 1.962 1.397 4.361 2.22 6.952 2.22 6.627 0 12-5.373 12-12 0-0.381-0.019-0.758-0.054-1.13 0.335-0.32 0.653-0.638 0.952-0.954 1.194-1.261 2.047-2.434 2.535-3.487 0.425-0.917 0.792-2.253 0.124-3.411zM27.219 12.325c-2.204 2.327-5.508 4.815-9.303 7.007-5.233 3.022-10.624 4.974-13.733 4.974-1.089 0-1.618-0.245-1.75-0.473-0.237-0.411 0.161-1.809 2.193-3.999 0.246 0.731 0.561 1.431 0.937 2.091 2.538-0.421 6.602-1.871 11.227-4.542 3.613-2.086 6.736-4.432 8.795-6.605 0.297-0.313 0.548-0.601 0.76-0.861-0.388-0.658-0.837-1.276-1.339-1.846 1.055-0.241 2.002-0.37 2.799-0.37 1.088 0 1.618 0.245 1.75 0.473 0.243 0.421-0.179 1.873-2.335 4.151z"></path>
</svg>
