<?xml version="1.0" encoding="utf-8"?>
<!-- Generated by IcoMoon.io -->
<!DOCTYPE svg PUBLIC "-//W3C//DTD SVG 1.1//EN" "http://www.w3.org/Graphics/SVG/1.1/DTD/svg11.dtd">
<svg version="1.1" xmlns="http://www.w3.org/2000/svg" xmlns:xlink="http://www.w3.org/1999/xlink" width="32" height="32" viewBox="0 0 32 32">
<path fill="#444444" d="M31.585 7.002c-0.62-1.073-1.876-1.618-3.735-1.618-1.355 0-3.027 0.297-4.891 0.845-1.964-1.403-4.367-2.229-6.959-2.229-6.617 0-12 5.383-12 12 0 0.385 0.019 0.765 0.055 1.141-0.344 0.328-0.67 0.654-0.977 0.978-1.195 1.262-2.049 2.436-2.538 3.489-0.423 0.913-0.789 2.241-0.126 3.39 0.62 1.073 1.876 1.618 3.735 1.618 1.354 0 3.027-0.297 4.891-0.846 1.964 1.403 4.367 2.23 6.96 2.23 6.617 0 12-5.383 12-12 0-0.385-0.019-0.765-0.055-1.141 0.344-0.328 0.67-0.654 0.977-0.978 1.195-1.262 2.049-2.436 2.538-3.489 0.423-0.912 0.789-2.241 0.126-3.39zM16 6c4.765 0 8.761 3.35 9.759 7.818-2.095 1.886-4.799 3.813-7.814 5.553-3.005 1.735-6.061 3.118-8.713 3.985-1.986-1.829-3.233-4.449-3.233-7.356 0-5.514 4.486-10 10-10zM2.363 23.873c-0.211-0.366-0.004-1.688 2.246-4.097 0.521 1.567 1.357 2.992 2.433 4.199-1.092 0.254-2.072 0.391-2.892 0.391-1.107 0-1.649-0.255-1.786-0.493zM16 26c-1.611 0-3.135-0.384-4.484-1.064 2.39-0.9 4.979-2.13 7.555-3.617 2.565-1.481 4.925-3.101 6.911-4.73-0.306 5.241-4.666 9.41-9.982 9.41zM27.391 12.224c-0.521-1.568-1.357-2.992-2.433-4.199 1.092-0.255 2.072-0.391 2.892-0.391 1.107 0 1.649 0.255 1.786 0.493 0.211 0.366 0.004 1.688-2.246 4.097z"></path>
</svg>
