<?xml version="1.0" encoding="utf-8"?>
<!-- Generated by IcoMoon.io -->
<!DOCTYPE svg PUBLIC "-//W3C//DTD SVG 1.1//EN" "http://www.w3.org/Graphics/SVG/1.1/DTD/svg11.dtd">
<svg version="1.1" xmlns="http://www.w3.org/2000/svg" xmlns:xlink="http://www.w3.org/1999/xlink" width="32" height="32" viewBox="0 0 32 32">
<path fill="#444444" d="M1.034 26h29.932c0.552 0 1-0.448 1-1v-2c0-0.022-0.001-0.044-0.002-0.066-0.266-4.046-2.045-7.809-5.008-10.595-2.487-2.338-5.611-3.797-8.956-4.215v-2.125h1c0.552 0 1-0.448 1-1s-0.448-1-1-1h-6c-0.552 0-1 0.448-1 1s0.448 1 1 1h1v2.125c-3.344 0.418-6.469 1.877-8.956 4.215-2.963 2.786-4.742 6.548-5.008 10.595-0.001 0.022-0.002 0.044-0.002 0.066v2c0 0.552 0.448 1 1 1z"></path>
<path fill="#444444" d="M31 28h-30c-0.552 0-1 0.448-1 1s0.448 1 1 1h30c0.552 0 1-0.448 1-1s-0.448-1-1-1z"></path>
</svg>
