<?xml version="1.0" encoding="utf-8"?>
<!-- Generated by IcoMoon.io -->
<!DOCTYPE svg PUBLIC "-//W3C//DTD SVG 1.1//EN" "http://www.w3.org/Graphics/SVG/1.1/DTD/svg11.dtd">
<svg version="1.1" xmlns="http://www.w3.org/2000/svg" xmlns:xlink="http://www.w3.org/1999/xlink" width="32" height="32" viewBox="0 0 32 32">
<path fill="#444444" d="M26 0h-4v22.285c-0.626-0.184-1.299-0.285-2-0.285-3.314 0-6 2.239-6 5s2.686 5 6 5c3.314 0 6-2.239 6-5v-21l6 2v-4l-6-4z"></path>
<path fill="#444444" d="M10.063 28h-10.063v4h11.678c-0.879-1.192-1.437-2.565-1.615-4z"></path>
<path fill="#444444" d="M11.678 22h-11.678v4h10.063c0.178-1.435 0.736-2.808 1.615-4z"></path>
<path fill="#444444" d="M18 18.179v-2.179h-18v4h13.7c1.255-0.914 2.728-1.535 4.3-1.821z"></path>
<path fill="#444444" d="M0 10h18v4h-18v-4z"></path>
<path fill="#444444" d="M0 4h18v4h-18v-4z"></path>
</svg>
