<?xml version="1.0" encoding="utf-8"?>
<!-- Generated by IcoMoon.io -->
<!DOCTYPE svg PUBLIC "-//W3C//DTD SVG 1.1//EN" "http://www.w3.org/Graphics/SVG/1.1/DTD/svg11.dtd">
<svg version="1.1" xmlns="http://www.w3.org/2000/svg" xmlns:xlink="http://www.w3.org/1999/xlink" width="32" height="32" viewBox="0 0 32 32">
<path fill="#444444" d="M22.5 18.5l5.5-5.5-2-2-5.5 5.5-5-5 5.5-5.5-2-2-5.5 5.5-3.439-3.439c-0.583-0.583-1.511-0.611-2.061-0.061s-0.523 1.477 0.061 2.061l2.283 2.283-4 4c-2.636 2.636-3.048 6.653-1.236 9.721l-4.521 4.521c-0.781 0.781-0.781 2.047 0 2.828 0.391 0.391 0.902 0.586 1.414 0.586s1.024-0.195 1.414-0.586l4.521-4.521c3.068 1.812 7.085 1.4 9.721-1.236l4-4 2.282 2.282c0.583 0.583 1.511 0.611 2.061 0.061s0.523-1.477-0.061-2.061l-3.439-3.439z"></path>
</svg>
