<?xml version="1.0" encoding="utf-8"?>
<!-- Generated by IcoMoon.io -->
<!DOCTYPE svg PUBLIC "-//W3C//DTD SVG 1.1//EN" "http://www.w3.org/Graphics/SVG/1.1/DTD/svg11.dtd">
<svg version="1.1" xmlns="http://www.w3.org/2000/svg" xmlns:xlink="http://www.w3.org/1999/xlink" width="32" height="32" viewBox="0 0 32 32">
<path fill="#444444" d="M28.5 0h-27c-0.825 0-1.5 0.675-1.5 1.5v23c0 0.825 0.675 1.5 1.5 1.5h8.909l-4.080 4.079c-0.439 0.439-0.439 1.152 0 1.591 0.22 0.22 0.508 0.33 0.795 0.33s0.576-0.11 0.795-0.329l5.67-5.671h0.409v5c0 0.552 0.448 1 1 1s1-0.448 1-1v-5h0.409l5.671 5.671c0.22 0.22 0.508 0.329 0.795 0.329s0.576-0.11 0.796-0.329c0.439-0.439 0.439-1.152 0-1.591l-4.080-4.080h8.909c0.825 0 1.5-0.675 1.5-1.5v-23c0-0.825-0.675-1.5-1.5-1.5zM12 6l8 5-8 5v-10zM25 22h-20c-0.552 0-1-0.448-1-1s0.448-1 1-1h20c0.552 0 1 0.448 1 1s-0.448 1-1 1z"></path>
</svg>
