<?xml version="1.0" encoding="utf-8"?>
<!-- Generated by IcoMoon.io -->
<!DOCTYPE svg PUBLIC "-//W3C//DTD SVG 1.1//EN" "http://www.w3.org/Graphics/SVG/1.1/DTD/svg11.dtd">
<svg version="1.1" xmlns="http://www.w3.org/2000/svg" xmlns:xlink="http://www.w3.org/1999/xlink" width="40" height="32" viewBox="0 0 40 32">
<path fill="#444444" d="M38 2v11.5c0 0.295-0.266 0.938-0.475 1.146l-14.525 14.525-12.172-12.172 14.525-14.525c0.209-0.209 0.851-0.475 1.146-0.475h11.5zM38.5 0h-12c-0.825 0-1.977 0.477-2.561 1.061l-14.879 14.879c-0.583 0.583-0.583 1.538 0 2.121l12.879 12.879c0.292 0.292 0.676 0.438 1.061 0.438s0.769-0.146 1.061-0.438l14.879-14.879c0.583-0.583 1.061-1.736 1.061-2.561v-12c0-0.825-0.675-1.5-1.5-1.5v0z"></path>
<path fill="#444444" d="M34 9c0 1.657-1.343 3-3 3s-3-1.343-3-3c0-1.657 1.343-3 3-3s3 1.343 3 3z"></path>
<path fill="#444444" d="M19.828 0h-1.328c-0.825 0-1.977 0.477-2.561 1.061l-14.879 14.879c-0.583 0.583-0.583 1.538 0 2.121l12.879 12.879c0.292 0.292 0.676 0.438 1.061 0.438s0.769-0.146 1.061-0.438l0.354-0.354-13.586-13.586 17-17z"></path>
</svg>
