<?xml version="1.0" encoding="utf-8"?>
<!-- Generated by IcoMoon.io -->
<!DOCTYPE svg PUBLIC "-//W3C//DTD SVG 1.1//EN" "http://www.w3.org/Graphics/SVG/1.1/DTD/svg11.dtd">
<svg version="1.1" xmlns="http://www.w3.org/2000/svg" xmlns:xlink="http://www.w3.org/1999/xlink" width="32" height="32" viewBox="0 0 32 32">
<path fill="#444444" d="M19 22h-6c-0.552 0-1 0.448-1 1s0.448 1 1 1h6c0.552 0 1-0.448 1-1s-0.448-1-1-1z"></path>
<path fill="#444444" d="M21 26h-10c-0.552 0-1 0.448-1 1s0.448 1 1 1h10c0.552 0 1-0.448 1-1s-0.448-1-1-1z"></path>
<path fill="#444444" d="M31.832 14.445l-4-6c-0.185-0.278-0.498-0.445-0.832-0.445h-3v-7c0-0.552-0.448-1-1-1h-14c-0.552 0-1 0.448-1 1v7h-3c-0.334 0-0.647 0.167-0.832 0.445l-4 6c-0.11 0.164-0.168 0.357-0.168 0.555v10c0 0.552 0.448 1 1 1h4.613l-1.561 4.684c-0.102 0.305-0.051 0.64 0.137 0.901s0.49 0.415 0.811 0.415h22c0.322 0 0.623-0.155 0.811-0.415s0.239-0.596 0.137-0.901l-1.561-4.684h4.613c0.552 0 1-0.448 1-1v-10c0-0.197-0.058-0.39-0.168-0.555zM10 2h12v8h-12v-8zM6.387 30l3.333-10h12.558l3.333 10h-19.225z"></path>
</svg>
