<?xml version="1.0" encoding="utf-8"?>
<!-- Generated by IcoMoon.io -->
<!DOCTYPE svg PUBLIC "-//W3C//DTD SVG 1.1//EN" "http://www.w3.org/Graphics/SVG/1.1/DTD/svg11.dtd">
<svg version="1.1" xmlns="http://www.w3.org/2000/svg" xmlns:xlink="http://www.w3.org/1999/xlink" width="32" height="32" viewBox="0 0 32 32">
<path fill="#444444" d="M6.586 18l7.707-7.707c0.286-0.286 0.716-0.372 1.090-0.217s0.617 0.519 0.617 0.924v7.586l4.293-4.293c0.286-0.286 0.716-0.372 1.090-0.217s0.617 0.52 0.617 0.924v3h7.746c1.362-2.266 2.254-4.785 2.254-7.5 0-4.694-3.806-8.5-8.5-8.5-3.247 0-6.069 1.821-7.5 4.497-1.431-2.676-4.253-4.497-7.5-4.497-4.694 0-8.5 3.806-8.5 8.5 0 2.715 0.892 5.234 2.254 7.5h4.332z"></path>
<path fill="#444444" d="M21 20c-0.552 0-1-0.448-1-1v-1.586l-4.293 4.293c-0.191 0.191-0.447 0.293-0.707 0.293-0.129 0-0.259-0.025-0.383-0.076-0.374-0.155-0.617-0.519-0.617-0.924v-7.586l-6.293 6.293c-0.188 0.188-0.442 0.293-0.707 0.293h-3.38c4.72 6.17 12.38 10 12.38 10s7.66-3.83 12.38-10h-7.38z"></path>
</svg>
