<?xml version="1.0" encoding="utf-8"?>
<!-- Generated by IcoMoon.io -->
<!DOCTYPE svg PUBLIC "-//W3C//DTD SVG 1.1//EN" "http://www.w3.org/Graphics/SVG/1.1/DTD/svg11.dtd">
<svg version="1.1" xmlns="http://www.w3.org/2000/svg" xmlns:xlink="http://www.w3.org/1999/xlink" width="32" height="32" viewBox="0 0 32 32">
<path fill="#444444" d="M15.001 30c-0.034 0-0.069-0.002-0.103-0.005-0.452-0.047-0.816-0.393-0.886-0.843l-3.19-20.738-2.845 12.803c-0.102 0.457-0.508 0.783-0.976 0.783h-6c-0.552 0-1-0.448-1-1s0.448-1 1-1h5.198l3.826-17.217c0.104-0.47 0.528-0.798 1.009-0.783s0.882 0.372 0.955 0.847l3.418 22.219 4.657-12.418c0.149-0.397 0.532-0.657 0.955-0.649s0.796 0.282 0.93 0.684l3.051 9.154 1.051-3.154c0.136-0.408 0.518-0.684 0.949-0.684h4c0.552 0 1 0.448 1 1s-0.448 1-1 1h-3.279l-1.772 5.316c-0.136 0.408-0.518 0.684-0.949 0.684s-0.813-0.275-0.949-0.684l-3.107-9.32-5.008 13.355c-0.147 0.393-0.523 0.649-0.936 0.649z"></path>
</svg>
