<?xml version="1.0" encoding="utf-8"?>
<!-- Generated by IcoMoon.io -->
<!DOCTYPE svg PUBLIC "-//W3C//DTD SVG 1.1//EN" "http://www.w3.org/Graphics/SVG/1.1/DTD/svg11.dtd">
<svg version="1.1" xmlns="http://www.w3.org/2000/svg" xmlns:xlink="http://www.w3.org/1999/xlink" width="32" height="32" viewBox="0 0 32 32">
<path fill="#444444" d="M16 26c-1.105 0-2-0.895-2-2v-2.055c0-2.819 2.249-4.953 4.424-7.017 1.758-1.668 3.576-3.394 3.576-4.928 0-2.986-2.164-6-7-6-3.574 0-6.565 2.674-6.957 6.22-0.121 1.098-1.109 1.89-2.208 1.768s-1.889-1.11-1.768-2.208c0.296-2.675 1.564-5.145 3.571-6.953 2.023-1.823 4.637-2.827 7.362-2.827 2.949 0 5.668 0.927 7.656 2.61 2.156 1.825 3.344 4.45 3.344 7.39 0 3.253-2.562 5.684-4.823 7.829-1.489 1.413-3.177 3.015-3.177 4.116l0 2.055c0 1.105-0.895 2-2 2z"></path>
<path fill="#444444" d="M18 30c0 1.105-0.895 2-2 2s-2-0.895-2-2c0-1.105 0.895-2 2-2s2 0.895 2 2z"></path>
</svg>
