<?xml version="1.0" encoding="utf-8"?>
<!-- Generated by IcoMoon.io -->
<!DOCTYPE svg PUBLIC "-//W3C//DTD SVG 1.1//EN" "http://www.w3.org/Graphics/SVG/1.1/DTD/svg11.dtd">
<svg version="1.1" xmlns="http://www.w3.org/2000/svg" xmlns:xlink="http://www.w3.org/1999/xlink" width="32" height="32" viewBox="0 0 32 32">
<path fill="#444444" d="M0 32c0-4.582 0.755-9.397 2.243-13.326 1.439-3.798 3.527-7.148 6.207-9.957 2.654-2.782 5.804-4.947 9.364-6.436 3.618-1.514 7.549-2.281 11.685-2.281 0.17 0 0.328 0.086 0.42 0.229s0.105 0.323 0.035 0.478c-1.044 2.296-3.703 4.424-7.904 6.325-0.596 0.27-1.187 0.518-1.758 0.745 0.39-0.014 0.786-0.021 1.189-0.021 2.352 0 4.020 0.239 4.090 0.25 0.168 0.024 0.312 0.132 0.382 0.287s0.058 0.334-0.033 0.477c-1.51 2.373-4.808 4.563-9.803 6.51-0.411 0.16-0.818 0.312-1.215 0.456 0.292-0.009 0.585-0.013 0.876-0.013 2.326 0 3.756 0.276 3.816 0.288 0.172 0.034 0.314 0.156 0.374 0.321s0.028 0.35-0.084 0.486c-4.559 5.572-7.674 7.183-13.887 7.183-1.415 0-2.516 1.228-3.273 3.649-0.6 1.92-0.727 4.351-0.727 4.351z"></path>
</svg>
