<?xml version="1.0" encoding="utf-8"?>
<!-- Generated by IcoMoon.io -->
<!DOCTYPE svg PUBLIC "-//W3C//DTD SVG 1.1//EN" "http://www.w3.org/Graphics/SVG/1.1/DTD/svg11.dtd">
<svg version="1.1" xmlns="http://www.w3.org/2000/svg" xmlns:xlink="http://www.w3.org/1999/xlink" width="32" height="32" viewBox="0 0 32 32">
<path fill="#444444" d="M31.828 0.439c-0.186-0.275-0.496-0.439-0.828-0.439-4.353 0-8.459 0.699-12.205 2.077-3.771 1.388-7.089 3.431-9.86 6.074-5.845 5.573-8.935 13.849-8.935 23.849h3c0-1.848 1.463-8 4-8 1.554 0 4.621-0.153 7.691-1.176 3.302-1.101 5.713-2.887 7.166-5.309 0.156-0.26 0.186-0.577 0.080-0.861s-0.334-0.506-0.622-0.602c-0.040-0.013-0.673-0.22-1.804-0.363 3.203-1.437 6.755-3.523 8.346-6.174 0.163-0.272 0.188-0.604 0.066-0.897s-0.374-0.511-0.681-0.587c-0.054-0.013-0.957-0.236-2.326-0.371 3.747-1.909 6.106-4.023 7.012-6.287 0.123-0.308 0.086-0.657-0.1-0.932zM23.829 5.968c-2.644 1.325-5.092 2.067-5.116 2.075-0.52 0.156-0.821 0.699-0.677 1.223s0.68 0.837 1.207 0.705c1.1-0.275 2.315-0.415 3.609-0.415 0.893 0 1.701 0.067 2.347 0.148-1.383 1.458-3.663 2.906-6.703 4.246-3.024 1.333-5.732 2.079-5.759 2.086-0.52 0.142-0.834 0.67-0.71 1.195s0.641 0.856 1.169 0.751c1.41-0.282 2.79-0.425 4.1-0.425 0.789 0 1.455 0.053 1.981 0.12-3.469 3.991-10.164 4.325-12.278 4.325-2.371 0-3.825 2.041-4.672 3.994 0.896-6.62 3.612-12.223 7.987-16.395 2.573-2.453 5.658-4.352 9.171-5.645 3.012-1.108 6.28-1.75 9.736-1.913-1.076 1.343-2.905 2.679-5.393 3.926z"></path>
</svg>
