<?xml version="1.0" encoding="utf-8"?>
<!-- Generated by IcoMoon.io -->
<!DOCTYPE svg PUBLIC "-//W3C//DTD SVG 1.1//EN" "http://www.w3.org/Graphics/SVG/1.1/DTD/svg11.dtd">
<svg version="1.1" xmlns="http://www.w3.org/2000/svg" xmlns:xlink="http://www.w3.org/1999/xlink" width="32" height="32" viewBox="0 0 32 32">
<path fill="#444444" d="M22 8c0 3.314-2.686 6-6 6s-6-2.686-6-6c0-3.314 2.686-6 6-6s6 2.686 6 6z"></path>
<path fill="#444444" d="M19 20c0.552 0 1-0.448 1-1s-0.448-1-1-1h-6c-0.552 0-1 0.448-1 1v12c0 0.552 0.448 1 1 1h6c0.552 0 1-0.448 1-1s-0.448-1-1-1h-5v-4h5c0.552 0 1-0.448 1-1s-0.448-1-1-1h-5v-4h5z"></path>
<path fill="#444444" d="M8 22c0-2.206-1.794-4-4-4h-3c-0.552 0-1 0.448-1 1v12c0 0.552 0.448 1 1 1s1-0.448 1-1v-5h1.382l2.724 5.447c0.175 0.35 0.528 0.553 0.895 0.553 0.15 0 0.303-0.034 0.446-0.106 0.494-0.247 0.694-0.848 0.447-1.342l-2.418-4.836c1.477-0.589 2.524-2.032 2.524-3.716zM4 24h-2v-4h2c1.103 0 2 0.897 2 2s-0.897 2-2 2z"></path>
<path fill="#444444" d="M31 30h-3c-1.103 0-2-0.897-2-2v-6c0-1.103 0.897-2 2-2h3c0.552 0 1-0.448 1-1s-0.448-1-1-1h-3c-2.206 0-4 1.794-4 4v6c0 2.206 1.794 4 4 4h3c0.552 0 1-0.448 1-1s-0.448-1-1-1z"></path>
</svg>
