<?xml version="1.0" encoding="utf-8"?>
<!-- Generated by IcoMoon.io -->
<!DOCTYPE svg PUBLIC "-//W3C//DTD SVG 1.1//EN" "http://www.w3.org/Graphics/SVG/1.1/DTD/svg11.dtd">
<svg version="1.1" xmlns="http://www.w3.org/2000/svg" xmlns:xlink="http://www.w3.org/1999/xlink" width="32" height="32" viewBox="0 0 32 32">
<path fill="#444444" d="M30.299 0h-22.47c-1.123 0-2.212 0.885-2.419 1.966l-5.375 28.069c-0.207 1.081 0.543 1.966 1.666 1.966h22.47c1.124 0 2.212-0.885 2.419-1.966l5.375-28.069c0.207-1.081-0.543-1.966-1.666-1.966zM23.928 18.268c0.957 0.552 1.284 1.776 0.732 2.732s-1.775 1.284-2.732 0.732c-1.618-0.934-3.394-2.463-4.829-3.829 0.465 1.925 0.901 4.229 0.901 6.096 0 1.105-0.895 2-2 2s-2-0.895-2-2c0-1.868 0.436-4.171 0.901-6.096-1.435 1.365-3.212 2.895-4.829 3.828-0.957 0.552-2.18 0.224-2.732-0.732s-0.225-2.18 0.732-2.732c1.618-0.934 3.83-1.708 5.73-2.268-1.9-0.56-4.113-1.334-5.73-2.268-0.957-0.552-1.284-1.776-0.732-2.732s1.776-1.284 2.732-0.732c1.618 0.934 3.394 2.463 4.829 3.829-0.465-1.925-0.901-4.229-0.901-6.096 0-1.105 0.895-2 2-2s2 0.895 2 2c0 1.868-0.436 4.171-0.901 6.096 1.435-1.365 3.212-2.895 4.829-3.829 0.957-0.552 2.18-0.225 2.732 0.732s0.224 2.18-0.732 2.732c-1.618 0.934-3.83 1.708-5.73 2.268 1.9 0.56 4.113 1.334 5.73 2.268z"></path>
</svg>
