<?xml version="1.0" encoding="utf-8"?>
<!-- Generated by IcoMoon.io -->
<!DOCTYPE svg PUBLIC "-//W3C//DTD SVG 1.1//EN" "http://www.w3.org/Graphics/SVG/1.1/DTD/svg11.dtd">
<svg version="1.1" xmlns="http://www.w3.org/2000/svg" xmlns:xlink="http://www.w3.org/1999/xlink" width="32" height="32" viewBox="0 0 32 32">
<path fill="#444444" d="M27.243 14.030l-11.243-2.811v-2.98c2.024 1.169 3.704 1.761 5 1.761 2.757 0 5-2.243 5-5s-2.243-5-5-5c-1.415 0-3.288 0.707-5.568 2.099-0.131-0.063-0.277-0.099-0.432-0.099h-4c-0.155 0-0.301 0.036-0.432 0.099-2.28-1.393-4.153-2.099-5.568-2.099-2.757 0-5 2.243-5 5s2.243 5 5 5c1.296 0 2.976-0.592 5-1.761v9.999l-3.232-3.878c-0.327-0.393-0.898-0.475-1.323-0.192l-3 2c-0.45 0.3-0.58 0.903-0.293 1.362l5 8c0.040 0.064 0.087 0.124 0.141 0.177l6 6c0.188 0.188 0.442 0.293 0.707 0.293h10c0.379 0 0.725-0.214 0.895-0.553l3-6c0.069-0.139 0.105-0.292 0.105-0.447v-10c0-0.459-0.312-0.859-0.757-0.97zM24 5c0 1.654-1.346 3-3 3-1.346 0-3.355-1.051-5-2.1v-1.8c1.645-1.049 3.654-2.1 5-2.1 1.654 0 3 1.346 3 3zM5 8c-1.654 0-3-1.346-3-3s1.346-3 3-3c1.346 0 3.355 1.051 5 2.1v1.8c-1.645 1.049-3.654 2.1-5 2.1zM26 24.764l-2.618 5.236h-8.968l-5.627-5.627-4.425-7.080 1.444-0.963 4.425 5.31c0.27 0.323 0.713 0.444 1.109 0.3s0.66-0.519 0.66-0.94v-14.029c0.394-0.271 0.734-0.516 1-0.713 0.266 0.197 0.606 0.443 1 0.713v12.029c0 0.552 0.448 1 1 1s1-0.448 1-1v-5.719l2 0.5v5.219c0 0.552 0.448 1 1 1s1-0.448 1-1v-4.719l2 0.5v6.219c0 0.552 0.448 1 1 1s1-0.448 1-1v-5.719l2 0.5v8.983z"></path>
</svg>
