<?xml version="1.0" encoding="utf-8"?>
<!-- Generated by IcoMoon.io -->
<!DOCTYPE svg PUBLIC "-//W3C//DTD SVG 1.1//EN" "http://www.w3.org/Graphics/SVG/1.1/DTD/svg11.dtd">
<svg version="1.1" xmlns="http://www.w3.org/2000/svg" xmlns:xlink="http://www.w3.org/1999/xlink" width="32" height="32" viewBox="0 0 32 32">
<path fill="#444444" d="M30 0h-26c-1.105 0-2 0.895-2 2v2h-1c-0.552 0-1 0.448-1 1v6c0 0.552 0.448 1 1 1h1v8h-1c-0.552 0-1 0.448-1 1v6c0 0.552 0.448 1 1 1h1v2c0 1.105 0.895 2 2 2h26c1.105 0 2-0.895 2-2v-28c0-1.105-0.895-2-2-2zM28 28h-22v-24h22v24z"></path>
<path fill="#444444" d="M20 17c0 1.657-1.343 3-3 3s-3-1.343-3-3c0-1.657 1.343-3 3-3s3 1.343 3 3z"></path>
<path fill="#444444" d="M8 6v20h18v-20h-18zM17 22c-2.761 0-5-2.239-5-5s2.239-5 5-5 5 2.239 5 5-2.239 5-5 5z"></path>
</svg>
