<?xml version="1.0" encoding="utf-8"?>
<!-- Generated by IcoMoon.io -->
<!DOCTYPE svg PUBLIC "-//W3C//DTD SVG 1.1//EN" "http://www.w3.org/Graphics/SVG/1.1/DTD/svg11.dtd">
<svg version="1.1" xmlns="http://www.w3.org/2000/svg" xmlns:xlink="http://www.w3.org/1999/xlink" width="32" height="32" viewBox="0 0 32 32">
<path fill="#444444" d="M31.945 1.251c0.117-0.33 0.044-0.712-0.22-0.976s-0.646-0.337-0.976-0.22l-0.001-0.001-10.981 3.902c-0.677-0.467-1.355-0.892-2.029-1.269-2.249-1.256-4.341-1.92-6.052-1.92-1.358 0-2.5 0.424-3.302 1.226-0.402 0.402-0.704 0.88-0.908 1.424-0.947 2.035-1.477 4.304-1.477 6.696 0 8.774 7.113 15.887 15.887 15.887 2.402 0 4.679-0.534 6.72-1.488 0.538-0.206 1.010-0.506 1.4-0.897 1.514-1.513 1.626-4.098 0.317-7.277-0.548-1.33-1.322-2.719-2.279-4.106l3.9-10.98zM24.117 17.686c-0.173 0.488 0.082 1.024 0.57 1.197 0.104 0.037 0.21 0.054 0.314 0.054 0.386 0 0.747-0.24 0.883-0.624l1.305-3.673c0.528 0.869 0.97 1.727 1.311 2.555 0.854 2.075 0.967 3.782 0.294 4.455-0.29 0.29-0.764 0.436-1.409 0.436-2.319 0-6.639-1.981-11.064-6.407-2.603-2.603-4.619-5.451-5.677-8.019-0.854-2.075-0.967-3.782-0.294-4.455 0.289-0.289 0.764-0.436 1.409-0.436 1.329 0 3.316 0.651 5.603 2.041l-3.675 1.306c-0.488 0.173-0.743 0.709-0.569 1.197s0.709 0.743 1.197 0.569l13.149-4.672-9.126 9.126c-0.366 0.366-0.366 0.96 0 1.326 0.183 0.183 0.423 0.275 0.663 0.275s0.48-0.091 0.663-0.275l9.126-9.126-4.672 13.149z"></path>
<path fill="#444444" d="M18 31v-1c0-0.495-0.060-0.976-0.173-1.436-3.015-0.657-5.818-2.046-8.194-4.079-2.136 0.918-3.633 3.042-3.633 5.515v1c0 0.552 0.448 1 1 1h10c0.552 0 1-0.448 1-1z"></path>
</svg>
