<?xml version="1.0" encoding="utf-8"?>
<!-- Generated by IcoMoon.io -->
<!DOCTYPE svg PUBLIC "-//W3C//DTD SVG 1.1//EN" "http://www.w3.org/Graphics/SVG/1.1/DTD/svg11.dtd">
<svg version="1.1" xmlns="http://www.w3.org/2000/svg" xmlns:xlink="http://www.w3.org/1999/xlink" width="32" height="32" viewBox="0 0 32 32">
<path fill="#444444" d="M30 0c-1.105 0-2 0.895-2 2 0 0.35 0.090 0.68 0.249 0.966l-11.001 7.862c1.068 1.526 2.398 2.855 3.924 3.924l7.862-11.001c0.287 0.158 0.616 0.249 0.966 0.249 1.105 0 2-0.895 2-2s-0.895-2-2-2z"></path>
<path fill="#444444" d="M26.952 10.749l-1.238 1.732c1.21 1.597 2.164 3.205 2.786 4.715 0.854 2.075 0.967 3.782 0.294 4.455-0.29 0.29-0.764 0.436-1.41 0.436-2.319 0-6.639-1.981-11.065-6.407-2.603-2.603-4.619-5.451-5.677-8.019-0.854-2.075-0.967-3.782-0.294-4.455 0.289-0.289 0.764-0.436 1.409-0.436 1.733 0 4.585 1.107 7.762 3.514l1.729-1.236c-1.162-0.912-2.344-1.71-3.511-2.362-2.249-1.256-4.341-1.92-6.052-1.92-1.358 0-2.5 0.424-3.302 1.226-0.402 0.402-0.704 0.88-0.908 1.424-0.947 2.035-1.477 4.304-1.477 6.696 0 8.774 7.113 15.887 15.887 15.887 2.402 0 4.679-0.534 6.72-1.488 0.538-0.206 1.010-0.506 1.4-0.897 1.514-1.513 1.626-4.098 0.317-7.277-0.743-1.805-1.903-3.718-3.372-5.588z"></path>
<path fill="#444444" d="M18 31v-1c0-0.495-0.060-0.976-0.173-1.436-3.015-0.657-5.818-2.046-8.194-4.079-2.136 0.918-3.633 3.042-3.633 5.515v1c0 0.552 0.448 1 1 1h10c0.552 0 1-0.448 1-1z"></path>
</svg>
