<?xml version="1.0" encoding="utf-8"?>
<!-- Generated by IcoMoon.io -->
<!DOCTYPE svg PUBLIC "-//W3C//DTD SVG 1.1//EN" "http://www.w3.org/Graphics/SVG/1.1/DTD/svg11.dtd">
<svg version="1.1" xmlns="http://www.w3.org/2000/svg" xmlns:xlink="http://www.w3.org/1999/xlink" width="32" height="32" viewBox="0 0 32 32">
<path fill="#444444" d="M27 2h-24c-1.65 0-3 1.35-3 3v24c0 1.65 1.35 3 3 3h24c1.65 0 3-1.35 3-3v-24c0-1.65-1.35-3-3-3zM21 16h-5v-7c0-0.552-0.448-1-1-1s-1 0.448-1 1v7h-5l-3.866-3.866c1.796-3.634 5.539-6.134 9.866-6.134s8.071 2.5 9.866 6.134l-3.866 3.866z"></path>
</svg>
