<?xml version="1.0" encoding="utf-8"?>
<!-- Generated by IcoMoon.io -->
<!DOCTYPE svg PUBLIC "-//W3C//DTD SVG 1.1//EN" "http://www.w3.org/Graphics/SVG/1.1/DTD/svg11.dtd">
<svg version="1.1" xmlns="http://www.w3.org/2000/svg" xmlns:xlink="http://www.w3.org/1999/xlink" width="32" height="32" viewBox="0 0 32 32">
<path fill="#444444" d="M26.004 29.317v0l-4.32-8.658 8.555-1.479-20.238-15.179v25.298l6.317-5.957 4.321 8.658z"></path>
<path fill="#444444" d="M2 21v-18c0-0.542 0.458-1 1-1h22c0.542 0 1 0.458 1 1v8l2 1.5v-9.5c0-1.65-1.35-3-3-3h-22c-1.65 0-3 1.35-3 3v18c0 1.65 1.35 3 3 3h3v-2h-3c-0.542 0-1-0.458-1-1z"></path>
</svg>
