<?xml version="1.0" encoding="utf-8"?>
<!-- Generated by IcoMoon.io -->
<!DOCTYPE svg PUBLIC "-//W3C//DTD SVG 1.1//EN" "http://www.w3.org/Graphics/SVG/1.1/DTD/svg11.dtd">
<svg version="1.1" xmlns="http://www.w3.org/2000/svg" xmlns:xlink="http://www.w3.org/1999/xlink" width="32" height="32" viewBox="0 0 32 32">
<path fill="#444444" d="M16 3.278l9 4.909-0 6.813c0 1.906-0.235 3.568-0.717 5.081-0.465 1.456-1.15 2.739-2.094 3.919-1.398 1.748-3.329 3.234-6.188 4.75-2.86-1.516-4.79-3.003-6.188-4.75-0.945-1.181-1.63-2.463-2.095-3.919-0.483-1.513-0.717-3.175-0.717-5.081v-6.813l9-4.909zM16 0c-0.165 0-0.33 0.041-0.479 0.122l-11 6c-0.321 0.175-0.521 0.512-0.521 0.878v8c0 4.4 1.135 7.957 3.469 10.875 1.824 2.28 4.317 4.136 8.084 6.020 0.141 0.070 0.294 0.106 0.447 0.106s0.306-0.035 0.447-0.106c3.767-1.883 6.26-3.74 8.084-6.020 2.334-2.918 3.469-6.475 3.469-10.875l0-8c0-0.366-0.2-0.703-0.521-0.878l-11-6c-0.149-0.081-0.314-0.122-0.479-0.122v0z"></path>
<path fill="#444444" d="M10 9.968v5.032c0 1.592 0.188 2.956 0.575 4.169 0.351 1.101 0.868 2.068 1.579 2.957 0.912 1.14 2.127 2.151 3.846 3.183 1.718-1.032 2.934-2.043 3.846-3.183 0.711-0.889 1.228-1.857 1.579-2.957 0.387-1.214 0.575-2.577 0.575-4.169l0-5.032-6-3.273-6 3.273z"></path>
</svg>
