<?xml version="1.0" encoding="utf-8"?>
<!-- Generated by IcoMoon.io -->
<!DOCTYPE svg PUBLIC "-//W3C//DTD SVG 1.1//EN" "http://www.w3.org/Graphics/SVG/1.1/DTD/svg11.dtd">
<svg version="1.1" xmlns="http://www.w3.org/2000/svg" xmlns:xlink="http://www.w3.org/1999/xlink" width="32" height="32" viewBox="0 0 32 32">
<path fill="#444444" d="M27.479 6.122l-11-6c-0.149-0.081-0.314-0.122-0.479-0.122s-0.33 0.041-0.479 0.122l-11 6c-0.321 0.175-0.521 0.512-0.521 0.878v8c0 4.4 1.135 7.957 3.469 10.875 1.824 2.28 4.317 4.136 8.084 6.020 0.141 0.070 0.294 0.106 0.447 0.106s0.306-0.035 0.447-0.106c3.767-1.883 6.26-3.74 8.084-6.020 2.334-2.918 3.469-6.475 3.469-10.875l0-8c0-0.366-0.2-0.703-0.521-0.878zM18 26h-4v-4h4v4zM18 20h-4v-14h4v14z"></path>
</svg>
