<?xml version="1.0" encoding="utf-8"?>
<!-- Generated by IcoMoon.io -->
<!DOCTYPE svg PUBLIC "-//W3C//DTD SVG 1.1//EN" "http://www.w3.org/Graphics/SVG/1.1/DTD/svg11.dtd">
<svg version="1.1" xmlns="http://www.w3.org/2000/svg" xmlns:xlink="http://www.w3.org/1999/xlink" width="32" height="32" viewBox="0 0 32 32">
<path fill="#444444" d="M8.521 25.311c0.56-0.82 1.485-1.31 2.479-1.31h0.009c0.994 0.003 1.917 0.494 2.474 1.314 0.313 0.444 1.431 1.685 2.518 1.685 1.089 0 2.21-1.247 2.521-1.689 0.56-0.82 1.485-1.31 2.479-1.31h0.009c0.994 0.003 1.917 0.494 2.474 1.314 0.289 0.409 1.264 1.498 2.267 1.663 1.922-3.214 4.251-10.978 4.251-10.978l-4.113-1.763-1.654-9.922c-0.216-1.298-1.417-2.315-2.733-2.315h-11c-1.316 0-2.517 1.017-2.733 2.315l-1.654 9.922-4.113 1.763c0 0 2.329 7.764 4.251 10.978 1.005-0.166 1.982-1.259 2.269-1.667zM18 4h3.5c0.336 0 0.705 0.313 0.76 0.644l1.443 8.657-6.626-2.84 0.923-6.462zM9.74 4.644c0.055-0.331 0.425-0.644 0.76-0.644h3.5l0.923 6.462-6.626 2.84 1.443-8.657z"></path>
<path fill="#444444" d="M26 32c-2.286 0-4.036-1.413-5-2.431-0.964 1.018-2.714 2.431-5 2.431s-4.036-1.413-5-2.431c-0.964 1.018-2.714 2.431-5 2.431-3.495 0-5.738-3.305-5.832-3.445-0.306-0.46-0.182-1.080 0.277-1.387s1.078-0.183 1.385 0.275c0.023 0.034 1.758 2.557 4.169 2.557 2.415 0 4.152-2.532 4.17-2.557 0.186-0.275 0.497-0.442 0.83-0.442 0.001 0 0.002 0 0.003 0 0.333 0.001 0.645 0.167 0.83 0.444 0.016 0.023 1.753 2.555 4.168 2.555s4.152-2.532 4.17-2.557c0.186-0.275 0.497-0.442 0.83-0.442 0.001 0 0.002 0 0.003 0 0.333 0.001 0.645 0.167 0.83 0.444 0.016 0.023 1.753 2.555 4.168 2.555s4.152-2.532 4.17-2.557c0.308-0.457 0.929-0.579 1.387-0.272s0.581 0.925 0.276 1.384c-0.094 0.141-2.337 3.445-5.832 3.445z"></path>
</svg>
