<?xml version="1.0" encoding="utf-8"?>
<!-- Generated by IcoMoon.io -->
<!DOCTYPE svg PUBLIC "-//W3C//DTD SVG 1.1//EN" "http://www.w3.org/Graphics/SVG/1.1/DTD/svg11.dtd">
<svg version="1.1" xmlns="http://www.w3.org/2000/svg" xmlns:xlink="http://www.w3.org/1999/xlink" width="32" height="32" viewBox="0 0 32 32">
<path fill="#444444" d="M9 32c-0.552 0-1-0.448-1-1v-10c0-0.552 0.448-1 1-1s1 0.448 1 1v10c0 0.552-0.448 1-1 1z"></path>
<path fill="#444444" d="M13 30c-0.552 0-1-0.448-1-1v-8c0-0.552 0.448-1 1-1s1 0.448 1 1v8c0 0.552-0.448 1-1 1z"></path>
<path fill="#444444" d="M17 30c-0.552 0-1-0.448-1-1v-8c0-0.552 0.448-1 1-1s1 0.448 1 1v8c0 0.552-0.448 1-1 1z"></path>
<path fill="#444444" d="M21 32c-0.552 0-1-0.448-1-1v-10c0-0.552 0.448-1 1-1s1 0.448 1 1v10c0 0.552-0.448 1-1 1z"></path>
<path fill="#444444" d="M29 10h-5v2h-18v-2h-5c-0.552 0-1 0.448-1 1v12c0 0.552 0.448 1 1 1h5v-6h18v6h5c0.552 0 1-0.448 1-1v-12c0-0.552-0.448-1-1-1z"></path>
<path fill="#444444" d="M8 0h14v10h-14v-10z"></path>
</svg>
