<?xml version="1.0" encoding="utf-8"?>
<!-- Generated by IcoMoon.io -->
<!DOCTYPE svg PUBLIC "-//W3C//DTD SVG 1.1//EN" "http://www.w3.org/Graphics/SVG/1.1/DTD/svg11.dtd">
<svg version="1.1" xmlns="http://www.w3.org/2000/svg" xmlns:xlink="http://www.w3.org/1999/xlink" width="32" height="32" viewBox="0 0 32 32">
<path fill="#444444" d="M27.707 20.293c-0.286-0.286-0.716-0.371-1.090-0.217s-0.617 0.519-0.617 0.924v3h-3.586l-7-7 7-7h3.586v3c0 0.404 0.244 0.769 0.617 0.924 0.124 0.051 0.254 0.076 0.382 0.076 0.26 0 0.516-0.102 0.707-0.293l4-4c0.391-0.391 0.391-1.024 0-1.414l-4-4c-0.286-0.286-0.716-0.372-1.090-0.217s-0.617 0.519-0.617 0.924v3h-4c-0.265 0-0.52 0.105-0.707 0.293l-7.293 7.293-7.293-7.293c-0.188-0.188-0.442-0.293-0.707-0.293h-5c-0.552 0-1 0.448-1 1s0.448 1 1 1h4.586l7 7-7 7h-4.586c-0.552 0-1 0.448-1 1s0.448 1 1 1h5c0.265 0 0.52-0.105 0.707-0.293l7.293-7.293 7.293 7.293c0.188 0.188 0.442 0.293 0.707 0.293h4v3c0 0.404 0.244 0.769 0.617 0.924 0.124 0.051 0.254 0.076 0.382 0.076 0.26 0 0.516-0.102 0.707-0.293l4-4c0.391-0.39 0.391-1.024 0-1.414l-4-4z"></path>
</svg>
