<?xml version="1.0" encoding="utf-8"?>
<!-- Generated by IcoMoon.io -->
<!DOCTYPE svg PUBLIC "-//W3C//DTD SVG 1.1//EN" "http://www.w3.org/Graphics/SVG/1.1/DTD/svg11.dtd">
<svg version="1.1" xmlns="http://www.w3.org/2000/svg" xmlns:xlink="http://www.w3.org/1999/xlink" width="32" height="32" viewBox="0 0 32 32">
<path fill="#444444" d="M13 32c-0.552 0-1-0.448-1-1v-8c0-0.552 0.448-1 1-1s1 0.448 1 1v8c0 0.552-0.448 1-1 1z"></path>
<path fill="#444444" d="M17 32c-0.552 0-1-0.448-1-1v-8c0-0.552 0.448-1 1-1s1 0.448 1 1v8c0 0.552-0.448 1-1 1z"></path>
<path fill="#444444" d="M21 30c-0.552 0-1-0.448-1-1v-4c0-4.613 3.489-8.427 7.966-8.941-0.484-6.731-6.114-12.059-12.966-12.059s-12.483 5.328-12.966 12.059c4.478 0.514 7.966 4.328 7.966 8.941v4c0 0.552-0.448 1-1 1s-1-0.448-1-1v-4c0-3.86-3.14-7-7-7-0.552 0-1-0.448-1-1 0-4.007 1.56-7.773 4.393-10.607s6.6-4.393 10.607-4.393 7.773 1.56 10.607 4.393 4.393 6.6 4.393 10.607c0 0.552-0.448 1-1 1-3.86 0-7 3.14-7 7v4c0 0.552-0.448 1-1 1z"></path>
<path fill="#444444" d="M12 14c0 1.1-0.9 2-2 2h-2c-1.1 0-2-0.9-2-2v-2c0-1.1 0.9-2 2-2h2c1.1 0 2 0.9 2 2v2z"></path>
<path fill="#444444" d="M24 14c0 1.1-0.9 2-2 2h-2c-1.1 0-2-0.9-2-2v-2c0-1.1 0.9-2 2-2h2c1.1 0 2 0.9 2 2v2z"></path>
</svg>
