<?xml version="1.0" encoding="utf-8"?>
<!-- Generated by IcoMoon.io -->
<!DOCTYPE svg PUBLIC "-//W3C//DTD SVG 1.1//EN" "http://www.w3.org/Graphics/SVG/1.1/DTD/svg11.dtd">
<svg version="1.1" xmlns="http://www.w3.org/2000/svg" xmlns:xlink="http://www.w3.org/1999/xlink" width="32" height="32" viewBox="0 0 32 32">
<path fill="#444444" d="M25.458 18.446l-8.459-3.172c-1.839-0.69-2.358-1.365-2.624-1.934-0.375-0.803-0.375-1.812-0.375-3.34v-9c0-0.552-0.448-1-1-1h-12c-0.552 0-1 0.448-1 1v18c0 2.902 1.825 5.535 4.542 6.554l16 6c0.792 0.297 1.619 0.448 2.457 0.448 2.902-0 5.536-1.826 6.555-4.544 1.355-3.614-0.482-7.657-4.096-9.012zM10 2h2v2h-2v-2zM6 2h2v2h-2v-2zM2 2h2v2h-2v-2zM9.607 25.317c0.255-0.725 0.393-1.505 0.393-2.317 0-3.866-3.134-7-7-7-0.34 0-0.674 0.025-1 0.071v-10.072h10v4c0 1.665 0 2.981 0.563 4.186 0.611 1.308 1.762 2.221 3.734 2.96l8.459 3.172c0.684 0.257 1.278 0.649 1.765 1.134-2.642 1.001-4.521 3.555-4.521 6.548 0 0.676 0.096 1.329 0.275 1.948-0.35-0.052-0.694-0.14-1.031-0.266l-11.638-4.364z"></path>
</svg>
