<?xml version="1.0" encoding="utf-8"?>
<!-- Generated by IcoMoon.io -->
<!DOCTYPE svg PUBLIC "-//W3C//DTD SVG 1.1//EN" "http://www.w3.org/Graphics/SVG/1.1/DTD/svg11.dtd">
<svg version="1.1" xmlns="http://www.w3.org/2000/svg" xmlns:xlink="http://www.w3.org/1999/xlink" width="32" height="32" viewBox="0 0 32 32">
<path fill="#444444" d="M10 24v-24h-4v24h-5l7 7 7-7h-5z"></path>
<path fill="#444444" d="M21 4c-0.552 0-1 0.448-1 1v6c0 0.552 0.448 1 1 1h4c0.552 0 1-0.448 1-1s-0.448-1-1-1h-3v-5c0-0.552-0.448-1-1-1z"></path>
<path fill="#444444" d="M12 10c0-5.514 4.486-10 10-10s10 4.486 10 10v1c0 0.552-0.448 1-1 1s-1-0.448-1-1v-1c0-4.411-3.589-8-8-8s-8 3.589-8 8c0 3.721 2.553 6.857 6 7.747v-3.747l6 5-6 5v-4.201c-4.559-0.929-8-4.97-8-9.799z"></path>
</svg>
