<?xml version="1.0" encoding="utf-8"?>
<!-- Generated by IcoMoon.io -->
<!DOCTYPE svg PUBLIC "-//W3C//DTD SVG 1.1//EN" "http://www.w3.org/Graphics/SVG/1.1/DTD/svg11.dtd">
<svg version="1.1" xmlns="http://www.w3.org/2000/svg" xmlns:xlink="http://www.w3.org/1999/xlink" width="32" height="32" viewBox="0 0 32 32">
<path fill="#444444" d="M13 30c-0.26 0-0.516-0.102-0.707-0.293l-7.707-7.707h-3.586c-0.552 0-1-0.448-1-1v-10c0-0.552 0.448-1 1-1h3.586l7.707-7.707c0.286-0.286 0.716-0.372 1.090-0.217s0.617 0.519 0.617 0.924v26c0 0.404-0.244 0.769-0.617 0.924-0.124 0.051-0.254 0.076-0.383 0.076z"></path>
<path fill="#444444" d="M29.707 22.293l-4.31-4.31c2.572-0.203 4.603-2.36 4.603-4.983 0-2.757-2.243-5-5-5h-6c-0.552 0-1 0.448-1 1v14c0 0.552 0.448 1 1 1s1-0.448 1-1v-5h2.586l5.707 5.707c0.195 0.195 0.451 0.293 0.707 0.293s0.512-0.098 0.707-0.293c0.391-0.39 0.391-1.024 0-1.414zM20 10h5c1.654 0 3 1.346 3 3s-1.346 3-3 3h-5v-6z"></path>
</svg>
