<?xml version="1.0" encoding="utf-8"?>
<!-- Generated by IcoMoon.io -->
<!DOCTYPE svg PUBLIC "-//W3C//DTD SVG 1.1//EN" "http://www.w3.org/Graphics/SVG/1.1/DTD/svg11.dtd">
<svg version="1.1" xmlns="http://www.w3.org/2000/svg" xmlns:xlink="http://www.w3.org/1999/xlink" width="32" height="32" viewBox="0 0 32 32">
<path fill="#444444" d="M4 0h22v2h-22v-2z"></path>
<path fill="#444444" d="M10 10v22h10v-22l5.25-7h-20.5l5.25 7zM18 21c0 1.657-1.343 3-3 3s-3-1.343-3-3v-4c0-1.657 1.343-3 3-3s3 1.343 3 3v4z"></path>
<path fill="#444444" d="M15 22c-0.552 0-1-0.448-1-1v-2c0-0.552 0.448-1 1-1s1 0.448 1 1v2c0 0.552-0.448 1-1 1z"></path>
</svg>
