<?xml version="1.0" encoding="utf-8"?>
<!-- Generated by IcoMoon.io -->
<!DOCTYPE svg PUBLIC "-//W3C//DTD SVG 1.1//EN" "http://www.w3.org/Graphics/SVG/1.1/DTD/svg11.dtd">
<svg version="1.1" xmlns="http://www.w3.org/2000/svg" xmlns:xlink="http://www.w3.org/1999/xlink" width="32" height="32" viewBox="0 0 32 32">
<path fill="#444444" d="M16 7c0 0.552-0.448 1-1 1s-1-0.448-1-1c0-0.552 0.448-1 1-1s1 0.448 1 1z"></path>
<path fill="#444444" d="M12 7c0 0.552-0.448 1-1 1s-1-0.448-1-1c0-0.552 0.448-1 1-1s1 0.448 1 1z"></path>
<path fill="#444444" d="M12 3c0 0.552-0.448 1-1 1s-1-0.448-1-1c0-0.552 0.448-1 1-1s1 0.448 1 1z"></path>
<path fill="#444444" d="M8 7c0 0.552-0.448 1-1 1s-1-0.448-1-1c0-0.552 0.448-1 1-1s1 0.448 1 1z"></path>
<path fill="#444444" d="M4 7c0 0.552-0.448 1-1 1s-1-0.448-1-1c0-0.552 0.448-1 1-1s1 0.448 1 1z"></path>
<path fill="#444444" d="M2 9c0 0.552-0.448 1-1 1s-1-0.448-1-1c0-0.552 0.448-1 1-1s1 0.448 1 1z"></path>
<path fill="#444444" d="M6 5c0 0.552-0.448 1-1 1s-1-0.448-1-1c0-0.552 0.448-1 1-1s1 0.448 1 1z"></path>
<path fill="#444444" d="M4 3c0 0.552-0.448 1-1 1s-1-0.448-1-1c0-0.552 0.448-1 1-1s1 0.448 1 1z"></path>
<path fill="#444444" d="M2 5c0 0.552-0.448 1-1 1s-1-0.448-1-1c0-0.552 0.448-1 1-1s1 0.448 1 1z"></path>
<path fill="#444444" d="M2 1c0 0.552-0.448 1-1 1s-1-0.448-1-1c0-0.552 0.448-1 1-1s1 0.448 1 1z"></path>
<path fill="#444444" d="M10 5c0 0.552-0.448 1-1 1s-1-0.448-1-1c0-0.552 0.448-1 1-1s1 0.448 1 1z"></path>
<path fill="#444444" d="M8 3c0 0.552-0.448 1-1 1s-1-0.448-1-1c0-0.552 0.448-1 1-1s1 0.448 1 1z"></path>
<path fill="#444444" d="M6 1c0 0.552-0.448 1-1 1s-1-0.448-1-1c0-0.552 0.448-1 1-1s1 0.448 1 1z"></path>
<path fill="#444444" d="M10 9c0 0.552-0.448 1-1 1s-1-0.448-1-1c0-0.552 0.448-1 1-1s1 0.448 1 1z"></path>
<path fill="#444444" d="M6 9c0 0.552-0.448 1-1 1s-1-0.448-1-1c0-0.552 0.448-1 1-1s1 0.448 1 1z"></path>
<path fill="#444444" d="M4 11c0 0.552-0.448 1-1 1s-1-0.448-1-1c0-0.552 0.448-1 1-1s1 0.448 1 1z"></path>
<path fill="#444444" d="M14 5c0 0.552-0.448 1-1 1s-1-0.448-1-1c0-0.552 0.448-1 1-1s1 0.448 1 1z"></path>
<path fill="#444444" d="M28.899 8.616c-0.843-0.211-1.829-0.37-2.899-0.475v-3.141c0-0.552-1.343-1-3-1s-3 0.448-3 1v1h1c0.552 0 1 0.448 1 1s-0.448 1.061-1 1.061l-0 0c-1.457 0.091-2.8 0.28-3.899 0.555-0.767 0.192-3.101 0.775-3.101 2.384v18c0 1.609 2.334 2.193 3.101 2.384 1.588 0.397 3.683 0.616 5.899 0.616s4.311-0.219 5.899-0.616c0.767-0.192 3.101-0.775 3.101-2.384v-18c0-1.609-2.334-2.193-3.101-2.384zM30 20.945c-0.443-0.165-0.853-0.268-1.101-0.329-1.347-0.337-3.059-0.544-4.899-0.6v6.984c0 0.552-0.448 1-1 1s-1-0.448-1-1v-6.984c-1.841 0.056-3.553 0.263-4.899 0.6-0.247 0.062-0.658 0.165-1.101 0.329v-7.89c0.443 0.165 0.853 0.268 1.101 0.329 1.347 0.337 3.059 0.544 4.899 0.6v6.031c0.33-0.010 0.663-0.016 1-0.016s0.67 0.006 1 0.016v-6.031c1.841-0.056 3.553-0.263 4.899-0.6 0.247-0.062 0.658-0.165 1.101-0.329v7.89z"></path>
</svg>
