<?xml version="1.0" encoding="utf-8"?>
<!-- Generated by IcoMoon.io -->
<!DOCTYPE svg PUBLIC "-//W3C//DTD SVG 1.1//EN" "http://www.w3.org/Graphics/SVG/1.1/DTD/svg11.dtd">
<svg version="1.1" xmlns="http://www.w3.org/2000/svg" xmlns:xlink="http://www.w3.org/1999/xlink" width="32" height="32" viewBox="0 0 32 32">
<path fill="#444444" d="M31 22h-10c-1.657 0-3-1.343-3-3v-7.342c2.33-0.824 4-3.046 4-5.658 0-3.314-2.686-6-6-6s-6 2.686-6 6c0 2.612 1.67 4.834 4 5.658v7.342c0 1.657-1.343 3-3 3h-10c-0.552 0-1 0.448-1 1v4c0 0.552 0.448 1 1 1h30c0.552 0 1-0.448 1-1v-4c0-0.552-0.448-1-1-1z"></path>
<path fill="#444444" d="M2 29v2c0 0.552 0.448 1 1 1h26c0.552 0 1-0.448 1-1v-2h-28z"></path>
</svg>
