<?xml version="1.0" encoding="utf-8"?>
<!-- Generated by IcoMoon.io -->
<!DOCTYPE svg PUBLIC "-//W3C//DTD SVG 1.1//EN" "http://www.w3.org/Graphics/SVG/1.1/DTD/svg11.dtd">
<svg version="1.1" xmlns="http://www.w3.org/2000/svg" xmlns:xlink="http://www.w3.org/1999/xlink" width="32" height="32" viewBox="0 0 32 32">
<path fill="#444444" d="M25.27 31.553c-0.206 0-0.411-0.063-0.586-0.19l-8.684-6.281-8.684 6.281c-0.351 0.254-0.825 0.253-1.175-0.002s-0.496-0.707-0.362-1.118l3.314-10.157-8.679-6.279c-0.351-0.254-0.499-0.706-0.365-1.118s0.518-0.692 0.951-0.692l10.733-0 3.316-10.16c0.134-0.411 0.518-0.69 0.951-0.69s0.816 0.278 0.951 0.69l3.316 10.16 10.733 0c0.434 0 0.818 0.279 0.951 0.692s-0.014 0.864-0.365 1.118l-8.679 6.279 3.314 10.157c0.134 0.412-0.012 0.863-0.361 1.118-0.176 0.128-0.382 0.192-0.589 0.192zM4.088 13.997l6.768 4.896c0.352 0.255 0.499 0.707 0.365 1.12l-2.587 7.929 6.78-4.904c0.35-0.253 0.822-0.253 1.172 0l6.78 4.904-2.587-7.929c-0.135-0.413 0.013-0.866 0.365-1.12l6.768-4.896-8.37-0c-0.433 0-0.816-0.278-0.951-0.69l-2.591-7.938-2.591 7.937c-0.134 0.411-0.518 0.69-0.951 0.69l-8.37 0z"></path>
</svg>
