<?xml version="1.0" encoding="utf-8"?>
<!-- Generated by IcoMoon.io -->
<!DOCTYPE svg PUBLIC "-//W3C//DTD SVG 1.1//EN" "http://www.w3.org/Graphics/SVG/1.1/DTD/svg11.dtd">
<svg version="1.1" xmlns="http://www.w3.org/2000/svg" xmlns:xlink="http://www.w3.org/1999/xlink" width="32" height="32" viewBox="0 0 32 32">
<path fill="#444444" d="M31.951 12.689c-0.134-0.412-0.518-0.692-0.951-0.692l-10.733-0-3.316-10.16c-0.134-0.411-0.518-0.69-0.951-0.69s-0.816 0.278-0.951 0.69l-3.316 10.16-10.733 0c-0.434 0-0.818 0.279-0.951 0.692s0.014 0.864 0.365 1.118l8.679 6.279-3.314 10.157c-0.134 0.412 0.012 0.863 0.362 1.118s0.824 0.256 1.175 0.002l8.684-6.281 8.684 6.281c0.175 0.127 0.381 0.19 0.586 0.19 0.207 0 0.414-0.064 0.589-0.192 0.35-0.255 0.496-0.707 0.361-1.118l-3.314-10.157 8.679-6.279c0.351-0.254 0.499-0.706 0.365-1.118zM21.144 18.893c-0.352 0.255-0.499 0.707-0.365 1.12l2.587 7.929-6.78-4.904c-0.175-0.127-0.381-0.19-0.586-0.19v-17.479l2.591 7.937c0.134 0.411 0.518 0.69 0.951 0.69l8.37 0-6.768 4.896z"></path>
</svg>
