<?xml version="1.0" encoding="utf-8"?>
<!-- Generated by IcoMoon.io -->
<!DOCTYPE svg PUBLIC "-//W3C//DTD SVG 1.1//EN" "http://www.w3.org/Graphics/SVG/1.1/DTD/svg11.dtd">
<svg version="1.1" xmlns="http://www.w3.org/2000/svg" xmlns:xlink="http://www.w3.org/1999/xlink" width="32" height="32" viewBox="0 0 32 32">
<path fill="#444444" d="M32 14c0-5.514-4.486-10-10-10-1.914 0-3.791 0.526-5.429 1.52-1.643 0.997-2.931 2.396-3.726 4.046-0.713 1.479-2.614 2.434-4.844 2.434h-2c-3.308 0-6 2.692-6 6v2c0 2.983 1.738 5.624 4.895 7.438 2.875 1.652 6.819 2.562 11.105 2.562 4.349 0 8.343-1.325 11.245-3.73 1.5-1.243 2.67-2.735 3.479-4.434 0.847-1.778 1.276-3.741 1.276-5.836 0-0.303-0.014-0.604-0.041-0.9 0.027-0.362 0.041-0.729 0.041-1.1zM25.968 22.73c-2.544 2.109-6.084 3.27-9.968 3.27-3.942 0-7.532-0.815-10.108-2.296-1.775-1.020-3.892-2.838-3.892-5.704 0-2.206 1.794-4 4-4h2c1.379 0 2.708-0.295 3.844-0.852 1.281-0.629 2.25-1.567 2.802-2.713 1.278-2.652 4.234-4.434 7.354-4.434 4.411 0 8 3.589 8 8 0 3.525-1.394 6.544-4.032 8.73z"></path>
<path fill="#444444" d="M22 8.25c-2.239 0-4.43 1.3-5.327 3.161-0.773 1.604-2.1 2.903-3.838 3.756-1.443 0.708-3.115 1.083-4.835 1.083h-2c-0.965 0-1.75 0.785-1.75 1.75 0 1.437 0.929 2.7 2.763 3.753 2.241 1.288 5.433 1.997 8.987 1.997 3.361 0 6.392-0.977 8.533-2.752 2.135-1.77 3.217-4.124 3.217-6.998 0-3.171-2.579-5.75-5.75-5.75zM22 16c-1.105 0-2-0.895-2-2s0.895-2 2-2 2 0.895 2 2-0.895 2-2 2z"></path>
</svg>
