<?xml version="1.0" encoding="utf-8"?>
<!-- Generated by IcoMoon.io -->
<!DOCTYPE svg PUBLIC "-//W3C//DTD SVG 1.1//EN" "http://www.w3.org/Graphics/SVG/1.1/DTD/svg11.dtd">
<svg version="1.1" xmlns="http://www.w3.org/2000/svg" xmlns:xlink="http://www.w3.org/1999/xlink" width="32" height="32" viewBox="0 0 32 32">
<path fill="#444444" d="M16 0c-8.837 0-16 7.163-16 16s7.163 16 16 16 16-7.163 16-16-7.163-16-16-16zM16 4c5.946 0 10.881 4.325 11.833 10h-6.176c-0.824-2.33-3.045-4-5.657-4s-4.833 1.67-5.657 4h-6.176c0.952-5.675 5.887-10 11.833-10zM14 27.833c-5.025-0.843-8.99-4.808-9.833-9.833h5.833c2.209 0 4 1.791 4 4v5.833zM16 18c-1.105 0-2-0.895-2-2s0.895-2 2-2c1.105 0 2 0.895 2 2s-0.895 2-2 2zM18 27.833v-5.833c0-2.209 1.791-4 4-4h5.833c-0.843 5.025-4.808 8.99-9.833 9.833z"></path>
</svg>
