<?xml version="1.0" encoding="utf-8"?>
<!-- Generated by IcoMoon.io -->
<!DOCTYPE svg PUBLIC "-//W3C//DTD SVG 1.1//EN" "http://www.w3.org/Graphics/SVG/1.1/DTD/svg11.dtd">
<svg version="1.1" xmlns="http://www.w3.org/2000/svg" xmlns:xlink="http://www.w3.org/1999/xlink" width="32" height="32" viewBox="0 0 32 32">
<path fill="#444444" d="M28 12c-2.209 0-4 1.791-4 4 0 1.48 0.805 2.772 2 3.464v7.536c0 1.654-1.346 3-3 3h-8c-1.654 0-3-1.346-3-3v-3h1c0.552 0 1-0.448 1-1v-1.562c2.133-0.835 3.999-2.591 5.493-5.198 1.646-2.873 2.507-6.32 2.507-8.24v-3c0-1.654-1.346-3-3-3h-3c-1.105 0-2 0.895-2 2s0.895 2 2 2 2-0.895 2-2h1c0.551 0 1 0.449 1 1v3c0 2.164-1.155 5.348-2.243 7.245-2.252 3.93-4.918 4.755-6.757 4.755s-4.505-0.825-6.757-4.755c-1.457-2.542-2.243-5.63-2.243-7.245v-3c0-0.551 0.449-1 1-1h1c0 1.105 0.895 2 2 2s2-0.895 2-2-0.895-2-2-2h-3c-1.654 0-3 1.346-3 3v3c0 1.92 0.861 5.367 2.507 8.24 1.494 2.607 3.36 4.363 5.493 5.198v1.562c0 0.552 0.448 1 1 1h1v3c0 2.757 2.243 5 5 5h8c2.757 0 5-2.243 5-5v-7c2.209 0 4-1.791 4-4s-1.791-4-4-4zM28 18c-1.103 0-2-0.897-2-2s0.897-2 2-2 2 0.897 2 2c0 1.103-0.897 2-2 2z"></path>
</svg>
