<?xml version="1.0" encoding="utf-8"?>
<!-- Generated by IcoMoon.io -->
<!DOCTYPE svg PUBLIC "-//W3C//DTD SVG 1.1//EN" "http://www.w3.org/Graphics/SVG/1.1/DTD/svg11.dtd">
<svg version="1.1" xmlns="http://www.w3.org/2000/svg" xmlns:xlink="http://www.w3.org/1999/xlink" width="32" height="32" viewBox="0 0 32 32">
<path fill="#444444" d="M7 14c3.86 0 7-3.14 7-7s-3.14-7-7-7-7 3.14-7 7 3.14 7 7 7zM7 2c2.757 0 5 2.243 5 5s-2.243 5-5 5-5-2.243-5-5 2.243-5 5-5z"></path>
<path fill="#444444" d="M24.156 6h4.844l-6-6-6 6h4.844c0 1.783-0.501 3.683-1.448 5.496-0.971 1.857-2.415 3.629-4.175 5.123-3.969 3.369-9.308 5.225-15.033 5.225-0.639 0-1.156 0.518-1.156 1.156s0.518 1.156 1.156 1.156c6.273 0 12.143-2.051 16.53-5.775 1.985-1.685 3.62-3.696 4.727-5.814 1.12-2.142 1.712-4.413 1.712-6.567z"></path>
<path fill="#444444" d="M27.414 26l4.293-4.293c0.391-0.39 0.391-1.024 0-1.414s-1.024-0.39-1.414 0l-4.293 4.293-4.293-4.293c-0.39-0.39-1.024-0.39-1.414 0s-0.391 1.024 0 1.414l4.293 4.293-4.293 4.293c-0.391 0.39-0.391 1.024 0 1.414 0.195 0.195 0.451 0.293 0.707 0.293s0.512-0.098 0.707-0.293l4.293-4.293 4.293 4.293c0.195 0.195 0.451 0.293 0.707 0.293s0.512-0.098 0.707-0.293c0.391-0.39 0.391-1.024 0-1.414l-4.293-4.293z"></path>
</svg>
