<?xml version="1.0" encoding="utf-8"?>
<!-- Generated by IcoMoon.io -->
<!DOCTYPE svg PUBLIC "-//W3C//DTD SVG 1.1//EN" "http://www.w3.org/Graphics/SVG/1.1/DTD/svg11.dtd">
<svg version="1.1" xmlns="http://www.w3.org/2000/svg" xmlns:xlink="http://www.w3.org/1999/xlink" width="32" height="32" viewBox="0 0 32 32">
<path fill="#444444" d="M20 15c0 0.55-0.45 1-1 1h-6c-0.55 0-1-0.45-1-1v-6c0-0.55 0.45-1 1-1h6c0.55 0 1 0.45 1 1v6z"></path>
<path fill="#444444" d="M30 0h-28c-1.1 0-2 0.9-2 2v28c0 1.1 0.9 2 2 2h28c1.1 0 2-0.9 2-2v-28c0-1.1-0.9-2-2-2zM4 30c-1.105 0-2-0.895-2-2s0.895-2 2-2 2 0.895 2 2-0.895 2-2 2zM4 6c-1.105 0-2-0.895-2-2s0.895-2 2-2 2 0.895 2 2-0.895 2-2 2zM22 25c0 0.552-0.448 1-1 1h-10c-0.552 0-1-0.448-1-1v-18c0-0.552 0.448-1 1-1h10c0.552 0 1 0.448 1 1v18zM28 30c-1.105 0-2-0.895-2-2s0.895-2 2-2 2 0.895 2 2-0.895 2-2 2zM28 6c-1.105 0-2-0.895-2-2s0.895-2 2-2 2 0.895 2 2-0.895 2-2 2z"></path>
</svg>
