<?xml version="1.0" encoding="utf-8"?>
<!-- Generated by IcoMoon.io -->
<!DOCTYPE svg PUBLIC "-//W3C//DTD SVG 1.1//EN" "http://www.w3.org/Graphics/SVG/1.1/DTD/svg11.dtd">
<svg version="1.1" xmlns="http://www.w3.org/2000/svg" xmlns:xlink="http://www.w3.org/1999/xlink" width="32" height="32" viewBox="0 0 32 32">
<path fill="#444444" d="M31.414 28.586l-6.293-6.293 4.586-4.586c0.391-0.39 0.391-1.024 0-1.414l-2-2c-0.39-0.39-1.024-0.39-1.414 0l-3.293 3.293-17.293-17.293c-0.188-0.188-0.442-0.293-0.707-0.293h-4c-0.552 0-1 0.448-1 1v4c0 0.265 0.105 0.52 0.293 0.707l17.293 17.293-3.293 3.293c-0.39 0.39-0.39 1.024 0 1.414l2 2c0.195 0.195 0.451 0.293 0.707 0.293s0.512-0.098 0.707-0.293l4.586-4.586 6.293 6.293c0.781 0.781 2.047 0.781 2.828 0s0.781-2.047 0-2.828zM19 22l-17.5-17.5 1-1 17.5 17.5-1 1z"></path>
</svg>
