<?xml version="1.0" encoding="utf-8"?>
<!-- Generated by IcoMoon.io -->
<!DOCTYPE svg PUBLIC "-//W3C//DTD SVG 1.1//EN" "http://www.w3.org/Graphics/SVG/1.1/DTD/svg11.dtd">
<svg version="1.1" xmlns="http://www.w3.org/2000/svg" xmlns:xlink="http://www.w3.org/1999/xlink" width="32" height="32" viewBox="0 0 32 32">
<path fill="#444444" d="M25 10c-3.866 0-7 3.134-7 7 0 1.074 0.242 2.091 0.674 3h-5.348c0.432-0.909 0.674-1.926 0.674-3 0-3.866-3.134-7-7-7s-7 3.134-7 7c0 3.866 3.134 7 7 7h18c3.866 0 7-3.134 7-7s-3.134-7-7-7zM4 17c0-1.657 1.343-3 3-3s3 1.343 3 3-1.343 3-3 3-3-1.343-3-3zM25 20c-1.657 0-3-1.343-3-3s1.343-3 3-3 3 1.343 3 3-1.343 3-3 3z"></path>
</svg>
