<?xml version="1.0" encoding="utf-8"?>
<!-- Generated by IcoMoon.io -->
<!DOCTYPE svg PUBLIC "-//W3C//DTD SVG 1.1//EN" "http://www.w3.org/Graphics/SVG/1.1/DTD/svg11.dtd">
<svg version="1.1" xmlns="http://www.w3.org/2000/svg" xmlns:xlink="http://www.w3.org/1999/xlink" width="38" height="32" viewBox="0 0 38 32">
<path fill="#444444" d="M32.5 12c-1.527 0-2.909 0.626-3.907 1.633-2.181-2.24-5.227-3.633-8.593-3.633-3.003 0-5.887 1.126-8.12 3.171-1.516 1.389-2.64 3.113-3.288 5.010-0.052-0.058-0.106-0.116-0.162-0.174-1.292-1.332-3.119-2.007-5.43-2.007h-2c-0.552 0-1 0.448-1 1v1c0 0.552 0.448 1 1 1 1.469 0 2.596 0.567 3.546 1.783 0.906 1.16 1.513 2.716 2.099 4.22 0.471 1.208 0.917 2.35 1.502 3.238 0.77 1.167 1.729 1.759 2.853 1.759h18c0.265 0 0.52-0.105 0.707-0.293 1.111-1.11 1.682-2.509 1.978-3.871 1.255-0.331 2.599-1.145 3.716-2.286 1.676-1.712 2.6-3.861 2.6-6.049 0-3.033-2.467-5.5-5.5-5.5zM33.257 21.451c-0.41 0.419-0.845 0.755-1.258 1.006 0.001-0.16 0.001-0.314 0.001-0.456 0-2.148-0.568-4.166-1.561-5.912 0.451-0.656 1.206-1.088 2.061-1.088 1.379 0 2.5 1.122 2.5 2.5 0 1.888-1.092 3.286-1.743 3.951z"></path>
<path fill="#444444" d="M22 8c0 1.105-0.895 2-2 2s-2-0.895-2-2c0-1.105 0.895-2 2-2s2 0.895 2 2z"></path>
</svg>
