<?xml version="1.0" encoding="utf-8"?>
<!-- Generated by IcoMoon.io -->
<!DOCTYPE svg PUBLIC "-//W3C//DTD SVG 1.1//EN" "http://www.w3.org/Graphics/SVG/1.1/DTD/svg11.dtd">
<svg version="1.1" xmlns="http://www.w3.org/2000/svg" xmlns:xlink="http://www.w3.org/1999/xlink" width="32" height="32" viewBox="0 0 32 32">
<path fill="#444444" d="M12 20.536v-12.536c0-1.105-0.895-2-2-2s-2 0.895-2 2v12.536c-1.195 0.692-2 1.983-2 3.464 0 2.209 1.791 4 4 4s4-1.791 4-4c0-1.48-0.805-2.772-2-3.464z"></path>
<path fill="#444444" d="M10 32c-4.411 0-8-3.589-8-8 0-1.966 0.707-3.829 2-5.292v-12.708c0-3.308 2.692-6 6-6s6 2.692 6 6l0 12.708c1.293 1.463 2 3.326 2 5.292 0 4.411-3.589 8-8 8zM10 2c-2.206 0-4 1.794-4 4v13.101c0 0.262-0.103 0.513-0.286 0.7-1.105 1.128-1.714 2.619-1.714 4.199 0 3.308 2.692 6 6 6s6-2.692 6-6c0-1.58-0.609-3.071-1.714-4.199-0.183-0.187-0.286-0.438-0.286-0.7l-0-13.101c0-2.206-1.794-4-4-4z"></path>
<path fill="#444444" d="M29 4h-8c-0.552 0-1-0.448-1-1s0.448-1 1-1h8c0.552 0 1 0.448 1 1s-0.448 1-1 1z"></path>
<path fill="#444444" d="M27 8h-6c-0.552 0-1-0.448-1-1s0.448-1 1-1h6c0.552 0 1 0.448 1 1s-0.448 1-1 1z"></path>
<path fill="#444444" d="M29 12h-8c-0.552 0-1-0.448-1-1s0.448-1 1-1h8c0.552 0 1 0.448 1 1s-0.448 1-1 1z"></path>
<path fill="#444444" d="M27 16h-6c-0.552 0-1-0.448-1-1s0.448-1 1-1h6c0.552 0 1 0.448 1 1s-0.448 1-1 1z"></path>
<path fill="#444444" d="M29 20h-8c-0.552 0-1-0.448-1-1s0.448-1 1-1h8c0.552 0 1 0.448 1 1s-0.448 1-1 1z"></path>
</svg>
