<?xml version="1.0" encoding="utf-8"?>
<!-- Generated by IcoMoon.io -->
<!DOCTYPE svg PUBLIC "-//W3C//DTD SVG 1.1//EN" "http://www.w3.org/Graphics/SVG/1.1/DTD/svg11.dtd">
<svg version="1.1" xmlns="http://www.w3.org/2000/svg" xmlns:xlink="http://www.w3.org/1999/xlink" width="32" height="32" viewBox="0 0 32 32">
<path fill="#444444" d="M26 23c-2-2-2-5-2.001-9l-0 0.001c0.002-3.363-1.441-6.944-4.248-9.752-2.805-2.805-6.382-4.249-9.743-4.249-2.7 0-5.261 0.932-7.168 2.84-4.281 4.281-3.65 11.852 1.409 16.912 2.805 2.805 6.382 4.249 9.743 4.249 4.008 0 7.008 0 9.008 2l6 6c2 0 3-1 3-3l-6-6zM16 4.097c0.766 0.492 1.493 1.076 2.16 1.743s1.25 1.39 1.745 2.16h-3.905v-3.903zM8 19.903c-0.766-0.492-1.493-1.076-2.16-1.743s-1.25-1.39-1.745-2.16h3.905v3.903zM8 14h-4.943c-0.424-1.043-0.684-2.111-0.773-3.183-0.023-0.275-0.034-0.548-0.034-0.817h5.75v4zM8 8h-5.525c0.322-1.377 0.984-2.598 1.955-3.569 0.71-0.71 1.554-1.258 2.509-1.628 0.342-0.133 0.697-0.241 1.060-0.327v5.524zM14 21.75c-0.003 0-0.005 0-0.008 0-1.34 0-2.696-0.28-3.992-0.806v-4.944h4v5.75zM14 14h-4v-4h4v4zM14 8h-4v-5.75c0.003 0 0.006-0 0.008-0h0c1.34 0 2.696 0.28 3.991 0.806v4.944zM19.569 19.569c-0.71 0.71-1.554 1.258-2.509 1.628-0.342 0.133-0.697 0.241-1.060 0.327v-5.524h5.525c-0.322 1.377-0.984 2.598-1.955 3.569zM16 14v-4h4.943c0.424 1.043 0.684 2.111 0.773 3.183 0.023 0.275 0.034 0.548 0.034 0.817h-5.75z"></path>
<path fill="#444444" d="M6 27c0 1.657-1.343 3-3 3s-3-1.343-3-3c0-1.657 1.343-3 3-3s3 1.343 3 3z"></path>
</svg>
