<?xml version="1.0" encoding="utf-8"?>
<!-- Generated by IcoMoon.io -->
<!DOCTYPE svg PUBLIC "-//W3C//DTD SVG 1.1//EN" "http://www.w3.org/Graphics/SVG/1.1/DTD/svg11.dtd">
<svg version="1.1" xmlns="http://www.w3.org/2000/svg" xmlns:xlink="http://www.w3.org/1999/xlink" width="34" height="32" viewBox="0 0 34 32">
<path fill="#444444" d="M33.955 0c-3.442 1.221-7.547 2.431-11.955 2.431s-8.513-1.21-11.955-2.431c-0.030 0.636-0.045 1.28-0.045 1.931 0 12.188 5.373 22.069 12 22.069s12-9.881 12-22.069c0-0.651-0.015-1.295-0.045-1.931zM14 8c0-1.105 1.343-2 3-2s3 0.895 3 2h-6zM22 20c-2.629 0-4.862-2.536-5.673-6.065 1.449 1.275 3.456 2.065 5.673 2.065s4.224-0.79 5.673-2.065c-0.811 3.529-3.045 6.065-5.673 6.065zM24 8c0-1.105 1.343-2 3-2s3 0.895 3 2h-6z"></path>
<path fill="#444444" d="M15.871 24.178c-1.689-1.314-3.183-3.154-4.443-5.47-1.125-2.068-2.017-4.439-2.654-7.005-3.195-0.192-6.165-0.792-8.732-1.703-0.028 0.583-0.042 1.174-0.042 1.77 0 11.173 4.925 20.23 11 20.23 3.094 0 5.889-2.35 7.888-6.132-1.041-0.373-2.049-0.937-3.017-1.69zM4 16h4c0 1.105-0.895 2-2 2s-2-0.895-2-2zM11 25.938c-1.343 0-2.617 0.262-3.762 0.731 0.916-1.674 2.262-2.731 3.762-2.731s2.846 1.057 3.762 2.731c-1.145-0.469-2.419-0.731-3.762-0.731z"></path>
</svg>
