<?xml version="1.0" encoding="utf-8"?>
<!-- Generated by IcoMoon.io -->
<!DOCTYPE svg PUBLIC "-//W3C//DTD SVG 1.1//EN" "http://www.w3.org/Graphics/SVG/1.1/DTD/svg11.dtd">
<svg version="1.1" xmlns="http://www.w3.org/2000/svg" xmlns:xlink="http://www.w3.org/1999/xlink" width="34" height="32" viewBox="0 0 34 32">
<path fill="#444444" d="M32 12v-4.5c0-0.825-0.675-1.5-1.5-1.5h-23c0.276 0 0.5 0.224 0.5 0.5s-0.224 0.5-0.5 0.5-0.5-0.224-0.5-0.5 0.224-0.5 0.5-0.5h-6c-0.825 0-1.5 0.675-1.5 1.5v4.5c2.209 0 4 1.791 4 4s-1.791 4-4 4v4.5c0 0.825 0.675 1.5 1.5 1.5h6c-0.276 0-0.5-0.224-0.5-0.5s0.224-0.5 0.5-0.5 0.5 0.224 0.5 0.5-0.224 0.5-0.5 0.5h23c0.825 0 1.5-0.675 1.5-1.5v-4.5c-2.209 0-4-1.791-4-4s1.791-4 4-4zM7.5 24c-0.276 0-0.5-0.224-0.5-0.5s0.224-0.5 0.5-0.5 0.5 0.224 0.5 0.5-0.224 0.5-0.5 0.5zM7.5 22c-0.276 0-0.5-0.224-0.5-0.5s0.224-0.5 0.5-0.5 0.5 0.224 0.5 0.5-0.224 0.5-0.5 0.5zM7.5 20c-0.276 0-0.5-0.224-0.5-0.5s0.224-0.5 0.5-0.5 0.5 0.224 0.5 0.5-0.224 0.5-0.5 0.5zM7.5 18c-0.276 0-0.5-0.224-0.5-0.5s0.224-0.5 0.5-0.5 0.5 0.224 0.5 0.5-0.224 0.5-0.5 0.5zM7.5 15c-0.276 0-0.5-0.224-0.5-0.5s0.224-0.5 0.5-0.5 0.5 0.224 0.5 0.5-0.224 0.5-0.5 0.5zM7.5 13c-0.276 0-0.5-0.224-0.5-0.5s0.224-0.5 0.5-0.5 0.5 0.224 0.5 0.5-0.224 0.5-0.5 0.5zM7.5 11c-0.276 0-0.5-0.224-0.5-0.5s0.224-0.5 0.5-0.5 0.5 0.224 0.5 0.5-0.224 0.5-0.5 0.5zM7.5 9c-0.276 0-0.5-0.224-0.5-0.5s0.224-0.5 0.5-0.5 0.5 0.224 0.5 0.5-0.224 0.5-0.5 0.5zM20.745 21.155l-3.745-2.721-3.745 2.721 1.431-4.403-3.745-2.721h4.63l1.431-4.403 1.431 4.403h4.63l-3.745 2.721 1.431 4.403z"></path>
</svg>
