<?xml version="1.0" encoding="utf-8"?>
<!-- Generated by IcoMoon.io -->
<!DOCTYPE svg PUBLIC "-//W3C//DTD SVG 1.1//EN" "http://www.w3.org/Graphics/SVG/1.1/DTD/svg11.dtd">
<svg version="1.1" xmlns="http://www.w3.org/2000/svg" xmlns:xlink="http://www.w3.org/1999/xlink" width="32" height="32" viewBox="0 0 32 32">
<path fill="#444444" d="M16 32.086c-0.282 0-0.551-0.119-0.741-0.328l-4.914-5.414c-0.213-0.235-0.302-0.557-0.24-0.868l3.881-19.407-3.755-4.421c-0.252-0.297-0.309-0.714-0.145-1.067s0.518-0.58 0.908-0.58h10.013c0.39 0 0.744 0.226 0.908 0.58s0.107 0.77-0.145 1.067l-3.755 4.421 3.881 19.407c0.062 0.311-0.027 0.633-0.24 0.868l-4.915 5.414c-0.19 0.209-0.458 0.328-0.741 0.328z"></path>
</svg>
