<?xml version="1.0" encoding="utf-8"?>
<!-- Generated by IcoMoon.io -->
<!DOCTYPE svg PUBLIC "-//W3C//DTD SVG 1.1//EN" "http://www.w3.org/Graphics/SVG/1.1/DTD/svg11.dtd">
<svg version="1.1" xmlns="http://www.w3.org/2000/svg" xmlns:xlink="http://www.w3.org/1999/xlink" width="32" height="32" viewBox="0 0 32 32">
<path fill="#444444" d="M28 12v-7c0-0.552-0.448-1-1-1h-7v-4l-5 5 5 5v-4h6v6h-4l5 5 5-5h-4z"></path>
<path fill="#444444" d="M22.5 16h-6.5v-6.5c0-0.825-0.675-1.5-1.5-1.5h-13c-0.825 0-1.5 0.675-1.5 1.5v13c0 0.825 0.675 1.5 1.5 1.5h6.5v6.5c0 0.825 0.675 1.5 1.5 1.5h13c0.825 0 1.5-0.675 1.5-1.5v-13c0-0.825-0.675-1.5-1.5-1.5zM22 30h-12v-6h4.5c0.825 0 1.5-0.675 1.5-1.5v-4.5h6v12z"></path>
</svg>
