<?xml version="1.0" encoding="utf-8"?>
<!-- Generated by IcoMoon.io -->
<!DOCTYPE svg PUBLIC "-//W3C//DTD SVG 1.1//EN" "http://www.w3.org/Graphics/SVG/1.1/DTD/svg11.dtd">
<svg version="1.1" xmlns="http://www.w3.org/2000/svg" xmlns:xlink="http://www.w3.org/1999/xlink" width="32" height="32" viewBox="0 0 32 32">
<path fill="#444444" d="M21 12c1.87 0 3.628 0.728 4.95 2.050s2.050 3.080 2.050 4.95-0.728 3.628-2.050 4.95c-1.322 1.322-3.080 2.050-4.95 2.050h-10c-1.87 0-3.628-0.728-4.95-2.050s-2.050-3.080-2.050-4.95 0.728-3.628 2.050-4.95c1.322-1.322 3.080-2.050 4.95-2.050h10zM21 8h-10c-6.075 0-11 4.925-11 11s4.925 11 11 11h10c6.075 0 11-4.925 11-11s-4.925-11-11-11v0z"></path>
<path fill="#444444" d="M16 19c0 2.761-2.239 5-5 5s-5-2.239-5-5c0-2.761 2.239-5 5-5s5 2.239 5 5z"></path>
</svg>
