<?xml version="1.0" encoding="utf-8"?>
<!-- Generated by IcoMoon.io -->
<!DOCTYPE svg PUBLIC "-//W3C//DTD SVG 1.1//EN" "http://www.w3.org/Graphics/SVG/1.1/DTD/svg11.dtd">
<svg version="1.1" xmlns="http://www.w3.org/2000/svg" xmlns:xlink="http://www.w3.org/1999/xlink" width="32" height="32" viewBox="0 0 32 32">
<path fill="#444444" d="M30.43 5.482c-1.123-2.245-2.696-3.482-4.43-3.482h-20c-1.734 0-3.307 1.236-4.43 3.482-1.012 2.025-1.57 4.695-1.57 7.518s0.558 5.493 1.57 7.518c1.123 2.245 2.696 3.482 4.43 3.482h4v7c0 0.404 0.244 0.769 0.617 0.924s0.804 0.069 1.090-0.217l1.293-1.293 1.293 1.293c0.39 0.39 1.024 0.39 1.414 0l1.293-1.293 1.293 1.293c0.39 0.39 1.024 0.39 1.414 0l1.293-1.293 1.293 1.293c0.39 0.39 1.024 0.39 1.414 0l1.293-1.293 1.293 1.293c0.39 0.39 1.024 0.39 1.414 0l1.293-1.293 1.293 1.293c0.191 0.191 0.447 0.293 0.707 0.293 0.129-0 0.259-0.025 0.382-0.076 0.374-0.155 0.617-0.519 0.617-0.924v-18c0-2.823-0.558-5.493-1.57-7.518zM2 13c0-5.304 2.108-9 4-9s4 3.696 4 9-2.108 9-4 9-4-3.696-4-9zM30 28.586l-0.293-0.293c-0.39-0.39-1.024-0.39-1.414 0l-1.293 1.293-1.293-1.293c-0.39-0.39-1.024-0.39-1.414 0l-1.293 1.293-1.293-1.293c-0.39-0.39-1.024-0.39-1.414 0l-1.293 1.293-1.293-1.293c-0.39-0.39-1.024-0.39-1.414 0l-1.293 1.293-1.293-1.293c-0.39-0.39-1.024-0.39-1.414 0l-0.293 0.293v-15.586c0-2.823-0.558-5.493-1.57-7.518-0.279-0.557-0.585-1.052-0.915-1.482h16.485c1.892 0 4 3.696 4 9v15.586z"></path>
<path fill="#444444" d="M8 13c0 1.657-0.895 3-2 3s-2-1.343-2-3c0-1.657 0.895-3 2-3s2 1.343 2 3z"></path>
<path fill="#444444" d="M16 13c0 0.552-0.448 1-1 1s-1-0.448-1-1c0-0.552 0.448-1 1-1s1 0.448 1 1z"></path>
<path fill="#444444" d="M20 13c0 0.552-0.448 1-1 1s-1-0.448-1-1c0-0.552 0.448-1 1-1s1 0.448 1 1z"></path>
<path fill="#444444" d="M24 13c0 0.552-0.448 1-1 1s-1-0.448-1-1c0-0.552 0.448-1 1-1s1 0.448 1 1z"></path>
<path fill="#444444" d="M28 13c0 0.552-0.448 1-1 1s-1-0.448-1-1c0-0.552 0.448-1 1-1s1 0.448 1 1z"></path>
</svg>
