<?xml version="1.0" encoding="utf-8"?>
<!-- Generated by IcoMoon.io -->
<!DOCTYPE svg PUBLIC "-//W3C//DTD SVG 1.1//EN" "http://www.w3.org/Graphics/SVG/1.1/DTD/svg11.dtd">
<svg version="1.1" xmlns="http://www.w3.org/2000/svg" xmlns:xlink="http://www.w3.org/1999/xlink" width="32" height="32" viewBox="0 0 32 32">
<path fill="#444444" d="M31.243 18.030l-11.243-2.811v-6.219c0-0.552-0.448-1-1-1h-4c-0.552 0-1 0.448-1 1v16.267l-6.5-3.758c-0.436-0.252-0.991-0.141-1.296 0.26l-2 2.625c-0.321 0.422-0.258 1.020 0.145 1.365l7 6c0.181 0.155 0.412 0.241 0.651 0.241h19c0.552 0 1-0.448 1-1v-12c0-0.459-0.312-0.859-0.757-0.97zM30 30h-17.63l-6.002-5.145 0.894-1.174 7.238 4.184c0.309 0.179 0.691 0.179 1 0s0.5-0.509 0.5-0.866v-17h2v15c0 0.552 0.448 1 1 1s1-0.448 1-1v-7.719l2 0.5v5.219c0 0.552 0.448 1 1 1s1-0.448 1-1v-4.719l2 0.5v6.219c0 0.552 0.448 1 1 1s1-0.448 1-1v-5.719l2 0.5v10.219z"></path>
<path fill="#444444" d="M11 8h-4c-0.404 0-0.769 0.244-0.924 0.617s-0.069 0.804 0.217 1.090l1.5 1.5-4.586 4.586-1.5-1.5c-0.286-0.286-0.716-0.371-1.090-0.217s-0.617 0.519-0.617 0.924v4c0 0.552 0.448 1 1 1h4c0.404 0 0.769-0.244 0.924-0.617s0.069-0.804-0.217-1.090l-1.5-1.5 4.586-4.586 1.5 1.5c0.286 0.286 0.716 0.371 1.090 0.217s0.617-0.52 0.617-0.924v-4c0-0.552-0.448-1-1-1z"></path>
</svg>
