<?xml version="1.0" encoding="utf-8"?>
<!-- Generated by IcoMoon.io -->
<!DOCTYPE svg PUBLIC "-//W3C//DTD SVG 1.1//EN" "http://www.w3.org/Graphics/SVG/1.1/DTD/svg11.dtd">
<svg version="1.1" xmlns="http://www.w3.org/2000/svg" xmlns:xlink="http://www.w3.org/1999/xlink" width="32" height="32" viewBox="0 0 32 32">
<path fill="#444444" d="M28 22v-20c0-1.1-0.9-2-2-2h-22c-1.1 0-2 0.9-2 2v20c0 1.1 0.9 2 2 2h3l-4.8 6.401c-0.125 0.167-0.2 0.374-0.2 0.599 0 0.552 0.447 1 0.999 1l0 0c0 0 0.001-0 0.001-0h23.999c0 0 0.001 0 0.001 0 0.209 0 0.419-0.065 0.599-0.2 0.442-0.331 0.531-0.958 0.2-1.4l-4.8-6.4h3c1.1 0 2-0.9 2-2zM26 7v8c0 0.552-0.448 1-1 1h-9v-10h9c0.552 0 1 0.448 1 1zM10 2h10v2h-10v-2zM4 7c0-0.552 0.448-1 1-1h9v10h-9c-0.552 0-1-0.448-1-1v-8zM4 20c0-1.105 0.895-2 2-2s2 0.895 2 2-0.895 2-2 2-2-0.895-2-2zM25 30h-20l1.5-2h17l1.5 2zM22 26h-14l1.5-2h11l1.5 2zM24 22c-1.105 0-2-0.895-2-2s0.895-2 2-2 2 0.895 2 2-0.895 2-2 2z"></path>
</svg>
