<?xml version="1.0" encoding="utf-8"?>
<!-- Generated by IcoMoon.io -->
<!DOCTYPE svg PUBLIC "-//W3C//DTD SVG 1.1//EN" "http://www.w3.org/Graphics/SVG/1.1/DTD/svg11.dtd">
<svg version="1.1" xmlns="http://www.w3.org/2000/svg" xmlns:xlink="http://www.w3.org/1999/xlink" width="32" height="32" viewBox="0 0 32 32">
<path fill="#444444" d="M23.704 6.709c-1.016-3.856-4.533-6.709-8.704-6.709s-7.688 2.852-8.704 6.709c-3.782 1.508-6.296 5.192-6.296 9.291 0 5.514 4.486 10 10 10h2v5c0 0.552 0.448 1 1 1h4c0.552 0 1-0.448 1-1v-5h2c5.514 0 10-4.486 10-10 0-4.12-2.507-7.784-6.296-9.291zM16 30h-2v-4h2v4zM20 24h-10c-4.411 0-8-3.589-8-8 0-2.889 1.561-5.519 4.001-6.93 0.006 0.738 0.1 1.47 0.283 2.179 0.116 0.451 0.522 0.751 0.968 0.751 0.082 0 0.166-0.010 0.25-0.032 0.535-0.138 0.857-0.683 0.719-1.218-0.146-0.568-0.221-1.157-0.221-1.751 0-3.86 3.14-7 7-7s7 3.14 7 7c0 0.593-0.074 1.182-0.221 1.751-0.138 0.535 0.184 1.080 0.719 1.218s1.080-0.184 1.218-0.719c0.183-0.71 0.277-1.443 0.283-2.182 2.444 1.407 4.001 4.028 4.001 6.933 0 4.411-3.589 8-8 8z"></path>
</svg>
