<?xml version="1.0" encoding="utf-8"?>
<!-- Generated by IcoMoon.io -->
<!DOCTYPE svg PUBLIC "-//W3C//DTD SVG 1.1//EN" "http://www.w3.org/Graphics/SVG/1.1/DTD/svg11.dtd">
<svg version="1.1" xmlns="http://www.w3.org/2000/svg" xmlns:xlink="http://www.w3.org/1999/xlink" width="32" height="32" viewBox="0 0 32 32">
<path fill="#444444" d="M23.704 6.709c-1.016-3.856-4.533-6.709-8.704-6.709s-7.688 2.852-8.704 6.709c-3.782 1.508-6.296 5.192-6.296 9.291 0 5.514 4.486 10 10 10 0.679 0 1.349-0.070 2-0.202v5.202c0 0.552 0.448 1 1 1h4c0.552 0 1-0.448 1-1v-5.202c0.654 0.133 1.323 0.202 2 0.202 5.514 0 10-4.486 10-10 0-4.12-2.507-7.784-6.296-9.291z"></path>
</svg>
