<?xml version="1.0" encoding="utf-8"?>
<!-- Generated by IcoMoon.io -->
<!DOCTYPE svg PUBLIC "-//W3C//DTD SVG 1.1//EN" "http://www.w3.org/Graphics/SVG/1.1/DTD/svg11.dtd">
<svg version="1.1" xmlns="http://www.w3.org/2000/svg" xmlns:xlink="http://www.w3.org/1999/xlink" width="32" height="32" viewBox="0 0 32 32">
<path fill="#444444" d="M31 6c-0.552 0-1 0.448-1 1 0 2.543-1.477 4.16-2.716 5.069-1.674 1.227-3.964 1.931-6.284 1.931h-1v-3c0-0.552-0.448-1-1-1s-1 0.448-1 1v3h-2v-3c0-0.552-0.448-1-1-1s-1 0.448-1 1v3h-2v-3c0-0.552-0.448-1-1-1s-1 0.448-1 1v3h-8v-1c0-0.552-0.448-1-1-1s-1 0.448-1 1v6c0 0.552 0.448 1 1 1s1-0.448 1-1v-1h4.343c-0.222 0.626-0.343 1.299-0.343 2 0 3.308 2.692 6 6 6h6c3.308 0 6-2.692 6-6 0-0.578-0.082-1.137-0.235-1.666 1.309 0.322 2.523 0.867 3.519 1.597 1.239 0.909 2.716 2.526 2.716 5.069 0 0.552 0.448 1 1 1s1-0.448 1-1v-18c0-0.552-0.448-1-1-1zM18 22h-6c-1.103 0-2-0.897-2-2s0.897-2 2-2h6c1.103 0 2 0.897 2 2s-0.897 2-2 2z"></path>
</svg>
