<?xml version="1.0" encoding="utf-8"?>
<!-- Generated by IcoMoon.io -->
<!DOCTYPE svg PUBLIC "-//W3C//DTD SVG 1.1//EN" "http://www.w3.org/Graphics/SVG/1.1/DTD/svg11.dtd">
<svg version="1.1" xmlns="http://www.w3.org/2000/svg" xmlns:xlink="http://www.w3.org/1999/xlink" width="32" height="32" viewBox="0 0 32 32">
<path fill="#444444" d="M8 12v-10h12.586l3.414 3.414v6.586h2v-7c0-0.265-0.105-0.52-0.293-0.707l-4-4c-0.187-0.188-0.442-0.293-0.707-0.293h-14c-0.552 0-1 0.448-1 1v11h2z"></path>
<path fill="#444444" d="M31.857 26.486l0.001-0.001-5.091-8.485h3.234v-4h-28v4h3.234l-5.091 8.487c-0.090 0.15-0.143 0.325-0.143 0.513v4c0 0.552 0.448 1 1 1h30c0.552 0 1-0.448 1-1v-4c0-0.188-0.053-0.363-0.143-0.514zM21 18h2c0.552 0 1 0.448 1 1s-0.448 1-1 1h-2c-0.552 0-1-0.448-1-1s0.448-1 1-1zM21 22h2c0.552 0 1 0.448 1 1s-0.448 1-1 1h-2c-0.552 0-1-0.448-1-1s0.448-1 1-1zM15 18h2c0.552 0 1 0.448 1 1s-0.448 1-1 1h-2c-0.552 0-1-0.448-1-1s0.448-1 1-1zM15 22h2c0.552 0 1 0.448 1 1s-0.448 1-1 1h-2c-0.552 0-1-0.448-1-1s0.448-1 1-1zM9 18h2c0.552 0 1 0.448 1 1s-0.448 1-1 1h-2c-0.552 0-1-0.448-1-1s0.448-1 1-1zM9 22h2c0.552 0 1 0.448 1 1s-0.448 1-1 1h-2c-0.552 0-1-0.448-1-1s0.448-1 1-1zM27 28h-22c-0.552 0-1-0.448-1-1s0.448-1 1-1h22c0.552 0 1 0.448 1 1s-0.448 1-1 1z"></path>
<path fill="#444444" d="M11 6h8c0.552 0 1-0.448 1-1s-0.448-1-1-1h-8c-0.552 0-1 0.448-1 1s0.448 1 1 1z"></path>
<path fill="#444444" d="M21 8h-10c-0.552 0-1 0.448-1 1s0.448 1 1 1h10c0.552 0 1-0.448 1-1s-0.448-1-1-1z"></path>
</svg>
