<?xml version="1.0" encoding="utf-8"?>
<!-- Generated by IcoMoon.io -->
<!DOCTYPE svg PUBLIC "-//W3C//DTD SVG 1.1//EN" "http://www.w3.org/Graphics/SVG/1.1/DTD/svg11.dtd">
<svg version="1.1" xmlns="http://www.w3.org/2000/svg" xmlns:xlink="http://www.w3.org/1999/xlink" width="32" height="32" viewBox="0 0 32 32">
<path fill="#444444" d="M13.757 19.868c-0.416 0-0.832-0.159-1.149-0.476-2.973-2.973-2.973-7.81 0-10.783l6-6c1.44-1.44 3.355-2.233 5.392-2.233s3.951 0.793 5.392 2.233c2.973 2.973 2.973 7.81 0 10.783l-2.743 2.743c-0.635 0.635-1.663 0.635-2.298 0s-0.635-1.663 0-2.298l2.743-2.743c1.706-1.706 1.706-4.481 0-6.187-0.826-0.826-1.925-1.281-3.094-1.281s-2.267 0.455-3.094 1.281l-6 6c-1.706 1.706-1.706 4.481 0 6.187 0.635 0.635 0.635 1.663 0 2.298-0.317 0.317-0.733 0.476-1.149 0.476z"></path>
<path fill="#444444" d="M8 31.625c-2.037 0-3.952-0.793-5.392-2.233-2.973-2.973-2.973-7.81 0-10.783l2.743-2.743c0.635-0.635 1.664-0.635 2.298 0s0.635 1.663 0 2.298l-2.743 2.743c-1.706 1.706-1.706 4.481 0 6.187 0.826 0.826 1.925 1.281 3.094 1.281s2.267-0.455 3.094-1.281l6-6c1.706-1.706 1.706-4.481 0-6.187-0.635-0.635-0.635-1.663 0-2.298s1.663-0.635 2.298 0c2.973 2.973 2.973 7.81 0 10.783l-6 6c-1.44 1.44-3.355 2.233-5.392 2.233z"></path>
<path fill="#444444" d="M29 26c-0.256 0-0.512-0.098-0.707-0.293l-4-4c-0.391-0.39-0.391-1.024 0-1.414s1.024-0.39 1.414 0l4 4c0.391 0.39 0.391 1.024 0 1.414-0.195 0.195-0.451 0.293-0.707 0.293z"></path>
<path fill="#444444" d="M31 20h-4c-0.552 0-1-0.448-1-1s0.448-1 1-1h4c0.552 0 1 0.448 1 1s-0.448 1-1 1z"></path>
<path fill="#444444" d="M23 28c-0.552 0-1-0.448-1-1v-4c0-0.552 0.448-1 1-1s1 0.448 1 1v4c0 0.552-0.448 1-1 1z"></path>
<path fill="#444444" d="M5 14h-4c-0.552 0-1-0.448-1-1s0.448-1 1-1h4c0.552 0 1 0.448 1 1s-0.448 1-1 1z"></path>
<path fill="#444444" d="M7 12c-0.256 0-0.512-0.098-0.707-0.293l-4-4c-0.391-0.391-0.391-1.024 0-1.414s1.024-0.391 1.414 0l4 4c0.391 0.39 0.391 1.024 0 1.414-0.195 0.195-0.451 0.293-0.707 0.293z"></path>
<path fill="#444444" d="M9 10c-0.552 0-1-0.448-1-1v-4c0-0.552 0.448-1 1-1s1 0.448 1 1v4c0 0.552-0.448 1-1 1z"></path>
</svg>
