<?xml version="1.0" encoding="utf-8"?>
<!-- Generated by IcoMoon.io -->
<!DOCTYPE svg PUBLIC "-//W3C//DTD SVG 1.1//EN" "http://www.w3.org/Graphics/SVG/1.1/DTD/svg11.dtd">
<svg version="1.1" xmlns="http://www.w3.org/2000/svg" xmlns:xlink="http://www.w3.org/1999/xlink" width="32" height="32" viewBox="0 0 32 32">
<path fill="#444444" d="M9 32c-4.963 0-9-4.037-9-9s4.037-9 9-9c1.105 0 2 0.895 2 2s-0.895 2-2 2c-2.757 0-5 2.243-5 5s2.243 5 5 5 5-2.243 5-5c0-1.105 0.895-2 2-2s2 0.895 2 2c0 4.963-4.037 9-9 9z"></path>
<path fill="#444444" d="M23 18c-1.105 0-2-0.895-2-2s0.895-2 2-2c2.757 0 5-2.243 5-5s-2.243-5-5-5-5 2.243-5 5c0 1.105-0.895 2-2 2s-2-0.895-2-2c0-4.963 4.037-9 9-9s9 4.037 9 9-4.037 9-9 9z"></path>
<path fill="#444444" d="M7 8c-0.256 0-0.512-0.098-0.707-0.293l-4-4c-0.391-0.39-0.391-1.024 0-1.414s1.024-0.391 1.414 0l4 4c0.391 0.391 0.391 1.024 0 1.414-0.195 0.195-0.451 0.293-0.707 0.293z"></path>
<path fill="#444444" d="M11 6c-0.552 0-1-0.448-1-1v-4c0-0.552 0.448-1 1-1s1 0.448 1 1v4c0 0.552-0.448 1-1 1z"></path>
<path fill="#444444" d="M5 12h-4c-0.552 0-1-0.448-1-1s0.448-1 1-1h4c0.552 0 1 0.448 1 1s-0.448 1-1 1z"></path>
<path fill="#444444" d="M29 30c-0.256 0-0.512-0.098-0.707-0.293l-4-4c-0.391-0.39-0.391-1.024 0-1.414s1.024-0.39 1.414 0l4 4c0.391 0.39 0.391 1.024 0 1.414-0.195 0.195-0.451 0.293-0.707 0.293z"></path>
<path fill="#444444" d="M31 22h-4c-0.552 0-1-0.448-1-1s0.448-1 1-1h4c0.552 0 1 0.448 1 1s-0.448 1-1 1z"></path>
<path fill="#444444" d="M21 32c-0.552 0-1-0.448-1-1v-4c0-0.552 0.448-1 1-1s1 0.448 1 1v4c0 0.552-0.448 1-1 1z"></path>
</svg>
