<?xml version="1.0" encoding="utf-8"?>
<!-- Generated by IcoMoon.io -->
<!DOCTYPE svg PUBLIC "-//W3C//DTD SVG 1.1//EN" "http://www.w3.org/Graphics/SVG/1.1/DTD/svg11.dtd">
<svg version="1.1" xmlns="http://www.w3.org/2000/svg" xmlns:xlink="http://www.w3.org/1999/xlink" width="34" height="32" viewBox="0 0 34 32">
<path fill="#444444" d="M14 24h-6c-4.411 0-8-3.589-8-8s3.589-8 8-8h6c1.105 0 2 0.895 2 2s-0.895 2-2 2h-6c-2.206 0-4 1.794-4 4s1.794 4 4 4h6c1.105 0 2 0.895 2 2s-0.895 2-2 2z"></path>
<path fill="#444444" d="M26 24h-6c-1.105 0-2-0.895-2-2s0.895-2 2-2h6c2.206 0 4-1.794 4-4s-1.794-4-4-4h-6c-1.105 0-2-0.895-2-2s0.895-2 2-2h6c4.411 0 8 3.589 8 8s-3.589 8-8 8z"></path>
<path fill="#444444" d="M17 6c-0.552 0-1-0.448-1-1v-4c0-0.552 0.448-1 1-1s1 0.448 1 1v4c0 0.552-0.448 1-1 1z"></path>
<path fill="#444444" d="M23 6c-0.256 0-0.512-0.098-0.707-0.293-0.391-0.391-0.391-1.024 0-1.414l4-4c0.39-0.391 1.024-0.391 1.414 0s0.391 1.024 0 1.414l-4 4c-0.195 0.195-0.451 0.293-0.707 0.293z"></path>
<path fill="#444444" d="M11 6c-0.256 0-0.512-0.098-0.707-0.293l-4-4c-0.391-0.391-0.391-1.024 0-1.414s1.024-0.391 1.414 0l4 4c0.391 0.391 0.391 1.024 0 1.414-0.195 0.195-0.451 0.293-0.707 0.293z"></path>
<path fill="#444444" d="M17 26c0.552 0 1 0.448 1 1v4c0 0.552-0.448 1-1 1s-1-0.448-1-1v-4c0-0.552 0.448-1 1-1z"></path>
<path fill="#444444" d="M11 26c0.256 0 0.512 0.098 0.707 0.293 0.391 0.39 0.391 1.024 0 1.414l-4 4c-0.391 0.391-1.024 0.391-1.414 0s-0.391-1.024 0-1.414l4-4c0.195-0.195 0.451-0.293 0.707-0.293z"></path>
<path fill="#444444" d="M23 26c0.256 0 0.512 0.098 0.707 0.293l4 4c0.39 0.39 0.39 1.024 0 1.414s-1.024 0.391-1.414 0l-4-4c-0.391-0.39-0.391-1.024 0-1.414 0.195-0.195 0.451-0.293 0.707-0.293z"></path>
</svg>
