<?xml version="1.0" encoding="utf-8"?>
<!-- Generated by IcoMoon.io -->
<!DOCTYPE svg PUBLIC "-//W3C//DTD SVG 1.1//EN" "http://www.w3.org/Graphics/SVG/1.1/DTD/svg11.dtd">
<svg version="1.1" xmlns="http://www.w3.org/2000/svg" xmlns:xlink="http://www.w3.org/1999/xlink" width="32" height="32" viewBox="0 0 32 32">
<path fill="#444444" d="M27 12l-11-11-11 11h7v12h8v-12z"></path>
<path fill="#444444" d="M0.568 30.75h30.864c0.113-0.156 0.211-0.323 0.293-0.5h-31.449c0.082 0.177 0.18 0.344 0.293 0.5z"></path>
<path fill="#444444" d="M1.806 31.75h28.388c0.287-0.126 0.551-0.295 0.784-0.5h-29.956c0.232 0.205 0.496 0.374 0.784 0.5z"></path>
<path fill="#444444" d="M0.096 29.75h31.809c0.042-0.162 0.070-0.329 0.084-0.5h-31.977c0.014 0.171 0.042 0.338 0.084 0.5z"></path>
<path fill="#444444" d="M31.75 28.25v-12.25h-0.5v12.25h-0.5v-12.25h-0.5v12.25h-0.5v-12.25h-0.5v12.25h-0.5v-12.25h-0.5v12.25h-24.5v-12.25h-0.5v12.25h-0.5v-12.25h-0.5v12.25h-0.5v-12.25h-0.5v12.25h-0.5v-12.25h-0.5v12.25h-0.25v0.5h32v-0.5z"></path>
</svg>
