<?xml version="1.0" encoding="utf-8"?>
<!-- Generated by IcoMoon.io -->
<!DOCTYPE svg PUBLIC "-//W3C//DTD SVG 1.1//EN" "http://www.w3.org/Graphics/SVG/1.1/DTD/svg11.dtd">
<svg version="1.1" xmlns="http://www.w3.org/2000/svg" xmlns:xlink="http://www.w3.org/1999/xlink" width="32" height="32" viewBox="0 0 32 32">
<path fill="#444444" d="M13 4c-0.552 0-1 0.448-1 1v2c0 0.552 0.448 1 1 1s1-0.448 1-1v-2c0-0.552-0.448-1-1-1z"></path>
<path fill="#444444" d="M17 4c-0.552 0-1 0.448-1 1v2c0 0.552 0.448 1 1 1s1-0.448 1-1v-2c0-0.552-0.448-1-1-1z"></path>
<path fill="#444444" d="M23 10h-1v-9c0-0.552-0.448-1-1-1h-12c-0.552 0-1 0.448-1 1v9h-1c-0.552 0-1 0.448-1 1v18.75c2 3 16 3 18 0v-18.75c0-0.552-0.448-1-1-1zM10 27c0 0.552-0.448 1-1 1s-1-0.448-1-1v-12c0-0.552 0.448-1 1-1s1 0.448 1 1v12zM20 10h-10v-8h10v8z"></path>
</svg>
