<?xml version="1.0" encoding="utf-8"?>
<!-- Generated by IcoMoon.io -->
<!DOCTYPE svg PUBLIC "-//W3C//DTD SVG 1.1//EN" "http://www.w3.org/Graphics/SVG/1.1/DTD/svg11.dtd">
<svg version="1.1" xmlns="http://www.w3.org/2000/svg" xmlns:xlink="http://www.w3.org/1999/xlink" width="32" height="32" viewBox="0 0 32 32">
<path fill="#444444" d="M30.954 32h-21.909c-0.281 0-0.549-0.118-0.738-0.325s-0.283-0.485-0.258-0.764c0.22-2.441 1.17-4.726 2.746-6.609 1.393-1.664 3.181-2.904 5.204-3.618l0-0.95c-1.123-0.769-2.074-1.852-2.77-3.163-0.805-1.515-1.23-3.268-1.23-5.070 0-2.502 0.809-4.862 2.278-6.646 1.516-1.84 3.548-2.854 5.722-2.854s4.206 1.014 5.722 2.854c1.469 1.784 2.278 4.144 2.278 6.646 0 1.802-0.425 3.555-1.23 5.070-0.696 1.311-1.647 2.394-2.77 3.163l0 0.95c2.023 0.714 3.811 1.954 5.204 3.618 1.576 1.883 2.526 4.169 2.746 6.609 0.025 0.28-0.068 0.557-0.258 0.764s-0.457 0.325-0.738 0.325zM10.2 30h19.599c-0.328-1.621-1.053-3.13-2.129-4.415-1.299-1.552-3.008-2.661-4.943-3.208-0.431-0.122-0.728-0.515-0.728-0.962l-0-2.232c0-0.357 0.191-0.688 0.5-0.866 2.126-1.226 3.5-3.902 3.5-6.816 0-4.136-2.692-7.5-6-7.5s-6 3.364-6 7.5c0 2.914 1.374 5.589 3.5 6.816 0.31 0.179 0.5 0.509 0.5 0.866l-0 2.232c0 0.447-0.297 0.84-0.728 0.962-1.935 0.547-3.644 1.657-4.943 3.208-1.076 1.285-1.801 2.794-2.129 4.415z"></path>
<path fill="#444444" d="M9.071 22.857c1.033-1.234 2.262-2.28 3.627-3.096-0.554-0.644-1.044-1.361-1.455-2.135-0.977-1.839-1.493-3.957-1.493-6.125 0-3.022 0.991-5.891 2.791-8.076 0.858-1.042 1.851-1.878 2.938-2.487-1.070-0.613-2.252-0.936-3.479-0.936-2.174 0-4.206 1.014-5.722 2.854-1.469 1.784-2.278 4.144-2.278 6.646 0 1.802 0.425 3.555 1.23 5.070 0.696 1.311 1.647 2.394 2.77 3.163l-0 0.95c-2.023 0.714-3.811 1.954-5.204 3.618-1.576 1.883-2.526 4.169-2.746 6.609-0.025 0.28 0.068 0.557 0.258 0.764s0.457 0.325 0.738 0.325h4.845c0.37-2.633 1.46-5.090 3.18-7.143z"></path>
</svg>
