<?xml version="1.0" encoding="utf-8"?>
<!-- Generated by IcoMoon.io -->
<!DOCTYPE svg PUBLIC "-//W3C//DTD SVG 1.1//EN" "http://www.w3.org/Graphics/SVG/1.1/DTD/svg11.dtd">
<svg version="1.1" xmlns="http://www.w3.org/2000/svg" xmlns:xlink="http://www.w3.org/1999/xlink" width="32" height="32" viewBox="0 0 32 32">
<path fill="#444444" d="M30.5 22h-0.5v-2c0-2.206-1.794-4-4-4s-4 1.794-4 4v2h-0.5c-0.825 0-1.5 0.675-1.5 1.5v7c0 0.825 0.675 1.5 1.5 1.5h9c0.825 0 1.5-0.675 1.5-1.5v-7c0-0.825-0.675-1.5-1.5-1.5zM24 20c0-1.103 0.897-2 2-2s2 0.897 2 2v2h-4v-2z"></path>
<path fill="#444444" d="M18 18.332c-0.648-0.11-1.316-0.195-2-0.251v-1.649c2.203-1.242 4-4.337 4-7.432 0-4.971 0-9-6-9s-6 4.029-6 9c0 3.096 1.797 6.191 4 7.432v1.649c-6.784 0.555-12 3.888-12 7.918h18v-7.668z"></path>
</svg>
