<?xml version="1.0" encoding="utf-8"?>
<!-- Generated by IcoMoon.io -->
<!DOCTYPE svg PUBLIC "-//W3C//DTD SVG 1.1//EN" "http://www.w3.org/Graphics/SVG/1.1/DTD/svg11.dtd">
<svg version="1.1" xmlns="http://www.w3.org/2000/svg" xmlns:xlink="http://www.w3.org/1999/xlink" width="32" height="32" viewBox="0 0 32 32">
<path fill="#444444" d="M15 32h-13.954c-0.281 0-0.549-0.118-0.738-0.325s-0.283-0.485-0.258-0.764c0.22-2.441 1.17-4.726 2.746-6.609 1.393-1.664 3.181-2.904 5.204-3.618l0-0.95c-1.123-0.769-2.074-1.852-2.77-3.163-0.805-1.515-1.23-3.268-1.23-5.070 0-2.502 0.809-4.862 2.278-6.646 1.516-1.84 3.548-2.854 5.722-2.854s4.206 1.014 5.722 2.854c1.469 1.784 2.278 4.144 2.278 6.646 0 0.552-0.040 1.106-0.119 1.645-0.080 0.546-0.588 0.925-1.135 0.844s-0.924-0.588-0.844-1.134c0.065-0.444 0.098-0.899 0.098-1.355 0-4.136-2.692-7.5-6-7.5s-6 3.364-6 7.5c0 2.914 1.374 5.589 3.5 6.816 0.31 0.179 0.5 0.509 0.5 0.866l-0 2.232c0 0.447-0.297 0.84-0.728 0.962-1.935 0.547-3.644 1.657-4.943 3.208-1.076 1.285-1.801 2.794-2.129 4.415h12.8c0.552 0 1 0.448 1 1s-0.448 1-1 1z"></path>
<path fill="#444444" d="M31 20h-1v-1c0-2.757-2.243-5-5-5s-5 2.243-5 5v1h-1c-0.552 0-1 0.448-1 1v10c0 0.552 0.448 1 1 1h12c0.552 0 1-0.448 1-1v-10c0-0.552-0.448-1-1-1zM22 19c0-1.654 1.346-3 3-3s3 1.346 3 3v1h-6v-1zM30 30h-10v-8h10v8z"></path>
<path fill="#444444" d="M25 28c-0.552 0-1-0.448-1-1v-2c0-0.552 0.448-1 1-1s1 0.448 1 1v2c0 0.552-0.448 1-1 1z"></path>
</svg>
