<?xml version="1.0" encoding="utf-8"?>
<!-- Generated by IcoMoon.io -->
<!DOCTYPE svg PUBLIC "-//W3C//DTD SVG 1.1//EN" "http://www.w3.org/Graphics/SVG/1.1/DTD/svg11.dtd">
<svg version="1.1" xmlns="http://www.w3.org/2000/svg" xmlns:xlink="http://www.w3.org/1999/xlink" width="32" height="32" viewBox="0 0 32 32">
<path fill="#444444" d="M12 23c0-4.726 2.996-8.765 7.189-10.319 0.509-1.142 0.811-2.411 0.811-3.681 0-4.971 0-9-6-9s-6 4.029-6 9c0 3.096 1.797 6.191 4 7.432v1.649c-6.784 0.555-12 3.888-12 7.918h12.416c-0.271-0.954-0.416-1.96-0.416-3z"></path>
<path fill="#444444" d="M23 14c-4.971 0-9 4.029-9 9s4.029 9 9 9c4.971 0 9-4.029 9-9s-4.029-9-9-9zM27.796 26.204c0.439 0.439 0.439 1.152 0 1.591-0.22 0.22-0.508 0.33-0.796 0.33s-0.576-0.11-0.796-0.329l-3.204-3.205-3.204 3.204c-0.22 0.22-0.508 0.33-0.796 0.33s-0.576-0.11-0.796-0.329c-0.439-0.439-0.439-1.152 0-1.591l3.205-3.205-3.204-3.204c-0.439-0.439-0.439-1.152 0-1.591s1.152-0.439 1.591 0l3.204 3.204 3.204-3.204c0.439-0.439 1.152-0.439 1.591 0s0.439 1.152 0 1.591l-3.204 3.204 3.205 3.204z"></path>
</svg>
