<?xml version="1.0" encoding="utf-8"?>
<!-- Generated by IcoMoon.io -->
<!DOCTYPE svg PUBLIC "-//W3C//DTD SVG 1.1//EN" "http://www.w3.org/Graphics/SVG/1.1/DTD/svg11.dtd">
<svg version="1.1" xmlns="http://www.w3.org/2000/svg" xmlns:xlink="http://www.w3.org/1999/xlink" width="44" height="32" viewBox="0 0 44 32">
<path fill="#444444" d="M24 22.041v-0.414c2.891-1.107 5-4.55 5-8.627 0-4.971-3.134-9-7-9s-7 4.029-7 9c0 4.077 2.109 7.52 5 8.627v0.414c-6.784 0.277-12 1.944-12 3.959v4h28v-4c0-2.015-5.216-3.682-12-3.959z"></path>
<path fill="#444444" d="M36 14.018v-0.159c2.282-0.649 4-3.473 4-6.86 0-3.866-2.239-7-5-7s-5 3.134-5 7c0 3.387 1.718 6.211 4 6.86v0.159c-0.994 0.037-1.939 0.127-2.809 0.263-0.196 2.132-0.878 4.101-1.929 5.719h14.738v-3c0-1.544-3.5-2.816-8-2.982z"></path>
<path fill="#444444" d="M12.809 14.281c-0.87-0.136-1.815-0.226-2.809-0.263v-0.159c2.282-0.649 4-3.473 4-6.86 0-3.866-2.239-7-5-7s-5 3.134-5 7c0 3.387 1.718 6.211 4 6.86v0.159c-4.5 0.166-8 1.437-8 2.981v3h14.738c-1.051-1.617-1.733-3.587-1.929-5.719z"></path>
</svg>
