<?xml version="1.0" encoding="utf-8"?>
<!-- Generated by IcoMoon.io -->
<!DOCTYPE svg PUBLIC "-//W3C//DTD SVG 1.1//EN" "http://www.w3.org/Graphics/SVG/1.1/DTD/svg11.dtd">
<svg version="1.1" xmlns="http://www.w3.org/2000/svg" xmlns:xlink="http://www.w3.org/1999/xlink" width="32" height="32" viewBox="0 0 32 32">
<path fill="#444444" d="M15 32h-13.954c-0.281 0-0.549-0.118-0.738-0.325s-0.283-0.485-0.258-0.764c0.22-2.441 1.17-4.726 2.746-6.609 1.393-1.664 3.181-2.904 5.204-3.618l0-0.95c-1.123-0.769-2.074-1.852-2.77-3.163-0.805-1.515-1.23-3.268-1.23-5.070 0-2.502 0.809-4.862 2.278-6.646 1.516-1.84 3.548-2.854 5.722-2.854 4.239 0 7.747 3.932 7.987 8.952 0.026 0.552-0.399 1.020-0.951 1.047-0.553 0.026-1.020-0.4-1.047-0.951-0.189-3.952-2.819-7.048-5.989-7.048-3.308 0-6 3.364-6 7.5 0 2.914 1.374 5.589 3.5 6.816 0.31 0.179 0.5 0.509 0.5 0.866l-0 2.232c0 0.447-0.297 0.84-0.728 0.962-1.935 0.547-3.644 1.657-4.943 3.208-1.076 1.285-1.801 2.794-2.129 4.415h12.8c0.552 0 1 0.448 1 1s-0.448 1-1 1z"></path>
<path fill="#444444" d="M23 32c-4.963 0-9-4.037-9-9s4.037-9 9-9 9 4.037 9 9-4.037 9-9 9zM23 16c-3.86 0-7 3.14-7 7s3.14 7 7 7 7-3.14 7-7-3.14-7-7-7z"></path>
<path fill="#444444" d="M24.414 23l3.293-3.293c0.391-0.39 0.391-1.024 0-1.414s-1.024-0.39-1.414 0l-3.293 3.293-3.293-3.293c-0.39-0.39-1.024-0.39-1.414 0s-0.391 1.024 0 1.414l3.293 3.293-3.293 3.293c-0.391 0.39-0.391 1.024 0 1.414 0.195 0.195 0.451 0.293 0.707 0.293s0.512-0.098 0.707-0.293l3.293-3.293 3.293 3.293c0.195 0.195 0.451 0.293 0.707 0.293s0.512-0.098 0.707-0.293c0.391-0.39 0.391-1.024 0-1.414l-3.293-3.293z"></path>
</svg>
