<?xml version="1.0" encoding="utf-8"?>
<!-- Generated by IcoMoon.io -->
<!DOCTYPE svg PUBLIC "-//W3C//DTD SVG 1.1//EN" "http://www.w3.org/Graphics/SVG/1.1/DTD/svg11.dtd">
<svg version="1.1" xmlns="http://www.w3.org/2000/svg" xmlns:xlink="http://www.w3.org/1999/xlink" width="32" height="32" viewBox="0 0 32 32">
<path fill="#444444" d="M10 10v4.678c-3.758 4.766-6 10.782-6 17.322h2c0-3.511 0.687-6.916 2.042-10.12 0.895-2.116 2.054-4.084 3.46-5.88h4.497v-4.497c1.797-1.406 3.765-2.566 5.88-3.46 3.204-1.355 6.609-2.042 10.12-2.042v-2c-6.54 0-12.556 2.242-17.322 6h-4.678zM10 30h4v2h-4v-2zM18 30h4v2h-4v-2zM30 26v4h-4v2h6v-6h-2zM30 10h2v4h-2v-4zM30 18h2v4h-2v-4z"></path>
<path fill="#444444" d="M2 10c-1.105 0-2 0.895-2 2s0.895 2 2 2v18h2v-20c0-1.105-0.895-2-2-2z"></path>
<path fill="#444444" d="M14 2c0-1.105-0.895-2-2-2s-2 0.895-2 2 0.895 2 2 2h20v-2h-18z"></path>
</svg>
