<?xml version="1.0" encoding="utf-8"?>
<!-- Generated by IcoMoon.io -->
<!DOCTYPE svg PUBLIC "-//W3C//DTD SVG 1.1//EN" "http://www.w3.org/Graphics/SVG/1.1/DTD/svg11.dtd">
<svg version="1.1" xmlns="http://www.w3.org/2000/svg" xmlns:xlink="http://www.w3.org/1999/xlink" width="32" height="32" viewBox="0 0 32 32">
<path fill="#444444" d="M23.271 16c0.88-0.55 1.65-1.212 2.306-1.987 1.647-1.944 2.253-4.216 2.445-6.013h1.978v-6h-6v6h2.001c-0.184 1.461-0.693 3.243-1.962 4.734-1.367 1.606-3.392 2.624-6.040 3.044v-1.778h-6v2h-8c0-1.105-0.895-2-2-2s-2 0.895-2 2v2h6.729c-0.88 0.55-1.65 1.212-2.306 1.987-1.647 1.944-2.253 4.216-2.445 6.013h-1.978v6h6v-6h-2.001c0.185-1.461 0.693-3.243 1.962-4.734 1.367-1.606 3.392-2.625 6.040-3.045v1.779h6v-2h10c0 1.105 0.895 2 2 2s2-0.895 2-2v-2h-8.729zM26 6v-2h2v2h-2zM4 28v2h-2v-2h2zM16 18h-2v-2h2v2z"></path>
</svg>
