<?xml version="1.0" encoding="utf-8"?>
<!-- Generated by IcoMoon.io -->
<!DOCTYPE svg PUBLIC "-//W3C//DTD SVG 1.1//EN" "http://www.w3.org/Graphics/SVG/1.1/DTD/svg11.dtd">
<svg version="1.1" xmlns="http://www.w3.org/2000/svg" xmlns:xlink="http://www.w3.org/1999/xlink" width="32" height="32" viewBox="0 0 32 32">
<path fill="#444444" d="M31.707 2.293c-0.39-0.391-1.024-0.391-1.414 0l-8.293 8.293v-7.586c0-0.404-0.244-0.769-0.617-0.924s-0.804-0.069-1.090 0.217l-7.707 7.707h-3.586c-0.552 0-1 0.448-1 1v10c0 0.552 0.448 1 1 1h1.586l-6.293 6.293c-0.39 0.39-0.39 1.024 0 1.414 0.195 0.195 0.451 0.293 0.707 0.293s0.512-0.098 0.707-0.293l7.293-7.293 7.293 7.293c0.191 0.191 0.447 0.293 0.707 0.293 0.129 0 0.259-0.025 0.382-0.076 0.374-0.155 0.617-0.519 0.617-0.924v-15.586l9.707-9.707c0.391-0.391 0.391-1.024 0-1.414zM10 20v-8h3c0.265 0 0.52-0.105 0.707-0.293l6.293-6.293v7.172l-7.414 7.414h-2.586zM20 26.586l-5.586-5.586 5.586-5.586v11.172z"></path>
</svg>
