<?xml version="1.0" encoding="utf-8"?>
<!-- Generated by IcoMoon.io -->
<!DOCTYPE svg PUBLIC "-//W3C//DTD SVG 1.1//EN" "http://www.w3.org/Graphics/SVG/1.1/DTD/svg11.dtd">
<svg version="1.1" xmlns="http://www.w3.org/2000/svg" xmlns:xlink="http://www.w3.org/1999/xlink" width="32" height="32" viewBox="0 0 32 32">
<path fill="#444444" d="M0 26h8v4h-8v-4z"></path>
<path fill="#444444" d="M10 26h8v4h-8v-4z"></path>
<path fill="#444444" d="M20 26h12v4h-12v-4z"></path>
<path fill="#444444" d="M0 20h12v4h-12v-4z"></path>
<path fill="#444444" d="M14 20h8v4h-8v-4z"></path>
<path fill="#444444" d="M24 20h8v4h-8v-4z"></path>
<path fill="#444444" d="M0 14h8v4h-8v-4z"></path>
<path fill="#444444" d="M10 14h8v4h-8v-4z"></path>
<path fill="#444444" d="M20 14h12v4h-12v-4z"></path>
<path fill="#444444" d="M0 8h12v4h-12v-4z"></path>
<path fill="#444444" d="M14 8h8v4h-8v-4z"></path>
<path fill="#444444" d="M24 8h8v4h-8v-4z"></path>
<path fill="#444444" d="M0 2h8v4h-8v-4z"></path>
<path fill="#444444" d="M10 2h8v4h-8v-4z"></path>
<path fill="#444444" d="M20 2h12v4h-12v-4z"></path>
</svg>
