<?xml version="1.0" encoding="utf-8"?>
<!-- Generated by IcoMoon.io -->
<!DOCTYPE svg PUBLIC "-//W3C//DTD SVG 1.1//EN" "http://www.w3.org/Graphics/SVG/1.1/DTD/svg11.dtd">
<svg version="1.1" xmlns="http://www.w3.org/2000/svg" xmlns:xlink="http://www.w3.org/1999/xlink" width="34" height="32" viewBox="0 0 34 32">
<path fill="#444444" d="M30 4h-26c-2.209 0-4 1.791-4 4v20c0 1.1 0.9 2 2 2h24c1.1 0 2-0.9 2-2v-2h2c1.1 0 2-0.9 2-2v-18c0-1.1-0.9-2-2-2zM2 12h1v2h-1v-2zM2 16h1v2h-1v-2zM2 20h1v2h-1v-2zM2 24h1v2h-1v-2zM4 28h-2v-1h2v1zM4 11h-2v-1h2v1zM8 28h-2v-1h2v1zM8 11h-2v-1h2v1zM12 28h-2v-1h2v1zM12 11h-2v-1h2v1zM16 28h-2v-1h2v1zM16 11h-2v-1h2v1zM20 28h-2v-1h2v1zM24 28h-2v-1h2v1zM30 14h-8v6h8v3.996c-0.001 0.001-0.002 0.003-0.004 0.004h-1.996v-2h-8v-10h8v-2c0-1.1-0.9-2-2-2h-24c0-1.103 0.897-2 2-2h25.996c0.001 0.001 0.003 0.002 0.004 0.004v7.996zM26 17c0 0.552-0.448 1-1 1s-1-0.448-1-1 0.448-1 1-1 1 0.448 1 1z"></path>
</svg>
