<?xml version="1.0" encoding="utf-8"?>
<!-- Generated by IcoMoon.io -->
<!DOCTYPE svg PUBLIC "-//W3C//DTD SVG 1.1//EN" "http://www.w3.org/Graphics/SVG/1.1/DTD/svg11.dtd">
<svg version="1.1" xmlns="http://www.w3.org/2000/svg" xmlns:xlink="http://www.w3.org/1999/xlink" width="32" height="32" viewBox="0 0 32 32">
<path fill="#444444" d="M22 6h-1l-1-6h-10l-1 6h-1c-2.2 0-4 1.5-4 3.333v13.333c0 1.833 1.8 3.333 4 3.333h1l1 6h10l1-6h1c2.2 0 4-1.5 4-3.333v-13.333c0-1.833-1.8-3.333-4-3.333zM24 22.667c0 0.381-0.285 0.676-0.455 0.818-0.393 0.328-0.956 0.516-1.545 0.516h-14c-0.588 0-1.151-0.188-1.545-0.516-0.17-0.142-0.455-0.436-0.455-0.818v-13.333c0-0.381 0.285-0.676 0.455-0.818 0.393-0.328 0.956-0.516 1.545-0.516h14c0.588 0 1.151 0.188 1.545 0.516 0.17 0.142 0.455 0.436 0.455 0.818v13.333z"></path>
<path fill="#444444" d="M13 12h-4c-0.552 0-1 0.448-1 1s0.448 1 1 1h3v2h-3c-0.552 0-1 0.448-1 1v4c0 0.552 0.448 1 1 1h4c0.552 0 1-0.448 1-1s-0.448-1-1-1h-3v-2h3c0.552 0 1-0.448 1-1v-4c0-0.552-0.448-1-1-1z"></path>
<path fill="#444444" d="M21 12c-0.552 0-1 0.448-1 1v3h-2v-3c0-0.552-0.448-1-1-1s-1 0.448-1 1v4c0 0.552 0.448 1 1 1h3v3c0 0.552 0.448 1 1 1s1-0.448 1-1v-8c0-0.552-0.448-1-1-1z"></path>
</svg>
