<?xml version="1.0" encoding="utf-8"?>
<!-- Generated by IcoMoon.io -->
<!DOCTYPE svg PUBLIC "-//W3C//DTD SVG 1.1//EN" "http://www.w3.org/Graphics/SVG/1.1/DTD/svg11.dtd">
<svg version="1.1" xmlns="http://www.w3.org/2000/svg" xmlns:xlink="http://www.w3.org/1999/xlink" width="32" height="32" viewBox="0 0 32 32">
<path fill="#444444" d="M19 16h-3v-5c0-0.552-0.448-1-1-1s-1 0.448-1 1v6c0 0.552 0.448 1 1 1h4c0.552 0 1-0.448 1-1s-0.448-1-1-1z"></path>
<path fill="#444444" d="M28 16c0-4.843-2.87-9.015-7.001-10.911h0.001l-1-5.089h-8l-1 5.089h0.001c-4.131 1.896-7.001 6.068-7.001 10.911s2.87 9.015 7.001 10.911l-0.001 0 1 5.089h8l1-5.089h-0.001c4.131-1.896 7.001-6.068 7.001-10.911zM16 25c-4.971 0-9-4.029-9-9s4.029-9 9-9c4.971 0 9 4.029 9 9s-4.029 9-9 9z"></path>
</svg>
