<?xml version="1.0" encoding="utf-8"?>
<!-- Generated by IcoMoon.io -->
<!DOCTYPE svg PUBLIC "-//W3C//DTD SVG 1.1//EN" "http://www.w3.org/Graphics/SVG/1.1/DTD/svg11.dtd">
<svg version="1.1" xmlns="http://www.w3.org/2000/svg" xmlns:xlink="http://www.w3.org/1999/xlink" width="32" height="32" viewBox="0 0 32 32">
<path fill="#444444" d="M4.118 22.079c-0.012-0.055-0.023-0.11-0.033-0.165-2.321-0.431-4.085-2.47-4.085-4.915 0-2.456 1.78-4.503 4.118-4.921-0.078-0.353-0.118-0.715-0.118-1.079 0-2.757 2.243-5 5-5 0.436 0 0.869 0.057 1.286 0.168 0.776-2.415 3.044-4.168 5.714-4.168 2.708 0 5.028 1.814 5.76 4.316 0.718-0.208 1.47-0.316 2.24-0.316 4.411 0 8 3.589 8 8 0 1.842-0.619 3.589-1.757 5.003 1.099 1.37 1.757 3.108 1.757 4.997 0 4.411-3.589 8-8 8h-19c-2.757 0-5-2.243-5-5 0-2.456 1.78-4.503 4.118-4.921zM24 8c-1.626 0-3.148 0.64-4.286 1.801-0.387 0.395-1.020 0.401-1.414 0.014s-0.401-1.020-0.014-1.414c0.49-0.5 1.033-0.927 1.617-1.277-0.401-1.794-2.009-3.125-3.903-3.125-2.206 0-4 1.794-4 4 0 0.272 0.027 0.544 0.081 0.807 0.111 0.541-0.238 1.069-0.779 1.18-0.068 0.014-0.135 0.021-0.201 0.021-0.465 0-0.882-0.326-0.979-0.8-0.069-0.339-0.109-0.687-0.119-1.035-0.32-0.113-0.659-0.173-1.003-0.173-1.654 0-3 1.346-3 3 0 0.343 0.059 0.681 0.171 1h0.829c0.552 0 1 0.448 1 1s-0.448 1-1 1h-2c-1.654 0-3 1.346-3 3 0 1.352 0.899 2.497 2.13 2.871 0.513-2.215 2.501-3.871 4.87-3.871 0.436 0 0.869 0.057 1.286 0.168 0.776-2.415 3.044-4.168 5.714-4.168 2.708 0 5.028 1.814 5.76 4.316 0.718-0.208 1.47-0.316 2.24-0.316 1.799 0 3.461 0.597 4.799 1.603 0.779-1.034 1.201-2.286 1.201-3.603 0-3.308-2.692-6-6-6zM5 30h19c3.308 0 6-2.692 6-6s-2.692-6-6-6c-1.626 0-3.148 0.64-4.286 1.801-0.387 0.395-1.020 0.401-1.414 0.014s-0.401-1.020-0.014-1.414c0.49-0.5 1.033-0.927 1.617-1.276-0.401-1.794-2.009-3.125-3.903-3.125-2.206 0-4 1.794-4 4 0 0.272 0.027 0.544 0.081 0.807 0.111 0.541-0.238 1.069-0.779 1.18-0.068 0.014-0.135 0.020-0.201 0.020-0.465 0-0.882-0.326-0.979-0.8-0.069-0.339-0.109-0.687-0.119-1.035-0.32-0.113-0.659-0.173-1.003-0.173-1.654 0-3 1.346-3 3 0 0.343 0.059 0.681 0.171 1h0.829c0.552 0 1 0.448 1 1s-0.448 1-1 1h-2c-1.654 0-3 1.346-3 3s1.346 3 3 3z"></path>
</svg>
