<?xml version="1.0" encoding="utf-8"?>
<!-- Generated by IcoMoon.io -->
<!DOCTYPE svg PUBLIC "-//W3C//DTD SVG 1.1//EN" "http://www.w3.org/Graphics/SVG/1.1/DTD/svg11.dtd">
<svg version="1.1" xmlns="http://www.w3.org/2000/svg" xmlns:xlink="http://www.w3.org/1999/xlink" width="32" height="32" viewBox="0 0 32 32">
<path fill="#444444" d="M13 18c-2.757 0-5-2.243-5-5s2.243-5 5-5c2.757 0 5 2.243 5 5s-2.243 5-5 5zM13 20c3.866 0 7-3.134 7-7s-3.134-7-7-7c-3.866 0-7 3.134-7 7s3.134 7 7 7v0z"></path>
<path fill="#444444" d="M13 0c0.552 0 1 0.448 1 1v2c0 0.552-0.448 1-1 1s-1-0.448-1-1v-2c0-0.552 0.448-1 1-1z"></path>
<path fill="#444444" d="M22 13c0-0.552 0.448-1 1-1h2c0.552 0 1 0.448 1 1s-0.448 1-1 1h-2c-0.552 0-1-0.448-1-1z"></path>
<path fill="#444444" d="M0 13c0-0.552 0.448-1 1-1h2c0.552 0 1 0.448 1 1s-0.448 1-1 1h-2c-0.552 0-1-0.448-1-1z"></path>
<path fill="#444444" d="M8.506 25.872c-2.655 0-5.312-0.659-7.953-1.977-0.494-0.247-0.695-0.847-0.448-1.341s0.847-0.695 1.341-0.448c2.352 1.174 4.727 1.77 7.059 1.77s4.702-0.595 7.046-1.769c5.282-2.637 10.63-2.637 15.896 0 0.494 0.247 0.694 0.848 0.446 1.342s-0.848 0.694-1.342 0.446c-2.344-1.174-4.715-1.769-7.046-1.769s-4.707 0.595-7.059 1.77c-2.632 1.318-5.285 1.977-7.941 1.977z"></path>
<path fill="#444444" d="M8.506 31.872c-2.655 0-5.312-0.659-7.953-1.977-0.494-0.247-0.695-0.847-0.448-1.341s0.847-0.695 1.341-0.448c2.352 1.174 4.727 1.77 7.059 1.77s4.702-0.595 7.046-1.769c5.282-2.637 10.63-2.637 15.896 0 0.494 0.247 0.694 0.848 0.446 1.342s-0.848 0.694-1.342 0.446c-2.344-1.174-4.715-1.769-7.046-1.769s-4.707 0.595-7.059 1.77c-2.632 1.318-5.285 1.977-7.941 1.977z"></path>
<path fill="#444444" d="M21 6c-0.256 0-0.512-0.098-0.707-0.293-0.391-0.391-0.391-1.024 0-1.414l2-2c0.39-0.391 1.024-0.391 1.414 0s0.391 1.024 0 1.414l-2 2c-0.195 0.195-0.451 0.293-0.707 0.293z"></path>
<path fill="#444444" d="M5 6c-0.256 0-0.512-0.098-0.707-0.293l-2-2c-0.391-0.391-0.391-1.024 0-1.414s1.024-0.391 1.414 0l2 2c0.391 0.391 0.391 1.024 0 1.414-0.195 0.195-0.451 0.293-0.707 0.293z"></path>
</svg>
