<?xml version="1.0" encoding="utf-8"?>
<!-- Generated by IcoMoon.io -->
<!DOCTYPE svg PUBLIC "-//W3C//DTD SVG 1.1//EN" "http://www.w3.org/Graphics/SVG/1.1/DTD/svg11.dtd">
<svg version="1.1" xmlns="http://www.w3.org/2000/svg" xmlns:xlink="http://www.w3.org/1999/xlink" width="32" height="32" viewBox="0 0 32 32">
<path fill="#444444" d="M27.844 21.252c2.385 0.581 4.156 2.731 4.156 5.296 0 3.007-2.433 5.446-5.438 5.451v0h-20.508c-3.344 0-6.054-2.712-6.054-6.058s2.71-6.058 6.054-6.058c0.369 0 0.73 0.035 1.080 0.098-0.028-0.194-0.043-0.391-0.043-0.592 0-2.308 1.87-4.179 4.176-4.179 1.344 0 2.54 0.636 3.303 1.624 1.362-1.726 3.471-2.835 5.839-2.835 4.044 0 7.332 3.23 7.433 7.252v0z"></path>
<path fill="#444444" d="M11.268 13.712c1.181 0 2.303 0.358 3.242 1.014 1.513-1.336 3.429-2.119 5.473-2.216-0.252-3.637-3.281-6.51-6.983-6.51-3.866 0-7 3.134-7 7 0 1.088 0.248 2.118 0.691 3.037 1.034-1.409 2.7-2.325 4.577-2.325z"></path>
<path fill="#444444" d="M13 0c0.552 0 1 0.448 1 1v2c0 0.552-0.448 1-1 1s-1-0.448-1-1v-2c0-0.552 0.448-1 1-1z"></path>
<path fill="#444444" d="M0 13c0-0.552 0.448-1 1-1h2c0.552 0 1 0.448 1 1s-0.448 1-1 1h-2c-0.552 0-1-0.448-1-1z"></path>
<path fill="#444444" d="M21 6c-0.256 0-0.512-0.098-0.707-0.293-0.391-0.391-0.391-1.024 0-1.414l2-2c0.39-0.391 1.024-0.391 1.414 0s0.391 1.024 0 1.414l-2 2c-0.195 0.195-0.451 0.293-0.707 0.293z"></path>
<path fill="#444444" d="M5 6c-0.256 0-0.512-0.098-0.707-0.293l-2-2c-0.391-0.391-0.391-1.024 0-1.414s1.024-0.391 1.414 0l2 2c0.391 0.391 0.391 1.024 0 1.414-0.195 0.195-0.451 0.293-0.707 0.293z"></path>
</svg>
