<?xml version="1.0" encoding="utf-8"?>
<!-- Generated by IcoMoon.io -->
<!DOCTYPE svg PUBLIC "-//W3C//DTD SVG 1.1//EN" "http://www.w3.org/Graphics/SVG/1.1/DTD/svg11.dtd">
<svg version="1.1" xmlns="http://www.w3.org/2000/svg" xmlns:xlink="http://www.w3.org/1999/xlink" width="32" height="32" viewBox="0 0 32 32">
<path fill="#444444" d="M13 0c0.552 0 1 0.448 1 1v2c0 0.552-0.448 1-1 1s-1-0.448-1-1v-2c0-0.552 0.448-1 1-1z"></path>
<path fill="#444444" d="M0 13c0-0.552 0.448-1 1-1h2c0.552 0 1 0.448 1 1s-0.448 1-1 1h-2c-0.552 0-1-0.448-1-1z"></path>
<path fill="#444444" d="M21 6c-0.256 0-0.512-0.098-0.707-0.293-0.391-0.391-0.391-1.024 0-1.414l2-2c0.39-0.391 1.024-0.391 1.414 0s0.391 1.024 0 1.414l-2 2c-0.195 0.195-0.451 0.293-0.707 0.293z"></path>
<path fill="#444444" d="M5 6c-0.256 0-0.512-0.098-0.707-0.293l-2-2c-0.391-0.391-0.391-1.024 0-1.414s1.024-0.391 1.414 0l2 2c0.391 0.391 0.391 1.024 0 1.414-0.195 0.195-0.451 0.293-0.707 0.293z"></path>
<path fill="#444444" d="M24 16c-0.77 0-1.522 0.108-2.24 0.316-0.321-1.098-0.948-2.063-1.779-2.801 0.012-0.171 0.020-0.344 0.020-0.515 0-3.86-3.14-7-7-7s-7 3.14-7 7c0 1.224 0.318 2.412 0.913 3.458-1.718 0.792-2.913 2.53-2.913 4.542 0 0.365 0.040 0.727 0.118 1.079-2.338 0.418-4.118 2.465-4.118 4.921 0 2.757 2.243 5 5 5h19c2.137 0 4.146-0.832 5.657-2.343s2.343-3.52 2.343-5.657c0-4.411-3.589-8-8-8zM8 13c0-2.757 2.243-5 5-5 2.529 0 4.624 1.888 4.953 4.328-0.614-0.212-1.271-0.328-1.954-0.328-2.67 0-4.938 1.753-5.714 4.168-0.418-0.111-0.85-0.168-1.286-0.168-0 0-0 0-0 0-0.648-0.862-1-1.911-1-3zM28.243 28.243c-1.133 1.133-2.64 1.757-4.243 1.757h-19c-1.654 0-3-1.346-3-3s1.346-3 3-3h2c0.552 0 1-0.448 1-1s-0.448-1-1-1h-0.829c-0.113-0.319-0.171-0.657-0.171-1 0-1.654 1.346-3 3-3 0.343 0 0.682 0.060 1.003 0.173 0.010 0.349 0.050 0.696 0.119 1.035 0.097 0.473 0.514 0.8 0.979 0.8 0.066 0 0.134-0.007 0.201-0.020 0.541-0.111 0.89-0.639 0.779-1.18-0.054-0.264-0.081-0.535-0.081-0.807 0-2.206 1.794-4 4-4 1.894 0 3.502 1.33 3.903 3.125-0.584 0.35-1.128 0.777-1.617 1.276-0.387 0.395-0.38 1.028 0.014 1.414s1.028 0.38 1.414-0.014c0.491-0.501 1.053-0.905 1.665-1.202 0.028-0.012 0.055-0.024 0.081-0.038 0.784-0.367 1.646-0.561 2.54-0.561 3.308 0 6 2.692 6 6 0 1.603-0.624 3.109-1.757 4.243z"></path>
</svg>
