<?xml version="1.0" encoding="utf-8"?>
<!-- Generated by IcoMoon.io -->
<!DOCTYPE svg PUBLIC "-//W3C//DTD SVG 1.1//EN" "http://www.w3.org/Graphics/SVG/1.1/DTD/svg11.dtd">
<svg version="1.1" xmlns="http://www.w3.org/2000/svg" xmlns:xlink="http://www.w3.org/1999/xlink" width="32" height="32" viewBox="0 0 32 32">
<path fill="#444444" d="M8.506 25.872c-2.655 0-5.312-0.659-7.953-1.977-0.494-0.247-0.695-0.847-0.448-1.341s0.847-0.695 1.341-0.448c2.352 1.174 4.727 1.77 7.059 1.77s4.702-0.595 7.046-1.769c5.282-2.637 10.63-2.637 15.896 0 0.494 0.247 0.694 0.848 0.446 1.342s-0.848 0.694-1.342 0.446c-2.344-1.174-4.715-1.769-7.046-1.769s-4.707 0.595-7.059 1.77c-2.632 1.318-5.285 1.977-7.941 1.977z"></path>
<path fill="#444444" d="M8.506 31.872c-2.655 0-5.312-0.659-7.953-1.977-0.494-0.247-0.695-0.847-0.448-1.341s0.847-0.695 1.341-0.448c2.352 1.174 4.727 1.77 7.059 1.77s4.702-0.595 7.046-1.769c5.282-2.637 10.63-2.637 15.896 0 0.494 0.247 0.694 0.848 0.446 1.342s-0.848 0.694-1.342 0.446c-2.344-1.174-4.715-1.769-7.046-1.769s-4.707 0.595-7.059 1.77c-2.632 1.318-5.285 1.977-7.941 1.977z"></path>
<path fill="#444444" d="M27.844 7.252c2.385 0.581 4.156 2.731 4.156 5.296 0 3.007-2.433 5.446-5.438 5.451v0h-20.508c-3.344 0-6.054-2.712-6.054-6.058s2.71-6.058 6.054-6.058c0.369 0 0.73 0.035 1.080 0.098-0.028-0.194-0.043-0.391-0.043-0.592 0-2.308 1.87-4.179 4.176-4.179 1.344 0 2.54 0.636 3.303 1.624 1.362-1.726 3.471-2.835 5.839-2.835 4.044 0 7.332 3.23 7.433 7.252v0z"></path>
</svg>
