<?xml version="1.0" encoding="utf-8"?>
<!-- Generated by IcoMoon.io -->
<!DOCTYPE svg PUBLIC "-//W3C//DTD SVG 1.1//EN" "http://www.w3.org/Graphics/SVG/1.1/DTD/svg11.dtd">
<svg version="1.1" xmlns="http://www.w3.org/2000/svg" xmlns:xlink="http://www.w3.org/1999/xlink" width="32" height="32" viewBox="0 0 32 32">
<path fill="#444444" d="M5.268 15.923c0.66-2.701 3.1-4.711 6-4.711 1.152 0 2.252 0.313 3.203 0.892 1.663-1.354 3.743-2.103 5.94-2.103 2.479 0 4.82 0.954 6.593 2.688 1.429 1.397 2.362 3.176 2.7 5.111 0.289 0.136 0.569 0.29 0.838 0.461 0.905-0.973 1.458-2.278 1.458-3.712 0-2.565-1.771-4.716-4.156-5.296-0.101-4.022-3.389-7.252-7.433-7.252-2.369 0-4.477 1.109-5.839 2.835-0.764-0.987-1.959-1.624-3.303-1.624-2.307 0-4.176 1.871-4.176 4.179 0 0.201 0.015 0.399 0.043 0.592-0.351-0.063-0.711-0.098-1.080-0.098-3.344-0-6.054 2.712-6.054 6.058 0 1.344 0.438 2.586 1.178 3.591 1.158-0.884 2.562-1.462 4.090-1.61z"></path>
<path fill="#444444" d="M27.844 19.252c2.385 0.581 4.156 2.731 4.156 5.296 0 3.007-2.433 5.446-5.438 5.451v0h-20.508c-3.344 0-6.054-2.712-6.054-6.058s2.71-6.058 6.054-6.058c0.369 0 0.73 0.035 1.080 0.098-0.028-0.194-0.043-0.391-0.043-0.592 0-2.308 1.87-4.179 4.176-4.179 1.344 0 2.54 0.636 3.303 1.624 1.362-1.726 3.471-2.835 5.839-2.835 4.044 0 7.332 3.23 7.433 7.252v0z"></path>
</svg>
