<?xml version="1.0" encoding="utf-8"?>
<!-- Generated by IcoMoon.io -->
<!DOCTYPE svg PUBLIC "-//W3C//DTD SVG 1.1//EN" "http://www.w3.org/Graphics/SVG/1.1/DTD/svg11.dtd">
<svg version="1.1" xmlns="http://www.w3.org/2000/svg" xmlns:xlink="http://www.w3.org/1999/xlink" width="32" height="32" viewBox="0 0 32 32">
<path fill="#444444" d="M27.844 9.252c2.385 0.581 4.156 2.731 4.156 5.296 0 3.007-2.433 5.446-5.438 5.451v0h-20.508c-3.344 0-6.054-2.712-6.054-6.058s2.71-6.058 6.054-6.058c0.369 0 0.73 0.035 1.080 0.098-0.028-0.194-0.043-0.391-0.043-0.592 0-2.308 1.87-4.179 4.176-4.179 1.344 0 2.54 0.636 3.303 1.624 1.362-1.726 3.471-2.835 5.839-2.835 4.044 0 7.332 3.23 7.433 7.252v0z"></path>
<path fill="#444444" d="M27.997 28.898c-0.009-0.259-0.050-0.509-0.12-0.748-0.564-2.294-2.877-6.15-2.877-6.15s-2.313 3.856-2.877 6.15c-0.070 0.238-0.112 0.489-0.12 0.748-0.002 0.035-0.003 0.069-0.003 0.102 0 1.657 1.343 3 3 3s3-1.343 3-3c0-0.033-0.001-0.067-0.003-0.102z"></path>
<path fill="#444444" d="M18.997 26.898c-0.009-0.259-0.050-0.509-0.12-0.748-0.564-2.294-2.877-6.15-2.877-6.15s-2.313 3.856-2.877 6.15c-0.070 0.238-0.112 0.489-0.12 0.748-0.002 0.035-0.003 0.069-0.003 0.102 0 1.657 1.343 3 3 3s3-1.343 3-3c0-0.033-0.001-0.067-0.003-0.102z"></path>
<path fill="#444444" d="M9.997 28.898c-0.009-0.259-0.050-0.509-0.12-0.748-0.564-2.294-2.877-6.15-2.877-6.15s-2.313 3.856-2.877 6.15c-0.070 0.238-0.112 0.489-0.12 0.748-0.002 0.035-0.003 0.069-0.003 0.102 0 1.657 1.343 3 3 3s3-1.343 3-3c0-0.033-0.001-0.067-0.003-0.102z"></path>
</svg>
