<?xml version="1.0" encoding="utf-8"?>
<!-- Generated by IcoMoon.io -->
<!DOCTYPE svg PUBLIC "-//W3C//DTD SVG 1.1//EN" "http://www.w3.org/Graphics/SVG/1.1/DTD/svg11.dtd">
<svg version="1.1" xmlns="http://www.w3.org/2000/svg" xmlns:xlink="http://www.w3.org/1999/xlink" width="32" height="32" viewBox="0 0 32 32">
<path fill="#444444" d="M24 6c-0.77 0-1.522 0.108-2.24 0.316-0.732-2.502-3.052-4.316-5.76-4.316-2.67 0-4.938 1.753-5.714 4.168-0.418-0.111-0.85-0.168-1.286-0.168-2.757 0-5 2.243-5 5 0 0.365 0.040 0.727 0.118 1.079-2.338 0.418-4.118 2.465-4.118 4.921 0 2.757 2.243 5 5 5h6c0.552 0 1-0.448 1-1s-0.448-1-1-1h-6c-1.654 0-3-1.346-3-3s1.346-3 3-3h2c0.552 0 1-0.448 1-1s-0.448-1-1-1h-0.829c-0.113-0.319-0.171-0.657-0.171-1 0-1.654 1.346-3 3-3 0.343 0 0.683 0.060 1.003 0.173 0.010 0.349 0.050 0.696 0.119 1.035 0.097 0.473 0.514 0.8 0.979 0.8 0.066 0 0.134-0.007 0.201-0.021 0.541-0.111 0.89-0.639 0.779-1.18-0.054-0.264-0.081-0.535-0.081-0.807 0-2.206 1.794-4 4-4 1.894 0 3.502 1.33 3.903 3.125-0.584 0.35-1.128 0.777-1.617 1.277-0.387 0.395-0.38 1.028 0.014 1.414s1.028 0.38 1.414-0.014c1.138-1.161 2.66-1.801 4.286-1.801 3.308 0 6 2.692 6 6 0 1.603-0.624 3.109-1.757 4.243s-2.64 1.757-4.243 1.757h-1c-0.552 0-1 0.448-1 1s0.448 1 1 1h1c2.137 0 4.146-0.832 5.657-2.343s2.343-3.52 2.343-5.657c0-4.411-3.589-8-8-8z"></path>
<path fill="#444444" d="M17 30c-0.105 0-0.211-0.017-0.316-0.052-0.524-0.175-0.807-0.741-0.632-1.265l1.561-4.684h-2.613c-0.321 0-0.623-0.155-0.811-0.415s-0.239-0.596-0.137-0.901l2-6c0.175-0.524 0.741-0.807 1.265-0.632s0.807 0.741 0.632 1.265l-1.561 4.684h2.613c0.322 0 0.623 0.155 0.811 0.415s0.239 0.596 0.137 0.901l-2 6c-0.14 0.419-0.53 0.684-0.948 0.684z"></path>
</svg>
