<?xml version="1.0" encoding="utf-8"?>
<!-- Generated by IcoMoon.io -->
<!DOCTYPE svg PUBLIC "-//W3C//DTD SVG 1.1//EN" "http://www.w3.org/Graphics/SVG/1.1/DTD/svg11.dtd">
<svg version="1.1" xmlns="http://www.w3.org/2000/svg" xmlns:xlink="http://www.w3.org/1999/xlink" width="32" height="32" viewBox="0 0 32 32">
<path fill="#444444" d="M4.257 1.257l3.743 3.743-4 4-3.743-3.743c-0.167 0.552-0.257 1.136-0.257 1.743 0 3.314 2.686 6 6 6 0.606 0 1.191-0.090 1.743-0.257l11.515 11.515c-0.167 0.552-0.257 1.137-0.257 1.743 0 3.314 2.686 6 6 6 0.606 0 1.191-0.090 1.743-0.257l-3.743-3.743 4-4 3.743 3.743c0.167-0.552 0.257-1.137 0.257-1.743 0-3.314-2.686-6-6-6-0.606 0-1.191 0.090-1.743 0.257l-11.515-11.515c0.167-0.552 0.257-1.137 0.257-1.743 0-3.314-2.686-6-6-6-0.606 0-1.191 0.090-1.743 0.257z"></path>
</svg>
